<?xml version="1.0" encoding="UTF-8" standalone="no"?>
<svg width="43px" height="50px" viewBox="0 0 43 50" version="1.1" xmlns="http://www.w3.org/2000/svg" xmlns:xlink="http://www.w3.org/1999/xlink">
    <!-- Generator: Sketch 41.2 (35397) - http://www.bohemiancoding.com/sketch -->
    <title>icon</title>
    <desc>Created with Sketch.</desc>
    <defs></defs>
    <g id="Page-1" stroke="none" stroke-width="1" fill="none" fill-rule="evenodd">
        <g id="DesktopHD_Round7_ClientGuides" transform="translate(-389.000000, -467.000000)">
            <g id="page" transform="translate(390.000000, 424.000000)">
                <g id="icon" transform="translate(0.000000, 44.000000)">
                    <polygon id="Polygon" stroke="#483366;" stroke-width="0.5" points="20.7578231 0 41.5156463 12 41.5156463 36 20.7578231 48 -8.74855743e-13 36 -8.8817842e-13 12"></polygon>
                    <path d="M10.4565112,32.5813224 L13.7595146,32.5813224 C14.3395535,31.4287749 14.9193718,30.2761199 15.4994896,29.123612 L17.2407468,32.5813224 L20.2693547,32.5813224 L17.0137935,26.1154676 C18.2473377,23.6651649 19.4807883,21.2148158 20.7142857,18.76449 C21.9472083,21.2147755 23.1811673,23.6642501 24.4147779,26.1141941 L21.1592167,32.5813224 L24.1878246,32.5813224 L25.9290818,29.1223384 C26.5094257,30.275112 27.0890084,31.4283391 27.6690569,32.5813224 L30.9720603,32.5813224 C27.4175621,25.5239242 23.7613785,18.2601377 20.7142857,12.2043919 C17.0396927,19.4987017 13.7074258,26.1340299 10.4565112,32.5813224 Z" id="path3004" fill="#483366;"></path>
                </g>
            </g>
        </g>
    </g>
</svg>