<?xml version="1.0" encoding="UTF-8" standalone="no"?>
<svg width="98px" height="112px" viewBox="0 0 98 112" version="1.1" xmlns="http://www.w3.org/2000/svg" xmlns:xlink="http://www.w3.org/1999/xlink">
    <!-- Generator: Sketch 41.2 (35397) - http://www.bohemiancoding.com/sketch -->
    <title>bounty</title>
    <desc>Created with Sketch.</desc>
    <defs></defs>
    <g id="Page-1" stroke="none" stroke-width="1" fill="none" fill-rule="evenodd">
        <g id="DesktopHD_Round4_Landing_B" transform="translate(-761.000000, -978.000000)">
            <g id="content" transform="translate(390.000000, 424.000000)">
                <g transform="translate(300.000000, 555.000000)" id="bounty">
                    <g transform="translate(72.000000, 0.000000)">
                        <polygon id="Polygon" stroke="#483366;" points="48 0 96 27.5 96 82.5 48 110 1.21858079e-12 82.5 1.18749455e-12 27.5"></polygon>
                        <g id="algoCoin" transform="translate(23.000000, 21.000000)">
                            <g id="coinBag">
                                <g id="Layer_1" transform="translate(13.639344, 31.475410)">
                                    <path d="M10.4791286,0.010738255 C4.69184289,0.010738255 0,4.70258114 0,10.4898669 C0,16.2771526 4.69184289,20.9689955 10.4791286,20.9689955 C16.2664143,20.9689955 20.9582572,16.2771526 20.9582572,10.4898669 C20.9582572,4.70258114 16.2664143,0.010738255 10.4791286,0.010738255 Z M10.4791286,19.9036198 C5.28008802,19.9036198 1.06537573,15.6889075 1.06537573,10.4898669 C1.06537573,5.29082627 5.28008802,1.07611398 10.4791286,1.07611398 C15.6781692,1.07611398 19.8928815,5.29082627 19.8928815,10.4898669 C19.8928815,15.6889075 15.6781692,19.9036198 10.4791286,19.9036198 Z" id="Shape" fill="#483366;"></path>
                                    <path d="M10.4791286,2.45585653 C6.04225767,2.45585653 2.44511827,6.05299593 2.44511827,10.4898669 C2.44511827,14.9267378 6.04225767,18.5238772 10.4791286,18.5238772 C14.9159996,18.5238772 18.513139,14.9267378 18.513139,10.4898669 C18.513139,6.05299593 14.9159996,2.45585653 10.4791286,2.45585653 Z" id="Shape" stroke="#483366;"></path>
                                    <polygon id="Path" fill="#483366;" points="13.5418198 14.5809308 12.8613665 13.2263263 12.2870987 14.5809308 11.0603323 14.5809308 12.1606337 11.8514776 10.6565387 8.82230388 9.15244361 11.8514776 10.2527451 14.5809308 9.02597866 14.5809308 8.45171086 13.2263263 7.77196171 14.5809308 6.3942964 14.5809308 10.6565035 6.05581252 14.9187105 14.5809308"></polygon>
                                </g>
                                <path d="M24.126339,19.3039266 L38.9285878,4.05170169 C38.9285878,4.05170169 33.6007558,0 24.126339,0 C14.6519222,1.5039663e-15 10.2499196,4.35887387 10.2499196,4.35887387 L19.5844078,14.8032072 C19.5844078,14.8032072 15.0344406,18.0647565 11.0401332,22.3924206 C7.04582589,26.7200847 3.79848477,31.8897614 2.90989423,34.2571258 C1.11190668,39.0472866 -2.62447629,49.1830102 2.90989423,57.5197877 C8.44426476,65.8565653 40.0259736,66.0209335 45.8189686,57.5197877 C51.6119637,49.0186419 48.9814083,41.3263988 45.8189686,34.2571258 C44.2459144,30.7407427 40.5492748,25.5013444 36.9619191,21.6199377 C33.3745633,17.738531 28.5753343,14.8032072 28.5753343,14.8032072" id="Path-4" stroke="#483366;" stroke-linecap="round" stroke-linejoin="round"></path>
                            </g>
                        </g>
                    </g>
                </g>
            </g>
        </g>
    </g>
</svg>