<?xml version="1.0" encoding="UTF-8" standalone="no"?>
<svg width="20px" height="21px" viewBox="0 0 20 21" version="1.1" xmlns="http://www.w3.org/2000/svg" xmlns:xlink="http://www.w3.org/1999/xlink">
    <g id="Page-1" stroke="none" stroke-width="1" fill="none" fill-rule="evenodd">
        <path d="M10,0.25 C11.3802152,0.25 12.6790304,0.51041406 13.8964844,1.03125 C15.1139384,1.55208594 16.1751257,2.26496943 17.0800781,3.16992188 C17.9850306,4.07487432 18.6979141,5.13606162 19.21875,6.35351562 C19.7395859,7.57096963 20,8.8697848 20,10.25 C20,11.6302152 19.7395859,12.9290304 19.21875,14.1464844 C18.6979141,15.3639384 17.9850306,16.4251257 17.0800781,17.3300781 C16.1751257,18.2350306 15.1139384,18.9479141 13.8964844,19.46875 C12.6790304,19.9895859 11.3802152,20.25 10,20.25 C8.61978477,20.25 7.32096963,19.9895859 6.10351562,19.46875 C4.88606162,18.9479141 3.82487432,18.2350306 2.91992188,17.3300781 C2.01496943,16.4251257 1.30208594,15.3639384 0.78125,14.1464844 C0.260414062,12.9290304 0,11.6302152 0,10.25 C0,8.8697848 0.260414062,7.57096963 0.78125,6.35351562 C1.30208594,5.13606162 2.01496943,4.07487432 2.91992188,3.16992188 C3.82487432,2.26496943 4.88606162,1.55208594 6.10351562,1.03125 C7.32096963,0.51041406 8.61978477,0.25 10,0.25 Z M10,19.0195312 C11.2109436,19.0195312 12.3469999,18.7884138 13.4082031,18.3261719 C14.4694063,17.86393 15.3938763,17.2356811 16.1816406,16.4414062 C16.969405,15.6471314 17.5943987,14.7194063 18.0566406,13.6582031 C18.5188825,12.5969999 18.75,11.4609436 18.75,10.25 C18.75,9.0390564 18.5188825,7.9030001 18.0566406,6.84179688 C17.5943987,5.78059365 16.969405,4.85612373 16.1816406,4.06835938 C15.3938763,3.28059502 14.4694063,2.65560127 13.4082031,2.19335938 C12.3469999,1.73111748 11.2109436,1.5 10,1.5 C8.78905645,1.5 7.6530001,1.73111748 6.59179688,2.19335938 C5.53059365,2.65560127 4.60612373,3.28059502 3.81835938,4.06835938 C3.03059502,4.85612373 2.40560127,5.78059365 1.94335938,6.84179688 C1.48111748,7.9030001 1.25,9.0390564 1.25,10.25 C1.25,11.4609436 1.48111748,12.5969999 1.94335938,13.6582031 C2.40560127,14.7194063 3.03059502,15.6471314 3.81835938,16.4414062 C4.60612373,17.2356811 5.53059365,17.86393 6.59179688,18.3261719 C7.6530001,18.7884138 8.78905645,19.0195312 10,19.0195312 Z M13.984375,6.59765625 C14.114584,6.46744727 14.2643221,6.40234375 14.4335938,6.40234375 C14.6028654,6.40234375 14.7526035,6.46744727 14.8828125,6.59765625 C15.0000006,6.71484434 15.0585938,6.86132725 15.0585938,7.03710938 C15.0585938,7.2128915 15.0000006,7.35937441 14.8828125,7.4765625 L8.65234375,13.7460938 L8.57421875,13.8242188 C8.45703066,13.9544277 8.31054775,14.0195312 8.13476562,14.0195312 C7.9589835,14.0195312 7.81250059,13.9544277 7.6953125,13.8242188 L4.58984375,10.7382812 C4.47265566,10.6210932 4.4140625,10.4746103 4.4140625,10.2988281 C4.4140625,10.123046 4.47265566,9.9765631 4.58984375,9.859375 C4.72005273,9.729166 4.86979082,9.6640625 5.0390625,9.6640625 C5.20833418,9.6640625 5.35807227,9.729166 5.48828125,9.859375 L8.125,12.4960938 L13.984375,6.59765625 Z" id="check-simple" fill="#0050BE" fill-rule="nonzero"></path>
    </g>
</svg>