<svg height="15" viewBox="0 0 14 15" width="14" xmlns="http://www.w3.org/2000/svg"><path d="m73.9553571 25.4285714c.2083344 0 .3869041.074404.5357143.2232143.1488103.1488103.2232143.3273799.2232143.5357143v12.1964286c0 .2083343-.074404.386904-.2232143.5357143-.1488102.1488102-.3273799.2232142-.5357143.2232142h-3.4910714v-5.3125h1.7767857l.2678572-2.0714285h-2.0446429v-1.3214286c0-.333335.0699398-.5833325.2098214-.75.1398817-.1666675.4122004-.25.8169643-.25l1.0892857-.0089286v-1.8482143c-.3750018-.0535717-.9047584-.0803571-1.5892857-.0803571-.8095278 0-1.4568428.2380929-1.9419643.7142857-.4851214.4761929-.7276785 1.1488052-.7276785 2.0178572v1.5267857h-1.7857143v2.0714285h1.7857143v5.3125h-6.5625c-.2083344 0-.386904-.074404-.5357143-.2232142-.1488103-.1488103-.2232143-.32738-.2232143-.5357143v-12.1964286c0-.2083344.074404-.386904.2232143-.5357143s.3273799-.2232143.5357143-.2232143z" fill-rule="evenodd" transform="translate(-61 -25)"/></svg>