<svg height="14" viewBox="0 0 14 14" width="14" xmlns="http://www.w3.org/2000/svg"><path d="m3.41071429 26.3482143c1.05357669-.6130983 2.20237473-.9196429 3.44642857-.9196429s2.39136379.3065446 3.44196424.9196429c1.0506005.6130983 1.8824375 1.4449352 2.4955358 2.4955357s.9196428 2.1979104.9196428 3.4419643c0 1.4940551-.4360075 2.8377916-1.3080357 4.03125-.8720282 1.1934583-1.998505 2.0193429-3.37946429 2.4776786-.16071509.029762-.27976151.0089289-.35714285-.0625-.07738134-.071429-.11607143-.1607138-.11607143-.2678572 0-.0178572.00148808-.2455335.00446428-.6830357.00297621-.4375022.00446429-.8377958.00446429-1.2008929 0-.5773838-.15476036-.9999986-.46428571-1.2678571.33928741-.0357145.64434388-.0892854.91517857-.1607143.27083468-.0714289.55059379-.1874992.83928571-.3482143.28869193-.1607151.52976093-.3586297.72321433-.59375.1934533-.2351202.3511898-.5476171.4732142-.9375.1220245-.3898829.1830358-.8377951.1830358-1.34375 0-.7083368-.2351167-1.321426-.7053572-1.8392857.2202392-.5416694.1964299-1.1488061-.0714286-1.8214286-.1666675-.0535717-.4077365-.0208339-.72321424.0982143-.31547777.1190482-.58928456.2499993-.82142857.3928572l-.33928572.2142857c-.5535742-.1547627-1.12499705-.2321429-1.71428571-.2321429s-1.16071152.0773802-1.71428572.2321429c-.09523857-.0654765-.2217254-.1458329-.37946428-.2410714-.15773889-.0952386-.40624831-.2098208-.74553572-.34375-.33928741-.1339293-.59226107-.1741075-.75892857-.1205358-.26785848.6726225-.29166777 1.2797592-.07142857 1.8214286-.47024045.5178597-.70535714 1.1309489-.70535714 1.8392857 0 .5059549.06101129.952379.18303571 1.3392857s.27827286.6994036.46875.9375c.19047714.2380965.43005808.4374992.71875.5982143s.56845103.2767854.83928572.3482143c.27083468.0714289.57589116.1249998.91517857.1607143-.23214402.2142868-.3779759.5208313-.4375.9196429-.12500063.0595241-.25892786.1041665-.40178572.1339285-.14285785.0297621-.31249902.0446429-.50892857.0446429s-.39136808-.0639875-.58482143-.1919643-.35863027-.3139869-.49553571-.5580357c-.11309581-.1904772-.2574396-.3452375-.43303572-.4642857-.17559611-.1190482-.32291607-.1904761-.44196428-.2142857l-.17857143-.0267858c-.12500062 0-.21130929.0133928-.25892857.0401786-.04761929.0267859-.06250009.0610117-.04464286.1026786s.04464268.0833331.08035714.125c.03571447.0416669.07440456.0773808.11607143.1071428l.0625.0446429c.13095304.0595241.26041603.1726182.38839286.3392857s.22172589.3184517.28125.4553572l.08928571.2053571c.07738134.2261916.20833241.4092255.39285715.5491071.18452473.1398817.3839275.2291665.59821428.2678572.21428679.0386907.42112996.0595238.62053572.0625s.36458268-.0074404.49553571-.03125l.20535714-.0357143c0 .2261916.00148808.4895818.00446429.7901786.00297621.3005967.00446429.4627975.00446429.4866071 0 .1071434-.03869009.1964282-.11607143.2678572-.07738134.0714289-.19642777.092262-.35714286.0625-1.38095929-.4583357-2.50743612-1.2842203-3.37946429-2.4776786-.87202816-1.1934584-1.30803571-2.5371949-1.30803571-4.03125 0-1.2440539.30654455-2.3913638.91964286-3.4419643.6130983-1.0506005 1.44344714-1.8824374 2.49107143-2.4955357zm-.8125 8.9285714c-.02380965.0476193-.06249974.0535716-.11607143.0178572-.05952411-.0297621-.08035723-.065476-.0625-.1071429.01785723-.0297621.05654732-.0357144.11607143-.0178571.0595241.029762.08035723.0654759.0625.1071428zm.27678571.3035714c-.03571446.0416669-.08333304.0327384-.14285714-.0267857-.0535717-.0654765-.05952402-.1130951-.01785715-.1428571.03571447-.0357145.08333304-.026786.14285715.0267857.05357169.0654765.05952401.1130951.01785714.1428571zm.26785714.4017858c-.04761928.0357144-.09821402.0148813-.15178571-.0625-.0535717-.0773814-.0535717-.1309523 0-.1607143.05357169-.0416669.10416643-.0238099.15178571.0535714.0535717.0714289.0535717.127976 0 .1696429zm.375.375c-.04761928.0535717-.1071425.0446432-.17857143-.0267858-.07738134-.0654765-.08928598-.1220235-.03571428-.1696428.04761928-.0535717.1071425-.0446432.17857143.0267857.07142893.0654765.08333357.1220236.03571428.1696429zm.50892857.2232142c-.02380964.071429-.08035669.0892859-.16964285.0535715-.10119098-.0238097-.13988107-.0684521-.11607143-.1339286s.08035669-.0863096.16964286-.0625c.09523857.0297621.13392866.0773806.11607142.1428571zm.5625.0446429c0 .0654765-.04761857.0982143-.14285714.0982143-.10119098.0119048-.15178571-.020833-.15178571-.0982143 0-.0654765.04761857-.0982143.14285714-.0982143.10119098-.0119048.15178571.020833.15178571.0982143zm.51785715-.0892857c.01190482.0595241-.02976143.1011903-.125.125-.09523857.0238096-.14880947.0000003-.16071429-.0714286s.02976143-.1160713.125-.1339286c.09523857-.0119048.14880947.0148807.16071429.0803572z" fill-rule="evenodd" transform="translate(0 -25)"/></svg>