<svg height="14" viewBox="0 0 10 14" width="10" xmlns="http://www.w3.org/2000/svg"><path d="m7.89607843 11.9926761h-7.89607843c0 1.1042253.88235294 1.9974647 1.9745098 1.9974647h5.92156863c1.09019608 0 1.97254902-.8952112 1.97254902-1.9974647v-8.20676061c0-.03943662-.03137255-.07492957-.07058823-.07492957h-1.83137255c-.03921569 0-.07058824.03352112-.07058824.07295774v8.20676054zm0-11.9926761c1.09019608 0 1.97254902.89521127 1.97254902 1.99943662h-7.89411765v8.20676058c0 .0394366-.03333333.0729577-.07254902.0729577h-1.82941176c-.03921569 0-.07254902-.0335211-.07254902-.0729577v-8.20676058c0-1.10422535.88235294-1.99943662 1.9745098-1.99943662z"/></svg>