<?xml version="1.0" encoding="UTF-8" standalone="no"?>
<svg width="75px" height="86px" viewBox="0 0 75 86" version="1.1" xmlns="http://www.w3.org/2000/svg" xmlns:xlink="http://www.w3.org/1999/xlink">
    <!-- Generator: Sketch 41.2 (35397) - http://www.bohemiancoding.com/sketch -->
    <title>hexicon_recipe</title>
    <desc>Created with Sketch.</desc>
    <defs></defs>
    <g id="Page-1" stroke="none" stroke-width="1" fill="none" fill-rule="evenodd">
        <g id="DesktopHD_Round7_Landing" transform="translate(-407.000000, -1236.000000)">
            <g id="recipes" transform="translate(392.000000, 1221.000000)">
                <g id="hexicon_recipe" transform="translate(16.000000, 16.000000)">
                    <polygon id="Polygon" stroke="#FFFFFF" stroke-width="0.763636364" points="36.3261905 0 72.652381 21 72.652381 63 36.3261905 84 -4.4408921e-13 63 -4.67181849e-13 21"></polygon>
                    <g id="recipe" transform="translate(18.000000, 18.000000)">
                        <path d="M36.4681867,12.06184 C36.44352,12.00206 36.4070133,11.94816 36.3616267,11.90308 L24.5226133,0.14406 C24.4772267,0.09898 24.42296,0.06272 24.3627733,0.03822 C24.3035733,0.01372 24.2384533,0 24.1733333,0 L0.493333333,0 C0.221013333,0 0,0.21952 0,0.49 L0,47.53 C0,47.80048 0.221013333,48.02 0.493333333,48.02 L36.0133333,48.02 C36.2856533,48.02 36.5066667,47.80048 36.5066667,47.53 L36.5066667,12.25 C36.5066667,12.18434 36.4928533,12.12064 36.4681867,12.06184 Z M24.6666667,1.67286 L34.8224267,11.76 L24.6666667,11.76 L24.6666667,1.67286 Z M0.986666667,47.04 L0.986666667,0.98 L23.68,0.98 L23.68,12.25 C23.68,12.52048 23.9010133,12.74 24.1733333,12.74 L35.52,12.74 L35.52,47.04 L0.986666667,47.04 Z" id="Shape" fill="#FFFFFF"></path>
                        <g id="Group" transform="translate(5.000000, 14.000000)" stroke="#FFFFFF">
                            <g id="spoon" transform="translate(23.836066, 13.500000) scale(-1, 1) translate(-23.836066, -13.500000) translate(20.836066, 0.500000)">
                                <path d="M3.04918033,9.09064615 L3.04918033,25.5" id="Path-6" stroke-linecap="round"></path>
                                <path d="M3.05875465,8.71564031 C1.45015053,8.71564031 0.0184268871,7.69160545 0.0184268871,5.49871591 C0.0184268871,3.30582636 1.51018205,0.076754138 2.9792858,0.0625226354 C4.44838955,0.0482911327 5.94721443,3.591038 5.94016129,5.49871591 C5.93310816,7.40639381 4.66735877,8.71564031 3.05875465,8.71564031 Z" id="Path"></path>
                            </g>
                            <path d="M2.55245902,8.55 C3.97540984,8.55 5.09344262,7.4 5.09344262,6.05 L5.09344262,0.9 L5.09344262,6.05 C5.09344262,7.4 4.02622951,8.55 2.55245902,8.55 L2.55245902,26.4 L2.55245902,8.55 C1.18032787,8.55 0.0114754098,7.5 0.0114754098,6.05 L0.0114754098,0.9 L0.0114754098,6.05 C0.0114754098,7.45 1.18032787,8.55 2.55245902,8.55 L2.55245902,0.9 L2.55245902,8.55 Z" id="fork" stroke-linecap="round" stroke-linejoin="round" transform="translate(2.552459, 13.650000) rotate(-360.000000) translate(-2.552459, -13.650000) "></path>
                        </g>
                        <path d="M18.5,20 C16.1715364,24.622154 14.0599931,28.826734 12,32.9121622 L14.093,32.9121622 C14.4605508,32.1818323 14.8279617,31.4514344 15.1955625,30.7211296 L16.2989375,32.9121622 L18.2180625,32.9121622 L16.155125,28.8149717 C16.9367796,27.2622989 17.718375,25.7095967 18.5,24.1569092 C19.2812608,25.7095711 20.0631783,27.2617192 20.844875,28.8141647 L18.7819375,32.9121622 L20.7010625,32.9121622 L21.8044375,30.7203226 C22.1721815,31.4507957 22.5394432,32.1815562 22.907,32.9121622 L25,32.9121622 C22.7476364,28.4401309 20.4308382,23.8373185 18.5,20 L18.5,20 L18.5,20 Z" id="path3004" fill="#FFFFFF"></path>
                    </g>
                </g>
            </g>
        </g>
    </g>
</svg>