<svg height="14" viewBox="0 0 14 14" width="14" xmlns="http://www.w3.org/2000/svg"><path d="m94.1160714 29.8660714v8.8482143h-2.9464285v-8.8482143zm.1875-2.7321428c.0059524.434526-.1443437.7976176-.4508928 1.0892857-.3065492.2916681-.709819.4375-1.2098215.4375h-.0178571c-.4880977 0-.8809509-.1458319-1.1785714-.4375-.2976206-.2916681-.4464286-.6547597-.4464286-1.0892857 0-.4404784.1532723-.8050581.4598214-1.09375.3065492-.2886919.7068428-.4330357 1.2008929-.4330357s.8898795.1443438 1.1875.4330357.4494047.6532716.4553571 1.09375zm4.375 3.9894994c.1133855-.1787057.2294559-.3359184.3482143-.4716423.1250006-.1428578.2931537-.2976182.5044643-.4642857s.470237-.2961305.776786-.3883929c.306549-.0922623.647319-.1383928 1.022321-.1383928 1.017862 0 1.836307.3377942 2.455357 1.0133928.619051.6755987.928572 1.6651721.928572 2.96875v5.0714286h-2.9375v-4.7321428c0-.6250032-.120535-1.1145816-.361607-1.46875-.241073-.3541685-.617557-.53125-1.129465-.53125-.3750016 0-.6889865.1026775-.941964.3080357-.2529775.2053581-.4419637.4598199-.5669643.7633928-.0654765.1785723-.0982143.4196414-.0982143.7232143v4.9375h-2.9375c.0119049-2.3750119.0178572-4.3005878.0178572-5.7767857s-.0029762-2.3571414-.0089286-2.6428571l-.0089286-.4285715h2.9375z" fill-rule="evenodd" transform="translate(-91 -25)"/></svg>