<?xml version="1.0" encoding="UTF-8"?>
<svg width="56px" height="56px" viewBox="0 0 56 56" version="1.1" xmlns="http://www.w3.org/2000/svg" xmlns:xlink="http://www.w3.org/1999/xlink">
    <!-- Generator: Sketch 60.1 (88133) - https://sketch.com -->
    <title>rocket</title>
    <desc>Created with Sketch.</desc>
    <g id="DevCenter" stroke="none" stroke-width="1" fill="none" fill-rule="evenodd">
        <g id="rocket">
            <circle id="Oval" fill="#1A73E8" cx="28" cy="28" r="28"></circle>
            <path d="M25.5714286,43 C25.6785714,43 25.7738095,42.9761905 25.8571429,42.9285714 L25.8571429,42.9285714 L32.7142857,38.9285714 C32.8809524,38.8095238 32.9761905,38.6547619 33,38.4642857 L33,38.4642857 L33.3571429,31.6964286 C34.7142857,30.5535714 35.875,29.5059524 36.8392857,28.5535714 C38.9583333,26.422619 40.4672619,24.2767857 41.3660714,22.1160714 C42.264881,19.9553571 42.7142857,17.3928571 42.7142857,14.4285714 C42.7142857,14.2738095 42.6547619,14.139881 42.5357143,14.0267857 C42.4166667,13.9136905 42.2738095,13.8571429 42.1071429,13.8571429 C39,13.8571429 36.4345238,14.2797619 34.4107143,15.125 C32.3869048,15.9702381 30.2559524,17.5059524 28.0178571,19.7321429 C27.0654762,20.6964286 26.0178571,21.8571429 24.875,23.2142857 L24.875,23.2142857 L18.1071429,23.5714286 C17.9166667,23.5952381 17.7619048,23.6904762 17.6428571,23.8571429 L17.6428571,23.8571429 L13.6428571,30.7142857 C13.5,30.952381 13.5297619,31.1845238 13.7321429,31.4107143 L13.7321429,31.4107143 L14.875,32.5535714 C14.9821429,32.6607143 15.1190476,32.7142857 15.2857143,32.7142857 C15.3571429,32.7142857 15.4107143,32.7083333 15.4464286,32.6964286 L15.4464286,32.6964286 L20.375,31.1785714 L25.3928571,36.1964286 L23.875,41.125 C23.8154762,41.3392857 23.8630952,41.5297619 24.0178571,41.6964286 L24.0178571,41.6964286 L25.1607143,42.8392857 C25.2916667,42.9464286 25.4285714,43 25.5714286,43 Z M37,21.2857143 C36.5238095,21.2857143 36.1190476,21.1190476 35.7857143,20.7857143 C35.452381,20.452381 35.2857143,20.047619 35.2857143,19.5714286 C35.2857143,19.0952381 35.452381,18.6904762 35.7857143,18.3571429 C36.1190476,18.0238095 36.5238095,17.8571429 37,17.8571429 C37.4761905,17.8571429 37.8809524,18.0238095 38.2142857,18.3571429 C38.547619,18.6904762 38.7142857,19.0952381 38.7142857,19.5714286 C38.7142857,20.047619 38.547619,20.452381 38.2142857,20.7857143 C37.8809524,21.1190476 37.4761905,21.2857143 37,21.2857143 Z" id="" fill="#FFFFFF" fill-rule="nonzero"></path>
        </g>
    </g>
</svg>