<svg height="12" viewBox="0 0 15 12" width="15" xmlns="http://www.w3.org/2000/svg"><path d="m44.4642857 27.9285714c-.3988115.5833363-.8809495 1.0803551-1.4464286 1.4910715.0059525.0833337.0089286.2083325.0089286.375 0 .7738134-.1130941 1.5461271-.3392857 2.3169642-.2261916.7708372-.5699382 1.5104132-1.03125 2.21875-.4613118.7083369-1.0104135 1.3348187-1.6473214 1.8794643-.636908.5446456-1.4047574.9791651-2.3035715 1.3035715-.898814.3244063-1.8601139.4866071-2.8839285.4866071-1.6131033 0-3.089279-.4315433-4.4285715-1.2946429.2083344.0238097.440475.0357143.6964286.0357143 1.3392924 0 2.5327329-.4107102 3.5803572-1.2321428-.6250032-.0119049-1.1845214-.2038672-1.6785715-.5758929s-.8333324-.8467233-1.0178571-1.4241071c.1964295.029762.3779753.0446428.5446428.0446428.2559537 0 .5089274-.0327377.7589286-.0982143-.66667-.1369054-1.2187478-.4687473-1.65625-.9955357-.4375022-.5267883-.65625-1.1383893-.65625-1.8348214v-.0357143c.4047639.2261916.8392834.3482142 1.3035714.3660714-.3928591-.261906-.7053559-.6041645-.9375-1.0267857-.232144-.4226211-.3482142-.8809499-.3482142-1.375 0-.5238121.130951-1.0089263.3928571-1.4553571.7202417.8869092 1.596721 1.5967235 2.6294643 2.1294643 1.0327432.5327407 2.1383869.8288687 3.3169643.8883928-.0476193-.2261916-.0714286-.4464275-.0714286-.6607143 0-.797623.2812472-1.4776757.84375-2.0401785s1.2425555-.84375 2.0401786-.84375c.8333375 0 1.5357114.3035684 2.1071428.9107143.6488128-.1250007 1.2589257-.3571412 1.8303572-.6964286-.2202392.6845272-.642854 1.2142838-1.2678572 1.5892857.5535742-.0595241 1.1071401-.2083321 1.6607143-.4464286z" fill-rule="evenodd" transform="translate(-30 -26)"/></svg>