<?xml version="1.0" encoding="UTF-8" standalone="no"?>
<svg width="582px" height="54px" viewBox="0 0 582 54" version="1.1" xmlns="http://www.w3.org/2000/svg" xmlns:xlink="http://www.w3.org/1999/xlink">
    <g id="Page-1" stroke="none" stroke-width="1" fill="none" fill-rule="evenodd" fill-opacity="0.87">
        <g id="landing_2point0_whitespace" transform="translate(-113.000000, -4065.000000)" fill-rule="nonzero" fill="#000000">
            <g id="footer" transform="translate(0.000000, 3538.000000)">
                <g id="company" transform="translate(113.000000, 271.000000)">
                    <g id="algo_black" transform="translate(0.000000, 256.000000)">
                        <polygon id="Icon" points="528 54 536.724835 54 541.031698 45.421128 544.669452 54 552.439818 54 545.471207 36.7115611 555.000245 17.5248645 564.528793 36.7115611 557.558714 54 565.330548 54 568.968302 45.421128 573.276633 54 582 54 555.000245 0"></polygon>
                        <polygon id="I" points="507 54 516 54 516 0 507 0"></polygon>
                        <polygon id="M" points="464.961389 27 438 0 438 54 446.934833 54 446.934833 21.7100383 464.961389 39.7586614 482.908278 21.7100383 482.908278 54 492 54 492 0"></polygon>
                        <polygon id="H" points="413.969538 0 413.969538 22.4858862 386.953082 22.4858862 386.953082 0 378 0 378 54 386.953082 54 386.953082 31.5126452 413.969538 31.5126452 413.969538 54 423 54 423 0"></polygon>
                        <polygon id="T" points="318 0 318 9.02431155 336.030899 9.02431155 336.030899 54 345.045859 54 345.045859 9.02431155 363 9.02431155 363 0"></polygon>
                        <polygon id="I" points="297 54 306 54 306 0 297 0"></polygon>
                        <path d="M245.953374,26.921681 L245.953374,9.02431154 L264.014889,9.02431154 C266.455383,9.02431154 268.55696,9.90833769 270.323048,11.6680687 C272.086688,13.4356315 272.969243,15.5350713 272.969243,17.9717725 C272.969243,20.4637865 272.086198,22.5911274 270.323048,24.3552638 C268.55696,26.1189108 266.455383,27 264.014889,27 L245.953374,26.921681 Z M237,0 L237,54 L245.953374,54 L245.953374,36.0272485 L261.21148,36.0272485 L271.64688,54 L282,54 L270.866686,34.6268061 C274.084925,33.3291575 276.731609,31.1763629 278.808698,28.1664642 C280.935743,25.1076162 282,21.7100383 282,17.9717725 C282,13.0455048 280.23685,8.81921354 276.707121,5.28898276 C273.174944,1.76119944 268.947791,0 264.014399,0 L237,0 L237,0 Z" id="R"></path>
                        <path d="M185.218604,39.7586613 C181.747409,36.1824181 180.013278,31.9292047 180.013278,27 C180.013278,22.0722638 181.747409,17.8430356 185.218604,14.3172102 C188.793416,10.7894269 193.0393,9.02431155 197.962121,9.02431155 C202.882498,9.02431155 207.103944,10.7894269 210.62597,14.3172102 C214.148484,17.8430356 215.909497,22.0722638 215.909497,27 C215.909497,31.9292047 214.148484,36.1824181 210.62597,39.7586613 C207.103944,43.2360268 202.882498,44.9727515 197.962121,44.9727515 C193.0393,44.9727515 188.793416,43.2360268 185.218604,39.7586613 M178.924314,7.93518734 C173.641275,13.2275966 171,19.5826973 171,27 C171,34.4686996 173.640786,40.8247792 178.924314,46.0633441 C184.155056,51.3523269 190.502132,54 197.962121,54 C205.419666,54 211.765276,51.3523269 216.998461,46.0633441 C222.331843,40.8751972 225,34.5210754 225,27 C225,19.5826973 222.331843,13.2275966 216.998461,7.93518734 C211.765276,2.64130967 205.419666,0 197.962121,0 C190.449345,0 184.103735,2.64130967 178.924314,7.93518734" id="O"></path>
                        <path d="M115.685328,7.93476982 C110.561144,13.227227 108,19.5823853 108,26.9997553 C108,34.4685226 110.561144,40.8251493 115.685328,46.0637617 C120.758318,51.3523029 126.913501,54 134.147559,54 C136.406751,54 138.592469,53.7175594 140.703766,53.1443567 C142.813166,52.5726225 144.797424,51.7571182 146.656067,50.693438 C148.513287,49.6282894 150.234937,48.3462929 151.818647,46.8410852 C153.400934,45.336367 154.794561,43.6779463 156,41.8589701 L156,22.5629413 L134.147559,22.5629413 L134.147559,31.5129309 L147.258076,31.5129309 L147.258076,38.9033784 C145.601367,40.8251493 143.653134,42.3151826 141.418592,43.3764153 C139.183575,44.4410743 136.75895,44.9731592 134.147559,44.9731592 C129.374152,44.9731592 125.25537,43.2364187 121.789791,39.7590217 C118.423282,36.1822566 116.740028,31.9290046 116.740028,26.9997553 C116.740028,22.0719744 118.423282,17.8431973 121.789791,14.3168506 C125.25537,10.7895247 129.374152,9.02439337 134.147559,9.02439337 C138.970739,9.02439337 143.064872,10.7895247 146.429484,14.3168506 L152.685634,7.93476982 C150.273807,5.44420171 147.484658,3.49893489 144.321032,2.09896933 C141.155035,0.697535286 137.763878,0 134.147559,0 C126.913501,0 120.758318,2.64084411 115.685328,7.93476982 L115.685328,7.93476982 Z" id="G"></path>
                        <polygon id="L" points="66 0 66 54 102 54 102 44.973241 74.9612787 44.973241 74.9612787 0"></polygon>
                        <path d="M27.0004895,0 L0,54 L10.0387941,54 L14.6294255,44.973241 L39.4503562,44.973241 L43.9641426,54 L54,54 L27.0004895,0 Z M27.0004895,20.1529578 L34.9365698,36.026759 L19.0648986,36.026759 L27.0004895,20.1529578 Z" id="A"></path>
                    </g>
                </g>
            </g>
        </g>
    </g>
</svg>