<?xml version="1.0" encoding="UTF-8" standalone="no"?>
<svg width="104px" height="119px" viewBox="0 0 104 119" version="1.1" xmlns="http://www.w3.org/2000/svg" xmlns:xlink="http://www.w3.org/1999/xlink">
    <defs>
        <polygon id="path-1" points="48 0 96 27.75 96 83.25 48 111 -3.55271368e-14 83.25 -6.66133815e-14 27.75"></polygon>
        <filter x="-7.3%" y="-4.5%" width="114.6%" height="112.6%" filterUnits="objectBoundingBox" id="filter-2">
            <feOffset dx="0" dy="2" in="SourceAlpha" result="shadowOffsetOuter1"></feOffset>
            <feGaussianBlur stdDeviation="2" in="shadowOffsetOuter1" result="shadowBlurOuter1"></feGaussianBlur>
            <feColorMatrix values="0 0 0 0 0   0 0 0 0 0   0 0 0 0 0  0 0 0 0.2 0" type="matrix" in="shadowBlurOuter1"></feColorMatrix>
        </filter>
    </defs>
    <g stroke="none" stroke-width="1" fill="none" fill-rule="evenodd">
        <g id="DesktopHD_Round7_algoDev-Copy" transform="translate(-757.000000, -1207.000000)">
            <g id="content" transform="translate(390.000000, 552.000000)">
                <g id="languages" transform="translate(0.000000, 277.000000)">
                    <g id="alexa-copy" transform="translate(371.000000, 380.000000)">
                        <g id="Polygon">
                            <use fill="black" fill-opacity="1" filter="url(#filter-2)" xlink:href="#path-1"></use>
                            <use fill="#FFFFFF" fill-rule="evenodd" xlink:href="#path-1"></use>
                        </g>
                        <g transform="translate(24.000000, 19.000000)">
                            <path d="M20.9713348,44.7167812 L20.9713348,40.2560222 C20.9713348,38.6701728 20.0000503,37.2565918 18.5272915,36.6313492 C13.0150949,34.2914643 9.15697197,28.8180788 9.15697197,22.5000628 C9.15697197,14.0786384 16.0111243,7.15711761 24.4998743,7.15711761 C32.9886244,7.15711761 39.8427767,14.0786384 39.8427767,22.5000628 C39.8427767,32.4363435 32.1564359,41.8318195 20.9713348,44.7167812 M24.4998743,0 C12.0512238,0 2,10.1503911 2,22.5000628 C2,34.8497346 12.0512238,45 24.4998743,45 C36.9483992,45 47,34.8497346 47,22.5000628 C47,10.1503911 36.9483992,0 24.4998743,0" id="Fill-1" fill="#00CAFF"></path>
                            <path d="M4.46428564,69.2 C3.98428324,69.2 3.53762104,69.1166675 3.12428564,68.95 C2.71095024,68.7833325 2.34762054,68.5566681 2.03428564,68.27 C1.72095074,67.9833319 1.47761984,67.6433353 1.30428564,67.25 C1.13095144,66.8566647 1.04428564,66.4333356 1.04428564,65.98 C1.04428564,65.5266644 1.15095124,65.1133352 1.36428564,64.74 C1.57762004,64.3666648 1.87428374,64.0433347 2.25428564,63.77 C2.63428754,63.4966653 3.09094964,63.2833341 3.62428564,63.13 C4.15762164,62.9766659 4.74428244,62.9 5.38428564,62.9 C5.94428844,62.9 6.50761614,62.9499995 7.07428564,63.05 C7.64095514,63.1500005 8.15095004,63.2866658 8.60428564,63.46 L8.60428564,62.44 C8.60428564,61.4533284 8.32428844,60.6700029 7.76428564,60.09 C7.20428284,59.5099971 6.44429044,59.22 5.48428564,59.22 C4.97761644,59.22 4.44095514,59.3266656 3.87428564,59.54 C3.30761614,59.7533344 2.73095524,60.059998 2.14428564,60.46 L1.76428564,59.78 C3.09762564,58.8733288 4.36427964,58.42 5.56428564,58.42 C6.81762524,58.42 7.80428204,58.7833297 8.52428564,59.51 C9.24428924,60.2366703 9.60428564,61.2399936 9.60428564,62.52 L9.60428564,67.6 C9.60428564,67.933335 9.75095084,68.1 10.0442856,68.1 L10.0442856,69 C9.97761864,69.0133334 9.90761934,69.0233333 9.83428564,69.03 C9.76095194,69.0366667 9.69761924,69.04 9.64428564,69.04 C9.37761764,69.04 9.16428644,68.9500009 9.00428564,68.77 C8.84428484,68.5899991 8.75095244,68.3733346 8.72428564,68.12 L8.72428564,67.26 C8.24428324,67.8866698 7.63095604,68.366665 6.88428564,68.7 C6.13761524,69.033335 5.33095664,69.2 4.46428564,69.2 Z M4.66428564,68.4 C5.43762284,68.4 6.14761574,68.2533348 6.79428564,67.96 C7.44095554,67.6666652 7.93761724,67.2800024 8.28428564,66.8 C8.49762004,66.5199986 8.60428564,66.2533346 8.60428564,66 L8.60428564,64.16 C8.12428324,63.9733324 7.62428824,63.8333338 7.10428564,63.74 C6.58428304,63.6466662 6.04428844,63.6 5.48428564,63.6 C4.96428304,63.6 4.49095444,63.6566661 4.06428564,63.77 C3.63761684,63.8833339 3.27095384,64.039999 2.96428564,64.24 C2.65761744,64.440001 2.42095314,64.6833319 2.25428564,64.97 C2.08761814,65.2566681 2.00428564,65.5733316 2.00428564,65.92 C2.00428564,66.2666684 2.07095164,66.5933318 2.20428564,66.9 C2.33761964,67.2066682 2.52428444,67.4699989 2.76428564,67.69 C3.00428684,67.9100011 3.28761734,68.0833327 3.61428564,68.21 C3.94095394,68.3366673 4.29095044,68.4 4.66428564,68.4 Z M12.8385714,54.4 L13.8585714,54.4 L13.8585714,66.94 C13.8585714,67.3266686 13.9685703,67.6333322 14.1885714,67.86 C14.4085725,68.0866678 14.7119028,68.2 15.0985714,68.2 C15.2452388,68.2 15.4219037,68.1833335 15.6285714,68.15 C15.8352391,68.1166665 16.0252372,68.066667 16.1985714,68 L16.3985714,68.8 C16.1719036,68.8933338 15.8919064,68.9699997 15.5585714,69.03 C15.2252364,69.0900003 14.9385726,69.12 14.6985714,69.12 C14.1385686,69.12 13.6885731,68.9500017 13.3485714,68.61 C13.0085697,68.2699983 12.8385714,67.8133362 12.8385714,67.24 L12.8385714,54.4 Z M22.4728571,69.2 C21.7395201,69.2 21.0595269,69.0566681 20.4328571,68.77 C19.8061873,68.4833319 19.2628594,68.0900025 18.8028571,67.59 C18.3428548,67.0899975 17.9828584,66.5133366 17.7228571,65.86 C17.4628558,65.2066634 17.3328571,64.5066704 17.3328571,63.76 C17.3328571,63.026663 17.4628558,62.3366699 17.7228571,61.69 C17.9828584,61.0433301 18.3395215,60.4766691 18.7928571,59.99 C19.2461927,59.5033309 19.782854,59.1200014 20.4028571,58.84 C21.0228602,58.5599986 21.6928535,58.42 22.4128571,58.42 C23.1461941,58.42 23.8261873,58.5633319 24.4528571,58.85 C25.0795269,59.1366681 25.6195215,59.5233309 26.0728571,60.01 C26.5261927,60.4966691 26.8795225,61.0633301 27.1328571,61.71 C27.3861917,62.3566699 27.5128571,63.0399964 27.5128571,63.76 L27.5128571,64.01 C27.5128571,64.1100005 27.5061905,64.1733332 27.4928571,64.2 L18.3728571,64.2 C18.4128573,64.800003 18.5528559,65.3566641 18.7928571,65.87 C19.0328583,66.3833359 19.3361886,66.8266648 19.7028571,67.2 C20.0695256,67.5733352 20.4928547,67.8666656 20.9728571,68.08 C21.4528595,68.2933344 21.9661877,68.4 22.5128571,68.4 C22.8728589,68.4 23.2261887,68.3500005 23.5728571,68.25 C23.9195255,68.1499995 24.2428556,68.0133342 24.5428571,67.84 C24.8428586,67.6666658 25.1095226,67.4566679 25.3428571,67.21 C25.5761916,66.9633321 25.7595231,66.6933348 25.8928571,66.4 L26.7728571,66.64 C26.6261897,67.0133352 26.4095252,67.3566651 26.1228571,67.67 C25.836189,67.9833349 25.502859,68.2533322 25.1228571,68.48 C24.7428552,68.7066678 24.3261927,68.8833327 23.8728571,69.01 C23.4195215,69.1366673 22.9528595,69.2 22.4728571,69.2 Z M26.5528571,63.4 C26.5128569,62.7866636 26.3761916,62.2266692 26.1428571,61.72 C25.9095226,61.2133308 25.6095256,60.7766685 25.2428571,60.41 C24.8761886,60.0433315 24.4528595,59.7566677 23.9728571,59.55 C23.4928547,59.3433323 22.9795265,59.24 22.4328571,59.24 C21.8861877,59.24 21.3728595,59.3433323 20.8928571,59.55 C20.4128547,59.7566677 19.9895256,60.0433315 19.6228571,60.41 C19.2561886,60.7766685 18.9628582,61.2166641 18.7428571,61.73 C18.522856,62.2433359 18.3928573,62.799997 18.3528571,63.4 L26.5528571,63.4 Z M29.3271429,58.6 L32.6871429,62.9 L32.8471429,63.18 L33.0071429,62.9 L36.3471429,58.6 L37.4671429,58.6 L33.4271429,63.82 L37.4471429,69 L36.3471429,69 L33.0071429,64.72 L32.8471429,64.46 L32.6871429,64.72 L29.3471429,69 L28.2471429,69 L32.2671429,63.82 L28.2271429,58.6 L29.3271429,58.6 Z M41.9214286,69.2 C41.4414262,69.2 40.994764,69.1166675 40.5814286,68.95 C40.1680932,68.7833325 39.8047635,68.5566681 39.4914286,68.27 C39.1780937,67.9833319 38.9347628,67.6433353 38.7614286,67.25 C38.5880944,66.8566647 38.5014286,66.4333356 38.5014286,65.98 C38.5014286,65.5266644 38.6080942,65.1133352 38.8214286,64.74 C39.034763,64.3666648 39.3314267,64.0433347 39.7114286,63.77 C40.0914305,63.4966653 40.5480926,63.2833341 41.0814286,63.13 C41.6147646,62.9766659 42.2014254,62.9 42.8414286,62.9 C43.4014314,62.9 43.9647591,62.9499995 44.5314286,63.05 C45.0980981,63.1500005 45.608093,63.2866658 46.0614286,63.46 L46.0614286,62.44 C46.0614286,61.4533284 45.7814314,60.6700029 45.2214286,60.09 C44.6614258,59.5099971 43.9014334,59.22 42.9414286,59.22 C42.4347594,59.22 41.8980981,59.3266656 41.3314286,59.54 C40.7647591,59.7533344 40.1880982,60.059998 39.6014286,60.46 L39.2214286,59.78 C40.5547686,58.8733288 41.8214226,58.42 43.0214286,58.42 C44.2747682,58.42 45.261425,58.7833297 45.9814286,59.51 C46.7014322,60.2366703 47.0614286,61.2399936 47.0614286,62.52 L47.0614286,67.6 C47.0614286,67.933335 47.2080938,68.1 47.5014286,68.1 L47.5014286,69 C47.4347616,69.0133334 47.3647623,69.0233333 47.2914286,69.03 C47.2180949,69.0366667 47.1547622,69.04 47.1014286,69.04 C46.8347606,69.04 46.6214294,68.9500009 46.4614286,68.77 C46.3014278,68.5899991 46.2080954,68.3733346 46.1814286,68.12 L46.1814286,67.26 C45.7014262,67.8866698 45.088099,68.366665 44.3414286,68.7 C43.5947582,69.033335 42.7880996,69.2 41.9214286,69.2 Z M42.1214286,68.4 C42.8947658,68.4 43.6047587,68.2533348 44.2514286,67.96 C44.8980985,67.6666652 45.3947602,67.2800024 45.7414286,66.8 C45.954763,66.5199986 46.0614286,66.2533346 46.0614286,66 L46.0614286,64.16 C45.5814262,63.9733324 45.0814312,63.8333338 44.5614286,63.74 C44.041426,63.6466662 43.5014314,63.6 42.9414286,63.6 C42.421426,63.6 41.9480974,63.6566661 41.5214286,63.77 C41.0947598,63.8833339 40.7280968,64.039999 40.4214286,64.24 C40.1147604,64.440001 39.8780961,64.6833319 39.7114286,64.97 C39.5447611,65.2566681 39.4614286,65.5733316 39.4614286,65.92 C39.4614286,66.2666684 39.5280946,66.5933318 39.6614286,66.9 C39.7947626,67.2066682 39.9814274,67.4699989 40.2214286,67.69 C40.4614298,67.9100011 40.7447603,68.0833327 41.0714286,68.21 C41.3980969,68.3366673 41.7480934,68.4 42.1214286,68.4 Z" id="alexa" fill-opacity="0.87" fill="#000000"></path>
                        </g>
                    </g>
                </g>
            </g>
        </g>
    </g>
</svg>