<?xml version="1.0" encoding="UTF-8"?>
<svg width="47px" height="70px" viewBox="0 0 47 70" version="1.1" xmlns="http://www.w3.org/2000/svg" xmlns:xlink="http://www.w3.org/1999/xlink">
    <g id="Page-1" stroke="none" stroke-width="1" fill="none" fill-rule="evenodd">
        <g id="alexa" fill-rule="nonzero">
            <path d="M19.9713348,44.7167812 L19.9713348,40.2560222 C19.9713348,38.6701728 19.0000503,37.2565918 17.5272915,36.6313492 C12.0150949,34.2914643 8.15697197,28.8180788 8.15697197,22.5000628 C8.15697197,14.0786384 15.0111243,7.15711761 23.4998743,7.15711761 C31.9886244,7.15711761 38.8427767,14.0786384 38.8427767,22.5000628 C38.8427767,32.4363435 31.1564359,41.8318195 19.9713348,44.7167812 M23.4998743,0 C11.0512238,0 1,10.1503911 1,22.5000628 C1,34.8497346 11.0512238,45 23.4998743,45 C35.9483992,45 46,34.8497346 46,22.5000628 C46,10.1503911 35.9483992,0 23.4998743,0" id="Fill-1" fill="#00CAFF"></path>
            <path d="M3.46428564,69.2 C2.98428324,69.2 2.53762104,69.1166675 2.12428564,68.95 C1.71095024,68.7833325 1.34762054,68.5566681 1.03428564,68.27 C0.72095074,67.9833319 0.47761984,67.6433353 0.30428564,67.25 C0.13095144,66.8566647 0.04428564,66.4333356 0.04428564,65.98 C0.04428564,65.5266644 0.15095124,65.1133352 0.36428564,64.74 C0.57762004,64.3666648 0.87428374,64.0433347 1.25428564,63.77 C1.63428754,63.4966653 2.09094964,63.2833341 2.62428564,63.13 C3.15762164,62.9766659 3.74428244,62.9 4.38428564,62.9 C4.94428844,62.9 5.50761614,62.9499995 6.07428564,63.05 C6.64095514,63.1500005 7.15095004,63.2866658 7.60428564,63.46 L7.60428564,62.44 C7.60428564,61.4533284 7.32428844,60.6700029 6.76428564,60.09 C6.20428284,59.5099971 5.44429044,59.22 4.48428564,59.22 C3.97761644,59.22 3.44095514,59.3266656 2.87428564,59.54 C2.30761614,59.7533344 1.73095524,60.059998 1.14428564,60.46 L0.76428564,59.78 C2.09762564,58.8733288 3.36427964,58.42 4.56428564,58.42 C5.81762524,58.42 6.80428204,58.7833297 7.52428564,59.51 C8.24428924,60.2366703 8.60428564,61.2399936 8.60428564,62.52 L8.60428564,67.6 C8.60428564,67.933335 8.75095084,68.1 9.0442856,68.1 L9.0442856,69 C8.97761864,69.0133334 8.90761934,69.0233333 8.83428564,69.03 C8.76095194,69.0366667 8.69761924,69.04 8.64428564,69.04 C8.37761764,69.04 8.16428644,68.9500009 8.00428564,68.77 C7.84428484,68.5899991 7.75095244,68.3733346 7.72428564,68.12 L7.72428564,67.26 C7.24428324,67.8866698 6.63095604,68.366665 5.88428564,68.7 C5.13761524,69.033335 4.33095664,69.2 3.46428564,69.2 Z M3.66428564,68.4 C4.43762284,68.4 5.14761574,68.2533348 5.79428564,67.96 C6.44095554,67.6666652 6.93761724,67.2800024 7.28428564,66.8 C7.49762004,66.5199986 7.60428564,66.2533346 7.60428564,66 L7.60428564,64.16 C7.12428324,63.9733324 6.62428824,63.8333338 6.10428564,63.74 C5.58428304,63.6466662 5.04428844,63.6 4.48428564,63.6 C3.96428304,63.6 3.49095444,63.6566661 3.06428564,63.77 C2.63761684,63.8833339 2.27095384,64.039999 1.96428564,64.24 C1.65761744,64.440001 1.42095314,64.6833319 1.25428564,64.97 C1.08761814,65.2566681 1.00428564,65.5733316 1.00428564,65.92 C1.00428564,66.2666684 1.07095164,66.5933318 1.20428564,66.9 C1.33761964,67.2066682 1.52428444,67.4699989 1.76428564,67.69 C2.00428684,67.9100011 2.28761734,68.0833327 2.61428564,68.21 C2.94095394,68.3366673 3.29095044,68.4 3.66428564,68.4 Z M11.8385714,54.4 L12.8585714,54.4 L12.8585714,66.94 C12.8585714,67.3266686 12.9685703,67.6333322 13.1885714,67.86 C13.4085725,68.0866678 13.7119028,68.2 14.0985714,68.2 C14.2452388,68.2 14.4219037,68.1833335 14.6285714,68.15 C14.8352391,68.1166665 15.0252372,68.066667 15.1985714,68 L15.3985714,68.8 C15.1719036,68.8933338 14.8919064,68.9699997 14.5585714,69.03 C14.2252364,69.0900003 13.9385726,69.12 13.6985714,69.12 C13.1385686,69.12 12.6885731,68.9500017 12.3485714,68.61 C12.0085697,68.2699983 11.8385714,67.8133362 11.8385714,67.24 L11.8385714,54.4 Z M21.4728571,69.2 C20.7395201,69.2 20.0595269,69.0566681 19.4328571,68.77 C18.8061873,68.4833319 18.2628594,68.0900025 17.8028571,67.59 C17.3428548,67.0899975 16.9828584,66.5133366 16.7228571,65.86 C16.4628558,65.2066634 16.3328571,64.5066704 16.3328571,63.76 C16.3328571,63.026663 16.4628558,62.3366699 16.7228571,61.69 C16.9828584,61.0433301 17.3395215,60.4766691 17.7928571,59.99 C18.2461927,59.5033309 18.782854,59.1200014 19.4028571,58.84 C20.0228602,58.5599986 20.6928535,58.42 21.4128571,58.42 C22.1461941,58.42 22.8261873,58.5633319 23.4528571,58.85 C24.0795269,59.1366681 24.6195215,59.5233309 25.0728571,60.01 C25.5261927,60.4966691 25.8795225,61.0633301 26.1328571,61.71 C26.3861917,62.3566699 26.5128571,63.0399964 26.5128571,63.76 L26.5128571,64.01 C26.5128571,64.1100005 26.5061905,64.1733332 26.4928571,64.2 L17.3728571,64.2 C17.4128573,64.800003 17.5528559,65.3566641 17.7928571,65.87 C18.0328583,66.3833359 18.3361886,66.8266648 18.7028571,67.2 C19.0695256,67.5733352 19.4928547,67.8666656 19.9728571,68.08 C20.4528595,68.2933344 20.9661877,68.4 21.5128571,68.4 C21.8728589,68.4 22.2261887,68.3500005 22.5728571,68.25 C22.9195255,68.1499995 23.2428556,68.0133342 23.5428571,67.84 C23.8428586,67.6666658 24.1095226,67.4566679 24.3428571,67.21 C24.5761916,66.9633321 24.7595231,66.6933348 24.8928571,66.4 L25.7728571,66.64 C25.6261897,67.0133352 25.4095252,67.3566651 25.1228571,67.67 C24.836189,67.9833349 24.502859,68.2533322 24.1228571,68.48 C23.7428552,68.7066678 23.3261927,68.8833327 22.8728571,69.01 C22.4195215,69.1366673 21.9528595,69.2 21.4728571,69.2 Z M25.5528571,63.4 C25.5128569,62.7866636 25.3761916,62.2266692 25.1428571,61.72 C24.9095226,61.2133308 24.6095256,60.7766685 24.2428571,60.41 C23.8761886,60.0433315 23.4528595,59.7566677 22.9728571,59.55 C22.4928547,59.3433323 21.9795265,59.24 21.4328571,59.24 C20.8861877,59.24 20.3728595,59.3433323 19.8928571,59.55 C19.4128547,59.7566677 18.9895256,60.0433315 18.6228571,60.41 C18.2561886,60.7766685 17.9628582,61.2166641 17.7428571,61.73 C17.522856,62.2433359 17.3928573,62.799997 17.3528571,63.4 L25.5528571,63.4 Z M28.3271429,58.6 L31.6871429,62.9 L31.8471429,63.18 L32.0071429,62.9 L35.3471429,58.6 L36.4671429,58.6 L32.4271429,63.82 L36.4471429,69 L35.3471429,69 L32.0071429,64.72 L31.8471429,64.46 L31.6871429,64.72 L28.3471429,69 L27.2471429,69 L31.2671429,63.82 L27.2271429,58.6 L28.3271429,58.6 Z M40.9214286,69.2 C40.4414262,69.2 39.994764,69.1166675 39.5814286,68.95 C39.1680932,68.7833325 38.8047635,68.5566681 38.4914286,68.27 C38.1780937,67.9833319 37.9347628,67.6433353 37.7614286,67.25 C37.5880944,66.8566647 37.5014286,66.4333356 37.5014286,65.98 C37.5014286,65.5266644 37.6080942,65.1133352 37.8214286,64.74 C38.034763,64.3666648 38.3314267,64.0433347 38.7114286,63.77 C39.0914305,63.4966653 39.5480926,63.2833341 40.0814286,63.13 C40.6147646,62.9766659 41.2014254,62.9 41.8414286,62.9 C42.4014314,62.9 42.9647591,62.9499995 43.5314286,63.05 C44.0980981,63.1500005 44.608093,63.2866658 45.0614286,63.46 L45.0614286,62.44 C45.0614286,61.4533284 44.7814314,60.6700029 44.2214286,60.09 C43.6614258,59.5099971 42.9014334,59.22 41.9414286,59.22 C41.4347594,59.22 40.8980981,59.3266656 40.3314286,59.54 C39.7647591,59.7533344 39.1880982,60.059998 38.6014286,60.46 L38.2214286,59.78 C39.5547686,58.8733288 40.8214226,58.42 42.0214286,58.42 C43.2747682,58.42 44.261425,58.7833297 44.9814286,59.51 C45.7014322,60.2366703 46.0614286,61.2399936 46.0614286,62.52 L46.0614286,67.6 C46.0614286,67.933335 46.2080938,68.1 46.5014286,68.1 L46.5014286,69 C46.4347616,69.0133334 46.3647623,69.0233333 46.2914286,69.03 C46.2180949,69.0366667 46.1547622,69.04 46.1014286,69.04 C45.8347606,69.04 45.6214294,68.9500009 45.4614286,68.77 C45.3014278,68.5899991 45.2080954,68.3733346 45.1814286,68.12 L45.1814286,67.26 C44.7014262,67.8866698 44.088099,68.366665 43.3414286,68.7 C42.5947582,69.033335 41.7880996,69.2 40.9214286,69.2 Z M41.1214286,68.4 C41.8947658,68.4 42.6047587,68.2533348 43.2514286,67.96 C43.8980985,67.6666652 44.3947602,67.2800024 44.7414286,66.8 C44.954763,66.5199986 45.0614286,66.2533346 45.0614286,66 L45.0614286,64.16 C44.5814262,63.9733324 44.0814312,63.8333338 43.5614286,63.74 C43.041426,63.6466662 42.5014314,63.6 41.9414286,63.6 C41.421426,63.6 40.9480974,63.6566661 40.5214286,63.77 C40.0947598,63.8833339 39.7280968,64.039999 39.4214286,64.24 C39.1147604,64.440001 38.8780961,64.6833319 38.7114286,64.97 C38.5447611,65.2566681 38.4614286,65.5733316 38.4614286,65.92 C38.4614286,66.2666684 38.5280946,66.5933318 38.6614286,66.9 C38.7947626,67.2066682 38.9814274,67.4699989 39.2214286,67.69 C39.4614298,67.9100011 39.7447603,68.0833327 40.0714286,68.21 C40.3980969,68.3366673 40.7480934,68.4 41.1214286,68.4 Z" fill-opacity="0.87" fill="#000000"></path>
        </g>
    </g>
</svg>