<?xml version="1.0" encoding="UTF-8" standalone="no"?>
<svg width="104px" height="119px" viewBox="0 0 104 119" version="1.1" xmlns="http://www.w3.org/2000/svg" xmlns:xlink="http://www.w3.org/1999/xlink">
    <!-- Generator: Sketch 41.2 (35397) - http://www.bohemiancoding.com/sketch -->
    <title>algo_hosted</title>
    <desc>Created with Sketch.</desc>
    <defs>
        <polygon id="path-1" points="48 0 96 27.7128129 96 83.1384388 48 110.851252 -3.46389584e-14 83.1384388 -6.57252031e-14 27.7128129"></polygon>
        <filter x="-50%" y="-50%" width="200%" height="200%" filterUnits="objectBoundingBox" id="filter-2">
            <feOffset dx="0" dy="2" in="SourceAlpha" result="shadowOffsetOuter1"></feOffset>
            <feGaussianBlur stdDeviation="2" in="shadowOffsetOuter1" result="shadowBlurOuter1"></feGaussianBlur>
            <feColorMatrix values="0 0 0 0 0   0 0 0 0 0   0 0 0 0 0  0 0 0 0.2 0" type="matrix" in="shadowBlurOuter1"></feColorMatrix>
        </filter>
    </defs>
    <g id="Page-1" stroke="none" stroke-width="1" fill="none" fill-rule="evenodd">
        <g id="DesktopHD_Round7_data" transform="translate(-338.000000, -1373.000000)">
            <g id="content" transform="translate(342.000000, 542.000000)">
                <g id="data_guides" transform="translate(0.000000, 318.000000)">
                    <g id="algo_hosted" transform="translate(0.000000, 515.000000)">
                        <g id="Polygon-Copy">
                            <use fill="black" fill-opacity="1" filter="url(#filter-2)" xlink:href="#path-1"></use>
                            <use fill="#FFFFFF" fill-rule="evenodd" xlink:href="#path-1"></use>
                        </g>
                        <path d="M48,45 C42.6266225,55.7390706 37.7538303,65.5079533 33,75 L37.83,75 C38.6781942,73.3031583 39.5260656,71.6061583 40.374375,69.909375 L42.920625,75 L47.349375,75 L42.58875,65.480625 C44.3925683,61.8731592 46.19625,58.265625 48,54.658125 C49.8029094,58.2655656 51.6073344,61.8718122 53.41125,65.47875 L48.650625,75 L53.079375,75 L55.625625,69.9075 C56.474265,71.6046744 57.3217919,73.3025167 58.17,75 L63,75 C57.8022378,64.6097233 52.4557806,53.9155908 48,45 L48,45 L48,45 Z" id="path3004" fill="#5000BE"></path>
                        <path d="M20.3295455,28 C17.4033128,28 15,30.4033205 15,33.3295455 L15,77.4886516 C15,80.4148766 17.4033128,82.818197 20.3295455,82.818197 L76.6704545,82.818197 C79.5966872,82.818197 82,80.4148766 82,77.4886516 L82,43.9886364 C82,41.0624114 79.5966872,38.6590909 76.6704545,38.6590909 L45.5021307,38.6590909 C43.3134234,35.8721955 41.5796994,32.0370545 39.2684659,29.6892375 C38.3712522,28.7918182 37.1051806,28 35.5568182,28 L20.3295455,28 Z M20.3295455,31.0454545 L35.5568182,31.0454545 C36.1174407,31.0454545 36.5599605,31.2632807 37.1271307,31.8305727 C39.40274,34.6856102 41.3176076,37.8426807 43.4321733,41.0145216 C43.7050613,41.432358 44.1942069,41.6999773 44.6931818,41.7045455 L76.6704545,41.7045455 C77.9621917,41.7045455 78.9545455,42.6969068 78.9545455,43.9886364 L78.9545455,77.4886516 C78.9545455,78.7803811 77.9621917,79.7727425 76.6704545,79.7727425 L20.3295455,79.7727425 C19.0378083,79.7727425 18.0454545,78.7803811 18.0454545,77.4886516 L18.0454545,33.3295455 C18.0454545,32.0378159 19.0378007,31.0454545 20.3295455,31.0454545 L20.3295455,31.0454545 Z" id="Shape" fill="#5000BE"></path>
                    </g>
                </g>
            </g>
        </g>
    </g>
</svg>