<?xml version="1.0" encoding="UTF-8"?>
<svg width="67px" height="55px" viewBox="0 0 67 55" version="1.1" xmlns="http://www.w3.org/2000/svg" xmlns:xlink="http://www.w3.org/1999/xlink">
    <!-- Generator: Sketch 49.2 (51160) - http://www.bohemiancoding.com/sketch -->
    <title>algo_hosted</title>
    <desc>Created with Sketch.</desc>
    <defs></defs>
    <g id="Page-1" stroke="none" stroke-width="1" fill="none" fill-rule="evenodd">
        <g id="algo_hosted" fill="#483366" fill-rule="nonzero">
            <path d="M33,17 C27.6266225,27.7390706 22.7538303,37.5079533 18,47 L22.83,47 C23.6781942,45.3031583 24.5260656,43.6061583 25.374375,41.909375 L27.920625,47 L32.349375,47 L27.58875,37.480625 C29.3925683,33.8731592 31.19625,30.265625 33,26.658125 C34.8029094,30.2655656 36.6073344,33.8718122 38.41125,37.47875 L33.650625,47 L38.079375,47 L40.625625,41.9075 C41.474265,43.6046744 42.3217919,45.3025167 43.17,47 L48,47 C42.8022378,36.6097233 37.4557806,25.9155908 33,17 Z" id="path3004"></path>
            <path d="M5.3295455,0 C2.4033128,0 0,2.4033205 0,5.3295455 L0,49.4886516 C0,52.4148766 2.4033128,54.818197 5.3295455,54.818197 L61.6704545,54.818197 C64.5966872,54.818197 67,52.4148766 67,49.4886516 L67,15.9886364 C67,13.0624114 64.5966872,10.6590909 61.6704545,10.6590909 L30.5021307,10.6590909 C28.3134234,7.8721955 26.5796994,4.0370545 24.2684659,1.6892375 C23.3712522,0.7918182 22.1051806,0 20.5568182,0 L5.3295455,0 Z M5.3295455,3.0454545 L20.5568182,3.0454545 C21.1174407,3.0454545 21.5599605,3.2632807 22.1271307,3.8305727 C24.40274,6.6856102 26.3176076,9.8426807 28.4321733,13.0145216 C28.7050613,13.432358 29.1942069,13.6999773 29.6931818,13.7045455 L61.6704545,13.7045455 C62.9621917,13.7045455 63.9545455,14.6969068 63.9545455,15.9886364 L63.9545455,49.4886516 C63.9545455,50.7803811 62.9621917,51.7727425 61.6704545,51.7727425 L5.3295455,51.7727425 C4.0378083,51.7727425 3.0454545,50.7803811 3.0454545,49.4886516 L3.0454545,5.3295455 C3.0454545,4.0378159 4.0378007,3.0454545 5.3295455,3.0454545 Z" id="Shape"></path>
        </g>
    </g>
</svg>