<?xml version="1.0" encoding="UTF-8" standalone="no"?>
<svg width="104px" height="119px" viewBox="0 0 104 119" version="1.1" xmlns="http://www.w3.org/2000/svg" xmlns:xlink="http://www.w3.org/1999/xlink">
    <!-- Generator: Sketch 41.2 (35397) - http://www.bohemiancoding.com/sketch -->
    <title>amazon_s3</title>
    <desc>Created with Sketch.</desc>
    <defs>
        <polygon id="path-1" points="48 0 96 27.7128129 96 83.1384388 48 110.851252 -3.55271368e-14 83.1384388 -6.66133815e-14 27.7128129"></polygon>
        <filter x="-50%" y="-50%" width="200%" height="200%" filterUnits="objectBoundingBox" id="filter-2">
            <feOffset dx="0" dy="2" in="SourceAlpha" result="shadowOffsetOuter1"></feOffset>
            <feGaussianBlur stdDeviation="2" in="shadowOffsetOuter1" result="shadowBlurOuter1"></feGaussianBlur>
            <feColorMatrix values="0 0 0 0 0   0 0 0 0 0   0 0 0 0 0  0 0 0 0.2 0" type="matrix" in="shadowBlurOuter1"></feColorMatrix>
        </filter>
    </defs>
    <g id="Page-1" stroke="none" stroke-width="1" fill="none" fill-rule="evenodd">
        <g id="DesktopHD_Round7_data" transform="translate(-642.000000, -1373.000000)">
            <g id="content" transform="translate(342.000000, 542.000000)">
                <g id="data_guides" transform="translate(0.000000, 318.000000)">
                    <g id="amazon_s3" transform="translate(304.000000, 515.000000)">
                        <g id="Polygon-Copy">
                            <use fill="black" fill-opacity="1" filter="url(#filter-2)" xlink:href="#path-1"></use>
                            <use fill="#FFFFFF" fill-rule="evenodd" xlink:href="#path-1"></use>
                        </g>
                        <g id="s3-sync" transform="translate(22.500000, 24.000000)">
                            <g id="Group">
                                <polyline id="Shape" fill="#8C3123" points="3.99174194 10.3908387 0 12.3870968 0 47.4232258 3.99174194 49.407871 4.01574194 49.3790323 4.01574194 10.4183226 3.99174194 10.3908387"></polyline>
                                <polyline id="Shape" fill="#E05243" points="25.3548387 44.3225806 3.99174194 49.407871 3.99174194 10.3908387 25.3548387 15.3652258 25.3548387 44.3225806"></polyline>
                                <polyline id="Shape" fill="#8C3123" points="15.711871 36.3611613 24.7734194 37.5147097 24.8303226 37.3834839 24.8812258 22.5247742 24.7734194 22.4086452 15.711871 23.5455484 15.711871 36.3611613"></polyline>
                                <polyline id="Shape" fill="#8C3123" points="24.7734194 44.3796774 45.5549032 49.4187097 45.5876129 49.3666452 45.5870323 10.4256774 45.554129 10.3908387 24.7734194 15.4223226 24.7734194 44.3796774"></polyline>
                                <polyline id="Shape" fill="#E05243" points="33.8374839 36.3611613 24.7734194 37.5147097 24.7734194 22.4086452 33.8374839 23.5455484 33.8374839 36.3611613"></polyline>
                                <polyline id="Shape" fill="#5E1F18" points="33.8374839 17.3479355 24.7734194 18.999871 15.711871 17.3479355 24.762 14.9758065 33.8374839 17.3479355"></polyline>
                                <polyline id="Shape" fill="#F2B0A9" points="33.8374839 42.542129 24.7734194 40.8793548 15.711871 42.542129 24.7623871 45.0685161 33.8374839 42.542129"></polyline>
                                <polyline id="Shape" fill="#8C3123" points="15.711871 17.3479355 24.7734194 15.1054839 24.8467742 15.0828387 24.8467742 0.0605806452 24.7734194 0 15.711871 4.53154839 15.711871 17.3479355"></polyline>
                                <polyline id="Shape" fill="#E05243" points="33.8374839 17.3479355 24.7734194 15.1054839 24.7734194 0 33.8374839 4.53154839 33.8374839 17.3479355"></polyline>
                                <polyline id="Shape" fill="#8C3123" points="24.7734194 59.8892903 15.7109032 55.3592903 15.7109032 42.5430968 24.7734194 44.7847742 24.9067742 44.9363226 24.8705806 59.6278065 24.7734194 59.8892903"></polyline>
                                <polyline id="Shape" fill="#E05243" points="24.7734194 59.8892903 33.8367097 55.3592903 33.8367097 42.5430968 24.7734194 44.7847742 24.7734194 59.8892903"></polyline>
                                <polyline id="Shape" fill="#E05243" points="45.5549032 10.3908387 49.5483871 12.3870968 49.5483871 47.4232258 45.5549032 49.4187097 45.5549032 10.3908387"></polyline>
                            </g>
                        </g>
                    </g>
                </g>
            </g>
        </g>
    </g>
</svg>