<?xml version="1.0" encoding="UTF-8"?>
<svg width="51px" height="60px" viewBox="0 0 51 60" version="1.1" xmlns="http://www.w3.org/2000/svg" xmlns:xlink="http://www.w3.org/1999/xlink">
    <!-- Generator: Sketch 49.2 (51160) - http://www.bohemiancoding.com/sketch -->
    <title>amazon_s3</title>
    <desc>Created with Sketch.</desc>
    <defs></defs>
    <g id="Page-1" stroke="none" stroke-width="1" fill="none" fill-rule="evenodd">
        <g id="amazon_s3" fill-rule="nonzero">
            <g id="s3-sync" transform="translate(0.500000, 0.000000)">
                <g id="Group">
                    <polyline id="Shape" fill="#8C3123" points="3.99174194 10.3908387 0 12.3870968 0 47.4232258 3.99174194 49.407871 4.01574194 49.3790323 4.01574194 10.4183226 3.99174194 10.3908387"></polyline>
                    <polyline id="Shape" fill="#E05243" points="25.3548387 44.3225806 3.99174194 49.407871 3.99174194 10.3908387 25.3548387 15.3652258 25.3548387 44.3225806"></polyline>
                    <polyline id="Shape" fill="#8C3123" points="15.711871 36.3611613 24.7734194 37.5147097 24.8303226 37.3834839 24.8812258 22.5247742 24.7734194 22.4086452 15.711871 23.5455484 15.711871 36.3611613"></polyline>
                    <polyline id="Shape" fill="#8C3123" points="24.7734194 44.3796774 45.5549032 49.4187097 45.5876129 49.3666452 45.5870323 10.4256774 45.554129 10.3908387 24.7734194 15.4223226 24.7734194 44.3796774"></polyline>
                    <polyline id="Shape" fill="#E05243" points="33.8374839 36.3611613 24.7734194 37.5147097 24.7734194 22.4086452 33.8374839 23.5455484 33.8374839 36.3611613"></polyline>
                    <polyline id="Shape" fill="#5E1F18" points="33.8374839 17.3479355 24.7734194 18.999871 15.711871 17.3479355 24.762 14.9758065 33.8374839 17.3479355"></polyline>
                    <polyline id="Shape" fill="#F2B0A9" points="33.8374839 42.542129 24.7734194 40.8793548 15.711871 42.542129 24.7623871 45.0685161 33.8374839 42.542129"></polyline>
                    <polyline id="Shape" fill="#8C3123" points="15.711871 17.3479355 24.7734194 15.1054839 24.8467742 15.0828387 24.8467742 0.0605806452 24.7734194 0 15.711871 4.53154839 15.711871 17.3479355"></polyline>
                    <polyline id="Shape" fill="#E05243" points="33.8374839 17.3479355 24.7734194 15.1054839 24.7734194 0 33.8374839 4.53154839 33.8374839 17.3479355"></polyline>
                    <polyline id="Shape" fill="#8C3123" points="24.7734194 59.8892903 15.7109032 55.3592903 15.7109032 42.5430968 24.7734194 44.7847742 24.9067742 44.9363226 24.8705806 59.6278065 24.7734194 59.8892903"></polyline>
                    <polyline id="Shape" fill="#E05243" points="24.7734194 59.8892903 33.8367097 55.3592903 33.8367097 42.5430968 24.7734194 44.7847742 24.7734194 59.8892903"></polyline>
                    <polyline id="Shape" fill="#E05243" points="45.5549032 10.3908387 49.5483871 12.3870968 49.5483871 47.4232258 45.5549032 49.4187097 45.5549032 10.3908387"></polyline>
                </g>
            </g>
        </g>
    </g>
</svg>