<?xml version="1.0" encoding="UTF-8"?>
<svg width="60px" height="71px" viewBox="0 0 60 71" version="1.1" xmlns="http://www.w3.org/2000/svg" xmlns:xlink="http://www.w3.org/1999/xlink">
    <!-- Generator: Sketch 49.2 (51160) - http://www.bohemiancoding.com/sketch -->
    <title>android</title>
    <desc>Created with Sketch.</desc>
    <defs></defs>
    <g id="Page-1" stroke="none" stroke-width="1" fill="none" fill-rule="evenodd">
        <g id="android" fill="#6AB344" fill-rule="nonzero">
            <g id="android-plain">
                <path d="M4.70882353,23.076775 C2.32470588,23.0755917 0.392352941,25.02395 0.391764706,27.4202 L0.394705882,45.6056667 C0.395294118,48.0102 2.32882353,49.9508667 4.71352941,49.950275 C7.09941176,49.950275 9.03235294,48.0096083 9.03,45.6062583 L9.03,27.4178333 C9.02882353,25.022175 7.09411765,23.0755917 4.70882353,23.076775 Z M39.5282353,6.74559167 L42.5417647,1.21055 C42.7023529,0.921225 42.5970588,0.553208333 42.3058824,0.389316667 C42.0117647,0.232525 41.6488235,0.339025 41.4929412,0.630125 L38.4488235,6.22315 C35.8876471,5.0765 33.0211765,4.43395 29.9882353,4.43690833 C26.9635294,4.43395 24.0982353,5.074725 21.5476471,6.21486667 L18.5,0.636041667 C18.3417647,0.341983333 17.9770588,0.235483333 17.6894118,0.395825 C17.3964706,0.554983333 17.2888235,0.923591667 17.4517647,1.212325 L20.4664706,6.74381667 C14.5429412,9.81634167 10.5405882,15.667925 10.5441153,22.3863 L49.4370588,22.3815667 C49.4382353,15.6655583 45.4429412,9.82580833 39.5282353,6.74559167 Z M21.1423529,15.2993167 C20.2476471,15.2975417 19.5170588,14.5650583 19.5170588,13.6598083 C19.5170588,12.7587 20.2452941,12.0179333 21.1441176,12.018525 C22.0458824,12.0179333 22.7752941,12.7587 22.7764706,13.6598083 C22.7764706,14.563875 22.0452941,15.298725 21.1423529,15.2993167 Z M38.8517647,15.2963583 C37.9529412,15.2975417 37.2211765,14.5644667 37.2211765,13.65685 C37.2247059,12.7575167 37.9517647,12.01675 38.8523529,12.0132 C39.7470588,12.0161583 40.4805882,12.7575167 40.48,13.6574417 C40.4817647,14.5626917 39.7505882,15.29695 38.8517647,15.2963583 Z M10.7029412,23.8974167 L10.7094118,52.0814583 C10.7076471,54.64515 12.7694118,56.7148 15.3164706,56.7148 L18.4535294,56.7159833 L18.4570588,66.33885 C18.4564706,68.7351 20.3929412,70.6828667 22.7717647,70.6828667 C25.1576471,70.6828667 27.0905882,68.733325 27.0911765,66.3358917 L27.0888235,56.7153917 L32.9176471,56.7136167 L32.92,66.3358917 C32.92,68.7303667 34.8570588,70.682275 37.2364706,70.6775417 C39.6223529,70.6793167 41.5564706,68.729775 41.5558824,66.3323417 L41.5529412,56.7124333 L44.7011765,56.7100667 C47.2423529,56.71125 49.3094118,54.6392333 49.3105882,52.07495 L49.3052941,23.8909083 L10.7029412,23.8974167 Z M59.6052941,27.4136917 C59.6047059,25.0144833 57.6723529,23.0702667 55.2870588,23.07145 C52.9029412,23.0690833 50.9711765,25.0162583 50.9711765,27.4154667 L50.9747059,45.6021167 C50.9741176,48.0031 52.9058824,49.9437667 55.2917647,49.9443583 C57.6764706,49.9437667 59.6076471,48.0031 59.6082353,45.59975 L59.6052941,27.4136917 Z" id="Shape"></path>
            </g>
        </g>
    </g>
</svg>