<?xml version="1.0" encoding="UTF-8"?>
<svg width="55px" height="66px" viewBox="0 0 55 66" version="1.1" xmlns="http://www.w3.org/2000/svg" xmlns:xlink="http://www.w3.org/1999/xlink">
    <!-- Generator: Sketch 49.2 (51160) - http://www.bohemiancoding.com/sketch -->
    <title>aws_lambda</title>
    <desc>Created with Sketch.</desc>
    <defs></defs>
    <g id="Page-1" stroke="none" stroke-width="1" fill="none" fill-rule="evenodd">
        <g id="aws_lambda" fill-rule="nonzero">
            <g id="lambda-copy">
                <g id="Group">
                    <polyline id="Shape" fill="#9D5025" points="0 52.217071 3.50667969 53.9545742 4.08203125 52.9422194 4.08203125 12.6321871 3.50667969 11.8883032 0 13.6258065 0 52.217071"></polyline>
                    <polyline id="Shape" fill="#F68536" points="10.2433203 13.5342581 3.50667969 11.8883032 3.50667969 53.9545742 10.2433203 52.3999548 10.2433203 13.5342581"></polyline>
                    <polyline id="Shape" fill="#6B3A19" points="30.9145117 16.7350452 35.7130469 14.2660065 51.6778711 20.3929355 47.4329883 20.9415871 30.9145117 16.7350452"></polyline>
                    <polyline id="Shape" fill="#FBBF93" points="31.0990625 49.1078323 35.8054297 51.576871 51.7700391 45.4499419 47.5251563 44.9010774 31.0990625 49.1078323"></polyline>
                    <polyline id="Shape" fill="#9D5025" points="32.29875 42.3404903 40.6963477 43.4380065 41.178457 42.5806452 41.178457 23.4193548 40.6963477 22.404871 32.29875 23.5021742 32.29875 42.3404903"></polyline>
                    <polyline id="Shape" fill="#9D5025" points="7.65939453 9.78503226 12.8272461 7.22444516 13.3918555 8.30322581 13.3918555 57.483871 12.8272461 58.6184323 7.65939453 56.0578452 7.65939453 9.78503226"></polyline>
                    <polyline id="Shape" fill="#F68536" points="23.3472852 55.1434258 12.8272461 58.5268839 12.8272461 7.22444516 23.3472852 10.6081161 23.3472852 55.1434258"></polyline>
                    <polyline id="Shape" fill="#9D5025" points="19.2869531 61.727671 27.5 65.8428774 28.359375 64.8645871 28.359375 1.20652258 27.5 0 19.2869531 4.11520645 19.2869531 61.727671"></polyline>
                    <polyline id="Shape" fill="#9D5025" points="47.2482227 20.9415871 51.4933203 20.3929355 51.8579102 20.9177419 51.8579102 44.9225806 51.4933203 45.5412774 47.2482227 44.9926258 47.2482227 20.9415871"></polyline>
                    <polyline id="Shape" fill="#F68536" points="40.6963477 22.404871 40.6963477 43.5293419 49.4630469 32.9214387 40.6963477 22.404871"></polyline>
                    <path d="M51.4933203,11.8883032 L27.5,0 L27.5,65.8428774 L55,52.217071 L55,13.6258065 L51.4933203,11.8883032 Z M51.4933203,45.5732129 L35.7130469,50.2434581 L35.7130469,15.5994194 L51.4933203,20.2696645 L51.4933203,45.5732129 Z" id="Shape" fill="#F68536"></path>
                </g>
            </g>
        </g>
    </g>
</svg>