<?xml version="1.0" encoding="UTF-8" standalone="no"?>
<svg xmlns="http://www.w3.org/2000/svg" xmlns:xlink="http://www.w3.org/1999/xlink" width="104" height="119" viewBox="0 0 104 119">
  <defs>
    <polygon id="c_net-b" points="48 0 96 27.75 96 83.25 48 111 0 83.25 0 27.75"/>
    <filter id="c_net-a" width="200%" height="200%" x="-50%" y="-50%" filterUnits="objectBoundingBox">
      <feOffset dy="2" in="SourceAlpha" result="shadowOffsetOuter1"/>
      <feGaussianBlur in="shadowOffsetOuter1" result="shadowBlurOuter1" stdDeviation="2"/>
      <feColorMatrix in="shadowBlurOuter1" values="0 0 0 0 0   0 0 0 0 0   0 0 0 0 0  0 0 0 0.2 0"/>
    </filter>
  </defs>
  <g fill="none" fill-rule="evenodd" transform="translate(4 2)">
    <use fill="#000" filter="url(#c_net-a)" xlink:href="#c_net-b"/>
    <use fill="#FFF" xlink:href="#c_net-b"/>
    <g transform="translate(26 18)">
      <polygon fill="#691A79" points="43.494 13.5 41.067 13.5 40.46 16.5 38.538 16.5 39.145 13.5 36.667 13.5 36.06 16.5 33.379 16.5 33.379 19 35.605 19 35.149 21 33.379 21 33.379 23.5 34.644 23.5 34.037 26.5 36.464 26.5 37.071 23.5 38.993 23.5 38.386 26.5 40.864 26.5 41.471 23.5 44 23.5 44 21 41.926 21 42.382 19 44 19 44 16.5 42.887 16.5 43.494 13.5"/>
      <polygon fill="#FFF" points="39.499 21 37.577 21 38.032 19 39.954 19"/>
      <path fill="#691A79" d="M20.2298851,32.25 C13.4022989,32.25 7.83908046,26.75 7.83908046,20 C7.83908046,13.25 13.4022989,7.75 20.2298851,7.75 C24.8321839,7.75 28.8781609,10.25 31.0022989,14 L37.5770115,10.25 C34.137931,4.3 27.6643678,0.25 20.2298851,0.25 C9.2045977,0.25 0.252873563,9.1 0.252873563,20 C0.252873563,30.9 9.2045977,39.75 20.2298851,39.75 C27.6137931,39.75 34.0873563,35.75 37.5264368,29.85 L31.0022989,26.05 C28.8781609,29.75 24.8321839,32.25 20.2298851,32.25 L20.2298851,32.25 Z"/>
    </g>
    <g fill="#000" fill-rule="nonzero" transform="translate(20 66)">
      <path d="M3.489 19.131C3.489 19.5465 3.3415 19.905 3.0415 20.2085 2.7435 20.5105 2.3815 20.663 1.9565 20.663 1.541 20.663 1.1875 20.5105.8985 20.2085.6085 19.9055.4645 19.5465.4645 19.131.4645 18.704.609 18.3435.8985 18.0455 1.188 17.746 1.5415 17.5975 1.9565 17.5975 2.3815 17.5975 2.7435 17.748 3.0415 18.051 3.3415 18.3545 3.489 18.7145 3.489 19.131M22.4765 20.351L19.7105 20.351 9.671 4.847C9.4365 4.474 9.234 4.0685 9.0625 3.626L8.98 3.626C9.052 4.0415 9.088 4.9325 9.088 6.2975L9.088 20.351 6.8085 20.351 6.8085.8995 9.7675.8995 19.5065 16.1595C19.894 16.765 20.1595 17.199 20.294 17.46L20.348 17.46C20.258 16.9005 20.211 15.9465 20.211 14.6L20.211.9 22.477.9 22.477 20.351 22.4765 20.351 22.4765 20.351z"/>
      <polygon points="37.093 20.351 26.784 20.351 26.784 .899 36.645 .899 36.645 2.961 29.061 2.961 29.061 9.431 36.089 9.431 36.089 11.493 29.061 11.493 29.061 18.289 37.093 18.289"/>
      <polygon points="52.73 2.961 47.127 2.961 47.127 20.352 44.848 20.352 44.848 2.961 39.234 2.961 39.234 .898 52.73 .898 52.73 2.961"/>
    </g>
  </g>
</svg>