<?xml version="1.0" encoding="UTF-8"?>
<svg width="53px" height="69px" viewBox="0 0 53 69" version="1.1" xmlns="http://www.w3.org/2000/svg" xmlns:xlink="http://www.w3.org/1999/xlink">
    <g id="Page-1" stroke="none" stroke-width="1" fill="none" fill-rule="evenodd">
        <g id="c_sharp_net" fill-rule="nonzero">
            <g id="Group" transform="translate(6.000000, 0.000000)">
                <polygon id="Shape" fill="#691A79" points="43.494 13.5 41.067 13.5 40.46 16.5 38.538 16.5 39.145 13.5 36.667 13.5 36.06 16.5 33.379 16.5 33.379 19 35.605 19 35.149 21 33.379 21 33.379 23.5 34.644 23.5 34.037 26.5 36.464 26.5 37.071 23.5 38.993 23.5 38.386 26.5 40.864 26.5 41.471 23.5 44 23.5 44 21 41.926 21 42.382 19 44 19 44 16.5 42.887 16.5"></polygon>
                <polygon id="Shape" fill="#FFFFFF" points="39.499 21 37.577 21 38.032 19 39.954 19"></polygon>
                <path d="M20.2298851,32.25 C13.4022989,32.25 7.83908046,26.75 7.83908046,20 C7.83908046,13.25 13.4022989,7.75 20.2298851,7.75 C24.8321839,7.75 28.8781609,10.25 31.0022989,14 L37.5770115,10.25 C34.137931,4.3 27.6643678,0.25 20.2298851,0.25 C9.2045977,0.25 0.252873563,9.1 0.252873563,20 C0.252873563,30.9 9.2045977,39.75 20.2298851,39.75 C27.6137931,39.75 34.0873563,35.75 37.5264368,29.85 L31.0022989,26.05 C28.8781609,29.75 24.8321839,32.25 20.2298851,32.25 Z" id="Shape" fill="#691A79"></path>
            </g>
            <g id="Group" transform="translate(0.000000, 48.000000)" fill="#000000">
                <path d="M3.489,19.131 C3.489,19.5465 3.3415,19.905 3.0415,20.2085 C2.7435,20.5105 2.3815,20.663 1.9565,20.663 C1.541,20.663 1.1875,20.5105 0.8985,20.2085 C0.6085,19.9055 0.4645,19.5465 0.4645,19.131 C0.4645,18.704 0.609,18.3435 0.8985,18.0455 C1.188,17.746 1.5415,17.5975 1.9565,17.5975 C2.3815,17.5975 2.7435,17.748 3.0415,18.051 C3.3415,18.3545 3.489,18.7145 3.489,19.131 Z M22.4765,20.351 L19.7105,20.351 L9.671,4.847 C9.4365,4.474 9.234,4.0685 9.0625,3.626 L8.98,3.626 C9.052,4.0415 9.088,4.9325 9.088,6.2975 L9.088,20.351 L6.8085,20.351 L6.8085,0.8995 L9.7675,0.8995 L19.5065,16.1595 C19.894,16.765 20.1595,17.199 20.294,17.46 L20.348,17.46 C20.258,16.9005 20.211,15.9465 20.211,14.6 L20.211,0.9 L22.477,0.9 L22.477,20.351 L22.4765,20.351 Z" id="Shape"></path>
                <polygon id="Shape" points="37.093 20.351 26.784 20.351 26.784 0.899 36.645 0.899 36.645 2.961 29.061 2.961 29.061 9.431 36.089 9.431 36.089 11.493 29.061 11.493 29.061 18.289 37.093 18.289"></polygon>
                <polygon id="Shape" points="52.73 2.961 47.127 2.961 47.127 20.352 44.848 20.352 44.848 2.961 39.234 2.961 39.234 0.898 52.73 0.898"></polygon>
            </g>
        </g>
    </g>
</svg>