<svg id="Layer_1" data-name="Layer 1" xmlns="http://www.w3.org/2000/svg" viewBox="0 0 200 200"><defs><style>.cls-1{fill:#fff;}.cls-2{fill:#f38020;}.cls-3{fill:#faae40;}</style></defs><title>icn-cloudflare</title><polygon class="cls-1" points="169.43 99.8 148.94 88.05 145.4 86.52 61.56 87.09 61.56 129.66 169.43 129.66 169.43 99.8"/><path class="cls-2" d="M132.12,125.74c1-3.44.62-6.59-1.05-8.93a9.07,9.07,0,0,0-7.21-3.54L65,112.51a1.09,1.09,0,0,1-.91-.48A1.32,1.32,0,0,1,64,111a1.61,1.61,0,0,1,1.39-1.05l59.33-.76c7-.33,14.67-6,17.34-13l3.39-8.84a1.9,1.9,0,0,0,.1-1.15,38.63,38.63,0,0,0-74.29-4A17.37,17.37,0,0,0,43.55,94.35a18.24,18.24,0,0,0,.43,6.07,24.68,24.68,0,0,0-24,24.7,30.09,30.09,0,0,0,.24,3.58,1.18,1.18,0,0,0,1.15,1H129.92a1.48,1.48,0,0,0,1.39-1.05Z"/><path class="cls-3" d="M150.85,88c-.53,0-1.1,0-1.62,0a1,1,0,0,0-.86.67l-2.29,8c-1,3.44-.62,6.59,1.05,8.93a9.07,9.07,0,0,0,7.21,3.54l12.52.76a1.09,1.09,0,0,1,.91.48,1.35,1.35,0,0,1,.14,1.05,1.61,1.61,0,0,1-1.39,1.05l-13,.76c-7.07.33-14.67,6-17.34,13l-1,2.44a.69.69,0,0,0,.67,1h44.81a1.18,1.18,0,0,0,1.15-.86,32.65,32.65,0,0,0,1.19-8.69A32.18,32.18,0,0,0,150.85,88"/></svg>