<?xml version="1.0" encoding="UTF-8"?>
<svg width="40px" height="40px" viewBox="0 0 40 40" version="1.1" xmlns="http://www.w3.org/2000/svg" xmlns:xlink="http://www.w3.org/1999/xlink">
    <title>python</title>
    <defs>
        <path d="M3.06322517,0.453031927 C3.99677952,2.71819156 7.26421968,5.72952143 11.2901728,5.72952143 C13.5073643,5.72952143 15.5203409,5.01000014 17.0957138,3.78414905 C17.2124081,3.73085116 18.2918303,4.85010653 18.7294339,5.27648951 C18.8169546,5.38308526 18.8169546,5.40973419 18.8169546,5.40973419 C13.5073643,9.64691514 4.49273025,9.03398958 0.233388584,1.70553196 C0.58347146,0.639574488 1.07942221,-7.57373676e-15 1.07942221,-7.57373676e-15 C2.21719155,0.426382991 3.06322517,0.453031927 3.06322517,0.453031927 L3.06322517,0.453031927 Z" id="path-1"></path>
        <rect id="path-3" x="0.116694877" y="0.133244689" width="22.8720819" height="23.9840434"></rect>
    </defs>
    <g id="Page-1" stroke="none" stroke-width="1" fill="none" fill-rule="evenodd">
        <g id="python" transform="translate(1.000000, 1.000000)">
            <circle id="Oval" stroke="#FFFFFF" fill="#FFFFFF" fill-rule="nonzero" cx="19" cy="19" r="19"></circle>
            <g id="conda" transform="translate(7.000000, 7.000000)">
                <rect id="backgroundrect" x="0" y="0" width="23.987047" height="23.7692308"></rect>
                <g id="g19">
                    <path d="M6.15562392,12.7914897 C5.65967318,12.684894 4.6385981,12.3917557 3.55917592,11.7788301 C4.72611883,11.1659046 5.77636747,11.0593088 6.15562392,11.0326599 C6.21397104,10.6329258 6.30149178,10.2598407 6.41818608,9.8867556 C6.03892962,9.6202662 5.30959031,9.08728752 4.6385981,8.28781938 C5.71802031,8.20787256 6.65157468,8.34111726 7.11835182,8.42106408 C7.35174042,8.04797892 7.64347614,7.70154276 7.99355904,7.3551066 C7.789344,7.03531932 7.41008754,6.39574488 7.176699,5.51632994 C8.05190616,5.86276613 8.69372478,6.28914912 9.01463406,6.52898952 C9.45223764,6.23585124 9.91901484,5.99601081 10.385792,5.78281931 C10.385792,5.40973419 10.385792,4.74351076 10.5608335,3.94404265 C11.1734785,4.53031927 11.5527349,5.08994695 11.6986028,5.38308526 C12.2820742,5.27648951 12.8947193,5.22319163 13.5365379,5.24984059 C13.6532322,4.95670228 13.8866208,4.45037248 14.2950508,3.83744691 C14.5867865,4.53031927 14.7034808,5.08994695 14.761828,5.38308526 C15.4036466,5.51632994 16.0162916,5.7028725 16.5997631,5.96936188 C17.5333174,5.24984059 18.4085246,4.93005332 19.4295997,4.6902129 C19.4295997,3.51765967 19.2545582,2.37175539 18.5835661,1.2258511 C17.9125739,0.932712792 17.1832345,0.719521296 16.4538952,0.559627675 C15.6953823,0.932712792 15.0827373,1.35909578 14.557613,1.81212771 C14.1783565,1.27914897 13.6824058,0.719521296 13.0697607,0.213191495 C12.778025,0.213191495 12.2237271,0.186542558 11.1443049,0.346436181 C10.6191806,0.959361732 10.2399242,1.57228728 9.9481884,2.18521283 C9.30636978,1.81212771 8.51868336,1.49234047 7.61430258,1.27914897 C7.08917826,1.49234047 6.5932275,1.7321809 6.0972768,1.99867027 C5.92223533,2.77148945 5.86388819,3.49101074 5.89306176,4.15723417 C5.13454886,4.02398947 4.25934167,3.97069161 3.32578732,4.07728735 C3.00487801,4.39707459 2.68396873,4.74351076 2.39223299,5.11659589 C2.45058014,6.0759576 2.7131423,6.90207468 3.09239873,7.62159594 C2.21719155,7.80813852 1.31281079,8.15457468 0.466777169,8.68755342 C0.350082877,9.03398958 0.262562158,9.40707474 0.175041439,9.7535109 C0.700165752,10.579628 1.37115793,11.2458514 2.04215011,11.7521812 C1.37115793,12.258511 0.700165752,12.9513833 0.087520719,13.8840961 C0.145867865,14.2838302 0.233388584,14.6569153 0.350082877,15.0300004 L0.37925645,15.0300004 C1.07942221,13.6975536 1.92545582,12.8181386 2.74231586,12.231862 C4.40520952,13.2711706 6.03892962,13.5643089 6.27231822,13.5909578 C6.24314466,13.3511174 6.18479748,13.111277 6.15562392,12.7914897 L6.15562392,12.7914897 Z M17.2415817,1.46569153 C17.8250531,2.26515964 18.0292682,3.25117031 18.0876153,3.81079798 C17.562491,3.99734054 16.7456309,4.34377671 15.9579445,4.93005332 C15.8412502,4.42372352 15.6370352,3.6775533 15.1994315,2.82478731 C15.7245559,2.34510644 16.395548,1.86542558 17.2415817,1.46569153 L17.2415817,1.46569153 Z M12.1362064,0.932712792 C12.8363722,1.46569153 13.3614965,2.10526602 13.7407529,2.69154263 C13.1281079,3.41106392 12.7488514,4.10393629 12.5446364,4.58361715 C12.2529007,4.10393629 11.7277763,3.46436181 10.9400899,2.82478731 C11.202652,2.21186176 11.5819085,1.54563834 12.1362064,0.932712792 L12.1362064,0.932712792 Z M7.14752538,2.2385107 C8.16860046,2.42505325 8.95628694,2.77148945 9.62727912,3.19787243 C9.33554334,4.13058521 9.27719622,4.95670228 9.27719622,5.48968101 C8.7520719,5.14324481 7.99355904,4.71686183 7.00165752,4.42372352 C6.91413678,3.78414905 6.9433104,3.0379788 7.14752538,2.2385107 L7.14752538,2.2385107 Z M6.06810318,5.16989377 C6.27231822,6.2092023 6.65157468,7.00867038 6.9433104,7.51500018 C6.27231822,7.40840448 5.25124315,7.32845766 4.11347381,7.46170236 C3.73421735,6.79547892 3.44248161,5.96936188 3.38413448,5.03664907 C4.37603596,4.93005332 5.28041672,5.01000014 6.06810318,5.16989377 L6.06810318,5.16989377 Z M0.962727912,9.43372368 C1.80876153,8.874096 2.74231586,8.58095772 3.58834949,8.42106408 C4.20099451,9.30047898 4.95950741,9.94005348 5.48463173,10.3397875 C4.81363955,10.4463833 3.82173807,10.6862237 2.77148943,11.2991492 C2.12967083,10.8461173 1.48785223,10.2331918 0.962727912,9.43372368 L0.962727912,9.43372368 Z" id="path21" stroke="#2DB24A" stroke-width="0.25" fill="#FFFFFF" fill-rule="nonzero"></path>
                    <g id="g23" fill="#43B02A" fill-rule="nonzero" stroke="#43B02A" stroke-width="0.25">
                        <path d="M11.7277763,5.38308526 C11.5527349,5.08994695 11.202652,4.50367034 10.590007,3.94404265 C10.385792,4.74351076 10.385792,5.43638312 10.4149656,5.78281931 C10.385792,5.78281931 10.9692635,5.51632994 11.7277763,5.38308526 L11.7277763,5.38308526 Z" id="path25"></path>
                        <path d="M9.01463406,6.50234058 C8.69372478,6.26250018 8.08107972,5.83611718 7.176699,5.48968101 C7.41008754,6.36909594 7.789344,7.00867038 7.99355904,7.32845766 C7.99355904,7.38175554 8.40198906,6.92872362 9.01463406,6.50234058 L9.01463406,6.50234058 Z" id="path35"></path>
                        <path d="M12.5446364,4.58361715 C12.7488514,4.10393629 13.1281079,3.41106392 13.7407529,2.69154263 C13.3614965,2.07861708 12.8363722,1.46569153 12.1362064,0.932712792 C11.5819085,1.57228728 11.202652,2.21186176 10.9400899,2.85143626 C11.7277763,3.46436181 12.2237271,4.10393629 12.5446364,4.58361715 L12.5446364,4.58361715 Z" id="path37"></path>
                        <path d="M7.14752538,8.42106408 L7.14752538,8.42106408 C6.68074824,8.34111726 5.74719391,8.20787256 4.66777169,8.28781938 C5.30959031,9.1139364 6.03892962,9.64691514 6.44735964,9.8867556 C6.41818608,9.91340454 6.65157468,9.19388322 7.14752538,8.42106408 L7.14752538,8.42106408 Z" id="path39"></path>
                        <path d="M2.80066303,11.2991492 C3.85091164,10.6862237 4.84281312,10.4197343 5.51380529,10.3397875 C4.988681,9.94005348 4.2301681,9.30047898 3.61752305,8.42106408 C2.74231586,8.58095772 1.8379351,8.90074494 0.991901484,9.43372368 C1.48785223,10.2331918 2.12967083,10.8461173 2.80066303,11.2991492 L2.80066303,11.2991492 Z" id="path43"></path>
                        <path d="M6.15562392,11.0593088 C5.74719391,11.0859578 4.72611883,11.1659046 3.55917592,11.805479 C4.6385981,12.4184046 5.65967318,12.7115429 6.15562392,12.8181386 L6.15562392,12.8181386 C6.06810318,12.231862 6.06810318,11.6189365 6.15562392,11.0593088 L6.15562392,11.0593088 L6.15562392,11.0593088 Z" id="path45"></path>
                        <path d="M9.62727912,3.19787243 C8.9854605,2.79813838 8.16860046,2.45170221 7.14752538,2.2385107 C6.9433104,3.0379788 6.91413678,3.78414905 6.97248396,4.42372352 C7.96438542,4.71686183 8.72289834,5.14324481 9.24802266,5.48968101 C9.24802266,4.95670228 9.33554334,4.13058521 9.62727912,3.19787243 L9.62727912,3.19787243 Z" id="path47"></path>
                        <path d="M18.6127396,1.25250004 C18.6127396,1.25250004 19.4295997,3.5443086 19.4587732,4.71686183 C18.4668718,4.93005332 17.5916645,5.24984059 16.6289366,5.99601081 C17.154061,6.23585124 17.6208381,6.52898952 18.0584417,6.87542574 C18.5252189,7.24851084 18.9628225,7.40840448 19.5754675,7.14191508 C19.9255504,6.92872362 21.8801798,5.08994695 22.0843948,4.85010653 C22.551172,4.39707459 22.4344777,3.65090437 21.9385269,3.30446818 C20.7132368,2.26515964 18.6127396,1.25250004 18.6127396,1.25250004 L18.6127396,1.25250004 Z" id="path49"></path>
                        <path d="M0.495950741,8.68755342 C1.37115793,8.15457468 2.24636512,7.80813852 3.12157233,7.62159594 C2.74231586,6.90207468 2.47975371,6.0759576 2.42140656,5.11659589 C1.57537294,6.2092023 0.904380768,7.43505342 0.495950741,8.68755342 L0.495950741,8.68755342 Z" id="path51"></path>
                        <path d="M6.91413678,7.51500018 C6.62240106,7.00867038 6.24314466,6.18255336 6.03892962,5.16989377 C5.25124315,5.01000014 4.37603596,4.93005332 3.35496091,5.06329802 C3.41330804,5.99601081 3.70504378,6.79547892 4.08430022,7.4883513 C5.25124315,7.32845766 6.24314466,7.40840448 6.91413678,7.51500018 L6.91413678,7.51500018 Z" id="path55"></path>
                        <path d="M3.35496091,4.10393629 C4.28851523,3.99734054 5.16372242,4.05063842 5.92223533,4.1838831 C5.89306176,3.51765967 5.95140889,2.79813838 6.12645036,2.02531921 C6.62240106,1.75882984 7.11835182,1.51898941 7.64347614,1.30579791 C8.57703048,1.51898941 9.33554334,1.83877665 9.97736196,2.21186176 C10.2690977,1.59893621 10.6483541,0.986010666 11.1734785,0.373085116 C8.51868336,0.746170236 6.00975606,1.81212771 4.08430022,3.46436181 C3.4716552,3.97069161 2.91735731,4.55696822 2.42140656,5.16989377 C2.7131423,4.77015971 3.0340516,4.42372352 3.35496091,4.10393629 L3.35496091,4.10393629 Z" id="path59"></path>
                        <path d="M0.350082877,9.22053216 C0.408430022,9.03398958 0.437603596,8.874096 0.495950741,8.68755342 C0.437603596,8.874096 0.37925645,9.06063858 0.350082877,9.22053216 L0.350082877,9.22053216 Z" id="path67"></path>
                        <path d="M2.10049726,11.7788301 C1.42950508,11.2725003 0.758512896,10.6062769 0.233388584,9.78015984 C-0.058347146,11.1392556 -0.058347146,12.5782982 0.175041439,13.9107451 C0.72933933,12.9780323 1.4003315,12.3118088 2.10049726,11.7788301 L2.10049726,11.7788301 Z" id="path71"></path>
                        <path d="M21.7051384,18.6542558 C19.8672032,17.0553196 19.4879468,16.0160111 17.9417474,17.1086175 C13.7115793,20.1465963 7.61430258,18.3344686 6.33066534,13.6176068 C6.0972768,13.5909578 4.46355668,13.2978195 2.80066303,12.258511 C1.98380297,12.8447876 1.13776935,13.7508515 0.437603596,15.0566494 L0.408430022,15.0566494 C3.06322517,24.2238838 15.987118,26.3557987 21.9677005,20.6262772 C22.959602,19.6669154 22.0552212,19.000692 21.7051384,18.6542558 L21.7051384,18.6542558 Z" id="path75"></path>
                        <path d="M17.2415817,1.46569153 C16.395548,1.83877665 15.7245559,2.31845751 15.1994315,2.82478731 C15.6370352,3.6775533 15.8412502,4.45037248 15.9579445,4.93005332 C16.7748045,4.34377671 17.5916645,3.99734054 18.0876153,3.81079798 C18.0292682,3.27781925 17.8250531,2.29180858 17.2415817,1.46569153 L17.2415817,1.46569153 Z" id="path79"></path>
                        <path d="M14.3242244,3.83744691 C13.9157944,4.42372352 13.6824058,4.95670228 13.5657115,5.24984059 L13.5657115,5.24984059 C13.9741415,5.27648951 14.3825715,5.32978738 14.7910015,5.40973419 C14.761828,5.08994695 14.6159601,4.53031927 14.3242244,3.83744691 L14.3242244,3.83744691 Z" id="path83"></path>
                        <path d="M17.562491,0.879414918 C17.4166231,0.826117044 17.2415817,0.77281917 17.0957138,0.746170236 C17.2707553,0.77281917 17.4166231,0.826117044 17.562491,0.879414918 L17.562491,0.879414918 Z" id="path85"></path>
                        <path d="M14.5867865,1.81212771 C15.1119109,1.35909578 15.7245559,0.932712792 16.4830688,0.559627675 C15.4036466,0.319787243 14.2950508,0.213191495 13.0989343,0.213191495 C13.7115793,0.719521296 14.2075301,1.27914897 14.5867865,1.81212771 L14.5867865,1.81212771 Z" id="path87"></path>
                    </g>
                    <g id="g91">
                        <g id="g99-Clipped">
                            <mask id="mask-2" fill="white">
                                <use xlink:href="#path-1"></use>
                            </mask>
                            <g id="path-1"></g>
                            <g id="g99" mask="url(#mask-2)">
                                <g id="svg_2">
                                    <g id="rect107-Clipped">
                                        <mask id="mask-4" fill="white">
                                            <use xlink:href="#path-3"></use>
                                        </mask>
                                        <g id="path-3"></g>
                                        <rect id="rect107" stroke="#2DB24A" stroke-width="0.25" fill="#FFFFFF" fill-rule="nonzero" mask="url(#mask-4)" x="0.554297041" y="12.8181388" width="22.3177831" height="11.4590431"></rect>
                                    </g>
                                    <g id="use109" stroke="#2DB24A" stroke-width="0.25">
                                        <rect id="SVGID_4_" x="0" y="0" width="22.8720819" height="23.9840434"></rect>
                                    </g>
                                </g>
                            </g>
                        </g>
                        <g id="use111" transform="translate(2.273684, 14.307692)" stroke="#2DB24A" stroke-width="0.25">
                            <path d="M3.00673194,0.669010578 C3.9402865,2.9341696 7.2077265,5.945501 11.233679,5.945501 C13.4508713,5.945501 15.463847,5.22597926 17.039221,4.00012865 C17.155915,3.94682911 18.2353372,5.06608594 18.6729419,5.49246815 C18.7604625,5.5990637 18.7604625,5.62571259 18.7604625,5.62571259 C13.4508713,9.86289462 4.4362373,9.2499684 0.176895468,1.92151008 C0.526978427,0.855552792 1.02292898,0.215978595 1.02292898,0.215978595 C2.16069842,0.642361686 3.00673194,0.669010578 3.00673194,0.669010578 L3.00673194,0.669010578 Z" id="SVGID_2_"></path>
                        </g>
                    </g>
                </g>
            </g>
        </g>
    </g>
</svg>
