<?xml version="1.0" encoding="UTF-8"?>
<svg width="71px" height="71px" viewBox="0 0 71 71" version="1.1" xmlns="http://www.w3.org/2000/svg" xmlns:xlink="http://www.w3.org/1999/xlink">
    <!-- Generator: Sketch 49.2 (51160) - http://www.bohemiancoding.com/sketch -->
    <title>dataworld</title>
    <desc>Created with Sketch.</desc>
    <defs></defs>
    <g id="Page-1" stroke="none" stroke-width="1" fill="none" fill-rule="evenodd">
        <g id="dataworld" fill-rule="nonzero">
            <g id="Group">
                <g>
                    <circle id="Oval" fill="#9FC9EC" cx="35.4202247" cy="35.4202247" r="35.4202247"></circle>
                    <g transform="translate(11.966292, 7.977528)">
                        <g id="XMLID_62_" transform="translate(17.550562, 43.078652)">
                            <g id="Group">
                                <path d="M5.74382022,7.81797753 C5.50449438,7.57865169 5.26516854,7.41910112 4.94606742,7.33932584 L4.94606742,0.717977528 L3.98876404,0.717977528 L3.98876404,6.86067416 C3.11123596,6.38202247 1.99438202,6.54157303 1.27640449,7.33932584 C0.398876404,8.29662921 1.11685393,10.9292135 1.11685393,10.5303371 C1.11685393,10.2910112 1.51573034,9.89213483 2.0741573,9.57303371 C2.0741573,10.5303371 2.39325843,11.4078652 2.39325843,11.088764 C2.47303371,10.2910112 6.62134831,8.61573034 5.74382022,7.81797753 Z" id="XMLID_64_" fill="#F4D3AA"></path>
                                <path d="M5.90337079,7.65842697 C5.74382022,7.4988764 5.26516854,7.33932584 5.18539326,7.17977528 C5.10561798,7.02022472 5.18539326,6.7011236 5.18539326,6.54157303 C5.18539326,5.74382022 5.18539326,5.0258427 5.18539326,4.22808989 C5.18539326,3.03146067 5.18539326,1.83483146 5.18539326,0.638202247 C5.18539326,0.558426966 5.10561798,0.478651685 5.0258427,0.478651685 C4.70674157,0.478651685 4.38764045,0.478651685 4.06853933,0.478651685 C3.98876404,0.478651685 3.82921348,0.558426966 3.82921348,0.638202247 C3.82921348,2.71235955 3.82921348,4.78651685 3.82921348,6.78089888 C3.90898876,6.7011236 4.06853933,6.7011236 4.14831461,6.62134831 C2.95168539,6.06292135 1.19662921,6.46179775 0.797752809,7.81797753 C0.638202247,8.37640449 0.638202247,9.09438202 0.717977528,9.65280899 C0.717977528,9.89213483 0.797752809,10.5303371 1.03707865,10.6101124 C1.19662921,10.6898876 1.27640449,10.6101124 1.35617978,10.5303371 C1.59550562,10.1314607 1.83483146,9.89213483 2.23370787,9.57303371 C2.15393258,9.57303371 1.99438202,9.49325843 1.91460674,9.49325843 C1.91460674,9.81235955 1.91460674,11.088764 2.31348315,11.2483146 C2.47303371,11.2483146 2.63258427,11.2483146 2.63258427,11.088764 C2.87191011,10.2910112 6.94044944,8.7752809 5.90337079,7.65842697 C5.82359551,7.4988764 5.4247191,7.73820225 5.58426966,7.89775281 C6.06292135,8.45617978 4.14831461,9.49325843 3.7494382,9.73258427 C3.19101124,10.0516854 2.39325843,10.5303371 2.23370787,11.2483146 C2.31348315,11.1685393 2.47303371,11.1685393 2.55280899,11.088764 C2.47303371,11.0089888 2.39325843,9.65280899 2.39325843,9.57303371 C2.39325843,9.41348315 2.15393258,9.41348315 2.0741573,9.49325843 C1.59550562,9.81235955 1.35617978,10.1314607 1.03707865,10.6101124 C1.11685393,10.6101124 1.27640449,10.5303371 1.35617978,10.5303371 C1.35617978,10.5303371 1.27640449,10.0516854 1.19662921,9.89213483 C1.11685393,9.49325843 1.11685393,9.01460674 1.11685393,8.61573034 C1.19662921,7.17977528 2.71235955,6.46179775 3.98876404,7.1 C4.06853933,7.17977528 4.30786517,7.1 4.30786517,6.94044944 C4.30786517,4.86629213 4.30786517,2.79213483 4.30786517,0.797752809 C4.22808989,0.87752809 4.14831461,0.87752809 4.06853933,0.957303371 C4.38764045,0.957303371 4.70674157,0.957303371 5.0258427,0.957303371 C4.94606742,0.87752809 4.86629213,0.87752809 4.86629213,0.797752809 C4.86629213,3.03146067 4.86629213,5.18539326 4.86629213,7.41910112 C4.86629213,7.4988764 4.86629213,7.4988764 4.94606742,7.57865169 C5.18539326,7.65842697 5.4247191,7.81797753 5.66404494,8.05730337 C5.74382022,8.05730337 6.14269663,7.81797753 5.90337079,7.65842697 Z" id="Shape" fill="#6290C3"></path>
                            </g>
                            <g id="Group" transform="translate(5.584270, 0.797753)">
                                <path d="M0.717977528,7.17977528 C0.957303371,6.94044944 1.19662921,6.78089888 1.51573034,6.7011236 L1.51573034,0.0797752809 L2.39325843,0.0797752809 L2.39325843,6.22247191 C3.27078652,5.74382022 4.38764045,5.90337079 5.10561798,6.7011236 C5.98314607,7.65842697 5.26516854,10.2910112 5.26516854,9.89213483 C5.26516854,9.65280899 4.86629213,9.25393258 4.30786517,8.93483146 C4.30786517,9.89213483 3.98876404,10.7696629 3.98876404,10.4505618 C3.98876404,9.65280899 -0.159550562,7.97752809 0.717977528,7.17977528 Z" id="XMLID_63_" fill="#F4D3AA"></path>
                                <path d="M0.87752809,7.17977528 C1.03707865,7.02022472 1.27640449,6.86067416 1.51573034,6.78089888 C1.59550562,6.78089888 1.6752809,6.7011236 1.6752809,6.62134831 C1.6752809,4.38764045 1.6752809,2.23370787 1.6752809,0 C1.59550562,0.0797752809 1.51573034,0.0797752809 1.35617978,0.159550562 C1.51573034,0.159550562 2.15393258,0.0797752809 2.23370787,0.159550562 C2.0741573,0 2.15393258,0.398876404 2.15393258,0.478651685 C2.15393258,1.19662921 2.15393258,1.83483146 2.15393258,2.55280899 C2.15393258,3.82921348 2.15393258,5.0258427 2.15393258,6.30224719 C2.15393258,6.38202247 2.47303371,6.30224719 2.47303371,6.30224719 C3.7494382,5.66404494 5.18539326,6.62134831 5.34494382,7.97752809 C5.34494382,8.37640449 5.34494382,8.85505618 5.26516854,9.25393258 C5.26516854,9.41348315 5.0258427,9.89213483 5.18539326,9.89213483 C5.26516854,9.89213483 5.34494382,9.89213483 5.50449438,9.89213483 C5.26516854,9.41348315 5.0258427,9.1741573 4.54719101,8.85505618 C4.46741573,8.7752809 4.14831461,8.85505618 4.14831461,8.93483146 C4.14831461,9.25393258 4.06853933,9.65280899 3.98876404,9.97191011 C3.90898876,10.211236 3.7494382,10.4505618 3.98876404,10.3707865 C4.06853933,10.3707865 4.14831461,10.3707865 4.22808989,10.3707865 C4.06853933,9.65280899 0.239325843,7.89775281 0.87752809,7.17977528 C1.03707865,7.02022472 0.638202247,7.1 0.558426966,7.17977528 C-0.319101124,8.13707865 3.66966292,9.65280899 3.82921348,10.6101124 C3.82921348,10.6898876 3.98876404,10.6898876 4.06853933,10.6101124 C4.62696629,10.4505618 4.54719101,9.33370787 4.54719101,8.93483146 C4.38764045,8.93483146 4.30786517,9.01460674 4.14831461,9.01460674 C4.54719101,9.33370787 4.86629213,9.57303371 5.10561798,10.0516854 C5.18539326,10.1314607 5.34494382,10.0516854 5.4247191,10.0516854 C5.66404494,9.97191011 5.74382022,9.49325843 5.74382022,9.25393258 C5.82359551,8.61573034 5.90337079,7.89775281 5.74382022,7.25955056 C5.34494382,5.90337079 3.51011236,5.66404494 2.31348315,6.22247191 C2.39325843,6.22247191 2.55280899,6.22247191 2.63258427,6.22247191 C2.63258427,4.14831461 2.63258427,2.0741573 2.63258427,0.0797752809 C2.63258427,0 2.55280899,0 2.47303371,0 C2.15393258,0 1.83483146,0 1.51573034,0 C1.43595506,0 1.19662921,0.0797752809 1.19662921,0.159550562 C1.19662921,2.39325843 1.19662921,4.54719101 1.19662921,6.78089888 C1.27640449,6.7011236 1.27640449,6.7011236 1.35617978,6.62134831 C1.03707865,6.78089888 0.797752809,6.94044944 0.478651685,7.1 C0.319101124,7.25955056 0.717977528,7.25955056 0.87752809,7.17977528 Z" id="Shape" fill="#6290C3"></path>
                            </g>
                        </g>
                        <g id="Shape">
                            <path d="M45.152809,23.852809 C44.5146067,22.4966292 43.0786517,21.7786517 41.7224719,21.9382022 C41.4033708,22.0179775 41.0044944,22.0977528 40.7651685,22.3370787 C40.7651685,18.2685393 40.605618,14.4393258 40.3662921,10.6898876 C40.3662921,9.25393258 39.7280899,7.89775281 38.7707865,6.94044944 C38.611236,6.78089888 38.4516854,6.62134831 38.2123596,6.46179775 C38.2123596,6.38202247 38.1325843,6.22247191 38.1325843,6.14269663 C37.5741573,4.54719101 38.052809,3.19101124 37.494382,2.47303371 C36.6966292,2.47303371 34.1438202,2.87191011 32.7876404,3.51011236 C31.9898876,3.90898876 31.3516854,4.38764045 30.8730337,4.86629213 C29.4370787,4.70674157 27.9213483,4.62696629 26.3258427,4.54719101 C25.3685393,4.30786517 24.411236,3.98876404 23.294382,3.58988764 C21.2202247,2.71235955 19.5449438,1.59550562 18.4280899,0.717977528 L22.4168539,4.22808989 C21.7786517,4.06853933 21.0606742,3.82921348 20.4224719,3.51011236 C18.3483146,2.63258427 16.6730337,1.51573034 15.5561798,0.638202247 L20.0235955,4.54719101 C18.9067416,4.62696629 17.8696629,4.62696629 16.8325843,4.78651685 C16.3539326,4.30786517 15.6359551,3.7494382 14.6786517,3.27078652 C13.4022472,2.63258427 10.7696629,2.23370787 9.97191011,2.23370787 C9.41348315,2.87191011 9.97191011,4.30786517 9.33370787,5.90337079 C9.33370787,5.98314607 9.25393258,6.06292135 9.25393258,6.14269663 C8.85505618,6.38202247 8.53595506,6.62134831 8.21685393,6.94044944 C6.7011236,8.45617978 6.62134831,10.3707865 6.62134831,10.6898876 C6.30224719,14.3595506 6.14269663,18.188764 6.06292135,22.3370787 C5.74382022,22.1775281 5.4247191,22.0179775 5.10561798,22.0179775 C3.7494382,21.7786517 2.31348315,22.5764045 1.6752809,23.9325843 C1.11685393,25.4483146 0.398876404,28.3202247 0.797752809,31.9101124 C1.19662921,35.5797753 2.71235955,38.2921348 3.51011236,39.5685393 C4.46741573,37.8134831 5.4247191,35.5 6.30224719,32.8674157 C6.30224719,32.8674157 6.30224719,32.8674157 6.30224719,32.7876404 C6.38202247,34.6224719 6.54157303,36.4573034 6.7011236,38.2123596 C6.7011236,39.6483146 7.33932584,41.0044944 8.29662921,41.9617978 C9.81235955,43.4775281 11.7269663,43.5573034 12.0460674,43.5573034 C15.7157303,43.9561798 19.7842697,44.1955056 24.1719101,44.1157303 C28.0011236,44.1157303 31.5910112,43.8764045 34.8617978,43.5573034 C36.2977528,43.5573034 37.6539326,42.9191011 38.611236,41.9617978 C40.1269663,40.4460674 40.2067416,38.5314607 40.2067416,38.2123596 C40.2865169,36.4573034 40.3662921,34.7022472 40.4460674,32.947191 C41.2438202,35.5797753 42.2808989,37.8134831 43.158427,39.5685393 C44.0359551,38.2123596 45.4719101,35.5797753 45.8707865,31.9101124 C46.4292135,28.2404494 45.6314607,25.3685393 45.152809,23.852809 Z" fill="#78A6D1"></path>
                            <path d="M45.5516854,24.1719101 C44.594382,22.4168539 42.1213483,20.9808989 40.2067416,22.0179775 C40.5258427,22.2573034 40.7651685,22.4168539 41.0842697,22.6561798 C41.0842697,19.3853933 41.0044944,16.1146067 40.8449438,12.8438202 C40.7651685,11.4078652 40.8449438,9.97191011 40.2067416,8.61573034 C39.9674157,8.05730337 39.5685393,7.57865169 39.0898876,7.1 C38.5314607,6.54157303 38.3719101,5.98314607 38.2921348,5.18539326 C38.2123596,4.22808989 38.4516854,3.19101124 37.6539326,2.55280899 C37.4146067,2.39325843 37.2550562,2.23370787 37.0157303,2.15393258 C36.6168539,2.0741573 36.058427,2.23370787 35.6595506,2.31348315 C34.5426966,2.47303371 33.3460674,2.71235955 32.388764,3.27078652 C31.8303371,3.51011236 31.3516854,3.90898876 30.8730337,4.30786517 C30.5539326,4.54719101 30.394382,4.54719101 29.9955056,4.46741573 C29.5966292,4.46741573 29.1179775,4.38764045 28.7191011,4.38764045 C27.841573,4.30786517 26.8842697,4.38764045 26.0067416,4.22808989 C25.2089888,4.06853933 24.411236,3.7494382 23.6932584,3.51011236 C22.0977528,2.87191011 20.4224719,2.0741573 19.0662921,1.03707865 C18.8269663,0.797752809 18.5078652,0.638202247 18.188764,0.398876404 C19.305618,1.35617978 20.3426966,2.31348315 21.4595506,3.27078652 C21.6191011,3.43033708 21.9382022,3.58988764 22.0977528,3.82921348 C22.0977528,3.82921348 22.1775281,3.90898876 22.1775281,3.90898876 C22.1775281,3.90898876 20.9808989,3.51011236 20.9011236,3.51011236 C19.2258427,2.87191011 17.5505618,2.0741573 16.1146067,0.957303371 C15.8752809,0.717977528 15.5561798,0.558426966 15.2370787,0.319101124 C16.194382,1.19662921 17.1516854,1.99438202 18.1089888,2.87191011 C18.5876404,3.27078652 19.2258427,3.66966292 19.5449438,4.14831461 C19.5449438,4.14831461 19.7044944,4.22808989 19.7044944,4.22808989 C19.7044944,4.30786517 19.305618,4.22808989 19.1460674,4.30786517 C18.2685393,4.38764045 17.3910112,4.38764045 16.5134831,4.46741573 C16.8325843,4.70674157 17.0719101,4.86629213 17.3910112,5.10561798 C16.5134831,4.22808989 15.3966292,3.43033708 14.2797753,2.87191011 C13.5617978,2.55280899 12.8438202,2.39325843 12.0460674,2.23370787 C11.4078652,2.0741573 10.5303371,1.83483146 9.89213483,1.91460674 C9.57303371,1.99438202 9.49325843,2.15393258 9.49325843,2.47303371 C9.41348315,2.87191011 9.41348315,3.27078652 9.41348315,3.58988764 C9.41348315,3.98876404 9.41348315,4.38764045 9.33370787,4.78651685 C9.25393258,5.0258427 9.25393258,5.34494382 9.09438202,5.58426966 C8.93483146,5.90337079 8.69550562,5.98314607 8.45617978,6.14269663 C7.25955056,7.1 6.54157303,8.53595506 6.38202247,10.1314607 C6.22247191,12.0460674 6.06292135,13.8808989 5.98314607,15.7955056 C5.90337079,16.752809 5.90337079,17.7898876 5.82359551,18.747191 C5.82359551,19.305618 5.82359551,19.8640449 5.74382022,20.4224719 C5.74382022,20.6617978 5.74382022,20.9808989 5.74382022,21.2202247 C5.74382022,21.3797753 5.74382022,21.6191011 5.74382022,21.7786517 C5.82359551,22.0977528 5.74382022,22.1775281 5.50449438,21.9382022 C5.26516854,21.9382022 5.0258427,21.7786517 4.78651685,21.6988764 C4.62696629,21.6988764 4.38764045,21.6191011 4.22808989,21.6988764 C3.82921348,21.6988764 3.43033708,21.7786517 3.11123596,21.9382022 C2.31348315,22.2573034 1.6752809,22.8955056 1.35617978,23.6932584 C0.797752809,25.0494382 0.558426966,26.5651685 0.478651685,28.0011236 C0.159550562,31.9898876 1.11685393,35.9786517 3.27078652,39.2494382 C3.3505618,39.3292135 4.14831461,39.8078652 4.14831461,39.8876404 C5.26516854,37.7337079 6.22247191,35.5 6.94044944,33.1067416 C6.62134831,32.8674157 6.38202247,32.7078652 6.06292135,32.4685393 C6.14269663,34.4629213 6.22247191,36.6168539 6.46179775,38.611236 C6.62134831,40.1269663 7.4988764,41.4033708 8.69550562,42.2808989 C9.65280899,42.9988764 10.5303371,43.5573034 11.7269663,43.7966292 C13.0033708,44.0359551 14.4393258,44.0359551 15.7157303,44.1955056 C19.7044944,44.5146067 23.6932584,44.594382 27.6820225,44.4348315 C29.5966292,44.3550562 31.511236,44.2752809 33.4258427,44.1157303 C35.1808989,43.9561798 37.0157303,44.0359551 38.5314607,42.9988764 C39.8876404,42.1213483 40.7651685,40.6853933 40.9247191,39.0898876 C41.1640449,37.1752809 41.0842697,35.1808989 41.1640449,33.2662921 C40.8449438,33.0269663 40.605618,32.8674157 40.2865169,32.6280899 C41.0044944,34.941573 41.8820225,37.0955056 42.9988764,39.2494382 C43.0786517,39.3292135 43.8764045,39.8876404 43.8764045,39.8876404 C46.6685393,35.2606742 47.3865169,29.4370787 45.5516854,24.1719101 C45.4719101,23.852809 44.7539326,23.852809 44.6741573,23.5337079 C46.5089888,28.7191011 45.7910112,34.5426966 42.8393258,39.1696629 C43.158427,39.4089888 43.3977528,39.5685393 43.7168539,39.8078652 C42.6,37.6539326 41.7224719,35.5 41.0044944,33.1865169 C40.9247191,32.947191 40.1269663,32.7876404 40.1269663,32.5483146 C40.047191,34.3831461 39.9674157,36.1382022 39.8876404,37.9730337 C39.8078652,39.0898876 39.488764,40.2067416 38.7707865,41.0842697 C37.8134831,42.2808989 36.3775281,43.0786517 34.8617978,43.158427 C33.1865169,43.2382022 31.511236,43.4775281 29.7561798,43.5573034 C25.9269663,43.7966292 22.1775281,43.7966292 18.3483146,43.6370787 C16.6730337,43.5573034 14.9977528,43.4775281 13.3224719,43.3179775 C12.2853933,43.2382022 11.088764,43.2382022 10.0516854,42.9191011 C9.25393258,42.6797753 8.69550562,42.2808989 8.21685393,41.5629213 C7.73820225,40.9247191 7.41910112,40.1269663 7.25955056,39.3292135 C7.1,38.3719101 7.1,37.2550562 7.02022472,36.2977528 C6.94044944,35.1808989 6.86067416,34.0640449 6.78089888,33.0269663 C6.78089888,32.8674157 5.90337079,32.5483146 5.90337079,32.388764 C5.18539326,34.7022472 4.22808989,37.0157303 3.11123596,39.1696629 C3.43033708,39.4089888 3.66966292,39.5685393 3.98876404,39.8078652 C1.59550562,36.058427 0.638202247,31.4314607 1.35617978,27.0438202 C1.6752809,25.2089888 2.15393258,22.9752809 4.22808989,22.3370787 C4.70674157,22.1775281 5.18539326,22.1775281 5.74382022,22.2573034 C5.82359551,22.2573034 6.54157303,22.5764045 6.54157303,22.5764045 C6.62134831,22.4966292 6.54157303,21.4595506 6.54157303,21.3 C6.54157303,19.8640449 6.62134831,18.4280899 6.7011236,16.9123596 C6.78089888,14.6786517 6.86067416,12.3651685 7.17977528,10.1314607 C7.33932584,9.1741573 7.73820225,8.21685393 8.37640449,7.41910112 C8.7752809,6.94044944 9.25393258,6.7011236 9.65280899,6.30224719 C10.0516854,5.90337079 10.1314607,4.94606742 10.1314607,4.38764045 C10.1314607,3.90898876 10.1314607,3.3505618 10.211236,2.87191011 C10.2910112,2.31348315 10.4505618,2.31348315 10.9292135,2.39325843 C11.8865169,2.47303371 12.8438202,2.63258427 13.7213483,2.95168539 C14.2,3.11123596 14.6786517,3.19101124 15.0775281,3.43033708 C15.2370787,3.51011236 16.194382,4.14831461 15.7955056,3.82921348 C15.3966292,3.51011236 15.8752809,3.90898876 16.0348315,4.06853933 C16.1146067,4.14831461 16.2741573,4.30786517 16.3539326,4.38764045 C16.5134831,4.54719101 16.752809,4.70674157 16.9921348,4.86629213 C17.3910112,5.18539326 17.7898876,5.0258427 18.3483146,4.94606742 C18.5876404,4.94606742 20.5022472,4.78651685 20.5022472,4.78651685 C20.5022472,4.70674157 20.2629213,4.54719101 20.2629213,4.54719101 C19.7842697,4.14831461 19.305618,3.66966292 18.747191,3.27078652 C17.8696629,2.47303371 16.9123596,1.6752809 16.0348315,0.87752809 C15.7157303,0.638202247 15.4764045,0.478651685 15.1573034,0.239325843 C16.194382,1.03707865 17.2314607,1.75505618 18.3483146,2.47303371 C19.305618,3.03146067 20.2629213,3.51011236 21.2202247,3.90898876 C21.3797753,3.98876404 22.8157303,4.38764045 22.8955056,4.46741573 C22.8955056,4.46741573 22.8157303,4.38764045 22.7359551,4.38764045 C22.4966292,4.14831461 22.1775281,3.90898876 21.858427,3.66966292 C21.3797753,3.27078652 20.9808989,2.87191011 20.5022472,2.47303371 C19.9438202,1.99438202 19.3853933,1.51573034 18.8269663,1.03707865 C18.5078652,0.797752809 18.2685393,0.638202247 17.9494382,0.398876404 C20.6617978,2.55280899 24.0921348,4.70674157 27.6022472,4.86629213 C28.1606742,4.86629213 28.7988764,4.94606742 29.3573034,4.94606742 C29.9157303,4.94606742 30.5539326,5.18539326 31.0325843,5.10561798 C31.3516854,5.0258427 31.7505618,4.62696629 32.0696629,4.38764045 C32.4685393,4.14831461 32.8674157,3.90898876 33.2662921,3.66966292 C34.6224719,3.11123596 36.2179775,2.79213483 37.7337079,2.71235955 C37.4146067,2.47303371 37.1752809,2.31348315 36.8561798,2.0741573 C37.2550562,2.63258427 37.1752809,3.3505618 37.1752809,3.98876404 C37.1752809,4.62696629 37.2550562,5.50449438 37.5741573,6.06292135 C37.8134831,6.46179775 38.2921348,6.7011236 38.611236,7.1 C38.8505618,7.41910112 39.0898876,7.73820225 39.2494382,8.13707865 C39.5685393,8.85505618 39.7280899,9.65280899 39.7280899,10.4505618 C39.8876404,14.2797753 40.047191,18.1089888 40.047191,22.0179775 C40.047191,22.0977528 40.9247191,22.6561798 40.9247191,22.6561798 C41.5629213,22.3370787 42.3606742,22.1775281 43.0786517,22.3370787 C43.8764045,22.4966292 44.1157303,22.8157303 44.5146067,23.5337079 C44.8337079,23.852809 45.3921348,23.9325843 45.5516854,24.1719101 Z" fill="#6290C3"></path>
                        </g>
                        <g transform="translate(2.393258, 6.382022)">
                            <path d="M20.1033708,7.33932584 C21.4595506,11.0089888 22.2573034,18.4280899 16.6730337,21.9382022 C11.7269663,25.0494382 5.18539326,23.4539326 2.0741573,18.5078652 C-1.35617978,13.0033708 2.39325843,6.7011236 5.50449438,3.90898876 C6.22247191,3.27078652 10.1314607,-0.239325843 14.4393258,1.11685393 C18.188764,2.23370787 19.6247191,6.14269663 20.1033708,7.33932584 Z" id="XMLID_61_" fill="#FFFFFF"></path>
                            <path d="M19.6247191,7.33932584 C20.8213483,10.6898876 21.1404494,14.6786517 19.6247191,17.9494382 C17.6303371,22.4168539 12.205618,24.4910112 7.65842697,22.7359551 C5.50449438,21.9382022 3.66966292,20.4224719 2.47303371,18.4280899 C1.11685393,16.194382 0.797752809,13.5617978 1.43595506,11.0089888 C2.39325843,7.17977528 5.10561798,3.7494382 8.61573034,1.91460674 C10.0516854,1.11685393 11.7269663,0.558426966 13.4022472,0.87752809 C14.6786517,1.11685393 15.9550562,1.83483146 16.9123596,2.71235955 C18.188764,4.06853933 18.9865169,5.66404494 19.6247191,7.33932584 C19.7044944,7.4988764 20.5022472,7.33932584 20.5022472,7.33932584 C19.8640449,5.66404494 19.0662921,4.06853933 17.7898876,2.79213483 C16.1146067,1.19662921 13.8808989,0.558426966 11.5674157,0.797752809 C7.25955056,1.19662921 3.58988764,4.62696629 1.75505618,8.29662921 C0.478651685,10.8494382 -0.159550562,13.8011236 0.797752809,16.5134831 C1.59550562,18.9865169 3.51011236,21.0606742 5.82359551,22.3370787 C9.81235955,24.411236 15.3966292,23.9325843 18.6674157,20.741573 C22.1775281,17.3910112 22.1775281,11.647191 20.5820225,7.33932584 C20.4224719,7.17977528 19.6247191,7.33932584 19.6247191,7.33932584 Z" id="Shape" fill="#6290C3"></path>
                        </g>
                        <g transform="translate(23.134831, 7.179775)">
                            <path d="M1.83483146,6.94044944 C0.478651685,10.6101124 -0.319101124,18.0292135 5.26516854,21.5393258 C10.211236,24.6505618 16.752809,23.0550562 19.8640449,18.1089888 C23.294382,12.6044944 19.5449438,6.30224719 16.4337079,3.51011236 C15.7157303,2.87191011 11.8067416,-0.638202247 7.4988764,0.717977528 C3.7494382,1.83483146 2.31348315,5.74382022 1.83483146,6.94044944 Z" id="XMLID_60_" fill="#FFFFFF"></path>
                            <path d="M1.43595506,6.94044944 C0.0797752809,10.6898876 -0.159550562,15.3966292 2.0741573,18.8269663 C4.70674157,22.8955056 10.2910112,24.0921348 14.6786517,22.5764045 C16.9921348,21.7786517 18.9865169,20.1831461 20.2629213,18.1089888 C21.7786517,15.6359551 21.9382022,12.6044944 21.0606742,9.89213483 C19.7044944,5.90337079 16.4337079,2.15393258 12.3651685,0.797752809 C9.81235955,-0.0797752809 6.86067416,0.239325843 4.70674157,1.91460674 C3.11123596,3.27078652 2.15393258,5.10561798 1.43595506,6.94044944 C1.43595506,7.02022472 2.23370787,7.17977528 2.31348315,6.94044944 C2.87191011,5.50449438 3.58988764,4.06853933 4.62696629,2.87191011 C6.46179775,0.87752809 9.01460674,2.77555756e-16 11.5674157,0.87752809 C15.3168539,2.0741573 18.3483146,5.4247191 19.8640449,8.93483146 C20.8213483,11.2483146 21.1404494,13.8808989 20.2629213,16.3539326 C19.4651685,18.6674157 17.7101124,20.5820225 15.5561798,21.7786517 C11.4078652,24.0123596 5.82359551,22.9752809 3.03146067,18.9865169 C0.638202247,15.5561798 0.87752809,10.6898876 2.23370787,6.94044944 C2.31348315,6.86067416 1.51573034,6.78089888 1.43595506,6.94044944 Z" id="Shape" fill="#6290C3"></path>
                        </g>
                        <g transform="translate(12.764045, 29.516854)">
                            <path d="M10.7696629,0.398876404 C4.78651685,0.398876404 -0.558426966,10.5303371 0.717977528,14.2 C0.717977528,14.2797753 0.717977528,14.2797753 0.797752809,14.3595506 C3.90898876,14.5988764 7.33932584,14.758427 11.0089888,14.758427 C11.0089888,14.758427 11.0089888,14.758427 11.088764,14.758427 C11.088764,14.758427 11.1685393,14.758427 11.1685393,14.758427 C11.1685393,14.758427 11.2483146,14.758427 11.2483146,14.758427 C14.6786517,14.758427 17.8696629,14.5191011 20.8213483,14.2797753 C20.8213483,14.2 20.9011236,14.2 20.9011236,14.1202247 C22.0977528,10.3707865 16.752809,0.398876404 10.7696629,0.398876404 Z" id="XMLID_59_" fill="#FFFFFF"></path>
                            <path d="M10.9292135,0.319101124 C8.37640449,0.319101124 6.22247191,1.83483146 4.54719101,3.66966292 C2.71235955,5.74382022 1.19662921,8.29662921 0.558426966,11.0089888 C0.319101124,12.1258427 0.159550562,13.3224719 0.558426966,14.4393258 C0.558426966,14.4393258 0.558426966,14.4393258 0.558426966,14.4393258 C7.25955056,14.9977528 13.9606742,14.9977528 20.5820225,14.3595506 C20.6617978,14.3595506 20.8213483,14.3595506 20.9011236,14.2797753 C21.3797753,13.0831461 21.1404494,11.7269663 20.8213483,10.4505618 C20.3426966,8.7752809 19.6247191,7.17977528 18.6674157,5.82359551 C16.9921348,3.11123596 14.2797753,0.319101124 10.9292135,0.319101124 C10.8494382,0.319101124 10.4505618,0.478651685 10.6898876,0.478651685 C14.1202247,0.558426966 16.8325843,3.43033708 18.5078652,6.14269663 C19.3853933,7.4988764 20.0235955,8.93483146 20.5022472,10.5303371 C20.8213483,11.7269663 21.0606742,13.0831461 20.5820225,14.2797753 C20.6617978,14.2797753 20.741573,14.2 20.9011236,14.2 C17.7101124,14.5191011 14.5191011,14.6786517 11.2483146,14.6786517 C9.57303371,14.6786517 7.89775281,14.6786517 6.30224719,14.5988764 C5.58426966,14.5988764 4.86629213,14.5191011 4.06853933,14.5191011 C3.19101124,14.4393258 2.31348315,14.5191011 1.51573034,14.3595506 C0.957303371,14.2797753 0.957303371,14.0404494 0.87752809,13.5617978 C0.797752809,13.1629213 0.797752809,12.7640449 0.87752809,12.3651685 C0.957303371,11.4876404 1.19662921,10.6101124 1.43595506,9.73258427 C2.0741573,7.73820225 3.19101124,5.90337079 4.46741573,4.30786517 C5.98314607,2.39325843 8.13707865,0.558426966 10.6898876,0.558426966 C10.6898876,0.478651685 11.088764,0.319101124 10.9292135,0.319101124 Z" id="Shape" fill="#6290C3"></path>
                        </g>
                        <g opacity="0.3" transform="translate(9.573034, 12.764045)">
                            <ellipse id="XMLID_58_" fill="#EEF3F9" cx="4.38764045" cy="6.14269663" rx="2.79213483" ry="4.70674157"></ellipse>
                            <g id="Shape" opacity="0.9">
                                <g id="Group">
                                    <path d="M6.78089888,8.29662921 L6.86067416,8.13707865 C6.86067416,8.13707865 6.78089888,8.13707865 6.78089888,8.05730337 C6.78089888,7.89775281 6.62134831,8.37640449 6.46179775,8.7752809 C6.38202247,8.85505618 6.54157303,8.7752809 6.78089888,8.29662921 Z" id="Shape" fill="#F0F2F8"></path>
                                    <path d="M7.73820225,6.38202247 C7.73820225,6.30224719 7.73820225,6.22247191 7.73820225,6.14269663 C7.73820225,6.14269663 7.73820225,6.14269663 7.73820225,6.14269663 C7.73820225,6.22247191 7.73820225,6.30224719 7.73820225,6.38202247 Z" id="Shape" fill="#EDF0F7"></path>
                                    <path d="M7.25955056,6.86067416 C7.25955056,7.02022472 7.25955056,7.17977528 7.17977528,7.25955056 C7.17977528,7.41910112 7.17977528,7.4988764 7.1,7.65842697 C7.17977528,7.4988764 7.17977528,7.41910112 7.25955056,7.33932584 C7.33932584,7.25955056 7.41910112,7.1 7.41910112,6.94044944 C7.41910112,6.86067416 7.41910112,6.7011236 7.41910112,6.54157303 C7.41910112,6.62134831 7.41910112,6.62134831 7.41910112,6.7011236 C7.41910112,6.62134831 7.41910112,6.54157303 7.41910112,6.54157303 C7.41910112,6.46179775 7.41910112,6.46179775 7.41910112,6.46179775 C7.41910112,6.46179775 7.41910112,6.62134831 7.33932584,6.78089888 C7.33932584,6.94044944 7.25955056,7.1 7.25955056,7.25955056 C7.25955056,7.1 7.25955056,6.86067416 7.25955056,6.7011236 C7.25955056,6.78089888 7.25955056,6.78089888 7.17977528,6.86067416 C7.17977528,6.94044944 7.17977528,7.02022472 7.17977528,7.1 L7.25955056,6.86067416 Z" id="Shape" fill="#F0F2F8"></path>
                                    <path d="M5.4247191,9.49325843 C5.4247191,9.49325843 5.4247191,9.49325843 5.4247191,9.49325843 C5.50449438,9.41348315 5.58426966,9.33370787 5.58426966,9.1741573 L5.50449438,9.25393258 L5.4247191,9.33370787 C5.4247191,9.41348315 5.34494382,9.49325843 5.4247191,9.49325843 L5.34494382,9.49325843 C5.34494382,9.49325843 5.34494382,9.49325843 5.34494382,9.41348315 C5.34494382,9.41348315 5.26516854,9.49325843 5.26516854,9.49325843 L5.34494382,9.49325843 C5.26516854,9.49325843 5.26516854,9.57303371 5.18539326,9.57303371 C5.18539326,9.57303371 5.10561798,9.65280899 5.10561798,9.65280899 C5.18539326,9.73258427 5.26516854,9.57303371 5.4247191,9.49325843 Z" id="Shape" fill="#F0F2F8"></path>
                                    <path d="M3.98876404,9.89213483 C3.98876404,9.97191011 3.98876404,9.97191011 3.90898876,9.97191011 C3.98876404,9.97191011 4.06853933,10.0516854 4.06853933,10.0516854 C4.14831461,10.0516854 4.22808989,10.1314607 4.22808989,10.1314607 C4.14831461,10.211236 4.30786517,10.3707865 4.62696629,10.3707865 C4.94606742,10.3707865 5.26516854,10.211236 5.4247191,10.1314607 C5.58426966,10.0516854 5.82359551,9.89213483 6.06292135,9.65280899 C6.30224719,9.41348315 6.46179775,9.1741573 6.62134831,9.01460674 C6.62134831,8.93483146 6.62134831,8.93483146 6.7011236,8.69550562 C6.62134831,8.7752809 6.54157303,8.93483146 6.54157303,9.09438202 C6.54157303,9.09438202 6.54157303,9.1741573 6.54157303,9.1741573 C6.54157303,9.1741573 6.54157303,9.09438202 6.54157303,9.09438202 C6.54157303,9.01460674 6.62134831,8.85505618 6.7011236,8.7752809 C6.7011236,8.85505618 6.62134831,8.85505618 6.62134831,8.85505618 C6.62134831,8.85505618 6.62134831,8.7752809 6.62134831,8.7752809 C6.46179775,8.93483146 6.38202247,9.09438202 6.22247191,9.25393258 C6.06292135,9.33370787 5.98314607,9.41348315 5.90337079,9.41348315 L5.82359551,9.49325843 C5.50449438,9.89213483 5.34494382,9.89213483 5.34494382,9.81235955 C5.18539326,9.97191011 4.94606742,10.1314607 4.78651685,10.1314607 C4.54719101,10.1314607 4.38764045,10.0516854 4.22808989,9.97191011 C4.22808989,9.97191011 4.14831461,9.97191011 4.14831461,9.97191011 C4.06853933,9.89213483 4.06853933,9.89213483 3.98876404,9.89213483 C4.06853933,9.89213483 3.98876404,9.89213483 3.98876404,9.89213483 Z" id="Shape" fill="#EEF1F8"></path>
                                    <path d="M7.33932584,6.14269663 C7.41910112,6.14269663 7.41910112,5.98314607 7.4988764,5.82359551 C7.4988764,5.74382022 7.57865169,5.66404494 7.57865169,5.58426966 C7.57865169,5.50449438 7.57865169,5.34494382 7.65842697,5.26516854 C7.73820225,4.78651685 7.65842697,4.14831461 7.41910112,3.51011236 C7.17977528,2.87191011 6.86067416,2.23370787 6.38202247,1.6752809 C6.14269663,1.43595506 5.82359551,1.11685393 5.34494382,0.957303371 C4.94606742,0.797752809 4.46741573,0.717977528 3.98876404,0.797752809 C4.06853933,0.797752809 4.06853933,0.797752809 4.14831461,0.87752809 C4.14831461,0.87752809 4.14831461,0.957303371 4.06853933,0.957303371 C3.98876404,0.957303371 3.90898876,1.03707865 3.82921348,1.11685393 C3.7494382,1.11685393 3.7494382,1.19662921 3.66966292,1.19662921 C3.58988764,1.19662921 3.51011236,1.27640449 3.43033708,1.35617978 C3.3505618,1.43595506 3.27078652,1.43595506 3.19101124,1.51573034 C3.11123596,1.59550562 3.03146067,1.6752809 2.95168539,1.6752809 C2.87191011,1.75505618 2.79213483,1.83483146 2.71235955,1.83483146 C2.63258427,1.91460674 2.63258427,1.91460674 2.63258427,1.99438202 C2.39325843,2.31348315 2.31348315,2.55280899 2.23370787,2.79213483 C2.15393258,3.03146067 2.0741573,3.27078652 1.91460674,3.66966292 C1.99438202,3.51011236 2.0741573,3.51011236 2.15393258,3.43033708 C2.39325843,3.03146067 2.71235955,2.55280899 3.11123596,1.99438202 C3.19101124,1.91460674 3.3505618,1.83483146 3.3505618,1.83483146 C3.43033708,1.83483146 3.43033708,1.83483146 3.27078652,1.99438202 C3.51011236,1.83483146 3.7494382,1.75505618 3.90898876,1.59550562 C3.98876404,1.59550562 4.14831461,1.51573034 4.22808989,1.51573034 L4.38764045,1.51573034 L4.46741573,1.51573034 L4.54719101,1.51573034 C4.62696629,1.51573034 4.70674157,1.51573034 4.78651685,1.51573034 C4.86629213,1.51573034 4.86629213,1.51573034 4.94606742,1.59550562 C5.0258427,1.59550562 5.0258427,1.59550562 5.0258427,1.6752809 C5.0258427,1.6752809 5.10561798,1.6752809 5.10561798,1.75505618 C5.18539326,1.83483146 5.18539326,1.83483146 5.18539326,1.91460674 C5.18539326,1.99438202 5.0258427,1.99438202 5.18539326,2.15393258 C5.18539326,2.23370787 5.26516854,2.23370787 5.34494382,2.31348315 C5.66404494,2.47303371 5.98314607,2.71235955 6.22247191,3.03146067 C6.46179775,3.3505618 6.7011236,3.66966292 6.86067416,4.06853933 C6.94044944,4.22808989 6.94044944,4.54719101 7.02022472,4.70674157 C7.1,5.0258427 7.17977528,5.50449438 7.25955056,5.82359551 C7.25955056,5.98314607 7.25955056,6.22247191 7.33932584,6.14269663 Z" id="Shape" fill="#C2CFE6"></path>
                                    <path d="M0.957303371,5.66404494 C0.957303371,5.4247191 0.957303371,5.18539326 0.957303371,4.86629213 C0.87752809,5.26516854 0.797752809,5.66404494 0.717977528,6.14269663 C0.717977528,6.22247191 0.797752809,6.38202247 0.797752809,6.46179775 C0.87752809,6.14269663 0.87752809,5.82359551 0.957303371,5.66404494 Z" id="Shape" fill="#CAD5E9"></path>
                                    <path d="M4.46741573,1.91460674 C4.54719101,1.83483146 4.46741573,1.83483146 4.38764045,1.83483146 C4.30786517,1.83483146 4.30786517,1.83483146 4.22808989,1.83483146 C4.22808989,1.83483146 4.14831461,1.83483146 4.14831461,1.83483146 C4.14831461,1.83483146 4.06853933,1.83483146 4.06853933,1.83483146 C3.58988764,1.99438202 3.3505618,2.23370787 3.03146067,2.39325843 C3.03146067,2.39325843 2.87191011,2.55280899 2.79213483,2.63258427 C2.79213483,2.63258427 2.63258427,2.71235955 2.71235955,2.55280899 C2.63258427,2.63258427 2.63258427,2.71235955 2.55280899,2.79213483 C2.55280899,2.79213483 2.47303371,2.87191011 2.47303371,2.87191011 C2.47303371,2.87191011 2.47303371,2.95168539 2.47303371,2.95168539 C2.31348315,3.19101124 2.55280899,2.71235955 2.39325843,2.87191011 C2.15393258,3.3505618 1.99438202,3.82921348 1.91460674,4.14831461 C1.83483146,4.30786517 1.75505618,4.38764045 1.75505618,4.38764045 C1.6752809,4.38764045 1.6752809,4.38764045 1.6752809,4.30786517 C1.6752809,4.22808989 1.6752809,4.06853933 1.6752809,3.98876404 C1.6752809,3.82921348 1.6752809,3.7494382 1.6752809,3.66966292 C1.6752809,3.43033708 1.91460674,2.95168539 2.15393258,2.55280899 C1.99438202,2.63258427 1.6752809,3.19101124 1.83483146,2.87191011 C1.91460674,2.71235955 1.99438202,2.55280899 2.0741573,2.39325843 C2.0741573,2.31348315 2.15393258,2.23370787 2.15393258,2.15393258 C2.15393258,2.0741573 2.23370787,1.99438202 2.23370787,1.99438202 C1.91460674,2.39325843 1.6752809,2.87191011 1.51573034,3.3505618 C1.35617978,3.82921348 1.27640449,4.22808989 1.19662921,4.46741573 C1.19662921,4.54719101 1.11685393,4.62696629 1.11685393,4.70674157 C1.11685393,4.78651685 1.03707865,4.86629213 1.03707865,4.94606742 C1.03707865,5.26516854 1.03707865,5.50449438 1.03707865,5.74382022 C0.957303371,5.90337079 0.87752809,6.22247191 0.87752809,6.54157303 C0.87752809,6.7011236 0.957303371,6.78089888 0.957303371,6.86067416 C1.03707865,7.02022472 1.03707865,6.78089888 1.03707865,6.54157303 C1.03707865,6.46179775 1.03707865,6.38202247 1.03707865,6.30224719 C1.03707865,6.22247191 1.03707865,6.14269663 1.03707865,6.06292135 C1.03707865,5.90337079 1.03707865,5.82359551 1.11685393,5.74382022 C1.11685393,6.30224719 1.19662921,6.7011236 1.27640449,6.78089888 C1.35617978,6.94044944 1.43595506,6.86067416 1.51573034,6.7011236 C1.59550562,6.54157303 1.59550562,6.46179775 1.59550562,6.30224719 C1.6752809,6.14269663 1.6752809,5.98314607 1.75505618,5.74382022 C1.75505618,5.66404494 1.75505618,5.50449438 1.83483146,5.34494382 C1.83483146,5.18539326 1.83483146,5.0258427 1.91460674,4.86629213 C1.91460674,4.94606742 1.91460674,5.26516854 1.91460674,5.18539326 C2.0741573,4.62696629 2.23370787,4.46741573 2.39325843,3.82921348 C2.39325843,3.82921348 2.47303371,3.82921348 2.39325843,3.98876404 C2.39325843,3.82921348 2.47303371,3.7494382 2.47303371,3.7494382 C2.47303371,3.7494382 2.55280899,3.66966292 2.63258427,3.51011236 C2.71235955,3.43033708 2.79213483,3.43033708 2.87191011,3.43033708 C2.95168539,3.43033708 3.03146067,3.3505618 3.11123596,3.11123596 C3.11123596,3.11123596 3.11123596,3.03146067 3.19101124,3.03146067 C3.19101124,3.03146067 3.19101124,2.95168539 3.27078652,2.95168539 C3.27078652,2.95168539 3.3505618,2.87191011 3.3505618,2.87191011 C3.51011236,2.63258427 3.7494382,2.31348315 4.06853933,2.23370787 C4.30786517,2.15393258 4.54719101,2.15393258 4.78651685,2.15393258 C4.78651685,2.15393258 4.70674157,2.15393258 4.70674157,2.15393258 C4.62696629,1.99438202 4.54719101,1.99438202 4.46741573,1.91460674 C4.54719101,1.99438202 4.46741573,1.91460674 4.46741573,1.91460674 Z" id="Shape" fill="#CAD5E9"></path>
                                    <path d="M5.10561798,1.99438202 C4.94606742,1.83483146 5.10561798,1.83483146 5.10561798,1.75505618 C5.10561798,1.75505618 5.10561798,1.6752809 5.0258427,1.59550562 C5.0258427,1.59550562 4.94606742,1.59550562 4.94606742,1.51573034 C4.94606742,1.51573034 4.86629213,1.51573034 4.86629213,1.43595506 C4.78651685,1.43595506 4.78651685,1.43595506 4.70674157,1.35617978 C4.62696629,1.35617978 4.54719101,1.35617978 4.46741573,1.35617978 L4.38764045,1.35617978 L4.30786517,1.35617978 L4.14831461,1.35617978 C4.06853933,1.35617978 3.90898876,1.43595506 3.82921348,1.43595506 C3.58988764,1.51573034 3.43033708,1.59550562 3.19101124,1.83483146 C3.3505618,1.6752809 3.3505618,1.6752809 3.27078652,1.6752809 C3.19101124,1.6752809 3.03146067,1.75505618 3.03146067,1.83483146 C2.55280899,2.39325843 2.31348315,2.87191011 2.0741573,3.27078652 C1.99438202,3.43033708 1.91460674,3.43033708 1.83483146,3.51011236 C1.91460674,3.11123596 2.0741573,2.87191011 2.15393258,2.63258427 C2.23370787,2.39325843 2.31348315,2.15393258 2.55280899,1.83483146 C2.55280899,1.83483146 2.63258427,1.75505618 2.63258427,1.6752809 C2.71235955,1.59550562 2.79213483,1.51573034 2.87191011,1.51573034 C2.95168539,1.43595506 3.03146067,1.35617978 3.11123596,1.35617978 C3.19101124,1.27640449 3.27078652,1.27640449 3.3505618,1.19662921 C3.43033708,1.11685393 3.51011236,1.11685393 3.58988764,1.03707865 C3.66966292,1.03707865 3.66966292,0.957303371 3.7494382,0.957303371 C3.82921348,0.87752809 3.90898876,0.87752809 3.98876404,0.797752809 C4.06853933,0.797752809 4.06853933,0.717977528 4.06853933,0.717977528 C4.06853933,0.717977528 3.98876404,0.638202247 3.90898876,0.638202247 C3.7494382,0.638202247 3.58988764,0.717977528 3.43033708,0.797752809 C3.3505618,0.797752809 3.27078652,0.87752809 3.19101124,0.87752809 L2.95168539,1.03707865 C2.79213483,1.11685393 2.71235955,1.19662921 2.55280899,1.35617978 C2.47303371,1.43595506 2.31348315,1.59550562 2.23370787,1.6752809 C2.23370787,1.75505618 2.15393258,1.75505618 2.15393258,1.83483146 C2.15393258,1.91460674 2.0741573,1.99438202 2.0741573,1.99438202 C2.0741573,2.0741573 1.99438202,2.15393258 1.99438202,2.23370787 C1.91460674,2.39325843 1.83483146,2.55280899 1.75505618,2.71235955 C1.6752809,3.03146067 1.99438202,2.47303371 2.0741573,2.39325843 C1.83483146,2.79213483 1.51573034,3.27078652 1.59550562,3.51011236 C1.59550562,3.58988764 1.59550562,3.7494382 1.59550562,3.82921348 C1.59550562,3.98876404 1.59550562,4.06853933 1.59550562,4.14831461 C1.59550562,4.22808989 1.6752809,4.30786517 1.6752809,4.22808989 C1.75505618,4.22808989 1.75505618,4.06853933 1.83483146,3.98876404 C1.99438202,3.66966292 2.15393258,3.27078652 2.31348315,2.71235955 C2.47303371,2.55280899 2.23370787,3.03146067 2.39325843,2.79213483 C2.39325843,2.79213483 2.39325843,2.71235955 2.39325843,2.71235955 C2.39325843,2.71235955 2.47303371,2.63258427 2.47303371,2.63258427 C2.55280899,2.55280899 2.55280899,2.47303371 2.63258427,2.39325843 C2.55280899,2.55280899 2.71235955,2.39325843 2.71235955,2.47303371 C2.79213483,2.39325843 2.95168539,2.23370787 2.95168539,2.23370787 C3.27078652,2.0741573 3.51011236,1.83483146 3.98876404,1.6752809 C3.98876404,1.6752809 4.06853933,1.6752809 4.06853933,1.6752809 C4.06853933,1.6752809 4.14831461,1.6752809 4.14831461,1.6752809 C4.22808989,1.6752809 4.22808989,1.6752809 4.30786517,1.6752809 C4.38764045,1.6752809 4.46741573,1.75505618 4.38764045,1.75505618 C4.38764045,1.75505618 4.38764045,1.75505618 4.46741573,1.75505618 C4.46741573,1.75505618 4.54719101,1.75505618 4.54719101,1.75505618 C4.54719101,1.75505618 4.62696629,1.75505618 4.62696629,1.75505618 C4.78651685,1.75505618 5.0258427,1.83483146 5.18539326,1.91460674 C5.18539326,2.15393258 5.18539326,2.0741573 5.10561798,1.99438202 Z" id="Shape" fill="#C5D2E7"></path>
                                    <path d="M3.11123596,2.95168539 C2.95168539,3.11123596 2.95168539,3.19101124 2.87191011,3.27078652 C2.79213483,3.27078652 2.71235955,3.27078652 2.63258427,3.3505618 C2.55280899,3.51011236 2.55280899,3.51011236 2.47303371,3.58988764 C2.47303371,3.58988764 2.39325843,3.66966292 2.39325843,3.82921348 C2.47303371,3.66966292 2.39325843,3.66966292 2.39325843,3.66966292 C2.15393258,4.30786517 2.0741573,4.54719101 1.91460674,5.0258427 C1.91460674,5.10561798 1.91460674,4.78651685 1.91460674,4.70674157 C1.91460674,4.86629213 1.91460674,5.0258427 1.83483146,5.18539326 C1.83483146,5.34494382 1.83483146,5.50449438 1.75505618,5.58426966 C1.6752809,5.82359551 1.6752809,5.98314607 1.59550562,6.14269663 C1.59550562,6.30224719 1.51573034,6.46179775 1.51573034,6.54157303 C1.43595506,6.7011236 1.35617978,6.78089888 1.27640449,6.62134831 C1.19662921,6.46179775 1.11685393,6.14269663 1.11685393,5.58426966 C1.11685393,5.66404494 1.03707865,5.74382022 1.03707865,5.90337079 C1.03707865,5.98314607 1.03707865,6.06292135 1.03707865,6.14269663 C1.03707865,6.22247191 1.03707865,6.30224719 1.03707865,6.38202247 C1.03707865,6.62134831 1.03707865,6.86067416 0.957303371,6.7011236 C0.957303371,6.62134831 0.87752809,6.54157303 0.87752809,6.38202247 C0.87752809,6.78089888 0.957303371,7.25955056 1.03707865,7.65842697 C1.11685393,8.13707865 1.27640449,8.53595506 1.43595506,9.01460674 C1.51573034,9.01460674 1.51573034,9.01460674 1.43595506,8.85505618 C1.43595506,8.69550562 1.35617978,8.61573034 1.35617978,8.53595506 C1.35617978,8.45617978 1.35617978,8.37640449 1.35617978,8.29662921 C1.35617978,8.21685393 1.35617978,8.13707865 1.43595506,8.05730337 C1.51573034,7.97752809 1.59550562,7.89775281 1.59550562,7.4988764 C1.59550562,7.41910112 1.59550562,7.25955056 1.59550562,7.17977528 C1.59550562,7.02022472 1.59550562,6.94044944 1.59550562,6.86067416 C1.6752809,6.54157303 1.83483146,6.86067416 1.91460674,6.54157303 C1.91460674,6.54157303 1.91460674,5.98314607 1.91460674,5.98314607 C1.99438202,5.82359551 2.0741573,5.90337079 2.15393258,5.50449438 C2.15393258,5.34494382 2.23370787,5.26516854 2.23370787,5.18539326 C2.23370787,5.10561798 2.31348315,4.94606742 2.31348315,4.86629213 C2.39325843,4.70674157 2.47303371,4.54719101 2.47303371,4.46741573 C2.55280899,4.38764045 2.63258427,4.22808989 2.63258427,4.14831461 L2.71235955,3.98876404 L2.79213483,3.82921348 C2.87191011,3.3505618 3.03146067,2.95168539 3.27078652,2.55280899 C3.27078652,2.55280899 3.19101124,2.63258427 3.19101124,2.63258427 C3.19101124,2.87191011 3.19101124,2.87191011 3.11123596,2.95168539 C3.19101124,2.95168539 3.11123596,2.95168539 3.11123596,2.95168539 Z" id="Shape" fill="#CDD7EA"></path>
                                    <path d="M7.25955056,10.2910112 C7.25955056,10.211236 7.33932584,10.1314607 7.33932584,10.1314607 C7.33932584,10.0516854 7.41910112,9.97191011 7.41910112,9.97191011 C7.4988764,9.81235955 7.57865169,9.73258427 7.57865169,9.57303371 C7.25955056,10.1314607 6.94044944,10.4505618 6.7011236,10.6898876 C6.54157303,10.7696629 6.38202247,10.9292135 6.30224719,10.9292135 C6.14269663,11.0089888 6.06292135,11.0089888 5.90337079,11.088764 C5.90337079,11.088764 5.74382022,11.1685393 5.50449438,11.2483146 C5.4247191,11.3280899 5.26516854,11.3280899 5.18539326,11.4078652 C5.0258427,11.4876404 4.86629213,11.4876404 4.78651685,11.4876404 C4.62696629,11.4876404 4.46741573,11.4876404 4.30786517,11.4876404 C4.14831461,11.4876404 3.98876404,11.4876404 3.90898876,11.4078652 C3.82921348,11.4078652 3.66966292,11.3280899 3.58988764,11.3280899 C3.51011236,11.3280899 3.43033708,11.2483146 3.43033708,11.2483146 C3.43033708,11.2483146 3.51011236,11.2483146 3.51011236,11.2483146 C3.58988764,11.2483146 3.66966292,11.2483146 3.7494382,11.2483146 C3.90898876,11.2483146 4.14831461,11.3280899 4.38764045,11.2483146 C4.30786517,11.2483146 4.14831461,11.2483146 4.06853933,11.1685393 C3.98876404,11.1685393 3.90898876,11.088764 3.82921348,11.088764 C3.7494382,11.088764 3.66966292,11.0089888 3.58988764,11.0089888 C3.51011236,10.9292135 3.51011236,10.9292135 3.43033708,10.9292135 C3.3505618,10.8494382 3.27078652,10.7696629 3.19101124,10.6898876 C3.19101124,10.6898876 3.11123596,10.6101124 3.11123596,10.6101124 C3.11123596,10.6101124 3.03146067,10.5303371 3.03146067,10.5303371 C2.95168539,10.4505618 2.95168539,10.3707865 2.87191011,10.2910112 C2.87191011,10.211236 2.79213483,10.1314607 2.79213483,10.0516854 C2.71235955,9.97191011 2.71235955,9.89213483 2.71235955,9.81235955 C2.63258427,9.73258427 2.63258427,9.57303371 2.55280899,9.49325843 C2.39325843,9.01460674 2.39325843,8.53595506 2.39325843,8.21685393 C2.39325843,8.05730337 2.39325843,7.89775281 2.47303371,7.73820225 C2.55280899,7.65842697 2.55280899,7.57865169 2.63258427,7.4988764 C2.71235955,7.41910112 2.71235955,6.86067416 2.71235955,6.30224719 C2.63258427,6.14269663 2.63258427,5.90337079 2.63258427,5.66404494 C2.63258427,5.82359551 2.55280899,5.90337079 2.55280899,6.06292135 C2.55280899,6.14269663 2.47303371,6.22247191 2.47303371,6.30224719 C2.31348315,6.38202247 2.23370787,6.54157303 2.15393258,6.78089888 C2.0741573,7.02022472 2.0741573,7.41910112 2.15393258,7.97752809 C2.23370787,8.37640449 1.91460674,8.13707865 1.91460674,8.37640449 C1.91460674,8.45617978 1.91460674,8.61573034 1.91460674,8.69550562 C1.91460674,8.7752809 1.91460674,8.85505618 1.91460674,8.93483146 C1.91460674,9.09438202 1.99438202,9.25393258 1.99438202,9.41348315 C1.99438202,9.57303371 2.0741573,9.73258427 2.0741573,9.89213483 C2.15393258,10.0516854 2.15393258,10.211236 2.23370787,10.3707865 C2.23370787,10.4505618 2.31348315,10.5303371 2.39325843,10.6898876 C2.47303371,10.8494382 2.55280899,10.9292135 2.71235955,11.088764 C3.03146067,11.2483146 3.3505618,11.4876404 3.66966292,11.5674157 C3.82921348,11.647191 4.06853933,11.647191 4.22808989,11.647191 C4.30786517,11.647191 4.38764045,11.647191 4.54719101,11.647191 C4.62696629,11.647191 4.70674157,11.647191 4.86629213,11.647191 C5.0258427,11.647191 5.10561798,11.5674157 5.26516854,11.5674157 C5.34494382,11.4876404 5.50449438,11.4876404 5.58426966,11.4078652 C5.74382022,11.3280899 5.90337079,11.2483146 5.98314607,11.1685393 C6.06292135,11.088764 6.14269663,11.088764 6.22247191,11.0089888 C6.30224719,10.9292135 6.38202247,10.9292135 6.46179775,10.9292135 C6.54157303,10.8494382 6.7011236,10.8494382 6.78089888,10.6898876 C6.86067416,10.6101124 6.94044944,10.6101124 6.94044944,10.5303371 C6.94044944,10.4505618 7.02022472,10.4505618 7.02022472,10.3707865 C7.17977528,10.4505618 7.25955056,10.3707865 7.25955056,10.2910112 Z" id="Shape" fill="#DAE1EF"></path>
                                    <path d="M2.15393258,5.66404494 C2.15393258,6.06292135 1.99438202,5.98314607 1.91460674,6.14269663 C1.83483146,6.22247191 1.91460674,6.7011236 1.91460674,6.7011236 C1.83483146,7.02022472 1.6752809,6.7011236 1.59550562,7.02022472 C1.59550562,7.02022472 1.59550562,7.17977528 1.59550562,7.33932584 C1.59550562,7.4988764 1.59550562,7.57865169 1.59550562,7.65842697 C1.59550562,8.05730337 1.51573034,8.13707865 1.43595506,8.21685393 C1.43595506,8.29662921 1.35617978,8.29662921 1.35617978,8.45617978 C1.35617978,8.53595506 1.35617978,8.53595506 1.35617978,8.69550562 C1.35617978,8.7752809 1.35617978,8.85505618 1.43595506,9.01460674 C1.43595506,9.1741573 1.43595506,9.1741573 1.43595506,9.1741573 C1.43595506,9.1741573 1.43595506,9.1741573 1.43595506,9.1741573 C1.27640449,9.09438202 1.51573034,9.57303371 1.59550562,9.73258427 C1.6752809,9.89213483 1.75505618,10.0516854 1.83483146,10.1314607 C1.91460674,10.211236 1.99438202,10.3707865 2.0741573,10.4505618 C2.15393258,10.5303371 2.23370787,10.6101124 2.31348315,10.7696629 C2.39325843,10.8494382 2.47303371,11.0089888 2.63258427,11.088764 C2.71235955,11.1685393 2.79213483,11.2483146 2.95168539,11.3280899 C2.79213483,11.1685393 2.71235955,11.0089888 2.63258427,10.9292135 C2.55280899,10.7696629 2.47303371,10.6898876 2.47303371,10.6101124 C2.39325843,10.4505618 2.31348315,10.2910112 2.31348315,10.1314607 C2.31348315,9.97191011 2.23370787,9.81235955 2.23370787,9.65280899 C2.23370787,9.49325843 2.15393258,9.33370787 2.15393258,9.1741573 C2.15393258,9.09438202 2.15393258,9.01460674 2.15393258,8.93483146 C2.15393258,8.85505618 2.15393258,8.69550562 2.15393258,8.61573034 C2.15393258,8.37640449 2.39325843,8.61573034 2.39325843,8.21685393 C2.31348315,7.65842697 2.31348315,7.25955056 2.39325843,7.02022472 C2.47303371,6.78089888 2.55280899,6.62134831 2.71235955,6.54157303 C2.71235955,6.54157303 2.79213483,6.46179775 2.79213483,6.30224719 C2.79213483,6.22247191 2.87191011,6.06292135 2.87191011,5.90337079 C2.87191011,5.74382022 2.87191011,5.58426966 2.87191011,5.4247191 C2.87191011,5.34494382 2.87191011,5.26516854 2.95168539,5.18539326 C2.95168539,5.10561798 2.95168539,5.10561798 2.95168539,5.10561798 C2.95168539,5.10561798 2.95168539,5.10561798 2.95168539,5.10561798 C2.95168539,4.94606742 2.95168539,4.78651685 3.03146067,4.70674157 C3.03146067,4.54719101 3.03146067,4.46741573 3.11123596,4.30786517 L3.03146067,4.46741573 L2.95168539,4.62696629 C2.87191011,4.70674157 2.79213483,4.78651685 2.79213483,4.94606742 C2.71235955,5.0258427 2.63258427,5.18539326 2.63258427,5.34494382 C2.63258427,5.4247191 2.55280899,5.50449438 2.55280899,5.66404494 C2.15393258,5.4247191 2.15393258,5.58426966 2.15393258,5.66404494 Z" id="Shape" fill="#D5DEED"></path>
                                    <path d="M7.97752809,8.7752809 C7.97752809,8.61573034 8.05730337,8.45617978 8.05730337,8.29662921 C8.13707865,7.89775281 8.13707865,7.97752809 8.21685393,7.73820225 C8.21685393,7.73820225 8.21685393,7.73820225 8.21685393,7.73820225 C8.21685393,7.73820225 8.21685393,7.73820225 8.21685393,7.73820225 C8.21685393,7.65842697 8.21685393,7.65842697 8.21685393,7.57865169 C8.13707865,7.89775281 8.05730337,7.97752809 7.97752809,7.97752809 C7.89775281,8.21685393 7.81797753,8.45617978 7.81797753,8.53595506 C7.73820225,8.61573034 7.73820225,8.69550562 7.65842697,8.69550562 L7.4988764,8.85505618 C7.41910112,9.01460674 7.25955056,9.09438202 7.17977528,9.25393258 C7.1,9.33370787 7.02022472,9.41348315 6.94044944,9.49325843 C6.86067416,9.57303371 6.78089888,9.65280899 6.7011236,9.81235955 C6.62134831,9.89213483 6.54157303,10.0516854 6.38202247,10.211236 C6.22247191,10.3707865 6.14269663,10.4505618 5.90337079,10.6101124 C5.58426966,10.8494382 5.58426966,10.7696629 5.50449438,10.6898876 C5.50449438,10.6898876 5.4247191,10.6101124 5.34494382,10.6101124 C5.26516854,10.6101124 5.26516854,10.6101124 5.18539326,10.6101124 C5.10561798,10.6101124 5.0258427,10.6101124 4.94606742,10.6898876 C4.78651685,10.6898876 4.62696629,10.7696629 4.38764045,10.7696629 C4.22808989,10.7696629 4.06853933,10.6898876 3.98876404,10.6101124 C3.98876404,10.5303371 4.06853933,10.5303371 4.06853933,10.4505618 C4.06853933,10.4505618 4.06853933,10.3707865 4.06853933,10.3707865 C4.06853933,10.3707865 3.98876404,10.2910112 3.90898876,10.2910112 C3.66966292,10.1314607 3.43033708,9.97191011 3.27078652,9.73258427 C3.27078652,9.65280899 3.19101124,9.65280899 3.19101124,9.57303371 C3.19101124,9.49325843 3.11123596,9.49325843 3.11123596,9.41348315 C3.11123596,9.33370787 3.03146067,9.33370787 3.03146067,9.25393258 L3.03146067,9.1741573 L3.03146067,9.09438202 C2.95168539,8.85505618 2.95168539,8.69550562 2.95168539,8.53595506 C2.95168539,8.37640449 3.03146067,8.29662921 3.03146067,8.21685393 C2.87191011,7.73820225 2.71235955,7.1 2.55280899,6.46179775 C2.47303371,6.94044944 2.55280899,7.57865169 2.47303371,7.65842697 C2.39325843,7.65842697 2.39325843,7.73820225 2.31348315,7.89775281 C2.39325843,7.89775281 2.39325843,8.05730337 2.39325843,8.21685393 C2.39325843,8.53595506 2.47303371,9.01460674 2.63258427,9.49325843 C2.71235955,9.57303371 2.71235955,9.73258427 2.79213483,9.81235955 C2.87191011,9.89213483 2.87191011,9.97191011 2.87191011,10.0516854 C2.87191011,10.1314607 2.95168539,10.211236 2.95168539,10.2910112 C2.95168539,10.3707865 3.03146067,10.4505618 3.11123596,10.5303371 C3.11123596,10.5303371 3.19101124,10.6101124 3.19101124,10.6101124 C3.19101124,10.6101124 3.27078652,10.6898876 3.27078652,10.6898876 C3.3505618,10.7696629 3.43033708,10.8494382 3.51011236,10.9292135 C3.58988764,10.9292135 3.58988764,11.0089888 3.66966292,11.0089888 C3.7494382,11.088764 3.82921348,11.088764 3.90898876,11.088764 C3.98876404,11.088764 4.06853933,11.1685393 4.14831461,11.1685393 C4.22808989,11.1685393 4.38764045,11.2483146 4.46741573,11.2483146 C4.22808989,11.2483146 3.98876404,11.2483146 3.82921348,11.2483146 C3.7494382,11.2483146 3.66966292,11.2483146 3.58988764,11.2483146 C3.51011236,11.2483146 3.51011236,11.2483146 3.51011236,11.2483146 C3.51011236,11.2483146 3.58988764,11.3280899 3.66966292,11.3280899 C3.7494382,11.3280899 3.82921348,11.4078652 3.98876404,11.4078652 C4.06853933,11.4078652 4.22808989,11.4876404 4.38764045,11.4876404 C4.54719101,11.4876404 4.70674157,11.4876404 4.86629213,11.4876404 C5.0258427,11.4876404 5.18539326,11.4078652 5.26516854,11.4078652 C5.4247191,11.3280899 5.50449438,11.3280899 5.58426966,11.2483146 C5.74382022,11.1685393 5.90337079,11.088764 5.98314607,11.088764 C6.06292135,11.088764 6.22247191,11.0089888 6.38202247,10.9292135 C6.54157303,10.8494382 6.62134831,10.7696629 6.78089888,10.6898876 C7.1,10.4505618 7.41910112,10.1314607 7.65842697,9.57303371 C7.73820225,9.41348315 7.81797753,9.33370787 7.81797753,9.1741573 C7.89775281,9.01460674 7.97752809,8.85505618 7.97752809,8.7752809 Z" id="Shape" fill="#DFE5F1"></path>
                                    <path d="M3.98876404,10.211236 C4.06853933,10.2910112 4.14831461,10.2910112 4.14831461,10.2910112 C4.14831461,10.2910112 4.14831461,10.3707865 4.14831461,10.3707865 C4.14831461,10.4505618 3.98876404,10.4505618 4.06853933,10.5303371 C4.06853933,10.6101124 4.22808989,10.6101124 4.46741573,10.6898876 C4.62696629,10.6898876 4.86629213,10.6898876 5.0258427,10.6101124 C5.10561798,10.6101124 5.18539326,10.5303371 5.26516854,10.5303371 C5.34494382,10.5303371 5.34494382,10.5303371 5.4247191,10.5303371 C5.50449438,10.5303371 5.50449438,10.5303371 5.58426966,10.6101124 C5.66404494,10.6898876 5.66404494,10.7696629 5.98314607,10.5303371 C6.14269663,10.3707865 6.30224719,10.2910112 6.46179775,10.1314607 C6.62134831,9.97191011 6.7011236,9.89213483 6.78089888,9.73258427 C6.86067416,9.65280899 6.94044944,9.49325843 7.02022472,9.41348315 C7.1,9.33370787 7.17977528,9.25393258 7.25955056,9.1741573 C7.33932584,9.01460674 7.4988764,8.93483146 7.57865169,8.7752809 L7.73820225,8.61573034 C7.81797753,8.53595506 7.81797753,8.45617978 7.89775281,8.45617978 C7.97752809,8.37640449 8.05730337,8.13707865 8.05730337,7.89775281 C8.05730337,7.89775281 7.97752809,7.81797753 7.97752809,7.81797753 C7.97752809,7.81797753 7.89775281,7.89775281 7.81797753,8.13707865 C7.73820225,8.29662921 7.65842697,8.53595506 7.57865169,8.69550562 C7.4988764,8.7752809 7.4988764,8.69550562 7.4988764,8.53595506 C7.4988764,8.37640449 7.4988764,8.21685393 7.4988764,7.97752809 C7.4988764,7.89775281 7.4988764,7.81797753 7.4988764,7.81797753 C7.4988764,7.81797753 7.4988764,7.81797753 7.4988764,7.81797753 C7.4988764,7.73820225 7.4988764,7.73820225 7.4988764,7.65842697 C7.41910112,7.81797753 7.41910112,7.89775281 7.33932584,7.97752809 C7.33932584,8.05730337 7.33932584,8.05730337 7.25955056,8.13707865 C7.25955056,8.13707865 7.25955056,8.05730337 7.25955056,8.05730337 C7.17977528,8.21685393 7.1,8.29662921 7.02022472,8.37640449 C6.94044944,8.45617978 6.86067416,8.53595506 6.78089888,8.61573034 C6.78089888,8.69550562 6.78089888,8.69550562 6.7011236,8.7752809 C6.7011236,8.69550562 6.7011236,8.69550562 6.78089888,8.61573034 C6.7011236,8.69550562 6.62134831,8.85505618 6.54157303,8.93483146 C6.46179775,9.09438202 6.38202247,9.1741573 6.30224719,9.33370787 C6.22247191,9.41348315 6.14269663,9.57303371 5.98314607,9.65280899 C5.90337079,9.73258427 5.90337079,9.73258427 5.82359551,9.73258427 C5.74382022,9.73258427 5.74382022,9.81235955 5.66404494,9.81235955 C5.50449438,9.89213483 5.18539326,10.0516854 4.86629213,10.1314607 C4.86629213,10.1314607 4.78651685,10.1314607 4.78651685,10.1314607 C4.78651685,10.1314607 4.70674157,10.1314607 4.70674157,10.1314607 C4.62696629,10.1314607 4.62696629,10.1314607 4.54719101,10.1314607 C4.46741573,10.1314607 4.46741573,10.0516854 4.46741573,9.97191011 C4.38764045,9.97191011 4.30786517,9.97191011 4.30786517,9.97191011 C4.30786517,9.97191011 4.22808989,9.97191011 4.22808989,9.97191011 C4.22808989,9.97191011 4.14831461,9.97191011 4.14831461,9.97191011 C4.14831461,9.97191011 4.22808989,9.89213483 4.22808989,9.89213483 C4.14831461,9.89213483 4.14831461,9.81235955 4.06853933,9.81235955 C4.06853933,9.73258427 3.98876404,9.73258427 3.98876404,9.73258427 C3.98876404,9.73258427 4.06853933,9.73258427 4.06853933,9.73258427 C4.06853933,9.73258427 4.14831461,9.73258427 4.14831461,9.81235955 C4.06853933,9.81235955 4.06853933,9.73258427 3.98876404,9.73258427 C3.90898876,9.73258427 3.82921348,9.73258427 3.7494382,9.73258427 C3.7494382,9.73258427 3.82921348,9.73258427 3.82921348,9.73258427 C3.82921348,9.73258427 3.82921348,9.73258427 3.90898876,9.73258427 C3.90898876,9.73258427 3.98876404,9.73258427 3.98876404,9.73258427 C3.98876404,9.73258427 4.06853933,9.73258427 4.06853933,9.73258427 C3.98876404,9.65280899 3.90898876,9.57303371 3.82921348,9.41348315 C3.82921348,9.41348315 3.7494382,9.41348315 3.7494382,9.33370787 C3.7494382,9.33370787 3.82921348,9.33370787 3.82921348,9.41348315 L3.82921348,9.33370787 C3.82921348,9.33370787 3.82921348,9.33370787 3.7494382,9.33370787 C3.7494382,9.33370787 3.7494382,9.33370787 3.66966292,9.25393258 C3.66966292,9.25393258 3.58988764,9.1741573 3.51011236,9.1741573 C3.43033708,9.09438202 3.3505618,9.01460674 3.27078652,8.85505618 C3.27078652,8.7752809 3.27078652,8.7752809 3.27078652,8.69550562 C3.27078652,8.61573034 3.27078652,8.61573034 3.27078652,8.53595506 C3.27078652,8.45617978 3.19101124,8.29662921 3.19101124,8.13707865 C3.11123596,8.21685393 3.11123596,8.29662921 3.11123596,8.45617978 C3.11123596,8.61573034 3.11123596,8.7752809 3.19101124,9.01460674 L3.19101124,9.09438202 L3.19101124,9.1741573 C3.19101124,9.25393258 3.27078652,9.25393258 3.27078652,9.33370787 C3.27078652,9.41348315 3.3505618,9.41348315 3.3505618,9.49325843 C3.3505618,9.57303371 3.43033708,9.65280899 3.43033708,9.65280899 C3.58988764,9.89213483 3.7494382,10.1314607 3.98876404,10.211236 Z" id="Shape" fill="#E7EBF5"></path>
                                </g>
                            </g>
                        </g>
                        <g transform="translate(11.168539, 15.955056)">
                            <path d="M3.98876404,2.87191011 C3.43033708,2.87191011 2.95168539,2.15393258 2.95168539,1.19662921 C2.95168539,0.797752809 3.03146067,0.478651685 3.19101124,0.159550562 C3.03146067,0.0797752809 2.87191011,0.0797752809 2.71235955,0.0797752809 C1.6752809,0.0797752809 0.87752809,1.43595506 0.87752809,3.11123596 C0.87752809,4.78651685 1.6752809,6.14269663 2.71235955,6.14269663 C3.7494382,6.14269663 4.54719101,4.78651685 4.54719101,3.11123596 C4.54719101,2.95168539 4.54719101,2.79213483 4.54719101,2.55280899 C4.38764045,2.79213483 4.22808989,2.87191011 3.98876404,2.87191011 Z" id="XMLID_57_" fill="#4E5057"></path>
                            <path d="M4.06853933,2.71235955 C2.95168539,2.63258427 3.11123596,0.797752809 3.43033708,0.159550562 C3.43033708,0.0797752809 3.3505618,0.0797752809 3.3505618,0.0797752809 C2.31348315,-0.239325843 1.51573034,0.478651685 1.11685393,1.35617978 C0.558426966,2.55280899 0.638202247,4.22808989 1.35617978,5.34494382 C1.83483146,6.14269663 2.79213483,6.46179775 3.58988764,5.90337079 C4.70674157,5.18539326 4.86629213,3.66966292 4.78651685,2.47303371 C4.78651685,2.31348315 4.46741573,2.47303371 4.38764045,2.47303371 C4.22808989,2.63258427 4.14831461,2.71235955 4.06853933,2.71235955 C3.82921348,2.71235955 3.66966292,3.03146067 3.98876404,2.95168539 C4.30786517,2.87191011 4.46741573,2.79213483 4.78651685,2.55280899 C4.62696629,2.55280899 4.54719101,2.55280899 4.38764045,2.55280899 C4.46741573,3.51011236 4.14831461,6.38202247 2.55280899,5.82359551 C1.35617978,5.4247191 1.11685393,3.51011236 1.27640449,2.39325843 C1.35617978,1.83483146 1.51573034,1.19662921 1.83483146,0.717977528 C2.0741573,0.478651685 2.47303371,3.35235312e-16 2.79213483,0.159550562 C3.03146067,0.319101124 2.87191011,0.398876404 2.87191011,0.638202247 C2.87191011,0.797752809 2.87191011,0.957303371 2.87191011,1.11685393 C2.87191011,1.83483146 3.19101124,2.79213483 3.98876404,2.87191011 C4.06853933,3.03146067 4.30786517,2.79213483 4.06853933,2.71235955 Z" id="Shape" fill="#4F5057"></path>
                        </g>
                        <g opacity="0.3" transform="translate(29.516854, 13.561798)">
                            <ellipse id="XMLID_56_" fill="#EEF3F9" cx="3.66966292" cy="5.66404494" rx="2.79213483" ry="4.70674157"></ellipse>
                            <g id="Shape" opacity="0.9">
                                <g id="Group">
                                    <path d="M5.98314607,7.81797753 L6.06292135,7.65842697 C6.06292135,7.65842697 5.98314607,7.65842697 5.98314607,7.57865169 C5.98314607,7.41910112 5.82359551,7.89775281 5.66404494,8.29662921 C5.58426966,8.37640449 5.74382022,8.29662921 5.98314607,7.81797753 Z" id="Shape" fill="#F0F2F8"></path>
                                    <path d="M7.02022472,5.82359551 C7.02022472,5.74382022 7.02022472,5.66404494 7.02022472,5.58426966 C7.02022472,5.58426966 7.02022472,5.58426966 7.02022472,5.58426966 C6.94044944,5.74382022 6.94044944,5.82359551 7.02022472,5.82359551 Z" id="Shape" fill="#EDF0F7"></path>
                                    <path d="M6.46179775,6.38202247 C6.46179775,6.54157303 6.46179775,6.7011236 6.38202247,6.78089888 C6.38202247,6.94044944 6.38202247,7.02022472 6.30224719,7.17977528 C6.38202247,7.02022472 6.38202247,6.94044944 6.46179775,6.86067416 C6.54157303,6.78089888 6.62134831,6.62134831 6.62134831,6.46179775 C6.62134831,6.38202247 6.62134831,6.22247191 6.62134831,6.06292135 C6.62134831,6.14269663 6.62134831,6.14269663 6.62134831,6.22247191 C6.62134831,6.14269663 6.62134831,6.06292135 6.62134831,6.06292135 C6.62134831,5.98314607 6.62134831,5.98314607 6.62134831,5.98314607 C6.62134831,5.98314607 6.62134831,6.14269663 6.54157303,6.30224719 C6.54157303,6.46179775 6.46179775,6.62134831 6.46179775,6.78089888 C6.46179775,6.62134831 6.46179775,6.38202247 6.46179775,6.22247191 C6.46179775,6.30224719 6.46179775,6.30224719 6.38202247,6.38202247 C6.38202247,6.46179775 6.38202247,6.54157303 6.38202247,6.62134831 L6.46179775,6.38202247 Z" id="Shape" fill="#F0F2F8"></path>
                                    <path d="M4.62696629,9.01460674 C4.62696629,9.01460674 4.70674157,9.01460674 4.62696629,9.01460674 C4.70674157,8.93483146 4.78651685,8.85505618 4.78651685,8.69550562 L4.70674157,8.7752809 L4.62696629,8.85505618 C4.62696629,8.93483146 4.62696629,8.93483146 4.62696629,9.01460674 L4.54719101,9.01460674 C4.54719101,9.01460674 4.54719101,9.01460674 4.54719101,8.93483146 C4.54719101,8.93483146 4.46741573,9.01460674 4.46741573,9.01460674 L4.54719101,9.01460674 C4.46741573,9.01460674 4.46741573,9.09438202 4.38764045,9.09438202 C4.38764045,9.09438202 4.30786517,9.1741573 4.30786517,9.1741573 C4.38764045,9.1741573 4.54719101,9.09438202 4.62696629,9.01460674 Z" id="Shape" fill="#F0F2F8"></path>
                                    <path d="M3.19101124,9.33370787 C3.19101124,9.41348315 3.19101124,9.41348315 3.11123596,9.41348315 C3.19101124,9.41348315 3.27078652,9.49325843 3.27078652,9.49325843 C3.3505618,9.49325843 3.43033708,9.57303371 3.43033708,9.57303371 C3.3505618,9.65280899 3.51011236,9.81235955 3.82921348,9.81235955 C4.14831461,9.81235955 4.46741573,9.65280899 4.62696629,9.57303371 C4.78651685,9.49325843 5.0258427,9.33370787 5.26516854,9.09438202 C5.50449438,8.85505618 5.66404494,8.61573034 5.82359551,8.45617978 C5.82359551,8.37640449 5.82359551,8.37640449 5.90337079,8.13707865 C5.82359551,8.21685393 5.74382022,8.37640449 5.74382022,8.53595506 C5.74382022,8.53595506 5.74382022,8.61573034 5.74382022,8.61573034 C5.74382022,8.61573034 5.74382022,8.53595506 5.74382022,8.53595506 C5.74382022,8.45617978 5.82359551,8.29662921 5.90337079,8.21685393 C5.90337079,8.29662921 5.82359551,8.29662921 5.82359551,8.29662921 C5.82359551,8.29662921 5.82359551,8.21685393 5.82359551,8.21685393 C5.66404494,8.37640449 5.58426966,8.53595506 5.4247191,8.69550562 C5.26516854,8.7752809 5.18539326,8.85505618 5.10561798,8.85505618 L5.0258427,8.93483146 C4.70674157,9.33370787 4.54719101,9.33370787 4.54719101,9.25393258 C4.38764045,9.41348315 4.14831461,9.57303371 3.98876404,9.57303371 C3.7494382,9.57303371 3.58988764,9.49325843 3.43033708,9.41348315 C3.43033708,9.41348315 3.3505618,9.41348315 3.3505618,9.41348315 C3.3505618,9.41348315 3.27078652,9.41348315 3.19101124,9.33370787 C3.27078652,9.41348315 3.27078652,9.41348315 3.19101124,9.33370787 Z" id="Shape" fill="#EEF1F8"></path>
                                    <path d="M6.54157303,5.66404494 C6.62134831,5.66404494 6.62134831,5.50449438 6.7011236,5.34494382 C6.7011236,5.26516854 6.78089888,5.18539326 6.78089888,5.10561798 C6.78089888,5.0258427 6.78089888,4.86629213 6.86067416,4.78651685 C6.94044944,4.30786517 6.86067416,3.66966292 6.62134831,3.03146067 C6.38202247,2.39325843 6.06292135,1.75505618 5.58426966,1.19662921 C5.34494382,0.957303371 5.0258427,0.638202247 4.54719101,0.478651685 C4.14831461,0.319101124 3.66966292,0.239325843 3.19101124,0.319101124 C3.27078652,0.319101124 3.27078652,0.319101124 3.3505618,0.398876404 C3.3505618,0.398876404 3.3505618,0.478651685 3.27078652,0.478651685 C3.19101124,0.478651685 3.11123596,0.558426966 3.03146067,0.638202247 C2.95168539,0.638202247 2.95168539,0.717977528 2.87191011,0.717977528 C2.79213483,0.717977528 2.71235955,0.797752809 2.63258427,0.87752809 C2.55280899,0.957303371 2.47303371,0.957303371 2.39325843,1.03707865 C2.31348315,1.11685393 2.23370787,1.19662921 2.15393258,1.19662921 C2.0741573,1.27640449 1.99438202,1.35617978 1.91460674,1.35617978 C1.83483146,1.43595506 1.83483146,1.43595506 1.83483146,1.51573034 C1.59550562,1.83483146 1.51573034,2.0741573 1.43595506,2.31348315 C1.35617978,2.55280899 1.27640449,2.79213483 1.11685393,3.19101124 C1.19662921,3.03146067 1.27640449,3.03146067 1.35617978,2.95168539 C1.59550562,2.55280899 1.91460674,2.0741573 2.31348315,1.51573034 C2.39325843,1.43595506 2.55280899,1.35617978 2.55280899,1.35617978 C2.63258427,1.35617978 2.63258427,1.35617978 2.47303371,1.51573034 C2.71235955,1.35617978 2.95168539,1.27640449 3.11123596,1.11685393 C3.19101124,1.11685393 3.3505618,1.03707865 3.43033708,1.03707865 L3.58988764,1.03707865 L3.66966292,1.03707865 L3.7494382,1.03707865 C3.82921348,1.03707865 3.90898876,1.03707865 3.98876404,1.03707865 C4.06853933,1.03707865 4.06853933,1.03707865 4.14831461,1.11685393 C4.22808989,1.11685393 4.22808989,1.11685393 4.22808989,1.19662921 C4.22808989,1.19662921 4.30786517,1.19662921 4.30786517,1.27640449 C4.38764045,1.35617978 4.38764045,1.35617978 4.38764045,1.43595506 C4.38764045,1.51573034 4.22808989,1.51573034 4.38764045,1.6752809 C4.38764045,1.75505618 4.46741573,1.75505618 4.54719101,1.83483146 C4.86629213,1.99438202 5.18539326,2.23370787 5.4247191,2.55280899 C5.66404494,2.87191011 5.90337079,3.19101124 6.06292135,3.58988764 C6.14269663,3.7494382 6.14269663,4.06853933 6.22247191,4.22808989 C6.30224719,4.54719101 6.38202247,5.0258427 6.46179775,5.34494382 C6.46179775,5.50449438 6.54157303,5.66404494 6.54157303,5.66404494 Z" id="Shape" fill="#C2CFE6"></path>
                                    <path d="M0.239325843,5.18539326 C0.239325843,4.94606742 0.239325843,4.70674157 0.239325843,4.38764045 C0.159550562,4.78651685 0.0797752809,5.18539326 0,5.66404494 C0,5.74382022 0.0797752809,5.90337079 0.0797752809,5.98314607 C0.0797752809,5.66404494 0.159550562,5.34494382 0.239325843,5.18539326 Z" id="Shape" fill="#CAD5E9"></path>
                                    <path d="M3.66966292,1.43595506 C3.7494382,1.35617978 3.66966292,1.35617978 3.58988764,1.35617978 C3.51011236,1.35617978 3.51011236,1.35617978 3.43033708,1.35617978 C3.43033708,1.35617978 3.3505618,1.35617978 3.3505618,1.35617978 C3.3505618,1.35617978 3.27078652,1.35617978 3.27078652,1.35617978 C2.79213483,1.51573034 2.55280899,1.75505618 2.23370787,1.91460674 C2.23370787,1.91460674 2.0741573,2.0741573 1.99438202,2.15393258 C1.99438202,2.15393258 1.83483146,2.23370787 1.91460674,2.0741573 C1.83483146,2.15393258 1.83483146,2.23370787 1.75505618,2.31348315 C1.75505618,2.31348315 1.6752809,2.39325843 1.6752809,2.39325843 C1.6752809,2.39325843 1.6752809,2.47303371 1.6752809,2.47303371 C1.51573034,2.71235955 1.75505618,2.23370787 1.59550562,2.39325843 C1.35617978,2.87191011 1.19662921,3.3505618 1.11685393,3.66966292 C1.03707865,3.82921348 0.957303371,3.90898876 0.957303371,3.90898876 C0.87752809,3.90898876 0.87752809,3.90898876 0.87752809,3.82921348 C0.87752809,3.7494382 0.87752809,3.58988764 0.87752809,3.51011236 C0.87752809,3.3505618 0.87752809,3.27078652 0.87752809,3.19101124 C0.87752809,2.95168539 1.11685393,2.47303371 1.35617978,2.0741573 C1.19662921,2.15393258 0.87752809,2.71235955 1.03707865,2.39325843 C1.11685393,2.23370787 1.19662921,2.0741573 1.27640449,1.91460674 C1.27640449,1.83483146 1.35617978,1.75505618 1.35617978,1.6752809 C1.35617978,1.59550562 1.43595506,1.51573034 1.43595506,1.51573034 C1.11685393,1.91460674 0.87752809,2.39325843 0.717977528,2.87191011 C0.558426966,3.3505618 0.478651685,3.7494382 0.398876404,3.98876404 C0.398876404,4.06853933 0.319101124,4.14831461 0.319101124,4.22808989 C0.319101124,4.30786517 0.239325843,4.38764045 0.239325843,4.46741573 C0.239325843,4.78651685 0.239325843,5.0258427 0.239325843,5.26516854 C0.159550562,5.4247191 0.0797752809,5.74382022 0.0797752809,6.06292135 C0.0797752809,6.22247191 0.159550562,6.30224719 0.159550562,6.38202247 C0.239325843,6.54157303 0.239325843,6.30224719 0.239325843,6.06292135 C0.239325843,5.98314607 0.239325843,5.90337079 0.239325843,5.82359551 C0.239325843,5.74382022 0.239325843,5.66404494 0.239325843,5.58426966 C0.239325843,5.4247191 0.239325843,5.34494382 0.319101124,5.26516854 C0.319101124,5.82359551 0.398876404,6.22247191 0.478651685,6.30224719 C0.558426966,6.46179775 0.638202247,6.38202247 0.717977528,6.22247191 C0.797752809,6.06292135 0.797752809,5.98314607 0.797752809,5.82359551 C0.87752809,5.66404494 0.87752809,5.50449438 0.957303371,5.26516854 C0.957303371,5.18539326 0.957303371,5.0258427 1.03707865,4.86629213 C1.03707865,4.70674157 1.03707865,4.54719101 1.11685393,4.38764045 C1.11685393,4.46741573 1.11685393,4.78651685 1.11685393,4.70674157 C1.27640449,4.14831461 1.43595506,3.98876404 1.59550562,3.3505618 C1.59550562,3.3505618 1.6752809,3.3505618 1.59550562,3.51011236 C1.59550562,3.3505618 1.6752809,3.27078652 1.6752809,3.27078652 C1.6752809,3.27078652 1.75505618,3.19101124 1.83483146,3.03146067 C1.91460674,2.95168539 1.99438202,2.95168539 2.0741573,2.95168539 C2.15393258,2.95168539 2.23370787,2.87191011 2.31348315,2.63258427 C2.31348315,2.63258427 2.31348315,2.55280899 2.39325843,2.55280899 C2.39325843,2.55280899 2.39325843,2.47303371 2.47303371,2.47303371 C2.47303371,2.47303371 2.55280899,2.39325843 2.55280899,2.39325843 C2.71235955,2.15393258 2.95168539,1.83483146 3.27078652,1.75505618 C3.51011236,1.6752809 3.7494382,1.6752809 3.98876404,1.6752809 C3.98876404,1.6752809 3.90898876,1.6752809 3.90898876,1.6752809 C3.82921348,1.43595506 3.82921348,1.43595506 3.66966292,1.43595506 C3.7494382,1.43595506 3.7494382,1.43595506 3.66966292,1.43595506 Z" id="Shape" fill="#CAD5E9"></path>
                                    <path d="M4.30786517,1.51573034 C4.14831461,1.35617978 4.30786517,1.35617978 4.30786517,1.27640449 C4.30786517,1.27640449 4.30786517,1.19662921 4.22808989,1.11685393 C4.22808989,1.11685393 4.14831461,1.11685393 4.14831461,1.03707865 C4.14831461,1.03707865 4.06853933,1.03707865 4.06853933,0.957303371 C3.98876404,0.957303371 3.98876404,0.957303371 3.90898876,0.87752809 C3.82921348,0.87752809 3.7494382,0.87752809 3.66966292,0.87752809 L3.58988764,0.87752809 L3.51011236,0.87752809 L3.3505618,0.87752809 C3.27078652,0.87752809 3.11123596,0.957303371 3.03146067,0.957303371 C2.79213483,1.03707865 2.63258427,1.11685393 2.39325843,1.35617978 C2.55280899,1.19662921 2.55280899,1.19662921 2.47303371,1.19662921 C2.39325843,1.19662921 2.23370787,1.27640449 2.23370787,1.35617978 C1.75505618,1.91460674 1.51573034,2.39325843 1.27640449,2.79213483 C1.19662921,2.95168539 1.11685393,2.95168539 1.03707865,3.03146067 C1.11685393,2.63258427 1.27640449,2.39325843 1.35617978,2.15393258 C1.43595506,1.91460674 1.51573034,1.6752809 1.75505618,1.35617978 C1.75505618,1.35617978 1.83483146,1.27640449 1.83483146,1.19662921 C1.91460674,1.11685393 1.99438202,1.03707865 2.0741573,1.03707865 C2.15393258,0.957303371 2.23370787,0.87752809 2.31348315,0.87752809 C2.39325843,0.797752809 2.47303371,0.797752809 2.55280899,0.717977528 C2.63258427,0.638202247 2.71235955,0.638202247 2.79213483,0.558426966 C2.87191011,0.558426966 2.87191011,0.478651685 2.95168539,0.478651685 C3.03146067,0.398876404 3.11123596,0.398876404 3.19101124,0.319101124 C3.27078652,0.319101124 3.27078652,0.239325843 3.27078652,0.239325843 C3.27078652,0.239325843 3.19101124,0.159550562 3.11123596,0.159550562 C2.95168539,0.159550562 2.79213483,0.239325843 2.63258427,0.319101124 C2.55280899,0.319101124 2.47303371,0.398876404 2.39325843,0.398876404 L2.15393258,0.558426966 C1.99438202,0.638202247 1.91460674,0.717977528 1.75505618,0.87752809 C1.6752809,0.957303371 1.51573034,1.11685393 1.43595506,1.19662921 C1.43595506,1.27640449 1.35617978,1.27640449 1.35617978,1.35617978 C1.35617978,1.43595506 1.27640449,1.51573034 1.27640449,1.51573034 C1.27640449,1.59550562 1.19662921,1.6752809 1.19662921,1.75505618 C1.11685393,1.91460674 1.03707865,2.0741573 0.957303371,2.23370787 C0.87752809,2.55280899 1.19662921,1.99438202 1.27640449,1.91460674 C1.11685393,2.39325843 0.797752809,2.95168539 0.797752809,3.19101124 C0.797752809,3.27078652 0.797752809,3.43033708 0.797752809,3.51011236 C0.797752809,3.66966292 0.797752809,3.7494382 0.797752809,3.82921348 C0.797752809,3.90898876 0.87752809,3.98876404 0.87752809,3.90898876 C0.957303371,3.90898876 0.957303371,3.7494382 1.03707865,3.66966292 C1.19662921,3.3505618 1.35617978,2.95168539 1.51573034,2.39325843 C1.6752809,2.23370787 1.43595506,2.71235955 1.59550562,2.47303371 C1.59550562,2.47303371 1.59550562,2.39325843 1.59550562,2.39325843 C1.59550562,2.39325843 1.6752809,2.31348315 1.6752809,2.31348315 C1.75505618,2.23370787 1.75505618,2.15393258 1.83483146,2.0741573 C1.75505618,2.23370787 1.91460674,2.0741573 1.91460674,2.15393258 C1.99438202,2.0741573 2.15393258,1.91460674 2.15393258,1.91460674 C2.47303371,1.75505618 2.71235955,1.51573034 3.19101124,1.35617978 C3.19101124,1.35617978 3.27078652,1.35617978 3.27078652,1.35617978 C3.27078652,1.35617978 3.3505618,1.35617978 3.3505618,1.35617978 C3.43033708,1.35617978 3.43033708,1.35617978 3.51011236,1.35617978 C3.58988764,1.35617978 3.66966292,1.43595506 3.58988764,1.43595506 C3.58988764,1.43595506 3.58988764,1.43595506 3.66966292,1.43595506 C3.66966292,1.43595506 3.7494382,1.43595506 3.7494382,1.43595506 C3.7494382,1.43595506 3.82921348,1.43595506 3.82921348,1.43595506 C3.98876404,1.43595506 4.22808989,1.51573034 4.38764045,1.59550562 C4.38764045,1.59550562 4.38764045,1.59550562 4.30786517,1.51573034 Z" id="Shape" fill="#C5D2E7"></path>
                                    <path d="M2.31348315,2.47303371 C2.15393258,2.63258427 2.15393258,2.71235955 2.0741573,2.79213483 C1.99438202,2.79213483 1.91460674,2.79213483 1.83483146,2.87191011 C1.75505618,3.03146067 1.75505618,3.03146067 1.6752809,3.11123596 C1.6752809,3.11123596 1.59550562,3.19101124 1.59550562,3.3505618 C1.6752809,3.19101124 1.59550562,3.19101124 1.59550562,3.19101124 C1.35617978,3.82921348 1.27640449,4.06853933 1.11685393,4.54719101 C1.11685393,4.62696629 1.11685393,4.30786517 1.11685393,4.22808989 C1.11685393,4.38764045 1.11685393,4.54719101 1.03707865,4.70674157 C1.03707865,4.86629213 1.03707865,5.0258427 0.957303371,5.10561798 C0.87752809,5.34494382 0.87752809,5.50449438 0.797752809,5.66404494 C0.797752809,5.82359551 0.717977528,5.98314607 0.717977528,6.06292135 C0.638202247,6.22247191 0.558426966,6.30224719 0.478651685,6.14269663 C0.398876404,5.98314607 0.319101124,5.66404494 0.319101124,5.10561798 C0.319101124,5.18539326 0.239325843,5.26516854 0.239325843,5.4247191 C0.239325843,5.50449438 0.239325843,5.58426966 0.239325843,5.66404494 C0.239325843,5.74382022 0.239325843,5.82359551 0.239325843,5.90337079 C0.239325843,6.14269663 0.239325843,6.38202247 0.159550562,6.22247191 C0.159550562,6.14269663 0.0797752809,6.06292135 0.0797752809,5.90337079 C0.0797752809,6.30224719 0.159550562,6.78089888 0.239325843,7.17977528 C0.319101124,7.65842697 0.478651685,8.05730337 0.638202247,8.53595506 C0.717977528,8.53595506 0.717977528,8.53595506 0.638202247,8.37640449 C0.638202247,8.21685393 0.558426966,8.13707865 0.558426966,8.05730337 C0.558426966,7.97752809 0.558426966,7.89775281 0.558426966,7.81797753 C0.558426966,7.73820225 0.558426966,7.65842697 0.638202247,7.57865169 C0.717977528,7.4988764 0.797752809,7.41910112 0.797752809,7.02022472 C0.797752809,6.94044944 0.797752809,6.78089888 0.797752809,6.7011236 C0.797752809,6.54157303 0.797752809,6.46179775 0.797752809,6.38202247 C0.87752809,6.06292135 1.03707865,6.38202247 1.11685393,6.06292135 C1.11685393,6.06292135 1.11685393,5.50449438 1.11685393,5.50449438 C1.19662921,5.34494382 1.27640449,5.4247191 1.35617978,5.0258427 C1.35617978,4.86629213 1.43595506,4.78651685 1.43595506,4.70674157 C1.43595506,4.62696629 1.51573034,4.46741573 1.51573034,4.38764045 C1.59550562,4.22808989 1.6752809,4.06853933 1.6752809,3.98876404 C1.75505618,3.90898876 1.83483146,3.7494382 1.83483146,3.66966292 L1.91460674,3.51011236 L1.99438202,3.3505618 C2.0741573,2.87191011 2.23370787,2.47303371 2.47303371,2.0741573 C2.47303371,2.0741573 2.39325843,2.15393258 2.39325843,2.15393258 C2.39325843,2.39325843 2.39325843,2.39325843 2.31348315,2.47303371 C2.39325843,2.47303371 2.39325843,2.47303371 2.31348315,2.47303371 Z" id="Shape" fill="#CDD7EA"></path>
                                    <path d="M6.54157303,9.81235955 C6.54157303,9.73258427 6.62134831,9.65280899 6.62134831,9.65280899 C6.62134831,9.57303371 6.7011236,9.49325843 6.7011236,9.49325843 C6.78089888,9.33370787 6.86067416,9.25393258 6.86067416,9.09438202 C6.54157303,9.65280899 6.22247191,9.97191011 5.98314607,10.211236 C5.82359551,10.2910112 5.66404494,10.4505618 5.58426966,10.4505618 C5.4247191,10.5303371 5.34494382,10.5303371 5.18539326,10.6101124 C5.18539326,10.6101124 5.0258427,10.6898876 4.78651685,10.7696629 C4.70674157,10.8494382 4.54719101,10.8494382 4.46741573,10.9292135 C4.30786517,11.0089888 4.14831461,11.0089888 4.06853933,11.0089888 C3.90898876,11.0089888 3.7494382,11.0089888 3.58988764,11.0089888 C3.43033708,11.0089888 3.27078652,11.0089888 3.19101124,10.9292135 C3.11123596,10.9292135 2.95168539,10.8494382 2.87191011,10.8494382 C2.79213483,10.8494382 2.71235955,10.7696629 2.71235955,10.7696629 C2.71235955,10.7696629 2.79213483,10.7696629 2.79213483,10.7696629 C2.87191011,10.7696629 2.95168539,10.7696629 3.03146067,10.7696629 C3.19101124,10.7696629 3.43033708,10.8494382 3.66966292,10.7696629 C3.58988764,10.7696629 3.43033708,10.7696629 3.3505618,10.6898876 C3.27078652,10.6898876 3.19101124,10.6101124 3.11123596,10.6101124 C3.03146067,10.6101124 2.95168539,10.5303371 2.87191011,10.5303371 C2.79213483,10.4505618 2.79213483,10.4505618 2.71235955,10.4505618 C2.63258427,10.3707865 2.55280899,10.2910112 2.47303371,10.211236 C2.47303371,10.211236 2.39325843,10.1314607 2.39325843,10.1314607 C2.39325843,10.1314607 2.31348315,10.0516854 2.31348315,10.0516854 C2.23370787,9.97191011 2.23370787,9.89213483 2.15393258,9.81235955 C2.15393258,9.73258427 2.0741573,9.65280899 2.0741573,9.57303371 C1.99438202,9.49325843 1.99438202,9.41348315 1.99438202,9.33370787 C1.91460674,9.25393258 1.91460674,9.09438202 1.83483146,9.01460674 C1.59550562,8.53595506 1.59550562,8.05730337 1.59550562,7.73820225 C1.59550562,7.57865169 1.59550562,7.41910112 1.6752809,7.25955056 C1.75505618,7.17977528 1.75505618,7.1 1.83483146,7.02022472 C1.91460674,6.94044944 1.91460674,6.38202247 1.91460674,5.82359551 C1.83483146,5.66404494 1.83483146,5.4247191 1.83483146,5.18539326 C1.83483146,5.34494382 1.75505618,5.4247191 1.75505618,5.58426966 C1.75505618,5.66404494 1.6752809,5.74382022 1.6752809,5.82359551 C1.51573034,5.90337079 1.43595506,6.06292135 1.35617978,6.30224719 C1.27640449,6.54157303 1.27640449,6.94044944 1.35617978,7.4988764 C1.43595506,7.89775281 1.11685393,7.65842697 1.11685393,7.89775281 C1.11685393,7.97752809 1.11685393,8.13707865 1.11685393,8.21685393 C1.11685393,8.29662921 1.11685393,8.37640449 1.11685393,8.45617978 C1.11685393,8.61573034 1.19662921,8.7752809 1.19662921,8.93483146 C1.19662921,9.09438202 1.27640449,9.25393258 1.27640449,9.41348315 C1.35617978,9.57303371 1.35617978,9.73258427 1.43595506,9.89213483 C1.43595506,9.97191011 1.51573034,10.0516854 1.59550562,10.211236 C1.6752809,10.3707865 1.75505618,10.4505618 1.91460674,10.6101124 C2.23370787,10.7696629 2.55280899,11.0089888 2.87191011,11.088764 C3.03146067,11.1685393 3.27078652,11.1685393 3.43033708,11.1685393 C3.51011236,11.1685393 3.58988764,11.1685393 3.7494382,11.1685393 C3.82921348,11.1685393 3.90898876,11.1685393 4.06853933,11.1685393 C4.22808989,11.1685393 4.30786517,11.088764 4.46741573,11.088764 C4.54719101,11.0089888 4.70674157,11.0089888 4.78651685,10.9292135 C4.94606742,10.8494382 5.10561798,10.7696629 5.18539326,10.6898876 C5.26516854,10.6101124 5.34494382,10.6101124 5.4247191,10.5303371 C5.50449438,10.4505618 5.58426966,10.4505618 5.66404494,10.4505618 C5.74382022,10.3707865 5.90337079,10.3707865 5.98314607,10.211236 C6.06292135,10.1314607 6.14269663,10.1314607 6.14269663,10.0516854 C6.14269663,9.97191011 6.22247191,9.97191011 6.22247191,9.89213483 C6.46179775,9.89213483 6.46179775,9.89213483 6.54157303,9.81235955 Z" id="Shape" fill="#DAE1EF"></path>
                                    <path d="M1.35617978,5.18539326 C1.35617978,5.58426966 1.19662921,5.50449438 1.11685393,5.66404494 C1.03707865,5.74382022 1.11685393,6.22247191 1.11685393,6.22247191 C1.03707865,6.54157303 0.87752809,6.22247191 0.797752809,6.54157303 C0.797752809,6.54157303 0.797752809,6.7011236 0.797752809,6.86067416 C0.797752809,7.02022472 0.797752809,7.1 0.797752809,7.17977528 C0.797752809,7.57865169 0.717977528,7.65842697 0.638202247,7.73820225 C0.638202247,7.81797753 0.558426966,7.81797753 0.558426966,7.97752809 C0.558426966,8.05730337 0.558426966,8.05730337 0.558426966,8.21685393 C0.558426966,8.29662921 0.558426966,8.37640449 0.638202247,8.53595506 C0.638202247,8.69550562 0.638202247,8.69550562 0.638202247,8.69550562 C0.638202247,8.69550562 0.638202247,8.69550562 0.638202247,8.69550562 C0.478651685,8.61573034 0.717977528,9.09438202 0.797752809,9.25393258 C0.87752809,9.41348315 0.957303371,9.57303371 1.03707865,9.65280899 C1.11685393,9.73258427 1.19662921,9.89213483 1.27640449,9.97191011 C1.35617978,10.0516854 1.43595506,10.1314607 1.51573034,10.2910112 C1.59550562,10.3707865 1.6752809,10.5303371 1.83483146,10.6101124 C1.91460674,10.6898876 1.99438202,10.7696629 2.15393258,10.8494382 C1.99438202,10.6898876 1.91460674,10.5303371 1.83483146,10.4505618 C1.75505618,10.2910112 1.6752809,10.211236 1.6752809,10.1314607 C1.59550562,9.97191011 1.51573034,9.81235955 1.51573034,9.65280899 C1.51573034,9.49325843 1.43595506,9.33370787 1.43595506,9.1741573 C1.43595506,9.01460674 1.35617978,8.85505618 1.35617978,8.69550562 C1.35617978,8.61573034 1.35617978,8.53595506 1.35617978,8.45617978 C1.35617978,8.37640449 1.35617978,8.21685393 1.35617978,8.13707865 C1.35617978,7.89775281 1.59550562,8.13707865 1.59550562,7.73820225 C1.51573034,7.17977528 1.51573034,6.78089888 1.59550562,6.54157303 C1.6752809,6.30224719 1.75505618,6.14269663 1.91460674,6.06292135 C1.91460674,6.06292135 1.99438202,5.98314607 1.99438202,5.82359551 C1.99438202,5.74382022 2.0741573,5.58426966 2.0741573,5.4247191 C2.0741573,5.26516854 2.0741573,5.10561798 2.0741573,4.94606742 C2.0741573,4.86629213 2.0741573,4.78651685 2.15393258,4.70674157 C2.15393258,4.62696629 2.15393258,4.62696629 2.15393258,4.62696629 C2.15393258,4.62696629 2.15393258,4.62696629 2.15393258,4.62696629 C2.15393258,4.46741573 2.15393258,4.30786517 2.23370787,4.22808989 C2.23370787,4.06853933 2.23370787,3.98876404 2.31348315,3.82921348 L2.23370787,3.98876404 L2.15393258,4.14831461 C2.0741573,4.22808989 1.99438202,4.30786517 1.99438202,4.46741573 C1.91460674,4.54719101 1.83483146,4.70674157 1.83483146,4.86629213 C1.83483146,4.94606742 1.75505618,5.0258427 1.75505618,5.18539326 C1.35617978,4.94606742 1.35617978,5.0258427 1.35617978,5.18539326 Z" id="Shape" fill="#D5DEED"></path>
                                    <path d="M7.25955056,8.21685393 C7.25955056,8.05730337 7.33932584,7.89775281 7.33932584,7.73820225 C7.41910112,7.33932584 7.41910112,7.41910112 7.4988764,7.17977528 C7.4988764,7.17977528 7.4988764,7.17977528 7.4988764,7.17977528 C7.4988764,7.17977528 7.4988764,7.17977528 7.4988764,7.17977528 C7.4988764,7.1 7.4988764,7.1 7.4988764,7.02022472 C7.41910112,7.17977528 7.33932584,7.33932584 7.25955056,7.25955056 C7.17977528,7.4988764 7.1,7.73820225 7.1,7.81797753 C7.02022472,7.89775281 7.02022472,7.97752809 6.94044944,7.97752809 L6.78089888,8.13707865 C6.7011236,8.29662921 6.54157303,8.37640449 6.46179775,8.53595506 C6.38202247,8.61573034 6.30224719,8.69550562 6.22247191,8.7752809 C6.14269663,8.85505618 6.06292135,8.93483146 5.98314607,9.09438202 C5.90337079,9.1741573 5.82359551,9.33370787 5.66404494,9.49325843 C5.50449438,9.65280899 5.4247191,9.73258427 5.18539326,9.89213483 C4.86629213,10.1314607 4.86629213,10.0516854 4.78651685,9.97191011 C4.78651685,9.97191011 4.70674157,9.89213483 4.62696629,9.89213483 C4.54719101,9.89213483 4.54719101,9.89213483 4.46741573,9.89213483 C4.38764045,9.89213483 4.30786517,9.89213483 4.22808989,9.97191011 C4.06853933,9.97191011 3.90898876,10.0516854 3.66966292,10.0516854 C3.51011236,10.0516854 3.3505618,9.97191011 3.27078652,9.89213483 C3.27078652,9.81235955 3.3505618,9.81235955 3.3505618,9.73258427 C3.3505618,9.73258427 3.3505618,9.65280899 3.3505618,9.65280899 C3.3505618,9.65280899 3.27078652,9.57303371 3.19101124,9.57303371 C2.95168539,9.41348315 2.71235955,9.25393258 2.55280899,9.01460674 C2.55280899,8.93483146 2.47303371,8.93483146 2.47303371,8.85505618 C2.47303371,8.7752809 2.39325843,8.7752809 2.39325843,8.69550562 C2.39325843,8.61573034 2.31348315,8.61573034 2.31348315,8.53595506 L2.31348315,8.45617978 L2.31348315,8.37640449 C2.23370787,8.13707865 2.23370787,7.97752809 2.23370787,7.81797753 C2.23370787,7.65842697 2.31348315,7.57865169 2.31348315,7.4988764 C2.15393258,7.02022472 1.99438202,6.38202247 1.83483146,5.74382022 C1.75505618,6.22247191 1.83483146,6.86067416 1.75505618,6.94044944 C1.6752809,6.94044944 1.6752809,7.02022472 1.59550562,7.17977528 C1.59550562,7.41910112 1.59550562,7.4988764 1.59550562,7.73820225 C1.59550562,8.05730337 1.6752809,8.53595506 1.83483146,9.01460674 C1.91460674,9.09438202 1.91460674,9.25393258 1.99438202,9.33370787 C2.0741573,9.41348315 2.0741573,9.49325843 2.0741573,9.57303371 C2.0741573,9.65280899 2.15393258,9.73258427 2.15393258,9.81235955 C2.15393258,9.89213483 2.23370787,9.97191011 2.31348315,10.0516854 C2.31348315,10.0516854 2.39325843,10.1314607 2.39325843,10.1314607 C2.39325843,10.1314607 2.47303371,10.211236 2.47303371,10.211236 C2.55280899,10.2910112 2.63258427,10.3707865 2.71235955,10.4505618 C2.79213483,10.4505618 2.79213483,10.5303371 2.87191011,10.5303371 C2.95168539,10.6101124 3.03146067,10.6101124 3.11123596,10.6101124 C3.19101124,10.6101124 3.27078652,10.6898876 3.3505618,10.6898876 C3.43033708,10.6898876 3.58988764,10.7696629 3.66966292,10.7696629 C3.43033708,10.7696629 3.19101124,10.7696629 3.03146067,10.7696629 C2.95168539,10.7696629 2.87191011,10.7696629 2.79213483,10.7696629 C2.71235955,10.7696629 2.71235955,10.7696629 2.71235955,10.7696629 C2.71235955,10.7696629 2.79213483,10.8494382 2.87191011,10.8494382 C2.95168539,10.8494382 3.03146067,10.9292135 3.19101124,10.9292135 C3.27078652,10.9292135 3.43033708,11.0089888 3.58988764,11.0089888 C3.7494382,11.0089888 3.90898876,11.0089888 4.06853933,11.0089888 C4.22808989,11.0089888 4.38764045,10.9292135 4.46741573,10.9292135 C4.62696629,10.8494382 4.70674157,10.8494382 4.78651685,10.7696629 C4.94606742,10.6898876 5.10561798,10.6101124 5.18539326,10.6101124 C5.26516854,10.6101124 5.4247191,10.5303371 5.58426966,10.4505618 C5.74382022,10.3707865 5.82359551,10.2910112 5.98314607,10.211236 C6.30224719,9.97191011 6.62134831,9.65280899 6.86067416,9.09438202 C6.94044944,8.93483146 7.02022472,8.85505618 7.02022472,8.69550562 C7.1,8.53595506 7.17977528,8.37640449 7.25955056,8.21685393 Z" id="Shape" fill="#DFE5F1"></path>
                                    <path d="M3.27078652,9.73258427 C3.3505618,9.81235955 3.43033708,9.81235955 3.43033708,9.81235955 C3.43033708,9.81235955 3.43033708,9.89213483 3.43033708,9.89213483 C3.43033708,9.97191011 3.27078652,9.97191011 3.3505618,10.0516854 C3.3505618,10.1314607 3.51011236,10.1314607 3.7494382,10.211236 C3.90898876,10.211236 4.14831461,10.211236 4.30786517,10.1314607 C4.38764045,10.1314607 4.46741573,10.0516854 4.54719101,10.0516854 C4.62696629,10.0516854 4.62696629,10.0516854 4.70674157,10.0516854 C4.78651685,10.0516854 4.78651685,10.0516854 4.86629213,10.1314607 C4.94606742,10.211236 4.94606742,10.2910112 5.26516854,10.0516854 C5.4247191,9.89213483 5.58426966,9.81235955 5.74382022,9.65280899 C5.90337079,9.49325843 5.98314607,9.41348315 6.06292135,9.25393258 C6.14269663,9.1741573 6.22247191,9.01460674 6.30224719,8.93483146 C6.38202247,8.85505618 6.46179775,8.7752809 6.54157303,8.69550562 C6.62134831,8.53595506 6.78089888,8.45617978 6.86067416,8.29662921 L7.02022472,8.13707865 C7.1,8.05730337 7.1,7.97752809 7.17977528,7.97752809 C7.25955056,7.89775281 7.33932584,7.65842697 7.33932584,7.41910112 C7.33932584,7.41910112 7.25955056,7.33932584 7.25955056,7.33932584 C7.25955056,7.33932584 7.17977528,7.41910112 7.1,7.65842697 C7.02022472,7.81797753 6.94044944,8.05730337 6.86067416,8.21685393 C6.78089888,8.29662921 6.78089888,8.21685393 6.78089888,8.05730337 C6.78089888,7.89775281 6.78089888,7.73820225 6.78089888,7.4988764 C6.78089888,7.41910112 6.78089888,7.33932584 6.78089888,7.33932584 C6.78089888,7.33932584 6.78089888,7.33932584 6.78089888,7.33932584 C6.78089888,7.25955056 6.78089888,7.25955056 6.78089888,7.17977528 C6.7011236,7.33932584 6.7011236,7.41910112 6.62134831,7.4988764 C6.62134831,7.57865169 6.62134831,7.57865169 6.54157303,7.65842697 C6.54157303,7.65842697 6.54157303,7.57865169 6.54157303,7.57865169 C6.46179775,7.73820225 6.38202247,7.81797753 6.30224719,7.89775281 C6.22247191,7.97752809 6.14269663,8.05730337 6.06292135,8.13707865 C6.06292135,8.21685393 6.06292135,8.21685393 5.98314607,8.29662921 C5.98314607,8.21685393 5.98314607,8.21685393 6.06292135,8.13707865 C5.98314607,8.21685393 5.90337079,8.37640449 5.82359551,8.45617978 C5.74382022,8.61573034 5.66404494,8.69550562 5.58426966,8.85505618 C5.50449438,8.93483146 5.4247191,9.09438202 5.26516854,9.1741573 C5.18539326,9.25393258 5.18539326,9.25393258 5.10561798,9.25393258 C5.0258427,9.25393258 5.0258427,9.33370787 4.94606742,9.33370787 C4.78651685,9.41348315 4.46741573,9.57303371 4.14831461,9.65280899 C4.14831461,9.65280899 4.06853933,9.65280899 4.06853933,9.65280899 C4.06853933,9.65280899 3.98876404,9.65280899 3.98876404,9.65280899 C3.90898876,9.65280899 3.90898876,9.65280899 3.82921348,9.65280899 C3.7494382,9.65280899 3.7494382,9.57303371 3.7494382,9.49325843 C3.66966292,9.49325843 3.58988764,9.49325843 3.58988764,9.49325843 C3.58988764,9.49325843 3.51011236,9.49325843 3.51011236,9.49325843 C3.51011236,9.49325843 3.43033708,9.49325843 3.43033708,9.49325843 C3.43033708,9.49325843 3.51011236,9.41348315 3.51011236,9.41348315 C3.43033708,9.41348315 3.43033708,9.33370787 3.3505618,9.33370787 C3.3505618,9.25393258 3.27078652,9.25393258 3.27078652,9.25393258 C3.27078652,9.25393258 3.3505618,9.25393258 3.3505618,9.25393258 C3.3505618,9.25393258 3.43033708,9.25393258 3.43033708,9.33370787 C3.3505618,9.33370787 3.3505618,9.25393258 3.27078652,9.25393258 C3.19101124,9.25393258 3.11123596,9.25393258 3.03146067,9.25393258 C3.03146067,9.25393258 3.11123596,9.25393258 3.11123596,9.25393258 C3.11123596,9.25393258 3.11123596,9.25393258 3.19101124,9.25393258 C3.19101124,9.25393258 3.27078652,9.25393258 3.27078652,9.25393258 C3.27078652,9.25393258 3.3505618,9.25393258 3.3505618,9.25393258 C3.27078652,9.1741573 3.19101124,9.09438202 3.11123596,8.93483146 C3.11123596,8.93483146 3.03146067,8.93483146 3.03146067,8.85505618 C3.03146067,8.85505618 3.11123596,8.85505618 3.11123596,8.93483146 L3.11123596,8.85505618 C3.11123596,8.85505618 3.11123596,8.85505618 3.03146067,8.85505618 C3.03146067,8.85505618 3.03146067,8.85505618 2.95168539,8.7752809 C2.95168539,8.7752809 2.87191011,8.69550562 2.79213483,8.69550562 C2.71235955,8.61573034 2.63258427,8.53595506 2.55280899,8.37640449 C2.55280899,8.29662921 2.55280899,8.29662921 2.55280899,8.21685393 C2.55280899,8.13707865 2.55280899,8.13707865 2.55280899,8.05730337 C2.55280899,7.97752809 2.47303371,7.81797753 2.47303371,7.65842697 C2.39325843,7.73820225 2.39325843,7.81797753 2.39325843,7.97752809 C2.39325843,8.13707865 2.39325843,8.29662921 2.47303371,8.53595506 L2.47303371,8.61573034 L2.47303371,8.69550562 C2.47303371,8.7752809 2.55280899,8.7752809 2.55280899,8.85505618 C2.55280899,8.93483146 2.63258427,8.93483146 2.63258427,9.01460674 C2.63258427,9.09438202 2.71235955,9.1741573 2.71235955,9.1741573 C2.79213483,9.41348315 2.95168539,9.65280899 3.27078652,9.73258427 Z" id="Shape" fill="#E7EBF5"></path>
                                </g>
                            </g>
                        </g>
                        <g transform="translate(30.314607, 15.955056)">
                            <path d="M3.98876404,3.03146067 C3.43033708,3.03146067 2.95168539,2.31348315 2.95168539,1.35617978 C2.95168539,0.957303371 3.03146067,0.638202247 3.19101124,0.319101124 C3.03146067,0.239325843 2.87191011,0.239325843 2.71235955,0.239325843 C1.6752809,0.239325843 0.87752809,1.59550562 0.87752809,3.27078652 C0.87752809,4.94606742 1.6752809,6.30224719 2.71235955,6.30224719 C3.7494382,6.30224719 4.54719101,4.94606742 4.54719101,3.27078652 C4.54719101,3.11123596 4.54719101,2.95168539 4.54719101,2.71235955 C4.38764045,2.87191011 4.14831461,3.03146067 3.98876404,3.03146067 Z" id="XMLID_55_" fill="#4E5057"></path>
                            <path d="M4.06853933,2.87191011 C3.03146067,2.79213483 3.11123596,1.03707865 3.43033708,0.398876404 C3.43033708,0.319101124 3.43033708,0.239325843 3.3505618,0.239325843 C0.558426966,-0.638202247 0.319101124,4.06853933 1.35617978,5.58426966 C1.83483146,6.38202247 2.79213483,6.7011236 3.58988764,6.14269663 C4.70674157,5.4247191 4.86629213,3.82921348 4.78651685,2.71235955 C4.78651685,2.55280899 4.54719101,2.63258427 4.46741573,2.63258427 C4.30786517,2.71235955 4.14831461,2.79213483 3.98876404,2.87191011 C3.66966292,2.87191011 3.7494382,3.19101124 3.98876404,3.19101124 C4.30786517,3.11123596 4.46741573,3.03146067 4.62696629,2.87191011 C4.54719101,2.87191011 4.38764045,2.87191011 4.30786517,2.79213483 C4.38764045,3.7494382 4.22808989,4.86629213 3.66966292,5.58426966 C2.95168539,6.38202247 2.0741573,5.98314607 1.59550562,5.18539326 C1.11685393,4.38764045 1.03707865,3.43033708 1.19662921,2.55280899 C1.35617978,1.6752809 1.91460674,0.159550562 3.11123596,0.478651685 C3.11123596,0.398876404 3.03146067,0.398876404 3.03146067,0.319101124 C2.63258427,1.19662921 2.63258427,3.03146067 3.90898876,3.19101124 C4.14831461,3.19101124 4.30786517,2.87191011 4.06853933,2.87191011 Z" id="Shape" fill="#4F5057"></path>
                        </g>
                        <g transform="translate(18.348315, 23.134831)">
                            <polygon id="XMLID_54_" fill="#F4D3AA" points="9.89213483 5.18539326 5.26516854 11.2483146 0.717977528 5.18539326 5.26516854 0.638202247"></polygon>
                            <path d="M9.73258427,5.18539326 C8.21685393,7.17977528 6.7011236,9.25393258 5.10561798,11.2483146 C5.26516854,11.2483146 5.34494382,11.2483146 5.50449438,11.2483146 C4.30786517,9.65280899 3.03146067,8.05730337 1.83483146,6.38202247 C1.59550562,6.06292135 1.35617978,5.66404494 1.03707865,5.34494382 C0.957303371,5.26516854 0.957303371,5.18539326 0.87752809,5.18539326 C0.957303371,5.34494382 0.797752809,5.34494382 0.957303371,5.18539326 C1.27640449,4.94606742 1.59550562,4.54719101 1.83483146,4.30786517 C2.31348315,3.82921348 2.79213483,3.3505618 3.27078652,2.87191011 C3.98876404,2.15393258 4.70674157,1.43595506 5.4247191,0.717977528 C5.26516854,0.717977528 5.18539326,0.717977528 5.0258427,0.717977528 C6.54157303,2.23370787 8.05730337,3.7494382 9.65280899,5.34494382 C9.81235955,5.50449438 10.1314607,5.26516854 10.0516854,5.18539326 C8.53595506,3.66966292 7.02022472,2.15393258 5.4247191,0.558426966 C5.34494382,0.478651685 5.18539326,0.478651685 5.0258427,0.558426966 C3.51011236,2.0741573 1.99438202,3.58988764 0.398876404,5.18539326 C0.398876404,5.18539326 0.319101124,5.26516854 0.398876404,5.34494382 C1.91460674,7.33932584 3.43033708,9.41348315 5.0258427,11.4078652 C5.10561798,11.4876404 5.34494382,11.4876404 5.4247191,11.4078652 C6.94044944,9.41348315 8.45617978,7.33932584 10.0516854,5.34494382 C10.211236,5.0258427 9.81235955,5.0258427 9.73258427,5.18539326 Z" id="Shape" fill="#6290C3"></path>
                        </g>
                        <polygon id="XMLID_53_" fill="#DABD9D" points="28.0011236 28.4 23.6932584 34.0640449 23.6134831 24.0123596"></polygon>
                        <path d="M16.4337079,2.87191011 C15.2370787,2.31348315 14.9179775,2.87191011 16.0348315,3.3505618 C17.1516854,4.06853933 19.2258427,5.58426966 20.9011236,8.21685393 C22.3370787,10.5303371 23.3741573,13.4820225 23.6134831,14.3595506 C23.4539326,13.0033708 23.0550562,10.3707865 21.3797753,7.65842697 C19.6247191,5.10561798 17.5505618,3.58988764 16.4337079,2.87191011 Z" id="XMLID_52_" fill="#336390"></path>
                        <path d="M31.1921348,2.23370787 C32.388764,1.6752809 32.7078652,2.23370787 31.5910112,2.71235955 C30.4741573,3.43033708 28.4,4.94606742 26.7247191,7.57865169 C25.288764,9.89213483 24.2516854,12.8438202 24.0123596,13.7213483 C24.1719101,12.3651685 24.5707865,9.73258427 26.2460674,7.02022472 C27.9213483,4.46741573 29.9955056,2.95168539 31.1921348,2.23370787 Z" id="XMLID_51_" fill="#336390"></path>
                        <path d="M18.4280899,36.4573034 C19.4651685,36.9359551 20.6617978,36.9359551 21.7786517,36.4573034 C21.858427,36.3775281 21.5393258,35.8191011 21.3,35.8988764 C20.2629213,36.3775281 19.1460674,36.3775281 18.1089888,35.8988764 C17.9494382,35.8191011 18.2685393,36.3775281 18.4280899,36.4573034 Z" id="Shape" fill="#6290C3"></path>
                        <path d="M25.1292135,36.4573034 C26.1662921,36.9359551 27.3629213,37.0157303 28.4797753,36.4573034 C28.5595506,36.3775281 28.1606742,35.8191011 28.0011236,35.8988764 C26.9640449,36.3775281 25.847191,36.3775281 24.8101124,35.8988764 C24.6505618,35.8191011 24.9696629,36.3775281 25.1292135,36.4573034 Z" id="Shape" fill="#6290C3"></path>
                        <path d="M21.9382022,39.2494382 C22.9752809,39.8078652 24.2516854,39.8078652 25.288764,39.2494382 C25.3685393,39.1696629 24.9696629,38.611236 24.8101124,38.6910112 C23.7730337,39.2494382 22.6561798,39.2494382 21.6191011,38.6910112 C21.5393258,38.6910112 21.858427,39.1696629 21.9382022,39.2494382 Z" id="Shape" fill="#6290C3"></path>
                        <path d="M17.2314607,41.8820225 C18.2685393,42.3606742 19.4651685,42.3606742 20.5820225,41.8820225 C20.6617978,41.8820225 20.3426966,41.2438202 20.1033708,41.3235955 C19.0662921,41.7224719 17.9494382,41.7224719 16.9123596,41.3235955 C16.752809,41.2438202 17.0719101,41.8022472 17.2314607,41.8820225 Z" id="Shape" fill="#6290C3"></path>
                        <path d="M26.2460674,41.7224719 C27.2831461,42.2011236 28.4797753,42.2011236 29.5966292,41.7224719 C29.6764045,41.6426966 29.3573034,41.0842697 29.1179775,41.1640449 C28.0808989,41.6426966 26.9640449,41.6426966 25.9269663,41.1640449 C25.7674157,41.1640449 26.0865169,41.7224719 26.2460674,41.7224719 Z" id="Shape" fill="#6290C3"></path>
                    </g>
                </g>
            </g>
        </g>
    </g>
</svg>