<svg enable-background="new 0 0 64 64" height="64" viewBox="0 0 64 64" width="64" xmlns="http://www.w3.org/2000/svg"><g clip-rule="evenodd" fill="#424242" fill-rule="evenodd"><path d="m23.8 39h-10.6c-4 0-7.2-3.2-7.2-7.1v-7.6h-.1c-1.1 0-2-.9-2-2v-8.6c0-1.1.9-2 2-1.9h.2v-4.6c0-4 3.2-7.2 7.2-7.2h37.5c4 0 7.2 3.2 7.2 7.2v4.7h.2c1.1 0 2 .9 2 2v8.6c0 1.1-.9 2-2 2h-.2v7.6c0 4-3.2 7.2-7.2 7.2h-10.5v1.9h.9l3.4 1.3v.5h1.2v1.4c1.4.1 2.7.6 3.6 1.6.9.9 1.3 2.1 1.3 3.4v1.5h.4l1.7 1.7v4.4l-1.6 1.6h-3.2l-.7-.7v-2.2h-1.4v-3.9c0-.5.4-.9.9-.9h.7c0-.5 0-1 0-1.5s-.2-.9-.5-1.2c-.3-.2-.7-.4-1.1-.5v1.8h-1.4v5.4l-1.9 2.1v2.9h.9c.7 0 1.4.2 2.1.4.7.3 1.4.8 1.9 1.3v2.4h-14.6v-5.5h-1.7v5.3h-14.6v-2.9c.6-.5 1.2-1 1.9-1.3s1.4-.5 2.1-.6h.9v-2.6l-1.8-2.2v-5.1h-1.5v-1.8c-.3.1-.7.3-1 .5-.3.3-.5.8-.5 1.2v1.6h.6c.5 0 .9.4.9.9v3.8h-1.4v2.2l-.7.7h-3.1l-1.6-1.6v-4.3l1.6-1.6h.5v-1.5c0-1.3.4-2.5 1.3-3.4.9-1 2.2-1.5 3.5-1.6v-1.4h1.3v-.5l3.3-1.4h1v-1.9zm-14.7-30v20.9c0 2.8 2.3 5.1 5.1 5.1h35.4c2.8 0 5.1-2.3 5.2-5.1v-20.9c0-2.8-2.2-5.2-5.1-5.2h-.1-35.4c-2.8 0-5.1 2.3-5.1 5.2z"/><path d="m22.1 24.3c-1.4 0-2.6-2-2.6-4.5s1.1-4.5 2.6-4.5c1.4 0 2.5 2 2.5 4.5s-1.1 4.5-2.5 4.5"/><path d="m41.7 24.3c-1.4 0-2.6-2-2.6-4.5s1.1-4.5 2.6-4.5c1.4 0 2.5 2 2.5 4.5s-1.1 4.5-2.5 4.5"/></g></svg>