<?xml version="1.0" encoding="UTF-8"?>
<svg viewBox="0 0 174.384 210.56181" xmlns="http://www.w3.org/2000/svg" xmlns:xlink="http://www.w3.org/1999/xlink">
 <defs>
  <linearGradient id="d">
   <stop stop-color="#1b4a78" offset="0"/>
   <stop stop-color="#5dacd1" offset="1"/>
  </linearGradient>
  <linearGradient id="b" x1="259.61" x2="540.12" y1="628.79" y2="592.82" gradientUnits="userSpaceOnUse">
   <stop stop-color="#438ab9" offset="0"/>
   <stop stop-color="#39769e" offset="1"/>
  </linearGradient>
  <linearGradient id="a" x1="259.61" x2="540.12" y1="628.79" y2="592.82" gradientUnits="userSpaceOnUse">
   <stop stop-color="#1c4764" offset="0"/>
   <stop stop-color="#39769e" offset="1"/>
  </linearGradient>
  <linearGradient id="f" x1="256.64" x2="512.76" y1="602.72" y2="619.41" gradientUnits="userSpaceOnUse">
   <stop stop-color="#5295c0" offset="0"/>
   <stop stop-color="#5f9dc5" offset="1"/>
  </linearGradient>
  <linearGradient id="c" x1="34.517" x2="173.21" gradientUnits="userSpaceOnUse" xlink:href="#d"/>
  <linearGradient id="g" x1="33.582" x2="172.28" gradientUnits="userSpaceOnUse" xlink:href="#d"/>
  <radialGradient id="e" cx="328.57" cy="602.72" r="147.14" gradientTransform="matrix(1 0 0 .17718 0 495.93)" gradientUnits="userSpaceOnUse">
   <stop stop-color="#484849" offset="0"/>
   <stop stop-color="#434344" offset="0"/>
   <stop stop-color="#8f8f90" stop-opacity="0" offset="1"/>
  </radialGradient>
 </defs>
 <path transform="matrix(.59257 0 0 1.0459 -107.51 -447.1)" d="m475.71 602.72c0 14.399-65.878 26.071-147.14 26.071s-147.14-11.673-147.14-26.071 65.878-26.071 147.14-26.071 147.14 11.673 147.14 26.071z" fill="url(#e)"/>
 <g transform="translate(-13.065 -105.45)">
  <path transform="matrix(.47131 0 0 1.0459 -50.985 -361.38)" d="m475.71 602.72c0 14.399-65.878 26.071-147.14 26.071s-147.14-11.673-147.14-26.071 65.878-26.071 147.14-26.071 147.14 11.673 147.14 26.071z" fill="url(#a)"/>
  <path d="m34.535 224.2v0.29457c6e-3 -0.0975 0.0206-0.19729 0.0295-0.29457h-0.0295zm138.62 0c0.0302 0.33044 0.0589 0.66821 0.0589 1.0015v-1.0015h-0.0589zm0.0589 1.0015c-1e-5 15.052-31.075 27.262-69.356 27.262-37.683 1e-5 -68.376-11.828-69.326-26.555v40.68c-0.0151 0.23376-0.0147 0.45704-0.0147 0.69223 0 0.22546 8.7e-4 0.45335 0.0147 0.67751 0.91151 14.741 31.619 26.599 69.326 26.599s68.415-11.858 69.326-26.599h0.0295v-0.50077c9.5e-4 -0.0587 0-0.11794 0-0.17674s9.4e-4 -0.11803 0-0.17674v-41.902z" fill="url(#c)"/>
  <path transform="matrix(.47131 0 0 1.0459 -50.965 -405.02)" d="m475.71 602.72c0 14.399-65.878 26.071-147.14 26.071s-147.14-11.673-147.14-26.071 65.878-26.071 147.14-26.071 147.14 11.673 147.14 26.071z" fill="url(#b)"/>
 </g>
 <g transform="translate(-12.936 -150.96)">
  <path transform="matrix(.47131 0 0 1.0459 -50.985 -361.38)" d="m475.71 602.72c0 14.399-65.878 26.071-147.14 26.071s-147.14-11.673-147.14-26.071 65.878-26.071 147.14-26.071 147.14 11.673 147.14 26.071z" fill="url(#a)"/>
  <path d="m34.535 224.2v0.29457c6e-3 -0.0975 0.0206-0.19729 0.0295-0.29457h-0.0295zm138.62 0c0.0302 0.33044 0.0589 0.66821 0.0589 1.0015v-1.0015h-0.0589zm0.0589 1.0015c-1e-5 15.052-31.075 27.262-69.356 27.262-37.683 1e-5 -68.376-11.828-69.326-26.555v40.68c-0.0151 0.23376-0.0147 0.45704-0.0147 0.69223 0 0.22546 8.7e-4 0.45335 0.0147 0.67751 0.91151 14.741 31.619 26.599 69.326 26.599s68.415-11.858 69.326-26.599h0.0295v-0.50077c9.5e-4 -0.0587 0-0.11794 0-0.17674s9.4e-4 -0.11803 0-0.17674v-41.902z" fill="url(#c)"/>
  <path transform="matrix(.47131 0 0 1.0459 -50.965 -405.02)" d="m475.71 602.72c0 14.399-65.878 26.071-147.14 26.071s-147.14-11.673-147.14-26.071 65.878-26.071 147.14-26.071 147.14 11.673 147.14 26.071z" fill="url(#b)"/>
 </g>
 <g transform="translate(-12.184 -117.13)">
  <path transform="matrix(.47131 0 0 1.0459 -51.921 -440.94)" d="m475.71 602.72c0 14.399-65.878 26.071-147.14 26.071s-147.14-11.673-147.14-26.071 65.878-26.071 147.14-26.071 147.14 11.673 147.14 26.071z" fill="url(#a)"/>
  <path d="m33.599 144.64v0.29457c6e-3 -0.0975 0.0206-0.19729 0.0295-0.29457h-0.0295zm138.62 0c0.0302 0.33044 0.0589 0.66821 0.0589 1.0015v-1.0015h-0.0589zm0.0589 1.0015c-1e-5 15.052-31.075 27.262-69.356 27.262-37.683 1e-5 -68.376-11.828-69.326-26.555v40.68c-0.0151 0.23376-0.0147 0.45704-0.0147 0.69223 0 0.22546 8.7e-4 0.45335 0.0147 0.67751 0.91151 14.741 31.619 26.599 69.326 26.599s68.415-11.858 69.326-26.599h0.0295v-0.50077c9.5e-4 -0.0587 0-0.11794 0-0.17674s9.4e-4 -0.11803 0-0.17674v-41.902z" fill="url(#g)"/>
  <path transform="matrix(.47131 0 0 1.0459 -51.9 -484.58)" d="m475.71 602.72c0 14.399-65.878 26.071-147.14 26.071s-147.14-11.673-147.14-26.071 65.878-26.071 147.14-26.071 147.14 11.673 147.14 26.071z" fill="url(#b)"/>
  <path transform="matrix(.46281 0 0 1.0271 -48.752 -475.13)" d="m475.71 602.72c0 14.399-65.878 26.071-147.14 26.071s-147.14-11.673-147.14-26.071 65.878-26.071 147.14-26.071 147.14 11.673 147.14 26.071z" fill="url(#f)"/>
 </g>
</svg>
