<?xml version="1.0" encoding="UTF-8"?>
<svg width="49px" height="66px" viewBox="0 0 49 66" version="1.1" xmlns="http://www.w3.org/2000/svg" xmlns:xlink="http://www.w3.org/1999/xlink">
    <!-- Generator: Sketch 49.2 (51160) - http://www.bohemiancoding.com/sketch -->
    <title>go</title>
    <desc>Created with Sketch.</desc>
    <defs></defs>
    <g id="Page-1" stroke="none" stroke-width="1" fill="none" fill-rule="evenodd">
        <g id="go" transform="translate(1.000000, 1.000000)">
            <g id="Group">
                <path d="M0.557981715,34.6507571 C0.649975248,36.5491827 2.54463262,35.6707797 3.40279742,35.0773032 C4.21737367,34.513838 4.4555454,34.9822072 4.52706917,33.8702222 C4.57390881,33.1393446 4.65807567,32.408467 4.6166545,31.6746968 C3.38485628,31.562968 2.04504995,31.8565725 1.03516806,32.5909454 C0.514995208,32.9692806 -0.460328894,34.1768437 0.557981715,34.6507571" id="Shape" stroke="#000000" stroke-width="0.5" fill="#F7D8AC" fill-rule="nonzero"></path>
                <path d="M4.93646447,12.0350132 C-2.32392039,9.99135217 3.07479954,0.745943503 8.90507029,4.54870056 L4.93646447,12.0350132 Z" id="Shape" stroke="#000000" stroke-width="0.5" fill="#75DCE8" fill-rule="nonzero"></path>
                <path d="M37.1941653,3.85494539 C42.9409916,-0.185491525 48.134171,8.93047081 41.4552479,11.2241055 L37.1941653,3.85494539 Z" id="Shape" stroke="#000000" stroke-width="0.5" fill="#75DCE8" fill-rule="nonzero"></path>
                <path d="M38.4302983,58.0149755 C39.8900333,58.9190508 42.558207,61.6527307 40.3684238,62.97829 C38.2643728,64.9066064 37.0867592,60.86171 35.2400252,60.301258 C36.0353357,59.2201281 37.0434115,58.2343352 38.4302983,58.0149755 Z" id="Shape" stroke="#000000" stroke-width="0.5" fill="#F7D8AC" fill-rule="nonzero"></path>
                <path d="M40.3684238,62.9781695 C40.0437974,62.3320226 39.934826,61.5778832 39.3928589,61.0570847" id="Shape" stroke="#000000" stroke-width="0.5"></path>
                <path d="M12.3515767,61.1043315 C10.6382573,61.3697326 9.67389058,62.9169416 8.24558262,63.7026591 C6.89963536,64.5059736 6.38476056,63.4454539 6.26350731,63.2301921 C6.05254831,63.1338908 6.07024864,63.3198644 5.74465896,62.9916685 C4.49696658,61.020565 7.04472987,59.5797815 8.37141147,58.6006177 C10.2192292,58.226742 11.3772159,59.8302373 12.3515767,61.1043315 Z" id="Shape" stroke="#000000" stroke-width="0.5" fill="#F7D8AC" fill-rule="nonzero"></path>
                <path d="M6.26362772,63.2300716 C6.32889014,62.4788249 6.92395826,61.9757439 7.2074043,61.340565" id="Shape" stroke="#000000" stroke-width="0.5"></path>
                <path d="M5.239417,9.48152166 C4.2815524,8.97434275 3.5788374,8.28552919 4.16475433,7.17655744 C4.7072031,6.14990584 5.7149176,6.2613936 6.67290261,6.7685725 L5.239417,9.48152166 Z" id="Shape" fill="#000000" fill-rule="nonzero"></path>
                <path d="M39.9420506,8.5173032 C40.8999152,8.01012429 41.6026302,7.32131073 41.0167133,6.21233898 C40.4742645,5.18568738 39.46655,5.29717514 38.508565,5.80435405 L39.9420506,8.5173032 Z" id="Shape" fill="#000000" fill-rule="nonzero"></path>
                <path d="M46.5356028,34.4097024 C46.4436093,36.3081281 44.5489519,35.429725 43.6907871,34.8362486 C42.8762108,34.2727834 42.6380391,34.7411525 42.5665153,33.6291676 C42.5196757,32.89829 42.4355088,32.1674124 42.47693,31.4336422 C43.7087282,31.3219134 45.0485346,31.6155179 46.0584164,32.3498908 C46.5784689,32.728226 47.5539134,33.9357891 46.5356028,34.4097024" id="Shape" stroke="#000000" stroke-width="0.5" fill="#F7D8AC" fill-rule="nonzero"></path>
                <path d="M22.8192125,0.0149453861 C30.0877853,0.0149453861 36.901568,1.05545763 40.4535539,8.04555932 C43.6417801,15.8805574 42.5079959,24.3292806 42.994213,32.6097476 C43.4117962,39.7198945 44.3376317,47.9341921 41.0423607,54.5230584 C37.5757458,61.4550659 28.9134228,63.198855 21.7766994,62.9434576 C16.170994,62.7426591 9.3992345,60.9120904 6.23545169,55.7854614 C2.52368122,49.7711488 4.28095035,40.8282637 4.5505492,34.1361055 C4.86987753,26.208904 2.40543822,18.257597 5.00714537,10.50058 C7.7061441,2.45381544 14.9851926,0.635299435 22.8192125,0.0149453861" id="Shape" stroke="#000000" stroke-width="0.5" fill="#75DCE8" fill-rule="nonzero"></path>
                <path d="M24.102426,9.78199623 C25.4074337,17.3755782 37.8077766,15.3678343 36.0266662,7.70928814 C34.4295429,0.841642185 23.6687078,2.74259887 24.102426,9.78199623" id="Shape" stroke="#000000" stroke-width="0.5" fill="#FFFFFF" fill-rule="nonzero"></path>
                <path d="M9.28400176,11.0101695 C10.9754064,17.6210923 21.549485,15.9285273 21.1509267,9.29711488 C20.6733791,1.35496798 7.66689032,2.88747269 9.28400176,11.0101695" id="Shape" stroke="#000000" stroke-width="0.5" fill="#FFFFFF" fill-rule="nonzero"></path>
                <path d="M25.598525,18.8941017 C25.6040639,19.8813409 25.8226087,20.98971 25.636093,22.0399849 C25.3843149,22.5163089 24.8903915,22.5666893 24.4646204,22.7591714 C23.8758136,22.6667269 23.3806861,22.2797137 23.1445614,21.7284218 C22.9934463,20.5296573 23.2009134,19.3689793 23.2390835,18.1697326 L25.598525,18.8941017 Z" id="Shape" stroke="#000000" stroke-width="0.5" fill="#FFFFFF" fill-rule="nonzero"></path>
                <g transform="translate(10.355293, 7.954802)" fill-rule="nonzero" id="Oval">
                    <ellipse fill="#000000" cx="1.84516871" cy="1.97712994" rx="1.78556557" ry="1.9359096"></ellipse>
                    <ellipse fill="#FFFFFF" cx="2.65733674" cy="2.41404143" rx="1" ry="1"></ellipse>
                </g>
                <g transform="translate(25.286180, 7.472693)" fill-rule="nonzero" id="Oval">
                    <ellipse fill="#000000" cx="1.87491007" cy="1.97712994" rx="1.75582421" ry="1.9359096"></ellipse>
                    <ellipse fill="#FFFFFF" cx="2.67359215" cy="2.41404143" rx="1" ry="1"></ellipse>
                </g>
                <path d="M20.4958942,18.7865913 C19.716839,20.6764595 20.9303348,24.4555932 23.0441391,21.6681582 C22.8930241,20.4693936 23.1004912,19.3087156 23.1386613,18.1094689 L20.4958942,18.7865913 Z" id="Shape" stroke="#000000" stroke-width="0.5" fill="#FFFFFF" fill-rule="nonzero"></path>
                <g transform="translate(18.543199, 12.896422)" fill-rule="nonzero" id="Shape">
                    <path d="M2.21928377,2.2506064 C0.767254961,2.37450847 -0.419630185,4.102629 0.335342917,5.46977024 C1.33511033,7.2805725 3.56667596,5.30958945 4.95657301,5.49423729 C6.55622495,5.52702072 7.86689197,7.18728437 9.15167075,5.79435028 C10.5805808,4.24509228 8.53649411,2.73621092 6.93888914,2.06161959 L2.21928377,2.2506064 Z" stroke="#231F20" stroke-width="0.5" fill="#F7D8AC"></path>
                    <path d="M2.03650081,2.17491525 C1.92897434,-0.343020716 6.7250403,-0.657838041 7.29145075,1.44982298 C7.85641626,3.55254237 2.27262557,4.04091902 2.03650081,2.17491525 C1.84805856,0.684836158 2.03650081,2.17491525 2.03650081,2.17491525 Z" fill="#000000"></path>
                </g>
            </g>
        </g>
    </g>
</svg>