<svg height="75" viewBox="0 0 96 75" width="96" xmlns="http://www.w3.org/2000/svg"><g fill="none"><path d="m60.6545455 20.9344608h2.9090909l8.2909091-8.0517157.4072727-3.41844771c-9.6560887-8.2769229-23.0285472-11.12492785-35.3650761-7.5318919-12.336529 3.59303595-21.8881375 13.11771611-25.2603785 25.18916311.9236444-.3676625 1.9468057-.427281 2.9090909-.1695098l16.5818182-2.6556536s.8436364-1.3560784 1.28-1.2713235c7.3760082-7.8670441 19.7891892-8.7838729 28.3054546-2.0906209z" fill="#ea4335"/><path d="m83.6654545 27.1215686c-1.9057063-6.8153309-5.8184468-12.9422331-11.2581818-17.62901958l-11.6363636 11.30065358c4.9136426 3.8990786 7.7125213 9.7727405 7.5927273 15.9339216v2.005866c5.7196617 0 10.3563636 4.5029327 10.3563636 10.0575817s-4.6367019 10.0575817-10.3563636 10.0575817h-20.7127273l-2.0654546 2.0341176v12.0634478l2.0654546 2.005866h20.7127273c11.8758977.0897922 22.4111938-7.3839534 25.9348891-18.3982265 3.5236953-11.014273-.7956812-22.9700836-10.633071-29.4317899z" fill="#4285f4"/><path d="m26.9090909 74.8385784h20.7127273v-16.1034313h-20.7127273c-1.475688-.0003167-2.9340712-.3086288-4.2763636-.9040523l-2.9090909.8758006-8.3490909 8.0517157-.7272728 2.8251634c4.6819836 3.4334409 10.3949922 5.2795284 16.2618182 5.2548039z" fill="#34a853"/><path d="m26.9090909 22.6013072c-11.5052131.0667446-21.6968083 7.2223699-25.36862347 17.8115753-3.67181518 10.5892053-.01324562 22.2742751 9.10680527 29.0861371l12.0145455-11.6679248c-4.1977247-1.8418045-6.6383289-6.1547508-5.9889475-10.5834479.6493815-4.4286972 4.2326527-7.9085908 8.7929138-8.5392376 4.5602611-.6306467 9.0013326 1.7395459 10.8978519 5.8161659l12.0145454-11.6679249c-5.1118917-6.4900434-13.0553556-10.2844727-21.4690909-10.2553431z" fill="#fbbc05"/></g></svg>