<?xml version="1.0" encoding="UTF-8"?>
<svg width="48px" height="65px" viewBox="0 0 48 65" version="1.1" xmlns="http://www.w3.org/2000/svg" xmlns:xlink="http://www.w3.org/1999/xlink">
    <!-- Generator: Sketch 49.2 (51160) - http://www.bohemiancoding.com/sketch -->
    <title>java</title>
    <desc>Created with Sketch.</desc>
    <defs></defs>
    <g id="Page-1" stroke="none" stroke-width="1" fill="none" fill-rule="evenodd">
        <g id="java" fill-rule="nonzero">
            <g id="Shape">
                <path d="M15.5514921,50.1015873 C15.5514921,50.1015873 13.1301587,51.532619 17.2769524,52.0154762 C22.3014603,52.5984127 24.8690794,52.5148413 30.4045714,51.4521429 C30.4045714,51.4521429 31.8628571,52.3781349 33.895619,53.1808333 C21.4821587,58.5820238 5.80266667,52.8676984 15.5514921,50.1015873 Z M14.0337778,43.0521825 C14.0337778,43.0521825 11.3173333,45.0945238 15.4676825,45.5309524 C20.8350476,46.0937698 25.0727619,46.1396825 32.4093968,44.7055556 C32.4093968,44.7055556 33.4217143,45.7501984 35.016127,46.320754 C20.0106667,50.7778968 3.29752381,46.6715476 14.0337778,43.0521825 Z" fill="#5E8CAA"></path>
                <path d="M26.8200635,31.0921825 C29.880381,34.6697619 26.0175238,37.8862302 26.0175238,37.8862302 C26.0175238,37.8862302 33.7833651,33.8154762 30.2176508,28.7155556 C26.8860952,23.9617857 24.3321905,21.6006349 38.1592381,13.4560317 C38.1592381,13.4565476 16.4546032,18.9603968 26.8200635,31.0921825 Z" fill="#E97B00"></path>
                <path d="M43.2370794,55.3165476 C43.2370794,55.3165476 45.0295873,56.8177381 41.2622222,57.9779365 C34.0993016,60.181746 11.4433016,60.8461905 5.15098413,58.0661508 C2.89015873,57.0663889 7.13142857,55.6802381 8.46577778,55.3877381 C9.85701587,55.0818254 10.6514286,55.1375397 10.6514286,55.1375397 C8.13561905,53.3386905 -5.60914286,58.6712698 3.67085714,60.2008333 C28.9767619,64.3670238 49.800127,58.3246032 43.2370794,55.3165476 Z M16.7172063,35.7469048 C16.7172063,35.7469048 5.19415873,38.5269444 12.6369524,39.5375397 C15.7800635,39.9646825 22.0429206,39.8666667 27.8806349,39.3693651 C32.6501587,38.9623413 37.4364444,38.0930952 37.4364444,38.0930952 C37.4364444,38.0930952 35.7561905,38.825119 34.5391746,39.6680556 C22.8353016,42.7947619 0.231111111,41.3384524 6.73930159,38.1421032 C12.2412698,35.4394444 16.7172063,35.7469048 16.7172063,35.7469048 Z M37.3886984,47.4814683 C49.2850794,41.2048413 43.784127,35.1727381 39.9446349,35.9852381 C39.0059683,36.1838492 38.5848889,36.3566667 38.5848889,36.3566667 C38.5848889,36.3566667 38.9343492,35.8000397 39.6007619,35.5606746 C47.1959365,32.8497619 53.0361905,43.558254 37.1509841,47.7997619 C37.1509841,47.7987302 37.3333333,47.6310714 37.3886984,47.4814683 Z" fill="#5E8CAA"></path>
                <path d="M30.2176508,0.30281746 C30.2176508,0.30281746 36.8045714,6.99678571 23.9685079,17.2869048 C13.6746667,25.5439683 21.6213333,30.2507937 23.9649524,35.6308333 C17.9555556,30.1249206 13.5476825,25.2772619 16.504381,20.7659524 C20.8462222,14.1452381 32.8746667,10.9339286 30.2176508,0.30281746 Z" fill="#E97B00"></path>
                <path d="M17.8864762,64.4949603 C29.3028571,65.2362698 46.8388571,64.0822619 47.2538413,58.5954365 C47.2538413,58.5954365 46.455873,60.6754365 37.8179048,62.3257143 C28.0726349,64.1890476 16.0507937,63.9718651 8.92292063,62.7765873 C8.92292063,62.7771032 10.3832381,64.004881 17.8864762,64.4949603 Z" fill="#5E8CAA"></path>
            </g>
        </g>
    </g>
</svg>