<?xml version="1.0" encoding="UTF-8"?>
<svg width="54px" height="54px" viewBox="0 0 54 54" version="1.1" xmlns="http://www.w3.org/2000/svg" xmlns:xlink="http://www.w3.org/1999/xlink">
    <!-- Generator: Sketch 49.2 (51160) - http://www.bohemiancoding.com/sketch -->
    <title>js</title>
    <desc>Created with Sketch.</desc>
    <defs></defs>
    <g id="Page-1" stroke="none" stroke-width="1" fill="none" fill-rule="evenodd">
        <g id="js" fill="#F2E059" fill-rule="nonzero">
            <g id="javascript-plain">
                <path d="M0,0 L0,54 L54,54 L54,0 L0,0 Z M28.563408,46.013616 C27.766368,47.633184 26.244864,48.6972 24.481872,49.210848 C21.7728,49.832928 19.181664,49.478256 17.25408,48.32136 C15.964128,47.529936 14.956704,46.311696 14.272848,44.908128 L18.385488,42.389568 C18.421344,42.404688 18.529344,42.599952 18.673632,42.85224 C19.19808,43.730928 19.650384,44.353008 20.53944,44.78976 C21.412944,45.08784 23.330592,45.278352 24.07104,43.741296 C24.523344,42.959376 24.379488,40.446 24.379488,37.665216 C24.379056,33.295536 24.39936,28.944 24.39936,24.624 L29.457648,24.624 C29.457648,29.376 29.483568,33.876576 29.457648,38.513664 C29.468448,41.356224 29.71512,43.890336 28.563408,46.013616 Z M49.547376,44.58456 C47.789136,50.598864 37.986192,50.794128 34.068816,46.820592 C33.241104,45.885312 32.722272,45.39672 32.228496,44.317152 C34.310304,43.119648 34.310304,43.119648 36.335952,41.947632 C37.436256,43.638912 38.453616,44.569008 40.284,44.9496 C42.767136,45.252864 45.265392,44.399664 44.705088,41.762304 C44.129232,39.608352 39.620448,39.084336 36.551952,36.780912 C33.4368,34.688736 32.70672,29.60496 35.266752,26.700192 C36.119952,25.625808 37.574928,24.824016 39.101616,24.438672 L40.694832,24.232608 C43.753824,24.170832 45.665856,24.978672 47.069424,26.545968 C47.459952,26.94168 47.778768,27.368496 48.374928,28.293408 C46.745424,29.331936 46.750608,29.322 44.416512,30.833136 C43.917984,29.759184 43.090704,29.085264 42.216336,28.792368 C40.858992,28.381104 39.147408,28.828224 38.792304,30.262464 C38.669184,30.7044 38.694672,31.115664 38.890368,31.845744 C39.440304,33.09984 41.285808,33.645024 42.941232,34.405776 C47.706624,36.338544 49.315824,38.410848 49.711536,40.877568 C50.09256,43.00128 49.61952,44.378928 49.547376,44.58456 Z" id="Shape"></path>
            </g>
        </g>
    </g>
</svg>