<?xml version="1.0" encoding="UTF-8" standalone="no"?>
<svg width="104px" height="119px" viewBox="0 0 104 119" version="1.1" xmlns="http://www.w3.org/2000/svg" xmlns:xlink="http://www.w3.org/1999/xlink">
    <defs>
        <polygon id="path-1" points="48 0 96 27.75 96 83.25 48 111 -3.55271368e-14 83.25 -6.66133815e-14 27.75"></polygon>
        <filter x="-7.3%" y="-4.5%" width="114.6%" height="112.6%" filterUnits="objectBoundingBox" id="filter-2">
            <feOffset dx="0" dy="2" in="SourceAlpha" result="shadowOffsetOuter1"></feOffset>
            <feGaussianBlur stdDeviation="2" in="shadowOffsetOuter1" result="shadowBlurOuter1"></feGaussianBlur>
            <feColorMatrix values="0 0 0 0 0   0 0 0 0 0   0 0 0 0 0  0 0 0 0.2 0" type="matrix" in="shadowBlurOuter1"></feColorMatrix>
        </filter>
    </defs>
    <g id="Page-1" stroke="none" stroke-width="1" fill="none" fill-rule="evenodd">
        <g id="DesktopHD_Round7_algoDev-Copy" transform="translate(-498.000000, -1220.000000)">
            <g id="languages" transform="translate(215.000000, 829.000000)">
                <g id="keras" transform="translate(287.000000, 393.000000)">
                    <g id="Polygon">
                        <use fill="black" fill-opacity="1" filter="url(#filter-2)" xlink:href="#path-1"></use>
                        <use fill="#FFFFFF" fill-rule="evenodd" xlink:href="#path-1"></use>
                    </g>
                    <g id="Group-6-Copy" transform="translate(27.000000, 26.000000)" fill="#C81C00">
                        <polygon id="Rectangle-2" points="1.117316 0.295566502 8.53097422 0.295566502 9.71779141 1.53180478 9.71779141 58.8198491 8.54034514 60 1.19480094 60 0 58.8917243 0 1.46091225"></polygon>
                        <path d="M45.9802906,0.260764017 L46.8252724,2.34116247 C35.5389017,13.4239713 27.1733906,21.4964884 21.7287393,26.558714 C16.2840879,31.6209395 12.6730767,34.6576074 10.8957055,35.6687176 L10.8957055,25.7846276 L36.8287017,0.260764017 L45.9802906,0.260764017 Z" id="Rectangle-2-Copy"></path>
                        <polygon id="Rectangle-2-Copy-2" points="15.982678 33.5878929 22.881215 27.4272141 47.9979409 58.0607967 47.1343325 59.9662801 37.6858321 59.9662801"></polygon>
                    </g>
                </g>
            </g>
        </g>
    </g>
</svg>