<?xml version="1.0" encoding="UTF-8"?>
<svg width="64px" height="72px" viewBox="0 0 64 72" version="1.1" xmlns="http://www.w3.org/2000/svg" xmlns:xlink="http://www.w3.org/1999/xlink">
    <!-- Generator: Sketch 49.2 (51160) - http://www.bohemiancoding.com/sketch -->
    <title>node</title>
    <desc>Created with Sketch.</desc>
    <defs></defs>
    <g id="Page-1" stroke="none" stroke-width="1" fill="none" fill-rule="evenodd">
        <g id="node" fill="#98BE4F" fill-rule="nonzero">
            <g id="nodejs">
                <path d="M61.1219062,16.131541 L34.8957072,1.02039344 C33.2417385,0.0855737705 31.0881891,0.0855737705 29.4211361,1.02039344 L2.9148151,16.131541 C1.2079146,17.1059016 0,18.9371803 0,20.8959344 L0,51.0780984 C0,53.0368525 1.23943576,54.8687213 2.94633626,55.8483934 L9.9493862,59.7954098 C13.2965764,61.4313443 14.479512,61.4313443 16.0026382,61.4313443 C20.958597,61.4313443 23.7895539,58.4575082 23.7895539,53.2705574 L23.7895539,23.4731803 C23.7895539,23.0523934 23.5689058,22.4262295 23.1525886,22.4262295 L19.8083721,22.4262295 C19.384918,22.4262295 18.4369043,23.0523934 18.4369043,23.4725902 L18.4369043,53.2699672 C18.4369043,55.5692459 16.3410446,57.8573115 12.4240945,55.9139016 L5.18790698,51.775082 C4.9357377,51.6393443 4.75791079,51.3660984 4.75791079,51.0780984 L4.75791079,20.8959344 C4.75791079,20.6114754 5.08799085,20.3258361 5.34194434,20.1800656 L31.762623,5.09488525 C32.0094396,4.95619672 32.3722303,4.95619672 32.6184522,5.09488525 L58.7167823,20.1765246 C58.9665726,20.3258361 58.8785513,20.602623 58.8785513,20.8959344 L58.8785513,51.0780984 C58.8785513,51.3660984 58.9873885,51.6464262 58.7405719,51.7851148 L32.520915,66.8791475 C32.2961037,67.0131148 32.0171712,67.0131148 31.7709493,66.8791475 L25.0462371,62.8961311 C24.8434312,62.7792787 24.602562,62.737377 24.4080823,62.845377 C22.5370339,63.8976393 22.1920854,64.0375082 20.4370111,64.6412459 C20.0052307,64.7905574 19.3682653,65.0496393 20.680854,65.7796721 L29.4817995,70.9459672 C30.3245444,71.4299016 31.282074,71.6813115 32.2455509,71.6813115 C33.2221121,71.6813115 34.1784522,71.4299016 35.0211971,70.9459672 L61.1213115,55.8483934 C62.828212,54.8616393 63.6370568,53.0368525 63.6370568,51.0780984 L63.6370568,20.8959344 C63.6370568,18.9371803 62.828212,17.110623 61.1219062,16.131541 Z M40.3887152,46.2954098 C33.4148075,46.2954098 31.878597,44.3862295 31.3665269,40.9449836 C31.307053,40.5743607 30.9900572,40.1311475 30.6100191,40.1311475 L27.2015707,40.1311475 C26.7799009,40.1311475 26.4408997,40.6386885 26.4408997,41.0553443 C26.4408997,45.4615082 28.8549447,50.8001311 40.38931,50.8001311 C48.7388486,50.8001311 53.5259016,47.5807869 53.5259016,41.8833443 C53.5259016,36.2342951 49.6797255,34.7518033 41.5823561,33.6883279 C33.39756,32.6148197 32.5661151,32.072459 32.5661151,30.1697705 C32.5661151,28.6011148 33.2702859,26.5089836 39.3306748,26.5089836 C44.745772,26.5089836 46.7417156,27.6621639 47.5630499,31.284 C47.6332291,31.6245246 47.9466565,31.8688525 48.3005261,31.8688525 L51.7226535,31.8688525 C51.933191,31.8688525 52.1342127,31.784459 52.281708,31.6351475 C52.4244453,31.474623 52.4999771,31.273377 52.4809455,31.057377 C51.9510332,24.8205246 47.7753717,21.9139672 39.3300801,21.9139672 C31.8179337,21.9139672 27.3365764,25.0619016 27.3365764,30.3385574 C27.3365764,36.0619672 31.7953336,37.6436066 39.0065421,38.3512131 C47.6332291,39.1904262 48.3040945,40.4415738 48.3040945,42.1253115 C48.3040945,45.0495738 45.9382234,46.2954098 40.3887152,46.2954098 Z" id="Shape"></path>
            </g>
        </g>
    </g>
</svg>