<?xml version="1.0" encoding="UTF-8"?>
<svg width="78px" height="41px" viewBox="0 0 78 41" version="1.1" xmlns="http://www.w3.org/2000/svg" xmlns:xlink="http://www.w3.org/1999/xlink">
    <!-- Generator: Sketch 49.2 (51160) - http://www.bohemiancoding.com/sketch -->
    <title>php</title>
    <desc>Created with Sketch.</desc>
    <defs>
        <path d="M0.0721220527,20.2278325 C0.0721220527,9.09933805 17.2409154,0.0777247537 38.4188627,0.0777247537 C59.59681,0.0777247537 76.765742,9.09933805 76.765742,20.2278325 C76.765742,31.3561884 59.59681,40.3779403 38.4188627,40.3779403 C17.2409154,40.3779403 0.0721220527,31.3561884 0.0721220527,20.2278325" id="path-1"></path>
        <radialGradient cx="30.020204%" cy="82.421541%" fx="30.020204%" fy="82.421541%" r="0.339634943%" gradientTransform="translate(0.300202,0.824215),scale(0.532468,1.000000),translate(-0.300202,-0.824215)" id="radialGradient-3">
            <stop stop-color="#AEB2D5" offset="0%"></stop>
            <stop stop-color="#AEB2D5" offset="30%"></stop>
            <stop stop-color="#484C89" offset="75%"></stop>
            <stop stop-color="#484C89" offset="100%"></stop>
        </radialGradient>
        <radialGradient cx="30.020204%" cy="82.421541%" fx="30.020204%" fy="82.421541%" r="0.344157601%" gradientTransform="translate(0.300202,0.824215),scale(0.525470,1.000000),translate(-0.300202,-0.824215)" id="radialGradient-4">
            <stop stop-color="#AEB2D5" offset="0%"></stop>
            <stop stop-color="#AEB2D5" offset="30%"></stop>
            <stop stop-color="#484C89" offset="75%"></stop>
            <stop stop-color="#484C89" offset="100%"></stop>
        </radialGradient>
        <polygon id="path-5" points="0 44.8891626 79.889043 44.8891626 79.889043 0 0 0"></polygon>
        <polygon id="path-7" points="0 44.8891626 79.889043 44.8891626 79.889043 0 0 0"></polygon>
    </defs>
    <g id="Page-1" stroke="none" stroke-width="1" fill="none" fill-rule="evenodd">
        <g id="php" transform="translate(39.066574, 20.422275) scale(-1, 1) rotate(-180.000000) translate(-39.066574, -20.422275) translate(-0.933426, -2.077725)">
            <g id="g3442-Clipped" transform="translate(1.525659, 2.216749)">
                <mask id="mask-2" fill="white">
                    <use xlink:href="#path-1"></use>
                </mask>
                <g id="path-3"></g>
                <g id="g3450" mask="url(#mask-2)" fill="url(#radialGradient-4)" fill-rule="nonzero">
                    <path d="M0.0721220527,20.2278325 C0.0721220527,9.09933805 17.2409154,0.0777247537 38.4188627,0.0777247537 C59.59681,0.0777247537 76.765742,9.09933805 76.765742,20.2278325 C76.765742,31.3561884 59.59681,40.3779403 38.4188627,40.3779403 C17.2409154,40.3779403 0.0721220527,31.3561884 0.0721220527,20.2278325" id="path3462"></path>
                </g>
            </g>
            <g id="g3466-Clipped">
                <mask id="mask-6" fill="white">
                    <use xlink:href="#path-5"></use>
                </mask>
                <g id="path-6"></g>
                <g id="Group" mask="url(#mask-6)" fill="#777BB3" fill-rule="nonzero">
                    <g transform="translate(3.051318, 3.790558)" id="path3474">
                        <path d="M36.8932039,0 C57.2439667,0 73.742025,8.35173953 73.742025,18.6540794 C73.742025,28.9562808 57.2439667,37.3081589 36.8932039,37.3081589 C16.5424411,37.3081589 0.0443828017,28.9562808 0.0443828017,18.6540794 C0.0443828017,8.35173953 16.5424411,0 36.8932039,0"></path>
                    </g>
                </g>
            </g>
            <g id="g3478-Clipped">
                <mask id="mask-8" fill="white">
                    <use xlink:href="#path-7"></use>
                </mask>
                <g id="path-8"></g>
                <g id="Group" mask="url(#mask-8)">
                    <g transform="translate(12.760055, 10.252463)">
                        <g id="g3484" transform="translate(0.379251, 0.458119)">
                            <path d="M9.2926491,9.42118227 C10.9660194,9.42118227 12.2152566,9.72944889 13.0056865,10.3371151 C13.787656,10.9385468 14.3277393,11.9805573 14.6108183,13.4340517 C14.8747573,14.7926416 14.7742025,15.7412716 14.3120666,16.253202 C13.8395284,16.7760776 12.8178918,17.0412562 11.2755895,17.0412562 L8.60138696,17.0412562 L7.11886269,9.42118227 L9.2926491,9.42118227 Z M0.546047157,0.0346366995 C0.421914008,0.0346366995 0.304022191,0.0900554187 0.225104022,0.185929803 C0.146047157,0.28166564 0.114008322,0.407743227 0.137725381,0.529525862 L4.0667129,20.7228602 C4.10471567,20.9180727 4.27600555,21.0591133 4.47517337,21.0591133 L12.9431345,21.0591133 C15.6044383,21.0591133 17.5852982,20.3372845 18.8303745,18.913439 C20.0821082,17.4821121 20.4686546,15.4813578 19.9791956,12.9668719 C19.7800277,11.9424569 19.437448,10.991056 18.9610264,10.1392703 C18.4840499,9.28651478 17.8536755,8.49749076 17.0871012,7.79367303 C16.1694868,6.93579126 15.1309293,6.31371613 14.0030513,5.94767549 C12.8930652,5.58648399 11.4675451,5.40332512 9.76615811,5.40332512 L6.33730929,5.40332512 L5.35811373,0.371028325 C5.32011096,0.17567734 5.14895978,0.0346366995 4.94979196,0.0346366995 L0.546047157,0.0346366995 Z" id="path3486" fill="#000000" fill-rule="nonzero"></path>
                        </g>
                        <g id="g3488" transform="translate(0.031012, 0.042548)">
                            <path d="M9.2926491,17.0412562 L11.6238558,17.0412562 C13.4852982,17.0412562 14.1319001,16.6332358 14.351595,16.3900862 C14.7160888,15.9863608 14.7848821,15.1351293 14.5506241,13.9285252 C14.2873786,12.577694 13.7994452,11.61992 13.1001387,11.0820813 C12.3841886,10.5314963 11.2202497,10.2524631 9.6409154,10.2524631 L7.97184466,10.2524631 L9.2926491,17.0412562 Z M13.2914008,21.8903941 L4.82330097,21.8903941 C4.42496533,21.8903941 4.08252427,21.6083128 4.00651872,21.2177494 L0.0775312067,1.02441502 C0.0300970874,0.780711207 0.0941747573,0.528694581 0.252149792,0.33708436 C0.410263523,0.145474138 0.645769764,0.0346366995 0.894313454,0.0346366995 L5.29791956,0.0346366995 C5.6963939,0.0346366995 6.03883495,0.31671798 6.1148405,0.707281404 L7.02857143,5.40332512 L10.1144244,5.40332512 C11.8595007,5.40332512 13.3285714,5.59341133 14.4804438,5.96818042 C15.6650485,6.35264778 16.7549237,7.00451047 17.7195562,7.90561884 C18.517337,8.6388085 19.1744799,9.46177648 19.6723994,10.3519397 C20.1704577,11.2423799 20.528294,12.2353448 20.7359223,13.3032635 C21.2511789,15.9500616 20.8325936,18.0695505 19.4919556,19.6024323 C18.1643551,21.1206281 16.078086,21.8903941 13.2914008,21.8903941 Z M6.96227462,9.42118227 L9.6409154,9.42118227 C11.4163662,9.42118227 12.738835,9.7552186 13.607767,10.4234298 C14.4768377,11.0917796 15.0629681,12.2072198 15.3675451,13.7703048 C15.6589459,15.2710437 15.5262136,16.3300954 14.9693481,16.9470443 C14.4117892,17.5639932 13.29681,17.8725369 11.6238558,17.8725369 L8.60665742,17.8725369 L6.96227462,9.42118227 Z M13.2914008,21.0591133 C15.838835,21.0591133 17.6972261,20.3913177 18.8653259,19.0555881 C20.0332871,17.7198584 20.3850208,15.8554341 19.9190014,13.4617611 C19.7271845,12.4757235 19.4027739,11.5741995 18.9460472,10.7574661 C18.4887656,9.94017857 17.8916782,9.19285714 17.1538141,8.51522475 C16.2744799,7.6932266 15.2976422,7.10745074 14.2227462,6.7585899 C13.1478502,6.40875924 11.7787795,6.23460591 10.1144244,6.23460591 L6.34244105,6.23460591 L5.29791956,0.865917488 L0.894313454,0.865917488 L4.82330097,21.0591133 L13.2914008,21.0591133 Z" id="path3490" fill="#FFFFFF" fill-rule="nonzero"></path>
                        </g>
                        <g id="g3492" transform="translate(19.220943, 5.861444)">
                            <path d="M11.2343967,0 C11.1101248,0 10.9923717,0.0554187192 10.9134535,0.151293103 C10.834258,0.247028941 10.8022191,0.37296798 10.8259362,0.494889163 L12.563939,9.42963362 C12.7292649,10.2793411 12.6884882,10.8892241 12.4492372,11.1469212 C12.3027739,11.3044489 11.8628294,11.5686576 10.5619972,11.5686576 L7.41331484,11.5686576 L5.22815534,0.336391626 C5.19015257,0.14104064 5.01886269,0 4.81969487,0 L0.450762829,0 C0.326490985,0 0.208737864,0.0554187192 0.129680999,0.151293103 C0.0506241331,0.247028941 0.0185852982,0.373106527 0.0423023578,0.494889163 L3.97128988,20.6882235 C4.00929265,20.883436 4.18058252,21.0244766 4.37975035,21.0244766 L8.74868239,21.0244766 C8.87295423,21.0244766 8.99070735,20.9690579 9.06976422,20.873322 C9.14882108,20.7774477 9.18085992,20.6515086 9.15714286,20.5295874 L8.20901526,15.6557882 L11.5962552,15.6557882 C14.176699,15.6557882 15.926491,15.2013547 16.9456311,14.2664409 C17.984466,13.3126847 18.3085992,11.7877001 17.909154,9.7333282 L16.0811373,0.336391626 C16.0431345,0.14104064 15.8719834,0 15.6726768,0 L11.2343967,0 Z" id="path3494" fill="#000000" fill-rule="nonzero"></path>
                        </g>
                        <g id="g3496" transform="translate(18.815687, 5.411236)">
                            <path d="M9.15395284,21.8903941 L4.7850208,21.8903941 C4.38654646,21.8903941 4.04410541,21.6083128 3.96809986,21.2177494 L0.039112344,1.02441502 C-0.00832177531,0.780711207 0.0557558946,0.528694581 0.213869626,0.33708436 C0.371983356,0.145474138 0.607489598,0.0346366995 0.856033287,0.0346366995 L5.22496533,0.0346366995 C5.62330097,0.0346366995 5.96588072,0.31671798 6.04188627,0.707281404 L8.16158114,11.6032943 L10.9672677,11.6032943 C12.2658807,11.6032943 12.5384189,11.3262007 12.5493759,11.3142857 C12.6281553,11.2296336 12.7317614,10.8375462 12.560749,9.95915948 L10.8227462,1.02441502 C10.7753121,0.780711207 10.8393897,0.528694581 10.9975035,0.33708436 C11.1556172,0.145474138 11.3911234,0.0346366995 11.6396671,0.0346366995 L16.0779473,0.0346366995 C16.4762829,0.0346366995 16.8188627,0.31671798 16.8948682,0.707281404 L18.7227462,10.104218 C19.1517337,12.3100216 18.7847434,13.964686 17.6324549,15.0226293 C16.532871,16.0313885 14.6909847,16.5217057 12.0015257,16.5217057 L9.11886269,16.5217057 L9.97087379,20.9004772 C10.0181692,21.144181 9.95423024,21.3963362 9.7961165,21.5878079 C9.63800277,21.7794181 9.40249653,21.8903941 9.15395284,21.8903941 M9.15395284,21.0591133 L8.10943135,15.6904249 L12.0015257,15.6904249 C14.4504854,15.6904249 16.1396671,15.2634236 17.0693481,14.4105296 C17.9990291,13.5570813 18.2775312,12.1742457 17.9059639,10.2627155 L16.0779473,0.865917488 L11.6396671,0.865917488 L13.3776699,9.8005234 C13.5754508,10.8169027 13.5027739,11.5101909 13.159362,11.8798337 C12.8158114,12.2494766 12.0850208,12.4345751 10.9672677,12.4345751 L7.47545076,12.4345751 L5.22496533,0.865917488 L0.856033287,0.865917488 L4.7850208,21.0591133 L9.15395284,21.0591133" id="path3498" fill="#FFFFFF" fill-rule="nonzero"></path>
                        </g>
                        <g id="g3500" transform="translate(34.750319, 0.458119)">
                            <path d="M9.2926491,9.42118227 C10.9660194,9.42118227 12.2152566,9.72944889 13.0056865,10.3371151 C13.787656,10.9384083 14.3277393,11.9804187 14.610957,13.4340517 C14.874896,14.7926416 14.7743412,15.7412716 14.3120666,16.253202 C13.8395284,16.7760776 12.8178918,17.0412562 11.2755895,17.0412562 L8.60138696,17.0412562 L7.11886269,9.42118227 L9.2926491,9.42118227 Z M0.546185853,0.0346366995 C0.422052705,0.0346366995 0.304160888,0.0900554187 0.225242718,0.185929803 C0.146185853,0.28166564 0.114008322,0.407743227 0.137725381,0.529525862 L4.0667129,20.7228602 C4.10485437,20.9180727 4.27600555,21.0591133 4.47531207,21.0591133 L12.9431345,21.0591133 C15.604577,21.0591133 17.5852982,20.3372845 18.8305132,18.913439 C20.0822469,17.4822506 20.4686546,15.4814963 19.9793343,12.9668719 C19.779889,11.9424569 19.437448,10.991056 18.9610264,10.1392703 C18.4840499,9.28651478 17.8536755,8.49749076 17.0871012,7.79367303 C16.1694868,6.93579126 15.1309293,6.31371613 14.0030513,5.94767549 C12.8930652,5.58648399 11.4675451,5.40332512 9.76615811,5.40332512 L6.3371706,5.40332512 L5.35839112,0.371028325 C5.32024965,0.17567734 5.14909847,0.0346366995 4.94979196,0.0346366995 L0.546185853,0.0346366995 Z" id="path3502" fill="#000000" fill-rule="nonzero"></path>
                        </g>
                        <g id="g3504" transform="translate(34.402094, 0.042548)">
                            <path d="M9.2926491,17.0412562 L11.6238558,17.0412562 C13.4852982,17.0412562 14.1319001,16.6332358 14.351595,16.3900862 C14.7162275,15.9863608 14.7850208,15.1351293 14.5506241,13.9286638 C14.2873786,12.577694 13.7993065,11.61992 13.1001387,11.0820813 C12.3841886,10.5314963 11.2202497,10.2524631 9.6409154,10.2524631 L7.97198336,10.2524631 L9.2926491,17.0412562 Z M13.2914008,21.8903941 L4.82343967,21.8903941 C4.42510402,21.8903941 4.08266297,21.6083128 4.00665742,21.2177494 L0.0776699029,1.02441502 C0.0302357836,0.780711207 0.0943134535,0.528694581 0.252288488,0.33708436 C0.410402219,0.145474138 0.64590846,0.0346366995 0.89445215,0.0346366995 L5.29805825,0.0346366995 C5.6963939,0.0346366995 6.03897365,0.31671798 6.1149792,0.707281404 L7.02857143,5.40332512 L10.1144244,5.40332512 C11.8595007,5.40332512 13.3285714,5.59341133 14.4804438,5.96818042 C15.6650485,6.35264778 16.7552011,7.00464901 17.7198336,7.90589594 C18.5176144,8.63894704 19.1744799,9.46177648 19.6723994,10.3519397 C20.1704577,11.2423799 20.528294,12.2353448 20.7359223,13.3032635 C21.2511789,15.9502001 20.8325936,18.069689 19.4919556,19.6025708 C18.1643551,21.1206281 16.0782247,21.8903941 13.2914008,21.8903941 Z M6.96241331,9.42118227 L9.6409154,9.42118227 C11.4163662,9.42118227 12.738835,9.7552186 13.607767,10.4234298 C14.4769764,11.0917796 15.0629681,12.2072198 15.3675451,13.7703048 C15.6590846,15.2710437 15.5263523,16.3300954 14.9693481,16.9470443 C14.4117892,17.5639932 13.29681,17.8725369 11.6238558,17.8725369 L8.60665742,17.8725369 L6.96241331,9.42118227 Z M13.2914008,21.0591133 C15.838835,21.0591133 17.6972261,20.3913177 18.8653259,19.0555881 C20.0334258,17.7198584 20.3850208,15.8554341 19.9190014,13.4617611 C19.7271845,12.4757235 19.4027739,11.5741995 18.9460472,10.7574661 C18.4887656,9.94017857 17.8916782,9.19285714 17.1538141,8.51522475 C16.2744799,7.6932266 15.2976422,7.10745074 14.2227462,6.7585899 C13.1478502,6.40875924 11.7787795,6.23460591 10.1144244,6.23460591 L6.34244105,6.23460591 L5.29805825,0.865917488 L0.89445215,0.865917488 L4.82343967,21.0591133 L13.2914008,21.0591133 Z" id="path3506" fill="#FFFFFF" fill-rule="nonzero"></path>
                        </g>
                    </g>
                </g>
            </g>
        </g>
    </g>
</svg>