<?xml version="1.0" encoding="UTF-8" standalone="no"?>
<svg width="96px" height="111px" viewBox="0 0 96 111" version="1.1" xmlns="http://www.w3.org/2000/svg" xmlns:xlink="http://www.w3.org/1999/xlink">
    <!-- Generator: Sketch 41.2 (35397) - http://www.bohemiancoding.com/sketch -->
    <title>python</title>
    <desc>Created with Sketch.</desc>
    <defs></defs>
    <g id="Page-1" stroke="none" stroke-width="1" fill="none" fill-rule="evenodd">
        <g id="DesktopHD_Round7_ClientGuides-Copy" transform="translate(-551.000000, -1368.000000)">
            <g id="clients-copy" transform="translate(390.000000, 1169.000000)">
                <g id="row1">
                    <g id="python" transform="translate(161.000000, 199.000000)">
                        <polygon id="Polygon" fill="#FFFFFF" points="48 0 96 27.75 96 83.25 48 111 -2.3581137e-12 83.25 -2.38919995e-12 27.75"></polygon>
                        <g transform="translate(16.000000, 24.000000)">
                            <g id="bot" transform="translate(15.121951, 15.121951)">
                                <path d="M44.8401179,8.57990263 C43.7935025,4.36550436 41.7955544,1.19123635 37.5572107,1.19123635 L32.2283515,1.19123635 L32.2283515,7.66698255 C32.2283515,12.68056 27.8413465,16.6560027 22.9938906,16.6560027 L8.44753178,16.6560027 C4.46261069,16.6560027 1.29881881,20.3106762 1.29881881,24.3015837 L1.29881881,38.169987 C1.29881881,42.1159968 4.66365265,44.4377072 8.51338175,45.5701272 C13.1238776,46.9255391 17.4899303,47.1704811 23.0058633,45.5701272 C26.6720106,44.5080469 30.2328978,42.3719137 30.2328978,38.169987 L30.2328978,32.6196325 L15.7658583,32.6196325 L15.7658583,30.6241788 L37.5572107,30.6241788 C41.7895681,30.6241788 43.3674731,27.7427436 44.8401179,23.3108409 C46.3601548,18.7487348 46.2948037,14.4315707 44.8401179,8.57990263 L44.8401179,8.57990263 Z" id="Path" fill="#F9CD45"></path>
                                <path d="M23.9103027,36.3197026 C25.4203623,36.3197026 26.6435754,37.556385 26.6435754,39.086898 C26.6435754,40.6214019 25.4208612,41.8700571 23.9103027,41.8700571 C22.4062294,41.8700571 21.1775288,40.6219008 21.1775288,39.086898 C21.1775288,37.556385 22.4062294,36.3197026 23.9103027,36.3197026 L23.9103027,36.3197026 Z" id="Path" fill="#FFFFFF"></path>
                            </g>
                            <g id="top">
                                <path d="M23.569483,30.2813636 L38.1158418,30.2813636 C42.1651163,30.2813636 45.354849,26.8551696 45.354849,22.7889338 L45.354849,8.92152811 C45.354849,4.97452064 42.0463868,2.00927641 38.0938918,1.35077668 C35.5925905,0.934225716 33.0079791,0.744657612 30.5176529,0.756630334 C28.0283243,0.768104193 25.7225776,0.980121151 23.6308432,1.35077668 C17.4673855,2.43879782 16.42077,4.7186037 16.42077,8.92152811 L16.42077,14.3177338 L30.8878095,14.3177338 L30.8878095,16.3131876 L10.8215269,16.3131876 C6.58916953,16.3131876 2.88261423,18.861382 1.72375448,23.7018538 C0.386301626,29.2492152 0.326936877,32.6409877 1.72375448,38.433291 C2.7588961,42.7444687 5.23076441,45.74613 9.46362062,45.74613 L14.4253163,45.74613 L14.4253163,39.23696 C14.4253163,34.4294131 18.6297373,30.2813636 23.569483,30.2813636 L23.569483,30.2813636 Z" id="Path" fill="#4089F2"></path>
                                <path d="M22.652572,10.7708149 C21.1430113,10.7708149 19.9197981,9.5341324 19.9197981,8.00461712 C19.9197981,6.46861662 21.1425124,5.22046032 22.652572,5.22046032 C24.1566453,5.22046032 25.3858447,6.46861662 25.3858447,8.00461712 C25.3853459,9.5341324 24.1561464,10.7708149 22.652572,10.7708149 L22.652572,10.7708149 Z" id="Path" fill="#FFFFFF"></path>
                            </g>
                        </g>
                    </g>
                </g>
            </g>
        </g>
    </g>
</svg>