<?xml version="1.0" encoding="UTF-8"?>
<svg width="62px" height="62px" viewBox="0 0 62 62" version="1.1" xmlns="http://www.w3.org/2000/svg" xmlns:xlink="http://www.w3.org/1999/xlink">
    <!-- Generator: Sketch 49.2 (51160) - http://www.bohemiancoding.com/sketch -->
    <title>python</title>
    <desc>Created with Sketch.</desc>
    <defs></defs>
    <g id="Page-1" stroke="none" stroke-width="1" fill="none" fill-rule="evenodd">
        <g id="python" fill-rule="nonzero">
            <g id="Group">
                <g id="bot" transform="translate(16.121951, 16.121951)">
                    <path d="M43.8401179,7.57990263 C42.7935025,3.36550436 40.7955544,0.19123635 36.5572107,0.19123635 L31.2283515,0.19123635 L31.2283515,6.66698255 C31.2283515,11.68056 26.8413465,15.6560027 21.9938906,15.6560027 L7.44753178,15.6560027 C3.46261069,15.6560027 0.298818809,19.3106762 0.298818809,23.3015837 L0.298818809,37.169987 C0.298818809,41.1159968 3.66365265,43.4377072 7.51338175,44.5701272 C12.1238776,45.9255391 16.4899303,46.1704811 22.0058633,44.5701272 C25.6720106,43.5080469 29.2328978,41.3719137 29.2328978,37.169987 L29.2328978,31.6196325 L14.7658583,31.6196325 L14.7658583,29.6241788 L36.5572107,29.6241788 C40.7895681,29.6241788 42.3674731,26.7427436 43.8401179,22.3108409 C45.3601548,17.7487348 45.2948037,13.4315707 43.8401179,7.57990263 Z" id="Path" fill="#F9CD45"></path>
                    <path d="M22.9103027,35.3197026 C24.4203623,35.3197026 25.6435754,36.556385 25.6435754,38.086898 C25.6435754,39.6214019 24.4208612,40.8700571 22.9103027,40.8700571 C21.4062294,40.8700571 20.1775288,39.6219008 20.1775288,38.086898 C20.1775288,36.556385 21.4062294,35.3197026 22.9103027,35.3197026 Z" id="Path" fill="#FFFFFF"></path>
                </g>
                <g id="top">
                    <path d="M23.569483,30.2813636 L38.1158418,30.2813636 C42.1651163,30.2813636 45.354849,26.8551696 45.354849,22.7889338 L45.354849,8.92152811 C45.354849,4.97452064 42.0463868,2.00927641 38.0938918,1.35077668 C35.5925905,0.934225716 33.0079791,0.744657612 30.5176529,0.756630334 C28.0283243,0.768104193 25.7225776,0.980121151 23.6308432,1.35077668 C17.4673855,2.43879782 16.42077,4.7186037 16.42077,8.92152811 L16.42077,14.3177338 L30.8878095,14.3177338 L30.8878095,16.3131876 L10.8215269,16.3131876 C6.58916953,16.3131876 2.88261423,18.861382 1.72375448,23.7018538 C0.386301626,29.2492152 0.326936877,32.6409877 1.72375448,38.433291 C2.7588961,42.7444687 5.23076441,45.74613 9.46362062,45.74613 L14.4253163,45.74613 L14.4253163,39.23696 C14.4253163,34.4294131 18.6297373,30.2813636 23.569483,30.2813636 Z" id="Path" fill="#4089F2"></path>
                    <path d="M22.652572,10.7708149 C21.1430113,10.7708149 19.9197981,9.5341324 19.9197981,8.00461712 C19.9197981,6.46861662 21.1425124,5.22046032 22.652572,5.22046032 C24.1566453,5.22046032 25.3858447,6.46861662 25.3858447,8.00461712 C25.3853459,9.5341324 24.1561464,10.7708149 22.652572,10.7708149 Z" id="Path" fill="#FFFFFF"></path>
                </g>
            </g>
        </g>
    </g>
</svg>