<?xml version="1.0" encoding="UTF-8" standalone="no"?>
<svg width="98px" height="113px" viewBox="0 0 98 113" version="1.1" xmlns="http://www.w3.org/2000/svg" xmlns:xlink="http://www.w3.org/1999/xlink">
    <!-- Generator: Sketch 41.2 (35397) - http://www.bohemiancoding.com/sketch -->
    <title>r</title>
    <desc>Created with Sketch.</desc>
    <defs></defs>
    <g id="Page-1" stroke="none" stroke-width="1" fill="none" fill-rule="evenodd">
        <g id="DesktopHD_Round7_ClientGuides-Copy" transform="translate(-710.000000, -1265.000000)">
            <g id="clients-copy" transform="translate(389.000000, 1067.000000)">
                <g id="row1">
                    <g id="r" transform="translate(322.000000, 199.000000)">
                        <polygon id="Polygon" stroke="#2572C3" stroke-linecap="round" fill="#FFFFFF" points="48 0 96 27.75 96 83.25 48 111 -2.35633735e-12 83.25 -2.38653541e-12 27.75"></polygon>
                        <g transform="translate(15.000000, 30.000000)" id="Shape">
                            <path d="M32.751171,44.2186481 C14.7085924,44.2186481 0.0820924462,34.3199785 0.0820924462,22.1093698 C0.0820924462,9.89866966 14.7085924,0 32.751171,0 C50.7938403,0 65.4202497,9.89866966 65.4202497,22.1093698 C65.4202497,34.3199785 50.7938403,44.2186481 32.751171,44.2186481 L32.751171,44.2186481 Z M37.7517427,8.64399641 C24.0377737,8.64399641 12.9204087,15.4111562 12.9204087,23.7588582 C12.9204087,32.1065601 24.0377737,38.8737199 37.7517427,38.8737199 C51.4656211,38.8737199 61.5862787,34.2471867 61.5862787,23.7588582 C61.5862787,13.2738259 51.4656211,8.64399641 37.7517427,8.64399641 L37.7517427,8.64399641 Z" fill="#BFC1C5"></path>
                            <path d="M49.8353702,34.2441652 C49.8353702,34.2441652 51.8126565,34.8471005 52.9614071,35.4344704 C53.3599994,35.6382873 54.0496304,36.0450054 54.547078,36.5789946 C55.0343773,37.1019964 55.2719561,37.6319569 55.2719561,37.6319569 L63.0643958,50.9084381 L50.4696386,50.9141149 L44.5800039,39.7378815 C44.5800039,39.7378815 43.373988,37.6439515 42.631894,37.0368043 C42.0128481,36.5303752 41.7489018,36.3500898 41.1368329,36.3500898 L38.1443548,36.3500898 L38.1467107,50.9060575 L27.0017097,50.9108187 L27.0017097,13.728614 L49.3823214,13.728614 C49.3823214,13.728614 59.5759199,13.9143932 59.5759199,23.7145422 C59.5759199,33.5146912 49.8353702,34.2441652 49.8353702,34.2441652 L49.8353702,34.2441652 Z M44.9877479,21.793939 L38.240673,21.789544 L38.2373204,28.1118959 L44.9877479,28.1096984 C44.9877479,28.1096984 48.1137847,28.0999013 48.1137847,24.8935853 C48.1137847,21.6228097 44.9877479,21.793939 44.9877479,21.793939 L44.9877479,21.793939 Z" fill="#2572C3"></path>
                        </g>
                    </g>
                </g>
            </g>
        </g>
    </g>
</svg>