<?xml version="1.0" encoding="UTF-8"?>
<svg width="104px" height="119px" viewBox="0 0 104 119" version="1.1" xmlns="http://www.w3.org/2000/svg" xmlns:xlink="http://www.w3.org/1999/xlink">
    <!-- Generator: Sketch 49 (51002) - http://www.bohemiancoding.com/sketch -->
    <title>Antu</title>
    <desc>Created with Sketch.</desc>
    <defs>
        <polygon id="path-1" points="48 0 96 27.75 96 83.25 48 111 -3.55271368e-14 83.25 -6.66133815e-14 27.75"></polygon>
        <filter x="-7.3%" y="-4.5%" width="114.6%" height="112.6%" filterUnits="objectBoundingBox" id="filter-2">
            <feOffset dx="0" dy="2" in="SourceAlpha" result="shadowOffsetOuter1"></feOffset>
            <feGaussianBlur stdDeviation="2" in="shadowOffsetOuter1" result="shadowBlurOuter1"></feGaussianBlur>
            <feColorMatrix values="0 0 0 0 0   0 0 0 0 0   0 0 0 0 0  0 0 0 0.2 0" type="matrix" in="shadowBlurOuter1"></feColorMatrix>
        </filter>
        <linearGradient x1="48.5395833%" y1="99.7375%" x2="50.2708333%" y2="2.06041667%" id="linearGradient-3">
            <stop stop-color="#197CF1" offset="0%"></stop>
            <stop stop-color="#21C9FB" offset="100%"></stop>
        </linearGradient>
    </defs>
    <g id="Page-1" stroke="none" stroke-width="1" fill="none" fill-rule="evenodd">
        <g id="Antu" transform="translate(4.000000, 2.000000)">
            <g id="Polygon">
                <use fill="black" fill-opacity="1" filter="url(#filter-2)" xlink:href="#path-1"></use>
                <use fill="#FFFFFF" fill-rule="evenodd" xlink:href="#path-1"></use>
            </g>
            <g id="Antu_rstudio" transform="translate(16.000000, 24.000000)" fill-rule="nonzero">
                <circle id="Oval" fill="url(#linearGradient-3)" cx="32" cy="32" r="32"></circle>
                <path d="M39.0599599,47.9847641 L32.2273648,34.5754027 C31.8062313,34.6344401 31.3732904,34.6777342 30.9246061,34.705285 C30.4916652,34.7328357 30.042981,34.7485791 29.5785534,34.7485791 C29.043281,34.7485791 28.4922653,34.7249641 27.9294421,34.68167 C27.3784263,34.6383759 26.8077315,34.5793385 26.2173575,34.5084936 L26.2173575,45.5288083 L31.1213975,47.0913315 L31.1213975,47.9808283 L18.235501,47.9808283 L18.235501,47.0913315 L22.2264292,45.5288083 L22.2264292,18.4306417 L18.235501,16.8681185 L18.235501,15.9786217 L30.4483711,15.9786217 C32.3296963,15.9786217 33.9984868,16.1950921 35.4586785,16.6280331 C36.9188702,17.0491665 38.1507839,17.6474122 39.1465481,18.4306417 C40.1580555,19.2099354 40.9255417,20.1505979 41.4450708,21.2526294 C41.9645999,22.3389176 42.2243645,23.5432805 42.2243645,24.8775258 C42.2243645,26.8296958 41.7166429,28.5653954 40.7051354,30.0846245 C39.7054354,31.5881102 38.2255646,32.7373716 36.2576513,33.5324086 L42.5707173,45.8554819 L45.7587369,47.0913315 L45.7587369,47.9808283 L39.056024,47.9808283 M31.0741676,18.2574653 L26.2134216,18.2574653 L26.2134216,32.206035 C26.8077315,32.2768799 27.362683,32.3359173 27.8822121,32.3792114 C28.4174846,32.4067622 28.9370137,32.4225055 29.4447353,32.4225055 C35.0257375,32.4225055 37.8201745,30.0216512 37.8201745,25.2199427 C37.8201745,22.8899333 37.2416079,21.1502979 36.0844749,19.9931649 C34.9273419,18.8360318 33.2585514,18.2574653 31.0741676,18.2574653" id="Shape" fill="#ECF0F1"></path>
            </g>
        </g>
    </g>
</svg>