<?xml version="1.0" encoding="UTF-8"?>
<svg width="51px" height="49px" viewBox="0 0 51 49" version="1.1" xmlns="http://www.w3.org/2000/svg" xmlns:xlink="http://www.w3.org/1999/xlink">
    <!-- Generator: Sketch 49.2 (51160) - http://www.bohemiancoding.com/sketch -->
    <title>ruby</title>
    <desc>Created with Sketch.</desc>
    <defs></defs>
    <g id="Page-1" stroke="none" stroke-width="1" fill="none" fill-rule="evenodd">
        <g id="ruby" fill="#EE1926" fill-rule="nonzero">
            <g id="Shape">
                <path d="M13.766361,43.6699056 C24.8845353,45.2032303 35.8051683,46.7091597 46.9427729,48.2445288 C43.148199,41.8634447 39.4511814,35.6455063 35.7246136,29.376866 L13.766361,43.6699056 Z M50.0807649,8.34905529 C49.1007496,9.83576693 48.1187103,11.3212519 47.1399094,12.8087813 C43.7784691,17.9170015 40.4174336,23.0252217 37.0592317,28.1358952 C36.8722151,28.4204802 36.6297413,28.6461856 36.8932646,29.0849209 C40.1381232,34.4973527 43.3574795,39.9257311 46.5849317,45.3492029 C47.0941673,46.2058203 47.60907,47.0591666 48.2676759,47.8810286 C48.9202098,34.7177426 49.5723389,21.5540477 50.2244681,8.39076172 L50.0807649,8.34905529 Z M5.78415469,25.2250315 C5.93595383,25.3701863 6.3148445,25.4548258 6.49133631,25.3669152 C9.60382601,23.8217328 12.7361508,22.3108968 15.7806345,20.6385506 C16.7736033,20.0935048 17.5370518,19.1162659 18.3923894,18.3238437 C21.2247591,15.7000184 24.052676,13.0708776 26.8793785,10.441328 C27.0522271,10.2798178 27.2570548,10.1236231 27.3602782,9.91999757 C28.3755109,7.9156355 29.3733373,5.90105127 30.4063811,3.82840515 C29.1745816,3.36063889 28.0067402,2.90309479 26.824326,2.48684824 C26.6640261,2.43042189 26.4114323,2.54245682 26.2377741,2.64018071 C23.5009367,4.18454537 20.71269,5.64672381 18.0628841,7.33092768 C16.7371715,8.17364294 15.6571712,9.41543152 14.4832578,10.4969365 C12.5912332,12.2412467 10.7016374,13.9896458 8.83713912,15.7642136 C8.3424763,16.235251 7.89153164,16.7733457 7.50616421,17.3400625 C6.23105137,19.2156253 4.99398953,21.1181746 3.700256,23.074697 C4.42322474,23.8299105 5.08061624,24.5520042 5.78415469,25.2250315 Z M17.1597803,22.6609037 C15.611429,29.2681021 14.0723881,35.8380919 12.4819378,42.6239737 C19.9395263,37.770081 27.2250758,33.0282232 34.4624543,28.3182586 C28.7029922,26.4353358 22.9621509,24.5581375 17.1597803,22.6609037 Z M48.1798348,8.4128416 C41.8787534,9.47635562 35.7282568,10.5141098 29.4984198,11.5653572 C31.6203694,16.7790701 33.6998154,21.8881081 35.8383617,27.1423008 C39.9757993,20.8622116 44.0314677,14.7080595 48.1798348,8.4128416 Z M17.4196605,21.3095335 C23.0937102,23.1699675 28.6548213,24.9936017 34.3774468,26.8703912 C32.2522587,21.6407317 30.1999342,16.5938445 28.105106,11.4402379 C24.5368141,14.7354549 21.0219554,17.9820145 17.4196605,21.3095335 Z M6.01853257,29.0779699 C4.00628308,33.9367692 2.06244441,38.6303784 0.0833883312,43.4086271 C3.88686775,43.2949566 7.57376543,43.1849661 11.3873648,43.0712957 C9.59694445,38.4050819 7.84174152,33.8304587 6.01853257,29.0779699 Z M11.520948,39.7482743 L11.661008,39.717199 C13.0182948,34.016911 14.3950119,28.3558762 15.7806345,22.432745 C12.6895991,24.0556159 9.74105244,25.6032516 6.71195107,27.1938205 C8.25787358,31.2524288 9.90620991,35.5338803 11.520948,39.7482743 Z M45.8992044,7.48834902 C44.0942113,7.00545395 42.2892183,6.52092334 40.4834156,6.04129937 C37.8878526,5.35191658 35.2902656,4.67112041 32.6963218,3.97560432 C32.3720788,3.88851147 32.1377009,3.83167624 31.9470412,4.2262518 C31.0301744,6.12348558 30.0849717,8.00640833 29.1535321,9.89669103 C29.1247915,9.95516182 29.1308634,10.0308058 29.1085996,10.1775961 C34.7296208,9.31729874 40.3129958,8.46231687 45.8955612,7.6077439 L45.8992044,7.48834902 Z M35.427492,3.17295994 L50.1390557,7.28390572 C49.2954573,4.85552826 48.5129833,2.60378981 47.7082454,0.28785616 L35.4489463,3.03352961 L35.427492,3.17295994 Z M12.7681298,44.764495 C10.9461353,44.5522829 9.07556498,44.7473218 7.22766337,44.7796238 C5.7096719,44.8053837 4.19168044,44.8638545 2.67368897,44.9116942 C2.51743705,44.9166008 2.36158992,44.948494 2.2057428,45.1185908 C14.7556867,46.2904598 27.3052257,47.4623288 39.8547648,48.6350155 L39.880267,48.4657364 C35.8573872,47.9108773 31.8341026,47.3560182 27.8112229,46.801568 C22.7982078,46.1101408 17.7936936,45.3496117 12.7681298,44.764495 Z M0.331529336,39.0347672 C1.94869625,35.2443885 3.55898159,31.4515565 5.18262527,27.66404 C5.34494915,27.2841844 5.33240042,27.026177 5.01463421,26.7203298 C4.33538363,26.0673379 3.70430398,25.3636441 2.96190495,24.5834885 C1.95841139,29.5882603 0.979610493,34.4691396 0,39.3496099 L0.109700183,39.4015385 C0.184587762,39.2800992 0.276072048,39.1652021 0.331529336,39.0347672 Z M32.2053022,2.17241445 C34.9324244,1.46176956 37.6992169,0.906092684 40.4498174,0.286220613 C40.6279284,0.245740841 40.8019914,0.186452285 40.9772689,0.135750348 L40.9501474,0 C37.0758284,0.526237042 33.2019142,1.05288297 29.1324826,1.60610653 C30.2420332,2.09554378 31.096966,2.46108839 32.2053022,2.17241445 Z"></path>
            </g>
        </g>
    </g>
</svg>