<?xml version="1.0" encoding="UTF-8"?>
<svg width="52px" height="53px" viewBox="0 0 52 53" version="1.1" xmlns="http://www.w3.org/2000/svg" xmlns:xlink="http://www.w3.org/1999/xlink">
    <!-- Generator: Sketch 49.2 (51160) - http://www.bohemiancoding.com/sketch -->
    <title>rundexter</title>
    <desc>Created with Sketch.</desc>
    <defs></defs>
    <g id="Page-1" stroke="none" stroke-width="1" fill="none" fill-rule="evenodd">
        <g id="rundexter" fill="#2C383E" fill-rule="nonzero">
            <g id="dexter_hex">
                <path d="M18.1434783,13.8138298 L18.1434783,1.18404255 C18.1434783,0.507446809 17.5782609,0 16.9565217,0 L1.18695652,0 C0.508695652,0 0,0.507446809 0,1.18404255 L0,13.8138298 C0,14.4904255 0.508695652,14.9978723 1.18695652,14.9978723 L16.9565217,14.9978723 C17.5782609,15.0542553 18.1434783,14.4904255 18.1434783,13.8138298 Z" id="Shape"></path>
                <path d="M28.7130435,4.96170213 L23.0043478,4.96170213 C22.326087,4.96170213 21.8173913,5.46914894 21.8173913,6.14574468 L21.8173913,16.5202128 C21.8173913,17.1968085 22.326087,17.7042553 23.0043478,17.7042553 L27.5826087,17.7042553 C33.3478261,17.7042553 37.5869565,21.8765957 37.5869565,29.7702128 C37.5869565,37.6074468 29.9565217,40.0319149 27.1304348,40.0319149 L22.0434783,40.0319149 C21.3652174,40.0319149 20.8565217,39.5244681 20.8565217,38.8478723 L20.8565217,19.7904255 C20.8565217,19.1138298 20.3478261,18.606383 19.6695652,18.606383 L8.30869565,18.606383 C7.63043478,18.606383 7.12173913,19.1138298 7.12173913,19.7904255 L7.12173913,51.4212766 C7.12173913,52.0978723 7.63043478,52.6053191 8.30869565,52.6053191 L29.5608696,52.6053191 C33.8,52.6053191 52,50.1244681 52,28.0223404 C52,5.97659574 30.6913043,4.96170213 28.7130435,4.96170213 Z" id="Shape"></path>
            </g>
        </g>
    </g>
</svg>