<?xml version="1.0" encoding="UTF-8"?>
<svg width="66px" height="66px" viewBox="0 0 66 66" version="1.1" xmlns="http://www.w3.org/2000/svg" xmlns:xlink="http://www.w3.org/1999/xlink">
    <!-- Generator: Sketch 49.2 (51160) - http://www.bohemiancoding.com/sketch -->
    <title>rust</title>
    <desc>Created with Sketch.</desc>
    <defs></defs>
    <g id="Page-1" stroke="none" stroke-width="1" fill="none" fill-rule="evenodd">
        <g id="rust" fill="#000000" fill-rule="nonzero">
            <g id="path3">
                <path d="M64.6479708,31.748398 L61.915254,30.0567754 C61.8922429,29.7905936 61.8661223,29.5250338 61.8375139,29.2607177 L64.1858842,27.0703152 C64.4247015,26.8476678 64.5316717,26.5180502 64.466992,26.1990052 C64.4041781,25.8787164 64.179665,25.6150222 63.8743022,25.5012109 L60.872294,24.3786451 C60.7970417,24.1186825 60.7180578,23.8605857 60.6372082,23.6037327 L62.5098095,21.0028629 C62.700739,20.7385469 62.73992,20.3946251 62.615536,20.0929939 C62.4911519,19.7926065 62.2193729,19.5774221 61.8978402,19.5245589 L58.732267,19.0096091 C58.6091268,18.7695479 58.4810113,18.5332183 58.3516519,18.2987544 L59.681939,15.3788397 C59.8181395,15.0815619 59.790153,14.7357743 59.6085524,14.465861 C59.4275736,14.1947039 59.120967,14.0361142 58.7938371,14.0485526 L55.580998,14.1604982 C55.4149453,13.9527769 55.245783,13.7469214 55.0735112,13.5447974 L55.8117303,10.4152955 C55.8863607,10.0974944 55.7924508,9.76476714 55.5610965,9.53403479 C55.331608,9.30392436 54.9982589,9.20877059 54.6804577,9.283401 L51.5515778,10.0209982 C51.3488318,9.84934827 51.1429763,9.67956409 50.9346331,9.51351143 L51.0472006,6.30067231 C51.059639,5.97540811 50.9010494,5.66631383 50.6298922,5.48595701 C50.3581132,5.30435634 50.0141913,5.27699186 49.7175348,5.41194852 L46.798242,6.74285748 C46.5625343,6.61349811 46.3262047,6.48538257 46.0873874,6.36162047 L45.5711937,3.19542536 C45.5189524,2.8745146 45.3037681,2.6021136 45.0027587,2.47772959 C44.7023713,2.35272365 44.3578276,2.39314846 44.0935116,2.583456 L41.4907761,4.45605736 C41.234545,4.37458583 40.9770701,4.2962239 40.7171075,4.22159349 L39.5945417,1.21896335 C39.4807304,0.912978674 39.2170363,0.688465526 38.8967474,0.625029678 C38.5770805,0.56221575 38.2480848,0.668564083 38.0260593,0.906137553 L35.8356568,3.25637353 C35.5713408,3.22714328 35.305159,3.20040072 35.0395991,3.17863352 L33.3479765,0.445294776 C33.1769485,0.168540341 32.8740734,0 32.5481873,0 C32.2223011,0 31.9194261,0.168540341 31.74902,0.445294776 L30.0573974,3.17863352 C29.7912156,3.20040072 29.5250338,3.22714328 29.2607177,3.25637353 L27.0696933,0.906137553 C26.8476678,0.668564083 26.5180502,0.56221575 26.1990052,0.625029678 C25.8787164,0.689087446 25.6150222,0.912978674 25.5012109,1.21896335 L24.3786451,4.22159349 C24.1186825,4.2962239 23.8612076,4.37520775 23.6043546,4.45605736 L21.002241,2.583456 C20.737925,2.39252654 20.3933813,2.35210173 20.0923719,2.47772959 C19.7919846,2.6021136 19.5761783,2.8745146 19.523937,3.19542536 L19.0077433,6.36162047 C18.768926,6.48538257 18.5325964,6.61287619 18.2968887,6.74285748 L15.3775958,5.41194852 C15.08094,5.27636994 14.7351524,5.30435634 14.4652391,5.48595701 C14.1940819,5.66631383 14.0354923,5.97540811 14.0479307,6.30067231 L14.1598763,9.51351143 C13.952155,9.67956409 13.7462995,9.84934827 13.5429316,10.0209982 L10.4140517,9.283401 C10.0962505,9.20939251 9.76290138,9.30392436 9.53279095,9.53403479 C9.30143668,9.76476714 9.20752675,10.0974944 9.28215716,10.4152955 L10.0191325,13.5447974 C9.84810443,13.7475433 9.67894217,13.9527769 9.51288951,14.1604982 L6.30005039,14.0485526 C5.97603003,14.0392238 5.66631383,14.1947039 5.48533509,14.465861 C5.30373442,14.7357743 5.27636994,15.0815619 5.4113266,15.3788397 L6.74223556,18.2987544 C6.61287619,18.5332183 6.48476065,18.7695479 6.36099855,19.0096091 L3.19542536,19.5245589 C2.87389268,19.5768002 2.60273553,19.7919846 2.47772959,20.0929939 C2.35334557,20.3946251 2.39377038,20.7385469 2.583456,21.0028629 L4.45605736,23.6037327 C4.37458583,23.8605857 4.29560198,24.1186825 4.22097157,24.3786451 L1.21834143,25.5012109 C0.913600594,25.6150222 0.689087446,25.8787164 0.625651598,26.1990052 C0.56221575,26.5186721 0.668564083,26.8476678 0.906759473,27.0703152 L3.25575161,29.2607177 C3.22652136,29.5250338 3.20040072,29.7912156 3.1780116,30.0567754 L0.445294776,31.748398 C0.168540341,31.9194261 0,32.2216792 0,32.5481873 C0,32.8746953 0.168540341,33.1769485 0.445294776,33.3473546 L3.1780116,35.0389772 C3.20040072,35.305159 3.22652136,35.5707188 3.25575161,35.8350349 L0.906759473,38.0260593 C0.668564083,38.2480848 0.56221575,38.5777024 0.625651598,38.8967474 C0.689087446,39.2170363 0.913600594,39.4801085 1.21834143,39.5945417 L4.22097157,40.7171075 C4.29560198,40.9770701 4.37458583,41.2351669 4.45605736,41.4920199 L2.583456,44.0935116 C2.39314846,44.3584495 2.35272365,44.7023713 2.47772959,45.0027587 C2.60273553,45.30439 2.8745146,45.5195743 3.19604728,45.5711937 L6.36099855,46.0861435 C6.48476065,46.3262047 6.61163235,46.5625343 6.74223556,46.798242 L5.4113266,49.7169129 C5.27574802,50.0135694 5.30373442,50.3587351 5.48533509,50.6298922 C5.66693575,50.9016713 5.97603003,51.0602609 6.30005039,51.0472006 L9.51164567,50.9346331 C9.67894217,51.1435982 9.84748251,51.3482099 10.0191325,51.5515778 L9.28215716,54.6817015 C9.20752675,54.9988808 9.30143668,55.3303642 9.53279095,55.5610965 C9.76227946,55.7930727 10.0962505,55.8857388 10.4140517,55.8111084 L13.5429316,55.0741331 C13.7462995,55.2470269 13.952155,55.4149453 14.1598763,55.580376 L14.0479307,58.7938371 C14.0354923,59.1191013 14.1940819,59.4275736 14.4652391,59.6091743 C14.7351524,59.790153 15.08094,59.8175175 15.3775958,59.681939 L18.2968887,58.3516519 C18.5319745,58.4822551 18.7683041,58.6091268 19.0077433,58.7328889 L19.523937,61.8972183 C19.5761783,62.2193729 19.7913626,62.4917739 20.0923719,62.615536 C20.3927593,62.7405419 20.737925,62.7001171 21.002241,62.5104315 L23.6031108,60.6365863 C23.8599638,60.7180578 24.1180606,60.7976636 24.3780232,60.872294 L25.5005889,63.8736803 C25.6144003,64.1784211 25.8780944,64.4041781 26.1983833,64.4663701 C26.5180502,64.5310498 26.8470459,64.4240795 27.0690714,64.1852622 L29.2600958,61.8362701 C29.5244118,61.8667442 29.7905936,61.8922429 30.0567754,61.9158759 L31.748398,64.6485927 C31.9188041,64.9241033 32.2216792,65.0938875 32.5475653,65.0938875 C32.8734515,65.0938875 33.1763265,64.9247252 33.3473546,64.6485927 L35.0389772,61.9158759 C35.305159,61.8922429 35.5707188,61.8667442 35.8350349,61.8362701 L38.0254374,64.1852622 C38.2474629,64.4240795 38.5770805,64.5310498 38.8961255,64.4663701 C39.2164143,64.4035562 39.4801085,64.1784211 39.5939198,63.8736803 L40.7164856,60.872294 C40.9764482,60.7976636 41.234545,60.7180578 41.491398,60.6365863 L44.0928897,62.5104315 C44.3572057,62.7001171 44.7017494,62.7405419 45.0021368,62.615536 C45.3031461,62.4917739 45.5183305,62.218751 45.5705718,61.8972183 L46.0867654,58.7328889 C46.3255827,58.6091268 46.5619124,58.4803894 46.7976201,58.3516519 L49.7169129,59.681939 C50.0135694,59.8175175 50.3587351,59.790153 50.6292703,59.6091743 C50.9004275,59.4275736 51.0583952,59.1197232 51.0465787,58.7938371 L50.9346331,55.580376 C51.1423544,55.4143234 51.3482099,55.2470269 51.5509559,55.0741331 L54.6798358,55.8111084 C54.9976369,55.8857388 55.3309861,55.7930727 55.5604746,55.5610965 C55.7918289,55.3303642 55.8857388,54.9988808 55.8111084,54.6817015 L55.0741331,51.5515778 C55.245783,51.3482099 55.4149453,51.1435982 55.580376,50.9346331 L58.7932152,51.0472006 C59.1172355,51.0602609 59.4269517,50.9016713 59.6079305,50.6298922 C59.7895311,50.3587351 59.8175175,50.0135694 59.681317,49.7169129 L58.35103,46.798242 C58.4810113,46.5625343 58.6085049,46.3262047 58.7316451,46.0861435 L61.8972183,45.5711937 C62.2193729,45.5195743 62.49053,45.30439 62.614914,45.0027587 C62.7392981,44.7023713 62.7001171,44.3584495 62.5091876,44.0935116 L60.6365863,41.4920199 C60.7174359,41.2351669 60.7964197,40.9770701 60.8716721,40.7171075 L63.8736803,39.5945417 C64.179043,39.4801085 64.4041781,39.2170363 64.4663701,38.8967474 C64.5310498,38.5770805 64.4240795,38.2480848 64.1852622,38.0260593 L61.836892,35.8350349 C61.8655003,35.5707188 61.891621,35.304537 61.914632,35.0389772 L64.6473489,33.3473546 C64.9241033,33.1769485 65.0926436,32.8740734 65.0926436,32.5481873 C65.0926436,32.2223011 64.9247252,31.9194261 64.6479708,31.748398 Z M46.3579226,54.4180074 C45.3143407,54.1928724 44.650752,53.1642165 44.8746432,52.1175251 C45.0979125,51.0720774 46.1259464,50.4066229 47.1689064,50.631758 C48.2124883,50.8550273 48.8773208,51.8855489 48.6534296,52.9303746 C48.4295384,53.9752003 47.4008826,54.6412767 46.3579226,54.4180074 Z M45.4293959,48.1378579 C44.4772363,47.9338681 43.5406246,48.5396182 43.3366349,49.4936436 L42.3664395,54.0212224 C39.3725163,55.3801178 36.0477315,56.1351288 32.5463215,56.1351288 C28.9646838,56.1351288 25.5677563,55.3428026 22.5203479,53.9260686 L21.5507745,49.3984898 C21.3467847,48.4457083 20.4101731,47.8387143 19.4586354,48.043326 L15.4615551,48.9015757 C14.7196044,48.1378579 14.0292731,47.3243864 13.3949146,46.4655148 L32.8435993,46.4655148 C33.063759,46.4655148 33.2105321,46.4257119 33.2105321,46.2254536 L33.2105321,39.3457737 C33.2105321,39.1455154 33.063759,39.1057126 32.8435993,39.1057126 L27.1555183,39.1057126 L27.1555183,34.744809 L33.3075517,34.744809 C33.8691455,34.744809 36.3101818,34.9052644 37.0906915,38.0254374 C37.3351061,38.9850601 37.8718231,42.1064769 38.238756,43.1059025 C38.604445,44.2266025 40.0933216,46.4655148 41.6798398,46.4655148 L51.371221,46.4655148 C51.4813008,46.4655148 51.5988437,46.4530764 51.7226058,46.4306872 C51.0503102,47.3442878 50.312713,48.2087567 49.5185204,49.0166309 L45.4293959,48.1378579 Z M18.5301087,54.3234756 C17.4865268,54.5486106 16.4591149,53.8831562 16.2346017,52.8377085 C16.0113324,51.7903951 16.6749211,50.7623612 17.718503,50.5372261 C18.7620849,50.3139568 19.7901188,50.9794113 20.01401,52.024859 C20.2372793,53.0696847 19.5730687,54.0995843 18.5301087,54.3234756 Z M11.1522708,24.4060096 C11.5851272,25.3830461 11.1448078,26.5280009 10.1690152,26.9602354 C9.19322259,27.3937137 8.05137733,26.9527723 7.61852095,25.975114 C7.18566458,24.9974556 7.62598399,23.8543665 8.60177659,23.4208882 C9.57819112,22.9880318 10.7194145,23.4283512 11.1522708,24.4060096 Z M8.88475023,29.7812648 L13.0485051,27.9310526 C13.9378509,27.5361334 14.3396112,26.4937953 13.944692,25.6025838 L13.0870642,23.663437 L16.4597368,23.663437 L16.4597368,38.8656514 L9.65530921,38.8656514 C9.06510705,36.790926 8.74854973,34.6011454 8.74854973,32.3379783 C8.74854973,31.4741313 8.79519374,30.620235 8.88475023,29.7812648 Z M27.1567621,28.3048266 L27.1567621,23.8238924 L35.188238,23.8238924 C35.6030587,23.8238924 38.1174816,24.3033928 38.1174816,26.1834572 C38.1174816,27.7444766 36.1889074,28.3042047 34.6030112,28.3042047 L27.1567621,28.3042047 L27.1567621,28.3048266 Z M56.3447158,32.3379783 C56.3447158,32.9325339 56.3229486,33.5208703 56.2794142,34.1048532 L53.837756,34.1048532 C53.5933414,34.1048532 53.495078,34.2653086 53.495078,34.5047478 L53.495078,35.6260697 C53.495078,38.2654985 52.0068233,38.8395308 50.7026569,38.985682 C49.4606819,39.125614 48.0837508,38.4657568 47.9139666,37.7057705 C47.1813448,33.584928 45.9605157,32.7049111 44.0325634,31.1843165 C46.42509,29.6649658 48.914636,27.4235658 48.914636,24.4234234 C48.914636,21.1838417 46.6937594,19.1433219 45.180006,18.1426525 C43.0561489,16.7427104 40.7046691,16.4622245 40.0703106,16.4622245 L14.8184897,16.4622245 C18.2427816,12.6405256 22.8835493,9.93330748 28.1325547,8.94818608 L31.1090642,12.0708468 C31.7819817,12.7754822 32.8964625,12.8016029 33.600476,12.1280634 L36.9308581,8.9425888 C43.9094232,10.2417798 49.817664,14.5858916 53.222677,20.5457517 L50.942718,25.6952499 C50.5490426,26.5864614 50.950803,27.6287995 51.8395268,28.0237187 L56.2290387,29.9734381 C56.3049129,30.752704 56.3447158,31.5400548 56.3447158,32.3379783 Z M31.110308,6.29196543 C31.8814889,5.55312437 33.1048057,5.58235462 33.8430249,6.35477935 C34.5800002,7.12906985 34.5520138,8.35363048 33.7789671,9.09184962 C33.0077862,9.83069067 31.7844694,9.80208234 31.0462503,9.02841377 C30.3098969,8.25536711 30.3378833,7.03080648 31.110308,6.29196543 Z M53.7357611,24.4999195 C54.1679955,23.5228831 55.3098408,23.0819418 56.2856334,23.5154201 C57.261426,23.9482764 57.7017454,25.0926094 57.2688891,26.0696458 C56.8366546,27.0473042 55.6948093,27.4882455 54.7183948,27.0547672 C53.7438461,26.6219108 53.3035266,25.4781998 53.7357611,24.4999195 Z" id="Shape"></path>
            </g>
        </g>
    </g>
</svg>