<?xml version="1.0" encoding="UTF-8" standalone="no"?>
<svg width="96px" height="111px" viewBox="0 0 96 111" version="1.1" xmlns="http://www.w3.org/2000/svg" xmlns:xlink="http://www.w3.org/1999/xlink">
    <!-- Generator: Sketch 41.2 (35397) - http://www.bohemiancoding.com/sketch -->
    <title>scala</title>
    <desc>Created with Sketch.</desc>
    <defs></defs>
    <g id="Page-1" stroke="none" stroke-width="1" fill="none" fill-rule="evenodd">
        <g id="DesktopHD_Round7_ClientGuides-Copy" transform="translate(-1194.000000, -1368.000000)">
            <g id="clients-copy" transform="translate(390.000000, 1169.000000)">
                <g id="row1">
                    <g id="scala" transform="translate(804.000000, 199.000000)">
                        <polygon id="Polygon" fill="#FFFFFF" points="48 0 96 27.75 96 83.25 48 111 -2.3581137e-12 83.25 -2.38919995e-12 27.75"></polygon>
                        <g transform="translate(27.000000, 21.000000)" id="Shape">
                            <path d="M0,46.4615385 L0,41.2307692 C0,40.349094 18.7686257,38.8722736 30.9968174,36 L30.9968174,36 C36.9041951,37.3878975 41.2862745,39.1006838 41.2862745,41.2307692 L41.2862745,41.2307692 L41.2862745,46.4615385 C41.2862745,48.5904615 36.9041951,50.3044102 30.9968174,51.6923077 L30.9968174,51.6923077 C18.7686257,48.819453 0,47.3426324 0,46.4615385" fill="#000000" transform="translate(20.643137, 43.846154) scale(1, -1) translate(-20.643137, -43.846154) "></path>
                            <path d="M0,26.4615385 L0,21.2307692 C0,20.349094 18.7686257,18.8722736 30.9968174,16 L30.9968174,16 C36.9041951,17.3878975 41.2862745,19.1006838 41.2862745,21.2307692 L41.2862745,21.2307692 L41.2862745,26.4615385 C41.2862745,28.5904615 36.9041951,30.3044102 30.9968174,31.6923077 L30.9968174,31.6923077 C18.7686257,28.819453 0,27.3426324 0,26.4615385" fill="#000000" transform="translate(20.643137, 23.846154) scale(1, -1) translate(-20.643137, -23.846154) "></path>
                            <path d="M0,36.6923077 L0,21 C0,22.3076923 41.2862745,24.9230769 41.2862745,31.4615385 L41.2862745,31.4615385 L41.2862745,47.1538462 C41.2862745,40.6153846 0,38 0,36.6923077" fill="#E60301" transform="translate(20.643137, 34.076923) scale(1, -1) translate(-20.643137, -34.076923) "></path>
                            <path d="M0,15.6923077 L0,-2.13162821e-14 C0,1.30769231 41.2862745,3.92307692 41.2862745,10.4615385 L41.2862745,10.4615385 L41.2862745,26.1538462 C41.2862745,19.6153846 0,17 0,15.6923077" fill="#E60301" transform="translate(20.643137, 13.076923) scale(1, -1) translate(-20.643137, -13.076923) "></path>
                            <path d="M0,57.6923077 L0,42 C0,43.3076923 41.2862745,45.9230769 41.2862745,52.4615385 L41.2862745,52.4615385 L41.2862745,68.1538462 C41.2862745,61.6153846 0,59 0,57.6923077" fill="#E60301" transform="translate(20.643137, 55.076923) scale(1, -1) translate(-20.643137, -55.076923) "></path>
                        </g>
                    </g>
                </g>
            </g>
        </g>
    </g>
</svg>