<?xml version="1.0" encoding="UTF-8"?>
<svg width="42px" height="69px" viewBox="0 0 42 69" version="1.1" xmlns="http://www.w3.org/2000/svg" xmlns:xlink="http://www.w3.org/1999/xlink">
    <!-- Generator: Sketch 49.2 (51160) - http://www.bohemiancoding.com/sketch -->
    <title>scala</title>
    <desc>Created with Sketch.</desc>
    <defs></defs>
    <g id="Page-1" stroke="none" stroke-width="1" fill="none" fill-rule="evenodd">
        <g id="scala" fill-rule="nonzero">
            <g id="Shape">
                <path d="M0,46.4615388 L0,41.2307695 C0,40.3490943 18.7686257,38.8722739 30.9968174,36.0000003 C36.9041951,37.3878978 41.2862745,39.1006841 41.2862745,41.2307695 L41.2862745,46.4615388 C41.2862745,48.5904618 36.9041951,50.3044105 30.9968174,51.692308 C18.7686257,48.8194533 0,47.3426327 0,46.4615388" fill="#000000" transform="translate(20.643137, 43.846154) scale(-1, 1) rotate(-180.000000) translate(-20.643137, -43.846154) "></path>
                <path d="M0,26.4615388 L0,21.2307695 C0,20.3490943 18.7686257,18.8722739 30.9968174,16.0000003 C36.9041951,17.3878978 41.2862745,19.1006841 41.2862745,21.2307695 L41.2862745,26.4615388 C41.2862745,28.5904618 36.9041951,30.3044105 30.9968174,31.692308 C18.7686257,28.8194533 0,27.3426327 0,26.4615388" fill="#000000" transform="translate(20.643137, 23.846154) scale(-1, 1) rotate(-180.000000) translate(-20.643137, -23.846154) "></path>
                <path d="M0,36.6923075 L0,20.9999998 C0,22.3076921 41.2862745,24.9230767 41.2862745,31.4615383 L41.2862745,47.153846 C41.2862745,40.6153844 0,37.9999998 0,36.6923075" fill="#E60301" transform="translate(20.643137, 34.076923) scale(-1, 1) rotate(-180.000000) translate(-20.643137, -34.076923) "></path>
                <path d="M0,15.6923075 L0,-1.99999999e-07 C0,1.30769211 41.2862745,3.92307672 41.2862745,10.4615383 L41.2862745,26.153846 C41.2862745,19.6153844 0,16.9999998 0,15.6923075" fill="#E60301" transform="translate(20.643137, 13.076923) scale(-1, 1) rotate(-180.000000) translate(-20.643137, -13.076923) "></path>
                <path d="M0,57.6923075 L0,41.9999998 C0,43.3076921 41.2862745,45.9230767 41.2862745,52.4615383 L41.2862745,68.153846 C41.2862745,61.6153844 0,58.9999998 0,57.6923075" fill="#E60301" transform="translate(20.643137, 55.076923) scale(-1, 1) rotate(-180.000000) translate(-20.643137, -55.076923) "></path>
            </g>
        </g>
    </g>
</svg>