<?xml version="1.0" encoding="UTF-8"?>
<svg width="64px" height="58px" viewBox="0 0 64 58" version="1.1" xmlns="http://www.w3.org/2000/svg" xmlns:xlink="http://www.w3.org/1999/xlink">
    <!-- Generator: Sketch 49.2 (51160) - http://www.bohemiancoding.com/sketch -->
    <title>swift</title>
    <desc>Created with Sketch.</desc>
    <defs>
        <linearGradient x1="50%" y1="0%" x2="50%" y2="100%" id="linearGradient-1">
            <stop stop-color="#F88A36" offset="0%"></stop>
            <stop stop-color="#FD2020" offset="100%"></stop>
        </linearGradient>
    </defs>
    <g id="Page-1" stroke="none" stroke-width="1" fill="none" fill-rule="evenodd">
        <g id="swift" fill="url(#linearGradient-1)" fill-rule="nonzero">
            <g id="Swift_logo">
                <path d="M48.1305789,53.253561 C40.6142526,57.5980279 30.2795053,58.0443994 19.8819474,53.5855195 C11.4632432,50.0016565 4.47790737,43.7282849 -7.10542736e-15,36.5605589 C2.14940842,38.3524904 4.65699789,39.7866802 7.34367789,41.0403876 C18.0813789,46.0761663 28.8168253,45.7313162 36.3718042,41.0532792 C36.3669726,41.0484449 36.3637516,41.045222 36.3605305,41.0403876 C25.6134884,32.7962137 16.4785832,22.0430133 9.67249895,13.2622267 C8.23896947,11.8283593 7.16426526,10.0361055 6.08956105,8.423206 C14.3288526,15.9502851 27.4048768,25.4481666 32.0609084,28.1376752 C22.2109295,17.7422166 13.4335611,4.83934302 13.7910979,5.19708474 C29.3745505,20.9683378 43.8837821,29.9296067 43.8837821,29.9296067 C44.3637189,30.2003302 44.73414,30.4259331 45.0320874,30.6273642 C45.34614,29.8280854 45.62154,28.9981891 45.8534558,28.1376752 C48.3610453,18.9975355 45.4959189,8.60207685 39.22614,0.000161144918 C53.7337611,8.78175344 62.3323611,25.2692957 58.74894,39.0697465 C58.6555295,39.4419912 58.5540663,39.8094016 58.4445505,40.1703662 C58.4864242,40.2203212 58.5282979,40.2718875 58.5701716,40.3250654 C65.7337926,49.2863342 63.7641189,58.7842157 62.8686663,56.9922842 C58.9824663,49.3830212 51.7882453,51.7099538 48.13074,53.2537221 L48.1305789,53.253561 Z" id="Shape"></path>
            </g>
        </g>
    </g>
</svg>