<?xml version="1.0" encoding="UTF-8" standalone="no"?>
<svg width="104px" height="119px" viewBox="0 0 104 119" version="1.1" xmlns="http://www.w3.org/2000/svg" xmlns:xlink="http://www.w3.org/1999/xlink">
    <!-- Generator: Sketch 47.1 (45422) - http://www.bohemiancoding.com/sketch -->
    <title>telegram copy 2</title>
    <desc>Created with Sketch.</desc>
    <defs>
        <polygon id="path-1" points="48 0 96 27.75 96 83.25 48 111 -3.55271368e-14 83.25 -6.66133815e-14 27.75"></polygon>
        <filter x="-7.3%" y="-4.5%" width="114.6%" height="112.6%" filterUnits="objectBoundingBox" id="filter-2">
            <feOffset dx="0" dy="2" in="SourceAlpha" result="shadowOffsetOuter1"></feOffset>
            <feGaussianBlur stdDeviation="2" in="shadowOffsetOuter1" result="shadowBlurOuter1"></feGaussianBlur>
            <feColorMatrix values="0 0 0 0 0   0 0 0 0 0   0 0 0 0 0  0 0 0 0.2 0" type="matrix" in="shadowBlurOuter1"></feColorMatrix>
        </filter>
        <linearGradient x1="66.67%" y1="16.67%" x2="41.67%" y2="75%" id="linearGradient-3">
            <stop stop-color="#37AEE2" offset="0%"></stop>
            <stop stop-color="#1E96C8" offset="100%"></stop>
        </linearGradient>
        <linearGradient x1="61.2346759%" y1="43.69%" x2="74.7064382%" y2="80.24%" id="linearGradient-4">
            <stop stop-color="#EFF7FC" offset="0%"></stop>
            <stop stop-color="#FFFFFF" offset="100%"></stop>
        </linearGradient>
    </defs>
    <g id="Page-1" stroke="none" stroke-width="1" fill="none" fill-rule="evenodd">
        <g id="telegram-copy-2" transform="translate(4.000000, 2.000000)">
            <g id="Polygon">
                <use fill="black" fill-opacity="1" filter="url(#filter-2)" xlink:href="#path-1"></use>
                <use fill="#FFFFFF" fill-rule="evenodd" xlink:href="#path-1"></use>
            </g>
            <g id="Telegram_logo" transform="translate(18.000000, 26.000000)" fill-rule="nonzero">
                <circle id="Oval" fill="url(#linearGradient-3)" cx="30" cy="30" r="30"></circle>
                <path d="M24.5,43.75 C23.5281,43.75 23.69325,43.383025 23.35805,42.457625 L20.5,33.051475 L42.5,20" id="Shape" fill="#C8DAEA"></path>
                <path d="M24.5,43.75 C25.25,43.75 25.581375,43.407 26,43 L30,39.1105 L25.0105,36.10175" id="Shape" fill="#A9C9DD"></path>
                <path d="M25.01,36.1025 L37.1,45.03475 C38.479625,45.795975 39.47535,45.40185 39.819,43.753875 L44.74025,20.563125 C45.2441,18.543075 43.970225,17.626875 42.6504,18.226075 L13.7529,29.368825 C11.780375,30.16 11.791875,31.260475 13.39335,31.750825 L20.8091,34.0654 L37.97735,23.23415 C38.787825,22.742675 39.531675,23.0069025 38.92115,23.54875" id="Shape" fill="url(#linearGradient-4)"></path>
            </g>
        </g>
    </g>
</svg>