<?xml version="1.0" encoding="UTF-8"?>
<svg width="56px" height="60px" viewBox="0 0 56 60" version="1.1" xmlns="http://www.w3.org/2000/svg" xmlns:xlink="http://www.w3.org/1999/xlink">
    <!-- Generator: Sketch 49.2 (51160) - http://www.bohemiancoding.com/sketch -->
    <title>tensorflow</title>
    <desc>Created with Sketch.</desc>
    <defs></defs>
    <g id="Page-1" stroke="none" stroke-width="1" fill="none" fill-rule="evenodd">
        <g id="tensorflow" fill-rule="nonzero">
            <g id="Tensorflow_logo">
                <path d="M32.3097989,9.09034943 L32.3097989,18.1816395 L48.0551385,27.2729344 L48.0551385,18.1816395 L32.3097989,9.09034943 Z M0.81818178,18.1816395 L0.81818178,27.2729344 L8.69084914,31.8176438 L8.69084914,22.7272869 L0.81818178,18.1816395 Z M24.4361887,22.7272869 L16.5635213,27.2729344 L16.5635213,54.5449381 L24.4361887,59.0905855 L24.4361887,40.9089338 L32.3097989,45.4545813 L32.3097989,36.3632912 L24.4361887,31.8176438 L24.4361887,22.7272869 Z" id="path4508" fill="#E55B2D"></path>
                <path d="M32.3097989,9.09034943 L8.69084914,22.7272869 L8.69084914,31.8176438 L24.4361887,22.7272869 L24.4361887,31.8176438 L32.3097989,27.2729344 L32.3097989,9.09034943 Z M55.9287439,13.6359969 L48.0551385,18.1816395 L48.0551385,27.2729344 L55.9287439,22.7272869 L55.9287439,13.6359969 Z M40.1824663,31.8176438 L32.3097989,36.3632912 L32.3097989,45.4545813 L40.1824663,40.9089338 L40.1824663,31.8176438 Z M32.3097989,45.4545813 L24.4361887,40.9089338 L24.4361887,59.0905855 L32.3097989,54.5449381 L32.3097989,45.4545813 Z" id="path4491" fill="#ED8E24"></path>
                <path d="M32.3097989,-7.38773674e-06 L0.81818178,18.1816395 L8.69084914,22.7272869 L32.3097989,9.09034943 L48.0551385,18.1816395 L55.9287439,13.6359969 L32.3097989,-7.38773674e-06 Z M32.3097989,27.2729344 L24.4361887,31.8176438 L32.3097989,36.3632912 L40.1824663,31.8176438 L32.3097989,27.2729344 Z" id="path4506" fill="#F8BF3C"></path>
            </g>
        </g>
    </g>
</svg>