<?xml version="1.0" encoding="UTF-8" standalone="no"?>
<svg width="104px" height="119px" viewBox="0 0 104 119" version="1.1" xmlns="http://www.w3.org/2000/svg" xmlns:xlink="http://www.w3.org/1999/xlink">
    <!-- Generator: Sketch 46.2 (44496) - http://www.bohemiancoding.com/sketch -->
    <title>tensorflow</title>
    <desc>Created with Sketch.</desc>
    <defs>
        <polygon id="path-1" points="48 0 96 27.75 96 83.25 48 111 -3.55271368e-14 83.25 -6.66133815e-14 27.75"></polygon>
        <filter x="-7.3%" y="-4.5%" width="114.6%" height="112.6%" filterUnits="objectBoundingBox" id="filter-2">
            <feOffset dx="0" dy="2" in="SourceAlpha" result="shadowOffsetOuter1"></feOffset>
            <feGaussianBlur stdDeviation="2" in="shadowOffsetOuter1" result="shadowBlurOuter1"></feGaussianBlur>
            <feColorMatrix values="0 0 0 0 0   0 0 0 0 0   0 0 0 0 0  0 0 0 0.2 0" type="matrix" in="shadowBlurOuter1"></feColorMatrix>
        </filter>
    </defs>
    <g id="Page-1" stroke="none" stroke-width="1" fill="none" fill-rule="evenodd">
        <g id="DesktopHD_Round7_algoDev-Copy" transform="translate(-628.000000, -1220.000000)">
            <g id="languages" transform="translate(390.000000, 829.000000)">
                <g id="tensorflow" transform="translate(242.000000, 393.000000)">
                    <g id="Polygon">
                        <use fill="black" fill-opacity="1" filter="url(#filter-2)" xlink:href="#path-1"></use>
                        <use fill="#FFFFFF" fill-rule="evenodd" xlink:href="#path-1"></use>
                    </g>
                    <g id="Tensorflow_logo" transform="translate(18.000000, 26.000000)" fill-rule="nonzero">
                        <path d="M33.3097989,9.09034943 L33.3097989,18.1816395 L49.0551385,27.2729344 L49.0551385,18.1816395 L33.3097989,9.09034943 Z M1.81818178,18.1816395 L1.81818178,27.2729344 L9.69084914,31.8176438 L9.69084914,22.7272869 L1.81818178,18.1816395 Z M25.4361887,22.7272869 L17.5635213,27.2729344 L17.5635213,54.5449381 L25.4361887,59.0905855 L25.4361887,40.9089338 L33.3097989,45.4545813 L33.3097989,36.3632912 L25.4361887,31.8176438 L25.4361887,22.7272869 Z" id="path4508" fill="#E55B2D"></path>
                        <path d="M33.3097989,9.09034943 L9.69084914,22.7272869 L9.69084914,31.8176438 L25.4361887,22.7272869 L25.4361887,31.8176438 L33.3097989,27.2729344 L33.3097989,9.09034943 Z M56.9287439,13.6359969 L49.0551385,18.1816395 L49.0551385,27.2729344 L56.9287439,22.7272869 L56.9287439,13.6359969 Z M41.1824663,31.8176438 L33.3097989,36.3632912 L33.3097989,45.4545813 L41.1824663,40.9089338 L41.1824663,31.8176438 Z M33.3097989,45.4545813 L25.4361887,40.9089338 L25.4361887,59.0905855 L33.3097989,54.5449381 L33.3097989,45.4545813 Z" id="path4491" fill="#ED8E24"></path>
                        <path d="M33.3097989,-7.38773674e-06 L1.81818178,18.1816395 L9.69084914,22.7272869 L33.3097989,9.09034943 L49.0551385,18.1816395 L56.9287439,13.6359969 L33.3097989,-7.38773674e-06 Z M33.3097989,27.2729344 L25.4361887,31.8176438 L33.3097989,36.3632912 L41.1824663,31.8176438 L33.3097989,27.2729344 Z" id="path4506" fill="#F8BF3C"></path>
                    </g>
                </g>
            </g>
        </g>
    </g>
</svg>