<?xml version="1.0" encoding="UTF-8" standalone="no"?>
<svg width="104px" height="119px" viewBox="0 0 104 119" version="1.1" xmlns="http://www.w3.org/2000/svg" xmlns:xlink="http://www.w3.org/1999/xlink">
    <!-- Generator: Sketch 46.2 (44496) - http://www.bohemiancoding.com/sketch -->
    <title>theano</title>
    <desc>Created with Sketch.</desc>
    <defs>
        <polygon id="path-1" points="48 0 96 27.75 96 83.25 48 111 -3.55271368e-14 83.25 -6.66133815e-14 27.75"></polygon>
        <filter x="-7.3%" y="-4.5%" width="114.6%" height="112.6%" filterUnits="objectBoundingBox" id="filter-2">
            <feOffset dx="0" dy="2" in="SourceAlpha" result="shadowOffsetOuter1"></feOffset>
            <feGaussianBlur stdDeviation="2" in="shadowOffsetOuter1" result="shadowBlurOuter1"></feGaussianBlur>
            <feColorMatrix values="0 0 0 0 0   0 0 0 0 0   0 0 0 0 0  0 0 0 0.2 0" type="matrix" in="shadowBlurOuter1"></feColorMatrix>
        </filter>
    </defs>
    <g id="Page-1" stroke="none" stroke-width="1" fill="none" fill-rule="evenodd">
        <g id="DesktopHD_Round7_algoDev-Copy" transform="translate(-724.000000, -1472.000000)">
            <g id="languages" transform="translate(390.000000, 829.000000)">
                <g id="theano" transform="translate(338.000000, 645.000000)">
                    <g id="Polygon">
                        <use fill="black" fill-opacity="1" filter="url(#filter-2)" xlink:href="#path-1"></use>
                        <use fill="#FFFFFF" fill-rule="evenodd" xlink:href="#path-1"></use>
                    </g>
                    <g transform="translate(8.000000, 46.000000)" id="Shape" stroke="#FFFFFF" stroke-width="0.5" fill="#11557C" fill-rule="nonzero">
                        <path d="M5.42275449,1.29296104 L5.42275449,4.77771429 L10.1159281,4.77771429 L10.1159281,6.34464935 L5.42275449,6.34464935 L5.42275449,13.006987 C5.42275449,13.9128312 5.5988024,14.5447013 5.95041916,14.9025974 C6.30227545,15.2604935 6.91616766,15.4395584 7.79185629,15.4395584 L10.1159281,15.4395584 L10.1159281,17.0504416 L7.5897006,17.0504416 C6.04023952,17.0504416 4.94754491,16.7472468 4.31137725,16.1408571 C3.67497006,15.5344675 3.35688623,14.4897662 3.35688623,13.006987 L3.35688623,6.34464935 L0,6.34464935 L0,4.77771429 L3.35688623,4.77771429 L3.35688623,1.29296104 L5.42275449,1.29296104 Z M24.1616766,9.44555844 L24.1616766,17.0502078 L22.0845509,17.0502078 L22.0845509,9.44555844 C22.0845509,8.34264935 21.8862275,7.53171429 21.4893413,7.01298701 C21.0926946,6.49425974 20.4713772,6.23501299 19.6256287,6.23501299 C18.6601198,6.23501299 17.9152096,6.57093506 17.3913772,7.24301299 C16.8749701,7.90784416 16.6167665,8.86488312 16.6167665,10.1141299 L16.6167665,17.0502078 L14.5508982,17.0502078 L14.5508982,0 L16.6167665,0 L16.6167665,6.61838961 C16.9834731,5.91709091 17.4811976,5.38761039 18.1099401,5.02971429 C18.7386826,4.66433766 19.4833533,4.48176623 20.3441916,4.48176623 C21.6241916,4.48176623 22.5784431,4.8945974 23.2071856,5.72002597 C23.8433533,6.53820779 24.1616766,7.77997403 24.1616766,9.44555844 Z M47.9077844,10.8811169 L47.222994,10.8811169 C46.0179641,10.8811169 45.108503,11.0894026 44.4946108,11.5057403 C43.8883832,11.9148312 43.5851497,12.5284675 43.5851497,13.3466494 C43.5851497,14.0844156 43.8134132,14.6578442 44.2701796,15.0669351 C44.7267066,15.476026 45.3592814,15.6805714 46.1676647,15.6805714 C47.3053892,15.6805714 48.1997605,15.2971948 48.851018,14.529974 C49.5020359,13.7557403 49.8313772,12.6890649 49.8390419,11.3304156 L49.8390419,10.8811169 L47.9077844,10.8811169 L47.9077844,10.8811169 Z M51.9161677,10.0482078 L51.9161677,17.0504416 L49.8390419,17.0504416 L49.8390419,15.2312727 C49.3973653,15.9617922 48.8397605,16.5024935 48.165988,16.8531429 C47.4998802,17.1965455 46.6876647,17.3681299 45.7295808,17.3681299 C44.4498204,17.3681299 43.428024,17.0174805 42.6646707,16.3161818 C41.9010778,15.6076364 41.5192814,14.6615844 41.5192814,13.478026 C41.5192814,12.1121299 41.9870659,11.0746753 42.9228743,10.3661299 C43.8658683,9.65758442 45.2469461,9.30319481 47.0658683,9.30319481 L49.8390419,9.30319481 L49.8390419,8.98550649 C49.8313772,8.00649351 49.577006,7.29794805 49.0754491,6.85963636 C48.5738922,6.41407792 47.7731737,6.19106494 46.6728144,6.19106494 C45.9691018,6.19106494 45.2582036,6.28971429 44.5396407,6.48701299 C43.8210778,6.68431169 43.1211976,6.97277922 42.44,7.35264935 L42.44,5.33641558 C43.2035928,5.05145455 43.9331737,4.83966234 44.6294611,4.70080519 C45.3329341,4.5547013 46.0141317,4.48176623 46.6728144,4.48176623 C47.7132934,4.48176623 48.6002395,4.63161039 49.3336527,4.93106494 C50.0747305,5.23051948 50.6735329,5.67981818 51.1300599,6.27872727 C51.4146108,6.6441039 51.6167665,7.09690909 51.7365269,7.63761039 C51.8562874,8.17083117 51.9161677,8.97451948 51.9161677,10.0482078 L51.9161677,10.0482078 Z M65.6586826,9.44555844 L65.6586826,17.0502078 L63.5815569,17.0502078 L63.5815569,9.44555844 C63.5815569,8.34264935 63.3832335,7.53171429 62.9863473,7.01298701 C62.5897006,6.49425974 61.9683832,6.23501299 61.1226347,6.23501299 C60.1571257,6.23501299 59.4122156,6.57093506 58.8883832,7.24301299 C58.371976,7.90784416 58.1137725,8.86488312 58.1137725,10.1141299 L58.1137725,17.0502078 L56.0479042,17.0502078 L56.0479042,4.77748052 L58.1137725,4.77748052 L58.1137725,6.61838961 C58.480479,5.91709091 58.9782036,5.38761039 59.6069461,5.02971429 C60.2356886,4.66433766 60.9803593,4.48176623 61.8411976,4.48176623 C63.1211976,4.48176623 64.0754491,4.8945974 64.7041916,5.72002597 C65.3403593,6.53820779 65.6586826,7.77997403 65.6586826,9.44555844 L65.6586826,9.44555844 Z M74.6069461,6.19106494 C73.5590419,6.19106494 72.765509,6.5894026 72.2265868,7.38561039 C71.6876647,8.18181818 71.4182036,9.36163636 71.4182036,10.9248312 C71.4182036,12.481013 71.6876647,13.6608312 72.2265868,14.4642857 C72.765509,15.2604935 73.5590419,15.6585974 74.6069461,15.6585974 C75.6622754,15.6585974 76.4594012,15.2604935 76.9983234,14.4642857 C77.5372455,13.6608312 77.8067066,12.481013 77.8067066,10.9248312 C77.8067066,9.36163636 77.5372455,8.18181818 76.9983234,7.38561039 C76.4594012,6.5894026 75.6622754,6.19106494 74.6069461,6.19106494 Z M74.6069461,4.48176623 C76.3508982,4.48176623 77.6833533,5.03322078 78.6038323,6.13636364 C79.531976,7.23950649 79.9961677,8.83566234 79.9961677,10.9248312 C79.9961677,13.0214805 79.5358084,14.6213766 78.6150898,15.7245195 C77.6946108,16.8201818 76.3583234,17.3681299 74.6069461,17.3681299 C72.862994,17.3681299 71.5305389,16.8201818 70.6098204,15.7245195 C69.6893413,14.6213766 69.228982,13.0214805 69.228982,10.9248312 C69.228982,8.83566234 69.6893413,7.23950649 70.6098204,6.13636364 C71.5305389,5.03322078 72.862994,4.48176623 74.6069461,4.48176623 Z"></path>
                        <path d="M32.1647904,17.7019481 C30.5017964,17.3865974 29.5291018,16.9534286 28.5923353,15.6436364 C27.9123353,14.6929091 27.8031138,13.914 27.7901796,12.5745195 C27.7839521,11.9347013 27.8026347,11.7958442 27.9362874,11.480026 L28.0895808,11.1183896 L28.2720958,11.5045714 C28.4821557,11.9487273 28.6876647,12.2626753 28.8227545,12.3456623 C28.902994,12.3952208 28.9240719,12.2918961 28.9674251,11.6340779 C28.9952096,11.210961 29.0366467,10.7438961 29.0594012,10.5961558 C29.1008383,10.3282597 29.1017964,10.3270909 29.4637126,10.1929091 C30.1532934,9.93693506 31.4359281,9.90420779 33.7461078,10.0837403 C34.8050299,10.1662597 37.0840719,10.2116104 37.325988,10.0070649 C37.5767665,9.79480519 37.6071856,9.69802597 37.5279042,9.11641558 C37.4342515,8.42961039 37.5336527,8.27392208 37.2356886,7.70072727 C36.4632335,6.21444156 35.1817964,5.5814026 33.4869461,5.57719481 C31.9602395,5.57345455 30.7358084,6.1185974 29.9954491,7.33231169 C29.3441916,8.40015584 29.0538922,9.54467532 28.8821557,11.7196364 L28.834012,12.3302338 L28.6891018,12.1268571 C27.9947305,11.1536883 27.5643114,9.45444156 27.862994,8.16148052 C28.0941317,7.16025974 28.5662275,6.29041558 29.3324551,5.454 C29.9937725,4.7318961 31.0821557,4.31719481 32.3873054,4.07407792 C33.2277844,3.91768831 33.8028743,3.91768831 34.6435928,4.07407792 C35.9487425,4.31719481 36.8946108,4.78145455 37.5559281,5.50355844 C38.314012,6.33109091 38.7935329,7.20864935 39.017006,8.17784416 C39.1679042,8.83215584 39.1923353,9.82425974 39.0653892,10.1375065 C38.9542515,10.4119481 38.1346108,11.3051688 38.1070659,11.1817403 C38.0955689,11.1312468 38.1192814,11.0440519 38.159521,10.9884156 C38.2723353,10.832026 38.1702994,10.7677403 37.9988024,10.8871948 C37.8656287,10.98 37.8423952,10.9825714 37.7647904,10.9131429 C37.6009581,10.767039 37.5408383,10.9187532 37.691018,11.098987 C37.8646707,11.3075065 37.8677844,11.3776364 37.7032335,11.3776364 C37.6328144,11.3776364 37.5590419,11.3972727 37.5394012,11.4208831 C37.382515,11.6088312 34.9513772,11.6532468 33.0213174,11.5031688 C31.594012,11.3921299 30.4591617,11.415974 30.1937725,11.5620779 C29.9753293,11.6824675 29.685988,12.1079221 29.5882635,12.4522597 C29.4955689,12.7797662 29.5492216,13.773039 29.6814371,14.1716104 C29.8148503,14.5736883 30.2876647,15.1595065 30.7810778,15.5337662 C32.1602395,16.5801039 34.4371257,16.592026 35.8239521,15.5604156 C36.5211976,15.0416883 37.0840719,14.2083117 36.9188024,13.9392468 C36.8771257,13.8712208 36.8428743,13.7386753 36.8428743,13.6449351 C36.8428743,13.4742857 37.0428743,13.1222338 37.1738922,13.0621558 C37.3588024,12.9775325 37.5674251,12.639974 37.5674251,12.4256104 C37.5674251,12.1775844 37.6572455,12.0127792 37.7923353,12.0127792 C38.0023952,12.0127792 37.977485,11.376 37.7566467,11.1031948 C37.5870659,10.8937403 37.6023952,10.8504935 37.7980838,10.987013 C37.9245509,11.0749091 37.9628743,11.084026 37.9628743,11.0258182 C37.9628743,10.9842078 38.0129341,10.9199221 38.074012,10.882987 C38.1734132,10.8231429 38.1786826,10.8264156 38.1233533,10.9136104 C38.0895808,10.9673766 38.0704192,11.2287273 38.0809581,11.4945195 C38.0984431,11.9325974 38.114491,11.9856623 38.2531737,12.0667792 C38.3779641,12.1394805 38.4124551,12.2166234 38.4407186,12.4873247 C38.4649102,12.7203896 38.5384431,12.9172208 38.6883832,13.1514545 C38.8617964,13.4221558 38.8953293,13.525013 38.868024,13.7040779 C38.8493413,13.8277403 38.7765269,13.9705714 38.7017964,14.0306494 C38.5365269,14.1634286 37.8677844,15.0220519 37.8002395,15.1877922 C37.6780838,15.4884156 37.2673054,16.1191169 36.9992814,16.4181039 C36.5849102,16.8802597 36.137485,17.157974 35.3647904,17.4331169 C34.2100599,17.8443117 33.3123353,17.9195844 32.1647904,17.7019481 L32.1647904,17.7019481 Z"></path>
                    </g>
                </g>
            </g>
        </g>
    </g>
</svg>