<?xml version="1.0" encoding="UTF-8"?>
<svg width="162px" height="38px" viewBox="0 0 162 38" version="1.1" xmlns="http://www.w3.org/2000/svg" xmlns:xlink="http://www.w3.org/1999/xlink">
    <!-- Generator: Sketch 49.2 (51160) - http://www.bohemiancoding.com/sketch -->
    <title>theano</title>
    <desc>Created with Sketch.</desc>
    <defs></defs>
    <g id="Page-1" stroke="none" stroke-width="1" fill="none" fill-rule="evenodd">
        <g id="theano" transform="translate(1.000000, 1.000000)" fill="#11557C" fill-rule="nonzero" stroke="#FFFFFF">
            <g id="Shape">
                <path d="M10.845509,2.58592208 L10.845509,9.55542858 L20.2318562,9.55542858 L20.2318562,12.6892987 L10.845509,12.6892987 L10.845509,26.013974 C10.845509,27.8256624 11.1976048,29.0894026 11.9008383,29.8051948 C12.6045509,30.520987 13.8323353,30.8791168 15.5837126,30.8791168 L20.2318562,30.8791168 L20.2318562,34.1008832 L15.1794012,34.1008832 C12.080479,34.1008832 9.89508982,33.4944936 8.6227545,32.2817142 C7.34994012,31.068935 6.71377246,28.9795324 6.71377246,26.013974 L6.71377246,12.6892987 L0,12.6892987 L0,9.55542858 L6.71377246,9.55542858 L6.71377246,2.58592208 L10.845509,2.58592208 Z M48.3233532,18.8911169 L48.3233532,34.1004156 L44.1691018,34.1004156 L44.1691018,18.8911169 C44.1691018,16.6852987 43.772455,15.0634286 42.9786826,14.025974 C42.1853892,12.9885195 40.9427544,12.470026 39.2512574,12.470026 C37.3202396,12.470026 35.8304192,13.1418701 34.7827544,14.486026 C33.7499402,15.8156883 33.233533,17.7297662 33.233533,20.2282598 L33.233533,34.1004156 L29.1017964,34.1004156 L29.1017964,0 L33.233533,0 L33.233533,13.2367792 C33.9669462,11.8341818 34.9623952,10.7752208 36.2198802,10.0594286 C37.4773652,9.32867532 38.9667066,8.96353246 40.6883832,8.96353246 C43.2483832,8.96353246 45.1568862,9.7891948 46.4143712,11.4400519 C47.6867066,13.0764156 48.3233532,15.5599481 48.3233532,18.8911169 Z M95.8155688,21.7622338 L94.445988,21.7622338 C92.0359282,21.7622338 90.217006,22.1788052 88.9892216,23.0114806 C87.7767664,23.8296624 87.1702994,25.056935 87.1702994,26.6932988 C87.1702994,28.1688312 87.6268264,29.3156884 88.5403592,30.1338702 C89.4534132,30.952052 90.7185628,31.3611428 92.3353294,31.3611428 C94.6107784,31.3611428 96.399521,30.5943896 97.702036,29.059948 C99.0040718,27.5114806 99.6627544,25.3781298 99.6780838,22.6608312 L99.6780838,21.7622338 L95.8155688,21.7622338 Z M103.832335,20.0964156 L103.832335,34.1008832 L99.6780838,34.1008832 L99.6780838,30.4625454 C98.7947306,31.9235844 97.679521,33.004987 96.331976,33.7062858 C94.9997604,34.393091 93.3753294,34.7362598 91.4591616,34.7362598 C88.8996408,34.7362598 86.856048,34.034961 85.3293414,32.6323636 C83.8021556,31.2152728 83.0385628,29.3231688 83.0385628,26.956052 C83.0385628,24.2242598 83.9741318,22.1493506 85.8457486,20.7322598 C87.7317366,19.3151688 90.4938922,18.6063896 94.1317366,18.6063896 L99.6780838,18.6063896 L99.6780838,17.971013 C99.6627544,16.012987 99.154012,14.5958961 98.1508982,13.7192727 C97.1477844,12.8281558 95.5463474,12.3821299 93.3456288,12.3821299 C91.9382036,12.3821299 90.5164072,12.5794286 89.0792814,12.974026 C87.6421556,13.3686234 86.2423952,13.9455584 84.88,14.7052987 L84.88,10.6728312 C86.4071856,10.1029091 87.8663474,9.67932468 89.2589222,9.40161038 C90.6658682,9.1094026 92.0282634,8.96353246 93.3456288,8.96353246 C95.4265868,8.96353246 97.200479,9.26322078 98.6673054,9.86212988 C100.149461,10.461039 101.347066,11.3596364 102.26012,12.5574545 C102.829222,13.2882078 103.233533,14.1938182 103.473054,15.2752208 C103.712575,16.3416623 103.832335,17.949039 103.832335,20.0964156 Z M131.317365,18.8911169 L131.317365,34.1004156 L127.163114,34.1004156 L127.163114,18.8911169 C127.163114,16.6852987 126.766467,15.0634286 125.972695,14.025974 C125.179401,12.9885195 123.936766,12.470026 122.245269,12.470026 C120.314251,12.470026 118.824431,13.1418701 117.776766,14.486026 C116.743952,15.8156883 116.227545,17.7297662 116.227545,20.2282598 L116.227545,34.1004156 L112.095808,34.1004156 L112.095808,9.55496104 L116.227545,9.55496104 L116.227545,13.2367792 C116.960958,11.8341818 117.956407,10.7752208 119.213892,10.0594286 C120.471377,9.32867532 121.960719,8.96353246 123.682395,8.96353246 C126.242395,8.96353246 128.150898,9.7891948 129.408383,11.4400519 C130.680719,13.0764156 131.317365,15.5599481 131.317365,18.8911169 Z M149.213892,12.3821299 C147.118084,12.3821299 145.531018,13.1788052 144.453174,14.7712208 C143.375329,16.3636364 142.836407,18.7232727 142.836407,21.8496624 C142.836407,24.962026 143.375329,27.3216624 144.453174,28.9285714 C145.531018,30.520987 147.118084,31.3171948 149.213892,31.3171948 C151.324551,31.3171948 152.918802,30.520987 153.996647,28.9285714 C155.074491,27.3216624 155.613413,24.962026 155.613413,21.8496624 C155.613413,18.7232727 155.074491,16.3636364 153.996647,14.7712208 C152.918802,13.1788052 151.324551,12.3821299 149.213892,12.3821299 Z M149.213892,8.96353246 C152.701796,8.96353246 155.366707,10.0664416 157.207665,12.2727273 C159.063952,14.479013 159.992335,17.6713247 159.992335,21.8496624 C159.992335,26.042961 159.071617,29.2427532 157.23018,31.449039 C155.389222,33.6403636 152.716647,34.7362598 149.213892,34.7362598 C145.725988,34.7362598 143.061078,33.6403636 141.219641,31.449039 C139.378683,29.2427532 138.457964,26.042961 138.457964,21.8496624 C138.457964,17.6713247 139.378683,14.479013 141.219641,12.2727273 C143.061078,10.0664416 145.725988,8.96353246 149.213892,8.96353246 Z"></path>
                <path d="M64.3295808,35.4038962 C61.0035928,34.7731948 59.0582036,33.9068572 57.1846706,31.2872728 C55.8246706,29.3858182 55.6062276,27.828 55.5803592,25.149039 C55.5679042,23.8694026 55.6052694,23.5916884 55.8725748,22.960052 L56.1791616,22.2367792 L56.5441916,23.0091428 C56.9643114,23.8974546 57.3753294,24.5253506 57.645509,24.6913246 C57.805988,24.7904416 57.8481438,24.5837922 57.9348502,23.2681558 C57.9904192,22.421922 58.0732934,21.4877922 58.1188024,21.1923116 C58.2016766,20.6565194 58.2035928,20.6541818 58.9274252,20.3858182 C60.3065868,19.8738701 62.8718562,19.8084156 67.4922156,20.1674806 C69.6100598,20.3325194 74.1681438,20.4232208 74.651976,20.0141298 C75.153533,19.5896104 75.2143712,19.3960519 75.0558084,18.2328312 C74.868503,16.8592208 75.0673054,16.5478442 74.4713772,15.4014545 C72.926467,12.4288831 70.3635928,11.1628052 66.9738922,11.1543896 C63.920479,11.1469091 61.4716168,12.2371948 59.9908982,14.6646234 C58.6883832,16.8003117 58.1077844,19.0893506 57.7643114,23.4392728 L57.668024,24.6604676 L57.3782036,24.2537142 C55.989461,22.3073766 55.1286228,18.9088831 55.725988,16.322961 C56.1882634,14.3205195 57.132455,12.5808312 58.6649102,10.908 C59.987545,9.4637922 62.1643114,8.63438962 64.7746108,8.14815584 C66.4555688,7.83537662 67.6057486,7.83537662 69.2871856,8.14815584 C71.897485,8.63438962 73.7892216,9.5629091 75.1118562,11.0071169 C76.628024,12.6621818 77.5870658,14.4172987 78.034012,16.3556883 C78.3358084,17.6643117 78.3846706,19.6485195 78.1307784,20.275013 C77.908503,20.8238962 76.2692216,22.6103376 76.2141318,22.3634806 C76.1911378,22.2624936 76.2385628,22.0881038 76.319042,21.9768312 C76.5446706,21.664052 76.3405988,21.5354806 75.9976048,21.7743896 C75.7312574,21.96 75.6847904,21.9651428 75.5295808,21.8262858 C75.2019162,21.534078 75.0816766,21.8375064 75.382036,22.197974 C75.7293414,22.615013 75.7355688,22.7552728 75.406467,22.7552728 C75.2656288,22.7552728 75.1180838,22.7945454 75.0788024,22.8417662 C74.76503,23.2176624 69.9027544,23.3064936 66.0426348,23.0063376 C63.188024,22.7842598 60.9183234,22.831948 60.387545,23.1241558 C59.9506586,23.364935 59.371976,24.2158442 59.176527,24.9045194 C58.9911378,25.5595324 59.0984432,27.546078 59.3628742,28.3432208 C59.6297006,29.1473766 60.5753294,30.319013 61.5621556,31.0675324 C64.320479,33.1602078 68.8742514,33.184052 71.6479042,31.1208312 C73.0423952,30.0833766 74.1681438,28.4166234 73.8376048,27.8784936 C73.7542514,27.7424416 73.6857486,27.4773506 73.6857486,27.2898702 C73.6857486,26.9485714 74.0857486,26.2444676 74.3477844,26.1243116 C74.7176048,25.955065 75.1348502,25.279948 75.1348502,24.8512208 C75.1348502,24.3551688 75.314491,24.0255584 75.5846706,24.0255584 C76.0047904,24.0255584 75.95497,22.752 75.5132934,22.2063896 C75.1741318,21.7874806 75.2047904,21.700987 75.5961676,21.974026 C75.8491018,22.1498182 75.9257486,22.168052 75.9257486,22.0516364 C75.9257486,21.9684156 76.0258682,21.8398442 76.148024,21.765974 C76.3468264,21.6462858 76.3573652,21.6528312 76.2467066,21.8272208 C76.1791616,21.9347532 76.1408384,22.4574546 76.1619162,22.989039 C76.1968862,23.8651948 76.228982,23.9713246 76.5063474,24.1335584 C76.7559282,24.278961 76.8249102,24.4332468 76.8814372,24.9746494 C76.9298204,25.4407792 77.0768862,25.8344416 77.3767664,26.302909 C77.7235928,26.8443116 77.7906586,27.050026 77.736048,27.4081558 C77.6986826,27.6554806 77.5530538,27.9411428 77.4035928,28.0612988 C77.0730538,28.3268572 75.7355688,30.0441038 75.600479,30.3755844 C75.3561676,30.9768312 74.5346108,32.2382338 73.9985628,32.8362078 C73.1698204,33.7605194 72.27497,34.315948 70.7295808,34.8662338 C68.4201198,35.6886234 66.6246706,35.8391688 64.3295808,35.4038962 Z"></path>
            </g>
        </g>
    </g>
</svg>