<?xml version="1.0" encoding="UTF-8"?>
<svg viewBox="0 0 1109 901" xmlns="http://www.w3.org/2000/svg">
 <g fill-rule="evenodd" stroke-width=".5">
  <path d="m741 0.2v-0.2h52l19 3.8q19 3.7 34.5 9.7t30 14 26.3 16.3q11.7 8.2 21 17.4 9.2 9.3 28.7 4.8t42-12.5 44.5-18 26.8-12.7q4.7-2.8 5-3l0.2-0.3 1-0.5 1-0.5 1-0.5 1-0.5 0.2-0.3 0.3-0.2 0.3-0.2 0.2-0.3 1-0.3 1-0.2-0.2 1.5-0.3 1.5-0.5 1.5-0.5 1.5-0.5 1-0.5 1-0.5 1.5q-0.5 1.5-1 4t-9.5 20-22.5 35.5-24.2 27.2q-10.8 9.3-14.3 13-3.5 3.8-8.5 7l-5 3.3-1 0.5-1 0.5-0.2 0.3-0.3 0.2-0.3 0.2-0.2 0.3-1 0.5-1 0.5-0.2 0.3-0.3 0.2-0.3 0.2-0.2 0.3-0.2 0.3-0.3 0.2-0.3 0.2-0.2 0.3h5l28-6q28-6 53.5-14.5t27-9 3-1l1.5-0.5 1-0.5 1-0.5 1-0.5 1-0.5 2-0.3 2-0.2v2l-0.5 0.2-0.5 0.3-0.2 0.3-0.3 0.2-0.3 0.2-0.2 0.3-0.2 0.3-0.3 0.2-0.3 0.2-0.2 0.3-0.2 0.3-0.3 0.2-0.5 1-0.5 1-0.3 0.2q-0.2 0.3-12.7 17-12.5 16.8-13.5 17-1 0.3-2.8 3-1.7 2.8-21.2 22.3t-38.2 34.7q-18.8 15.3-19 37.6-0.3 22.2-2.3 50.2t-7.5 60.5-17 73.5-28 80-34.5 70-33 52.5-30.5 40.5-39.2 42.8q-23.8 23.7-26 26-2.3 2.2-19.6 16.4-17.2 14.3-37 28.6-19.7 14.2-36.2 23.7t-39.8 21.7q-23.2 12.3-50.2 22.8t-57 19.5-58 14-63.5 8.5l-35.5 3.5v0.5h-65v-0.5l-8.5-0.5q-8.5-0.5-14-1t-41.5-5.5-56.5-10-61-19-69.3-28.3q-28.7-14.2-36-18-7.2-3.7-16.2-9.2l-9-5.5-0.2-0.3-0.3-0.2-0.3-0.2-0.2-0.3-1-0.5-1-0.5-0.2-0.3-0.3-0.2-0.3-0.2-0.2-0.3-0.2-0.3-0.3-0.2h-0.5v-2l1 0.2 1 0.3 4.5 0.5q4.5 0.5 24.5 1.5t42.5 0 46-4.5 55.5-12 58.8-20.2q26.7-11.8 38-17.6 11.2-5.7 34.2-21.2l23-15.5 0.2-0.3 0.3-0.2 0.3-0.2 0.2-0.3 0.2-0.3 0.3-0.2 0.3-0.2 0.2-0.3 1-0.3 1-0.2 0.2-1 0.3-1 0.3-0.2 0.2-0.3-8-0.5q-8-0.5-15.5-1t-23.5-4.5-34.5-12-36-19-25.3-18.3q-7.7-7.2-20-20.4-12.2-13.3-21.2-27.3t-17.2-32.3l-8.3-18.2-0.5-1.5-0.5-1.5-0.3-1-0.2-1 1.5 0.2 1.5 0.3 11 1.5q11 1.5 34.5 1t32.5-2 11-2l2-0.5 2.5-0.5 2.5-0.5 0.2-0.3 0.3-0.2 0.3-0.2 0.2-0.3-2-0.5-2-0.5-2-0.5-2-0.5-2-0.5q-2-0.5-7-2t-27-11-35-18.5-24.8-19.7q-11.7-10.8-25.7-27.8t-25-39.5-16.5-43-7.2-41.5l-1.8-21 1 0.2 1 0.3 1 0.5 1 0.5 1 0.5 1 0.5 15.5 7q15.5 7 38.5 12t27.5 5.5l4.5 0.5h9l-0.2-0.3-0.3-0.2-0.3-0.2-0.2-0.3-0.2-0.3-0.3-0.2-0.3-0.2-0.2-0.3-1-0.5-1-0.5-0.2-0.3-0.3-0.2-0.3-0.2-0.2-0.3-1-0.5-1-0.5-0.2-0.3q-0.3-0.2-8.6-6.4-8.2-6.3-17.2-16.3t-18-21-16-23.5-14.8-31.8q-7.7-19.2-11.7-38.7t-4.5-38.5 1-32.5 6-30.5 13-36l8.5-19 0.5-1.5 0.5-1.5 0.3-0.2 0.2-0.3 0.2-0.3 0.3-0.2 0.3 0.2 0.2 0.3 0.2 0.3 0.3 0.2 0.3 0.2 0.2 0.3 0.2 0.3 0.3 0.2 0.5 1 0.5 1 0.3 0.2 0.2 0.3 13.5 15q13.5 15 32 33.5t20.5 19.2q2 0.8 5 4.6 3 3.7 20 17.7t44.5 32.5 61 36.5 72 32.5 54 19 53 11.5 56.5 9 26 2.3l7 0.2-0.2-1.5-0.3-1.5-2-12.5q-2-12.5-2-35t3.5-41.5 10.5-38.5 13.7-31.3q6.8-11.7 17.8-26.7t28.5-31 40-28.5 41.5-19 32-8.5 13-2.3z" fill="#5da8dc" stroke="#5da8dc"/>
  <g fill="#fff" stroke="#fff">
   <path d="m0 399v-399h741v0.2q0 0.3-13 2.3t-32 8.5-41.5 19-40 28.5-28.5 31-17.8 26.7q-6.7 11.8-13.7 31.3t-10.5 38.5-3.5 41.5 2 35l2 12.5 0.3 1.5 0.2 1.5-7-0.2q-7-0.3-26-2.3t-56.5-9-53-11.5-54-19-72-32.5-61-36.5-44.5-32.5-20-17.7q-3-3.8-5-4.6-2-0.7-20.5-19.2t-32-33.5l-13.5-15-0.2-0.3-0.3-0.2-0.5-1-0.5-1-0.3-0.2-0.2-0.3-0.2-0.3-0.3-0.2-0.3-0.2-0.2-0.3-0.2-0.3-0.3-0.2-0.3 0.2-0.2 0.3-0.2 0.3-0.3 0.2-0.5 1.5-0.5 1.5-8.5 19q-8.5 19-13 36t-6 30.5-1 32.5 4.5 38.5 11.7 38.7q7.8 19.3 14.8 31.8t16 23.5 18 21 17.2 16.3q8.3 6.2 8.6 6.4l0.2 0.3 1 0.5 1 0.5 0.2 0.3 0.3 0.2 0.3 0.2 0.2 0.3 1 0.5 1 0.5 0.2 0.3 0.3 0.2 0.3 0.2 0.2 0.3 0.2 0.3 0.3 0.2 0.3 0.2 0.2 0.3h-9l-4.5-0.5q-4.5-0.5-27.5-5.5t-38.5-12l-15.5-7-1-0.5-1-0.5-1-0.5-1-0.5-1-0.3-1-0.2 1.8 21q1.7 21 7.2 41.5t16.5 43 25 39.5 25.7 27.8q11.8 10.7 24.8 19.7t35 18.5 27 11 7 2l2 0.5 2 0.5 2 0.5 2 0.5 2 0.5-0.2 0.3-0.3 0.2-0.3 0.2-0.2 0.3-2.5 0.5-2.5 0.5-2 0.5q-2 0.5-11 2t-32.5 2-34.5-1l-11-1.5-1.5-0.3-1.5-0.2 0.2 1 0.3 1 0.5 1.5 0.5 1.5 8.3 18.2q8.2 18.3 17.2 32.3t21.2 27.3q12.3 13.2 20 20.4 7.8 7.3 25.3 18.3t36 19 34.5 12 23.5 4.5 15.5 1l8 0.5-0.2 0.3-0.3 0.2-0.3 1-0.2 1-1 0.2-1 0.3-0.2 0.3-0.3 0.2-0.3 0.2-0.2 0.3-0.2 0.3-0.3 0.2-0.3 0.2-0.2 0.3-23 15.5q-23 15.5-34.2 21.2-11.3 5.8-38 17.6-26.8 11.7-58.8 20.2t-55.5 12-46 4.5-42.5 0-24.5-1.5l-4.5-0.5-1-0.3-1-0.2v-399z"/>
   <path d="m1107.8 109.8l0.2-0.3 0.5-0.3 0.5-0.2v792h-727v-0.5l35.5-3.5q35.5-3.5 63.5-8.5t58-14 57-19.5 50.2-22.8q23.3-12.2 39.8-21.7t36.2-23.7q19.8-14.3 37-28.6 17.3-14.2 19.6-16.4 2.2-2.3 26-26 23.7-23.8 39.2-42.8t30.5-40.5 33-52.5 34.5-70 28-80 17-73.5 7.5-60.5 2.3-50.2q0.2-22.3 19-37.6 18.7-15.2 38.2-34.7t21.2-22.3q1.8-2.7 2.8-3 1-0.2 13.5-17 12.5-16.7 12.7-17l0.3-0.2 0.5-1 0.5-1 0.3-0.2 0.2-0.3 0.2-0.3 0.3-0.2 0.3-0.2 0.2-0.3 0.2-0.3 0.3-0.2 0.3-0.2z"/>
   <path d="m812 3.8l-19-3.8h316v107l-2 0.2-2 0.3-1 0.5-1 0.5-1 0.5-1 0.5-1.5 0.5q-1.5 0.5-3 1t-27 9-53.5 14.5l-28 6h-5l0.2-0.3 0.3-0.2 0.3-0.2 0.2-0.3 0.2-0.3 0.3-0.2 0.3-0.2 0.2-0.3 1-0.5 1-0.5 0.2-0.3 0.3-0.2 0.3-0.2 0.2-0.3 1-0.5 1-0.5 5-3.3q5-3.2 8.5-7 3.5-3.7 14.3-13 10.7-9.2 24.2-27.2t22.5-35.5 9.5-20 1-4l0.5-1.5 0.5-1 0.5-1 0.5-1.5 0.5-1.5 0.3-1.5 0.2-1.5-1 0.2-1 0.3-0.2 0.3-0.3 0.2-0.3 0.2-0.2 0.3-1 0.5-1 0.5-1 0.5-1 0.5-0.2 0.3q-0.3 0.2-5 3-4.8 2.7-26.8 12.7t-44.5 18-42 12.5-28.7-4.8q-9.3-9.2-21-17.4-11.8-8.3-26.3-16.3t-30-14-34.5-9.7z"/>
   <path d="m0 850.5v-50.5h0.5l0.3 0.2 0.2 0.3 0.2 0.3 0.3 0.2 0.3 0.2 0.2 0.3 1 0.5 1 0.5 0.2 0.3 0.3 0.2 0.3 0.2 0.2 0.3 9 5.5q9 5.5 16.2 9.2 7.3 3.8 36 18 28.8 14.3 69.3 28.3t61 19 56.5 10 41.5 5.5 14 1l8.5 0.5v0.5h-317v-50.5z"/>
  </g>
 </g>
</svg>
