<?xml version="1.0" encoding="UTF-8" standalone="no"?>
<!-- Created with Inkscape (http://www.inkscape.org/) -->

<svg
   xmlns:dc="http://purl.org/dc/elements/1.1/"
   xmlns:cc="http://creativecommons.org/ns#"
   xmlns:rdf="http://www.w3.org/1999/02/22-rdf-syntax-ns#"
   xmlns:svg="http://www.w3.org/2000/svg"
   xmlns="http://www.w3.org/2000/svg"
   version="1.1"
   width="600"
   height="600"
   viewBox="0 0 600 600"
   id="Layer_1"
   xml:space="preserve"
   style="overflow:visible"><metadata
     id="metadata20"><rdf:RDF><cc:Work
         rdf:about=""><dc:format>image/svg+xml</dc:format><dc:type
           rdf:resource="http://purl.org/dc/dcmitype/StillImage" /><dc:title></dc:title></cc:Work></rdf:RDF></metadata><defs
     id="defs18" /><path
     d="M 300,300"
     id="path7" /><path
     d="m 300,10.00293 c 23.56445,20.075195 54.11719,32.191406 87.5,32.191406 33.38281,0 63.93555,-12.119141 87.5,-32.194336 l 115,115 c -21.16211,30.08105 -33.58789,66.75391 -33.58789,106.32617 0,28.46387 6.42676,55.42481 17.91016,79.5127 C 584.24414,331.66406 590,355.39453 590,380 590,468.36719 518.36719,540 430,540 H 404.88672 C 362.54199,540 324.75098,559.49512 300,590 275.24854,559.49512 237.45801,540 195.11328,540 H 169.99951 C 81.632813,540 9.9995117,468.36719 9.9995117,380 c 0,-24.60547 5.7563473,-48.33594 15.6787113,-69.16113 11.482422,-24.08789 17.910156,-51.04883 17.910156,-79.5127 C 43.588379,191.75391 31.161621,155.08105 10,125 L 125,10 c 23.56445,20.075195 54.1167,32.194336 87.5,32.194336 33.38281,0 63.93555,-12.116211 87.5,-32.191406 z"
     id="path11"
     style="fill:#ffffff;fill-opacity:1;fill-rule:evenodd" /><g
     id="g3886"><path
       d="M 0,50 C 0,22.385742 22.385254,0 50,0 h 500 c 27.61426,0 50,22.385742 50,50 v 500 c 0,27.61523 -22.38574,50 -50,50 H 50 C 22.385254,600 0,577.61523 0,550 V 50 l 0,0 z"
       id="path5" /><path
       d="m 300,10.00293 c 23.56445,20.075195 54.11719,32.191406 87.5,32.191406 33.38281,0 63.93555,-12.119141 87.5,-32.194336 l 115,115 c -21.16211,30.08105 -33.58789,66.75391 -33.58789,106.32617 0,28.46387 6.42676,55.42481 17.91016,79.5127 C 584.24414,331.66406 590,355.39453 590,380 590,468.36719 518.36719,540 430,540 H 404.88672 C 362.54199,540 324.75098,559.49512 300,590 275.24854,559.49512 237.45801,540 195.11328,540 H 169.99951 C 81.632813,540 9.9995117,468.36719 9.9995117,380 c 0,-24.60547 5.7563473,-48.33594 15.6787113,-69.16113 11.482422,-24.08789 17.910156,-51.04883 17.910156,-79.5127 C 43.588379,191.75391 31.161621,155.08105 10,125 L 125,10 c 23.56445,20.075195 54.1167,32.194336 87.5,32.194336 33.38281,0 63.93555,-12.116211 87.5,-32.191406 z"
       id="path13"
       style="fill:#ffffff;fill-opacity:1;fill-rule:evenodd;stroke:#000000;stroke-linecap:round;stroke-linejoin:round;stroke-miterlimit:3.863693" /></g><g
     id="text1343"
     style="font-size:447.76119995px;font-style:normal;font-variant:normal;font-weight:normal;font-stretch:normal;text-align:center;line-height:125%;writing-mode:lr-tb;text-anchor:middle;font-family:Roadgeek 2005 Series D"><path
       d="m 268.63222,351.08209 c -2.3e-4,12.83589 -2.6868,24.92543 -8.0597,36.26866 -5.07485,11.04481 -12.23902,20.74629 -21.49254,29.10447 -8.95542,8.05972 -19.70168,14.47762 -32.23881,19.25374 -12.53747,4.77611 -25.97029,7.16417 -40.2985,7.16417 -14.32848,0 -27.7613,-2.38806 -40.29851,-7.16417 -12.53739,-5.07462 -23.43291,-11.94029 -32.68657,-20.59702 -8.955273,-8.65669 -16.119445,-18.80593 -21.492537,-30.44776 -5.074659,-11.64173 -7.61197,-24.17903 -7.611941,-37.61194 -2.9e-5,-20.89541 2.686535,-41.64166 8.059702,-62.23881 5.671599,-20.59684 13.582038,-40.29831 23.731344,-59.10448 10.149182,-18.80574 22.238722,-36.11915 36.268652,-51.9403 14.32825,-16.11912 30.14913,-29.9997 47.46269,-41.64179 l 24.17911,40.29851 c -9.25389,7.16444 -17.46284,14.17936 -24.62687,21.04478 -6.86581,6.5674 -13.28371,13.43306 -19.25373,20.59701 -5.67176,7.1644 -10.89564,14.77633 -15.67164,22.83582 -4.77623,7.76139 -9.40309,16.4181 -13.8806,25.97015 8.65661,-1.49236 15.22377,-2.38788 19.70149,-2.68657 4.776,-0.29833 10.14913,-0.44758 16.11941,-0.44776 13.73119,1.8e-4 26.71626,2.38824 38.95522,7.16418 12.53713,4.77629 23.43264,11.34345 32.68657,19.7015 9.55202,8.05984 17.0147,17.76132 22.38806,29.10447 5.3729,11.04489 8.05947,22.83592 8.0597,35.37314 m -47.46269,-0.89552 c -1.8e-4,-5.67155 -1.49272,-11.19394 -4.47761,-16.56717 -2.68675,-5.37302 -6.56734,-9.99988 -11.64179,-13.8806 -4.77629,-3.88047 -10.59718,-7.0148 -17.46269,-9.40298 -6.56731,-2.38793 -13.58223,-3.58196 -21.04477,-3.58209 -7.46281,1.3e-4 -14.47773,1.19416 -21.04478,3.58209 -6.26876,2.38818 -11.9404,5.52251 -17.01493,9.40298 -4.7762,3.88072 -8.6568,8.50758 -11.64179,13.8806 -2.68664,5.37323 -4.02993,10.89562 -4.02985,16.56717 -8e-5,5.97023 1.34321,11.64186 4.02985,17.01492 2.98499,5.3732 6.86559,10.14932 11.64179,14.32836 5.07453,3.88065 10.74617,7.01497 17.01493,9.40299 6.56705,2.3881 13.58197,3.58213 21.04478,3.58208 7.46254,5e-5 14.47746,-1.19398 21.04477,-3.58208 6.56701,-2.38802 12.23864,-5.52234 17.01493,-9.40299 5.07445,-4.17904 9.1043,-8.95516 12.08955,-14.32836 2.98489,-5.37306 4.47743,-11.04469 4.47761,-17.01492"
       id="path4564" /><path
       d="m 500.07579,362.72388 0,74.77612 -47.01492,0 0,-74.77612 -148.65672,0 0,-28.20896 L 453.06087,137.5 l 47.01492,0 0,182.2388 28.65672,0 0,42.98508 -28.65672,0 m -47.01492,-155.8209 -85.52239,112.83582 85.52239,0 0,-112.83582"
       id="path4566" /></g></svg>