<?xml version="1.0" encoding="UTF-8"?>
<svg width="77px" height="15px" viewBox="0 0 77 15" version="1.1" xmlns="http://www.w3.org/2000/svg" xmlns:xlink="http://www.w3.org/1999/xlink">
    <!-- Generator: Sketch 49.2 (51160) - http://www.bohemiancoding.com/sketch -->
    <title>xgboost</title>
    <desc>Created with Sketch.</desc>
    <defs></defs>
    <g id="Page-1" stroke="none" stroke-width="1" fill="none" fill-rule="evenodd">
        <g id="xgboost" fill="#248CCA">
            <path d="M5.30486467,7.268 L1.16486467,1.148 L4.44086467,1.148 L6.96086467,5.252 L9.57086467,1.148 L12.6668647,1.148 L8.54486467,7.286 L13.0268647,14 L9.66086467,14 L6.85286467,9.554 L3.99086467,14 L0.82286467,14 L5.30486467,7.268 Z M23.4488647,12.542 C22.9448621,13.1900032 22.3868677,13.6429987 21.7748647,13.901 C21.1628616,14.1590013 20.5448678,14.288 19.9208647,14.288 C18.9368597,14.288 18.0518686,14.1170017 17.2658647,13.775 C16.4798607,13.4329983 15.8168674,12.962003 15.2768647,12.362 C14.736862,11.761997 14.3228661,11.0570041 14.0348647,10.247 C13.7468632,9.43699595 13.6028647,8.56400468 13.6028647,7.628 C13.6028647,6.6679952 13.7468632,5.77700411 14.0348647,4.955 C14.3228661,4.13299589 14.736862,3.41600306 15.2768647,2.804 C15.8168674,2.19199694 16.4798607,1.71200174 17.2658647,1.364 C18.0518686,1.01599826 18.9368597,0.842 19.9208647,0.842 C20.580868,0.842 21.2198616,0.94099901 21.8378647,1.139 C22.4558678,1.33700099 23.0138622,1.62799808 23.5118647,2.012 C24.0098672,2.39600192 24.420863,2.86999718 24.7448647,3.434 C25.0688663,3.99800282 25.2668643,4.64599634 25.3388647,5.378 L22.6388647,5.378 C22.4708638,4.6579964 22.1468671,4.1180018 21.6668647,3.758 C21.1868623,3.3979982 20.6048681,3.218 19.9208647,3.218 C19.2848615,3.218 18.7448669,3.34099877 18.3008647,3.587 C17.8568624,3.83300123 17.496866,4.16299793 17.2208647,4.577 C16.9448633,4.99100207 16.7438653,5.46199736 16.6178647,5.99 C16.491864,6.51800264 16.4288647,7.06399718 16.4288647,7.628 C16.4288647,8.1680027 16.491864,8.69299745 16.6178647,9.203 C16.7438653,9.71300255 16.9448633,10.171998 17.2208647,10.58 C17.496866,10.988002 17.8568624,11.3149988 18.3008647,11.561 C18.7448669,11.8070012 19.2848615,11.93 19.9208647,11.93 C20.8568694,11.93 21.5798621,11.6930024 22.0898647,11.219 C22.5998672,10.7449976 22.8968642,10.0580045 22.9808647,9.158 L20.1368647,9.158 L20.1368647,7.052 L25.5368647,7.052 L25.5368647,14 L23.7368647,14 L23.4488647,12.542 Z M30.6488647,6.35 L33.5108647,6.35 C34.0148672,6.35 34.4288631,6.2300012 34.7528647,5.99 C35.0768663,5.7499988 35.2388647,5.3600027 35.2388647,4.82 C35.2388647,4.5199985 35.1848652,4.27400096 35.0768647,4.082 C34.9688641,3.88999904 34.8248656,3.74000054 34.6448647,3.632 C34.4648638,3.52399946 34.2578658,3.44900021 34.0238647,3.407 C33.7898635,3.36499979 33.5468659,3.344 33.2948647,3.344 L30.6488647,3.344 L30.6488647,6.35 Z M27.8228647,1.148 L33.8708647,1.148 C34.4828677,1.148 35.0408622,1.20199946 35.5448647,1.31 C36.0488672,1.41800054 36.4808629,1.59499877 36.8408647,1.841 C37.2008665,2.08700123 37.4798637,2.41399796 37.6778647,2.822 C37.8758657,3.23000204 37.9748647,3.733997 37.9748647,4.334 C37.9748647,4.98200324 37.8278661,5.52199784 37.5338647,5.954 C37.2398632,6.38600216 36.8048676,6.73999862 36.2288647,7.016 C37.0208686,7.24400114 37.6118627,7.64299715 38.0018647,8.213 C38.3918666,8.78300285 38.5868647,9.46999598 38.5868647,10.274 C38.5868647,10.9220032 38.4608659,11.4829976 38.2088647,11.957 C37.9568634,12.4310024 37.6178668,12.8179985 37.1918647,13.118 C36.7658625,13.4180015 36.2798674,13.6399993 35.7338647,13.784 C35.1878619,13.9280007 34.6268676,14 34.0508647,14 L27.8228647,14 L27.8228647,1.148 Z M30.6488647,11.804 L33.6728647,11.804 C33.9488661,11.804 34.2128634,11.7770003 34.4648647,11.723 C34.7168659,11.6689997 34.9388637,11.5790006 35.1308647,11.453 C35.3228656,11.3269994 35.4758641,11.1560011 35.5898647,10.94 C35.7038652,10.7239989 35.7608647,10.4480017 35.7608647,10.112 C35.7608647,9.4519967 35.5748665,8.98100141 35.2028647,8.699 C34.8308628,8.41699859 34.3388677,8.276 33.7268647,8.276 L30.6488647,8.276 L30.6488647,11.804 Z M42.4928647,9.356 C42.4928647,9.72800186 42.5288643,10.0909982 42.6008647,10.445 C42.672865,10.7990018 42.7958638,11.1169986 42.9698647,11.399 C43.1438655,11.6810014 43.3748632,11.9059992 43.6628647,12.074 C43.9508661,12.2420008 44.3108625,12.326 44.7428647,12.326 C45.1748668,12.326 45.5378632,12.2420008 45.8318647,12.074 C46.1258661,11.9059992 46.3598638,11.6810014 46.5338647,11.399 C46.7078655,11.1169986 46.8308643,10.7990018 46.9028647,10.445 C46.974865,10.0909982 47.0108647,9.72800186 47.0108647,9.356 C47.0108647,8.98399814 46.974865,8.6180018 46.9028647,8.258 C46.8308643,7.8979982 46.7078655,7.58000138 46.5338647,7.304 C46.3598638,7.02799862 46.1258661,6.80300087 45.8318647,6.629 C45.5378632,6.45499913 45.1748668,6.368 44.7428647,6.368 C44.3108625,6.368 43.9508661,6.45499913 43.6628647,6.629 C43.3748632,6.80300087 43.1438655,7.02799862 42.9698647,7.304 C42.7958638,7.58000138 42.672865,7.8979982 42.6008647,8.258 C42.5288643,8.6180018 42.4928647,8.98399814 42.4928647,9.356 Z M39.9368647,9.356 C39.9368647,8.61199628 40.0508635,7.93700303 40.2788647,7.331 C40.5068658,6.72499697 40.8308626,6.20900213 41.2508647,5.783 C41.6708668,5.35699787 42.1748617,5.02700117 42.7628647,4.793 C43.3508676,4.55899883 44.010861,4.442 44.7428647,4.442 C45.4748683,4.442 46.1378617,4.55899883 46.7318647,4.793 C47.3258676,5.02700117 47.8328626,5.35699787 48.2528647,5.783 C48.6728668,6.20900213 48.9968635,6.72499697 49.2248647,7.331 C49.4528658,7.93700303 49.5668647,8.61199628 49.5668647,9.356 C49.5668647,10.1000037 49.4528658,10.771997 49.2248647,11.372 C48.9968635,11.972003 48.6728668,12.4849979 48.2528647,12.911 C47.8328626,13.3370021 47.3258676,13.6639989 46.7318647,13.892 C46.1378617,14.1200011 45.4748683,14.234 44.7428647,14.234 C44.010861,14.234 43.3508676,14.1200011 42.7628647,13.892 C42.1748617,13.6639989 41.6708668,13.3370021 41.2508647,12.911 C40.8308626,12.4849979 40.5068658,11.972003 40.2788647,11.372 C40.0508635,10.771997 39.9368647,10.1000037 39.9368647,9.356 Z M53.4908647,9.356 C53.4908647,9.72800186 53.5268643,10.0909982 53.5988647,10.445 C53.670865,10.7990018 53.7938638,11.1169986 53.9678647,11.399 C54.1418655,11.6810014 54.3728632,11.9059992 54.6608647,12.074 C54.9488661,12.2420008 55.3088625,12.326 55.7408647,12.326 C56.1728668,12.326 56.5358632,12.2420008 56.8298647,12.074 C57.1238661,11.9059992 57.3578638,11.6810014 57.5318647,11.399 C57.7058655,11.1169986 57.8288643,10.7990018 57.9008647,10.445 C57.972865,10.0909982 58.0088647,9.72800186 58.0088647,9.356 C58.0088647,8.98399814 57.972865,8.6180018 57.9008647,8.258 C57.8288643,7.8979982 57.7058655,7.58000138 57.5318647,7.304 C57.3578638,7.02799862 57.1238661,6.80300087 56.8298647,6.629 C56.5358632,6.45499913 56.1728668,6.368 55.7408647,6.368 C55.3088625,6.368 54.9488661,6.45499913 54.6608647,6.629 C54.3728632,6.80300087 54.1418655,7.02799862 53.9678647,7.304 C53.7938638,7.58000138 53.670865,7.8979982 53.5988647,8.258 C53.5268643,8.6180018 53.4908647,8.98399814 53.4908647,9.356 Z M50.9348647,9.356 C50.9348647,8.61199628 51.0488635,7.93700303 51.2768647,7.331 C51.5048658,6.72499697 51.8288626,6.20900213 52.2488647,5.783 C52.6688668,5.35699787 53.1728617,5.02700117 53.7608647,4.793 C54.3488676,4.55899883 55.008861,4.442 55.7408647,4.442 C56.4728683,4.442 57.1358617,4.55899883 57.7298647,4.793 C58.3238676,5.02700117 58.8308626,5.35699787 59.2508647,5.783 C59.6708668,6.20900213 59.9948635,6.72499697 60.2228647,7.331 C60.4508658,7.93700303 60.5648647,8.61199628 60.5648647,9.356 C60.5648647,10.1000037 60.4508658,10.771997 60.2228647,11.372 C59.9948635,11.972003 59.6708668,12.4849979 59.2508647,12.911 C58.8308626,13.3370021 58.3238676,13.6639989 57.7298647,13.892 C57.1358617,14.1200011 56.4728683,14.234 55.7408647,14.234 C55.008861,14.234 54.3488676,14.1200011 53.7608647,13.892 C53.1728617,13.6639989 52.6688668,13.3370021 52.2488647,12.911 C51.8288626,12.4849979 51.5048658,11.972003 51.2768647,11.372 C51.0488635,10.771997 50.9348647,10.1000037 50.9348647,9.356 Z M64.2008647,10.976 C64.2008647,11.2520014 64.2578641,11.488999 64.3718647,11.687 C64.4858652,11.885001 64.6328638,12.0469994 64.8128647,12.173 C64.9928656,12.2990006 65.1998635,12.3919997 65.4338647,12.452 C65.6678658,12.5120003 65.9108634,12.542 66.1628647,12.542 C66.3428656,12.542 66.5318637,12.5210002 66.7298647,12.479 C66.9278657,12.4369998 67.1078639,12.3710005 67.2698647,12.281 C67.4318655,12.1909996 67.5668641,12.0710008 67.6748647,11.921 C67.7828652,11.7709993 67.8368647,11.5820011 67.8368647,11.354 C67.8368647,10.9699981 67.5818672,10.682001 67.0718647,10.49 C66.5618621,10.297999 65.8508692,10.106001 64.9388647,9.914 C64.5668628,9.82999958 64.2038664,9.73100057 63.8498647,9.617 C63.4958629,9.50299943 63.1808661,9.35300093 62.9048647,9.167 C62.6288633,8.98099907 62.4068655,8.74700141 62.2388647,8.465 C62.0708638,8.18299859 61.9868647,7.83800204 61.9868647,7.43 C61.9868647,6.829997 62.1038635,6.33800192 62.3378647,5.954 C62.5718658,5.56999808 62.8808628,5.26700111 63.2648647,5.045 C63.6488666,4.82299889 64.0808623,4.66700045 64.5608647,4.577 C65.0408671,4.48699955 65.5328622,4.442 66.0368647,4.442 C66.5408672,4.442 67.0298623,4.48999952 67.5038647,4.586 C67.977867,4.68200048 68.4008628,4.84399886 68.7728647,5.072 C69.1448665,5.30000114 69.4538634,5.60299811 69.6998647,5.981 C69.9458659,6.35900189 70.0928644,6.83599712 70.1408647,7.412 L67.7108647,7.412 C67.6748645,6.91999754 67.4888664,6.58700087 67.1528647,6.413 C66.816863,6.23899913 66.420867,6.152 65.9648647,6.152 C65.820864,6.152 65.6648655,6.16099991 65.4968647,6.179 C65.3288638,6.19700009 65.1758654,6.2359997 65.0378647,6.296 C64.899864,6.3560003 64.7828652,6.44299943 64.6868647,6.557 C64.5908642,6.67100057 64.5428647,6.82399904 64.5428647,7.016 C64.5428647,7.24400114 64.6268638,7.42999928 64.7948647,7.574 C64.9628655,7.71800072 65.1818633,7.83499955 65.4518647,7.925 C65.721866,8.01500045 66.0308629,8.09599964 66.3788647,8.168 C66.7268664,8.24000036 67.0808629,8.31799958 67.4408647,8.402 C67.8128665,8.48600042 68.1758629,8.5879994 68.5298647,8.708 C68.8838664,8.8280006 69.1988633,8.98699901 69.4748647,9.185 C69.7508661,9.38300099 69.9728638,9.62899853 70.1408647,9.923 C70.3088655,10.2170015 70.3928647,10.5799978 70.3928647,11.012 C70.3928647,11.6240031 70.2698659,12.1369979 70.0238647,12.551 C69.7778634,12.9650021 69.4568667,13.2979987 69.0608647,13.55 C68.6648627,13.8020013 68.2118672,13.9789995 67.7018647,14.081 C67.1918621,14.1830005 66.6728673,14.234 66.1448647,14.234 C65.604862,14.234 65.0768673,14.1800005 64.5608647,14.072 C64.0448621,13.9639995 63.5858667,13.7840013 63.1838647,13.532 C62.7818627,13.2799987 62.451866,12.9470021 62.1938647,12.533 C61.9358634,12.1189979 61.7948648,11.6000031 61.7708647,10.976 L64.2008647,10.976 Z M75.1268647,4.694 L76.9988647,4.694 L76.9988647,6.404 L75.1268647,6.404 L75.1268647,11.012 C75.1268647,11.4440022 75.198864,11.7319993 75.3428647,11.876 C75.4868654,12.0200007 75.7748625,12.092 76.2068647,12.092 C76.3508654,12.092 76.488864,12.0860001 76.6208647,12.074 C76.7528653,12.0619999 76.8788641,12.0440001 76.9988647,12.02 L76.9988647,14 C76.7828636,14.0360002 76.542866,14.0599999 76.2788647,14.072 C76.0148634,14.0840001 75.7568659,14.09 75.5048647,14.09 C75.1088627,14.09 74.7338664,14.0630003 74.3798647,14.009 C74.0258629,13.9549997 73.713866,13.8500008 73.4438647,13.694 C73.1738633,13.5379992 72.9608655,13.3160014 72.8048647,13.028 C72.6488639,12.7399986 72.5708647,12.3620023 72.5708647,11.894 L72.5708647,6.404 L71.0228647,6.404 L71.0228647,4.694 L72.5708647,4.694 L72.5708647,1.904 L75.1268647,1.904 L75.1268647,4.694 Z" id="XGBoost"></path>
        </g>
    </g>
</svg>