<?xml version="1.0" encoding="UTF-8" standalone="no"?>
<svg width="1440px" height="166px" viewBox="0 0 1440 166" version="1.1" xmlns="http://www.w3.org/2000/svg" xmlns:xlink="http://www.w3.org/1999/xlink">
    <!-- Generator: Sketch 41.2 (35397) - http://www.bohemiancoding.com/sketch -->
    <title>hextex</title>
    <desc>Created with Sketch.</desc>
    <defs></defs>
    <g id="Page-1" stroke="none" stroke-width="1" fill="none" fill-rule="evenodd">
        <g id="DesktopHD_Round7_Landing" transform="translate(0.000000, -195.000000)" stroke-width="0.5" stroke="#FFFFFF">
            <g id="hero" transform="translate(0.000000, 107.000000)">
                <g id="hextex" transform="translate(0.000000, 89.000000)">
                    <g id="polygroup" opacity="0.1">
                        <g transform="translate(370.749831, 49.149847)">
                            <polygon id="Polygon" points="85.807822 49.1498471 114.189279 65.5749235 114.189279 98.4250765 85.807822 114.850153 57.426365 98.4250765 57.426365 65.5749235"></polygon>
                            <polygon id="Polygon" points="142.846258 49.1498471 171.227715 65.5749235 171.227715 98.4250765 142.846258 114.850153 114.464801 98.4250765 114.464801 65.5749235"></polygon>
                            <polygon id="Polygon" points="114.32704 0 142.708497 16.4250765 142.708497 49.2752294 114.32704 65.7003058 85.9455828 49.2752294 85.9455828 16.4250765"></polygon>
                            <polygon id="Polygon" points="57.2886042 0 85.6700611 16.4250765 85.6700611 49.2752294 57.2886042 65.7003058 28.9071472 49.2752294 28.9071472 16.4250765"></polygon>
                            <polygon id="Polygon" points="28.7693864 49.1498471 57.1508433 65.5749235 57.1508433 98.4250765 28.7693864 114.850153 0.387929434 98.4250765 0.387929434 65.5749235"></polygon>
                        </g>
                        <g transform="translate(256.672960, 98.299694)">
                            <polygon id="Polygon" points="85.807822 0 114.189279 16.4250765 114.189279 49.2752294 85.807822 65.7003058 57.426365 49.2752294 57.426365 16.4250765"></polygon>
                            <polygon id="Polygon" points="28.7693864 0 57.1508433 16.4250765 57.1508433 49.2752294 28.7693864 65.7003058 0.387929434 49.2752294 0.387929434 16.4250765"></polygon>
                        </g>
                        <g transform="translate(114.076871, 0.000000)">
                            <polygon id="Polygon" points="85.807822 49.1498471 114.189279 65.5749235 114.189279 98.4250765 85.807822 114.850153 57.426365 98.4250765 57.426365 65.5749235"></polygon>
                            <polygon id="Polygon" points="142.846258 49.1498471 171.227715 65.5749235 171.227715 98.4250765 142.846258 114.850153 114.464801 98.4250765 114.464801 65.5749235"></polygon>
                            <polygon id="Polygon" points="114.32704 0 142.708497 16.4250765 142.708497 49.2752294 114.32704 65.7003058 85.9455828 49.2752294 85.9455828 16.4250765"></polygon>
                            <polygon id="Polygon" points="57.2886042 0 85.6700611 16.4250765 85.6700611 49.2752294 57.2886042 65.7003058 28.9071472 49.2752294 28.9071472 16.4250765"></polygon>
                            <polygon id="Polygon" points="28.7693864 49.1498471 57.1508433 65.5749235 57.1508433 98.4250765 28.7693864 114.850153 0.387929434 98.4250765 0.387929434 65.5749235"></polygon>
                            <polygon id="Polygon" points="57.2886042 98.2996942 85.6700611 114.724771 85.6700611 147.574924 57.2886042 164 28.9071472 147.574924 28.9071472 114.724771"></polygon>
                            <polygon id="Polygon" points="114.32704 98.2996942 142.708497 114.724771 142.708497 147.574924 114.32704 164 85.9455828 147.574924 85.9455828 114.724771"></polygon>
                        </g>
                        <g transform="translate(0.000000, 49.149847)">
                            <polygon id="Polygon" points="57.2886042 49.1498471 85.6700611 65.5749235 85.6700611 98.4250765 57.2886042 114.850153 28.9071472 98.4250765 28.9071472 65.5749235"></polygon>
                            <polygon id="Polygon" points="114.32704 49.1498471 142.708497 65.5749235 142.708497 98.4250765 114.32704 114.850153 85.9455828 98.4250765 85.9455828 65.5749235"></polygon>
                            <polygon id="Polygon" points="85.807822 0 114.189279 16.4250765 114.189279 49.2752294 85.807822 65.7003058 57.426365 49.2752294 57.426365 16.4250765"></polygon>
                            <polygon id="Polygon" points="28.7693864 0 57.1508433 16.4250765 57.1508433 49.2752294 28.7693864 65.7003058 0.387929434 49.2752294 0.387929434 16.4250765"></polygon>
                        </g>
                        <g transform="translate(513.345920, 0.000000)">
                            <polygon id="Polygon" points="85.807822 49.1498471 114.189279 65.5749235 114.189279 98.4250765 85.807822 114.850153 57.426365 98.4250765 57.426365 65.5749235"></polygon>
                            <polygon id="Polygon" points="142.846258 49.1498471 171.227715 65.5749235 171.227715 98.4250765 142.846258 114.850153 114.464801 98.4250765 114.464801 65.5749235"></polygon>
                            <polygon id="Polygon" points="199.884693 49.1498471 228.26615 65.5749235 228.26615 98.4250765 199.884693 114.850153 171.503236 98.4250765 171.503236 65.5749235"></polygon>
                            <polygon id="Polygon" points="28.7693864 49.1498471 57.1508433 65.5749235 57.1508433 98.4250765 28.7693864 114.850153 0.387929434 98.4250765 0.387929434 65.5749235"></polygon>
                            <polygon id="Polygon" points="57.2886042 0 85.6700611 16.4250765 85.6700611 49.2752294 57.2886042 65.7003058 28.9071472 49.2752294 28.9071472 16.4250765"></polygon>
                            <polygon id="Polygon" points="114.32704 0 142.708497 16.4250765 142.708497 49.2752294 114.32704 65.7003058 85.9455828 49.2752294 85.9455828 16.4250765"></polygon>
                            <polygon id="Polygon" points="57.2886042 98.2996942 85.6700611 114.724771 85.6700611 147.574924 57.2886042 164 28.9071472 147.574924 28.9071472 114.724771"></polygon>
                            <polygon id="Polygon" points="114.32704 98.2996942 142.708497 114.724771 142.708497 147.574924 114.32704 164 85.9455828 147.574924 85.9455828 114.724771"></polygon>
                        </g>
                    </g>
                    <g transform="translate(741.000000, 0.000000)" id="polygroup" opacity="0.100000001">
                        <g transform="translate(370.749831, 49.149847)">
                            <polygon id="Polygon" points="85.807822 49.1498471 114.189279 65.5749235 114.189279 98.4250765 85.807822 114.850153 57.426365 98.4250765 57.426365 65.5749235"></polygon>
                            <polygon id="Polygon" points="142.846258 49.1498471 171.227715 65.5749235 171.227715 98.4250765 142.846258 114.850153 114.464801 98.4250765 114.464801 65.5749235"></polygon>
                            <polygon id="Polygon" points="114.32704 0 142.708497 16.4250765 142.708497 49.2752294 114.32704 65.7003058 85.9455828 49.2752294 85.9455828 16.4250765"></polygon>
                            <polygon id="Polygon" points="57.2886042 0 85.6700611 16.4250765 85.6700611 49.2752294 57.2886042 65.7003058 28.9071472 49.2752294 28.9071472 16.4250765"></polygon>
                            <polygon id="Polygon" points="28.7693864 49.1498471 57.1508433 65.5749235 57.1508433 98.4250765 28.7693864 114.850153 0.387929434 98.4250765 0.387929434 65.5749235"></polygon>
                        </g>
                        <g transform="translate(256.672960, 98.299694)">
                            <polygon id="Polygon" points="85.807822 0 114.189279 16.4250765 114.189279 49.2752294 85.807822 65.7003058 57.426365 49.2752294 57.426365 16.4250765"></polygon>
                            <polygon id="Polygon" points="28.7693864 0 57.1508433 16.4250765 57.1508433 49.2752294 28.7693864 65.7003058 0.387929434 49.2752294 0.387929434 16.4250765"></polygon>
                        </g>
                        <g transform="translate(114.076871, 0.000000)">
                            <polygon id="Polygon" points="85.807822 49.1498471 114.189279 65.5749235 114.189279 98.4250765 85.807822 114.850153 57.426365 98.4250765 57.426365 65.5749235"></polygon>
                            <polygon id="Polygon" points="142.846258 49.1498471 171.227715 65.5749235 171.227715 98.4250765 142.846258 114.850153 114.464801 98.4250765 114.464801 65.5749235"></polygon>
                            <polygon id="Polygon" points="114.32704 0 142.708497 16.4250765 142.708497 49.2752294 114.32704 65.7003058 85.9455828 49.2752294 85.9455828 16.4250765"></polygon>
                            <polygon id="Polygon" points="57.2886042 0 85.6700611 16.4250765 85.6700611 49.2752294 57.2886042 65.7003058 28.9071472 49.2752294 28.9071472 16.4250765"></polygon>
                            <polygon id="Polygon" points="28.7693864 49.1498471 57.1508433 65.5749235 57.1508433 98.4250765 28.7693864 114.850153 0.387929434 98.4250765 0.387929434 65.5749235"></polygon>
                            <polygon id="Polygon" points="57.2886042 98.2996942 85.6700611 114.724771 85.6700611 147.574924 57.2886042 164 28.9071472 147.574924 28.9071472 114.724771"></polygon>
                            <polygon id="Polygon" points="114.32704 98.2996942 142.708497 114.724771 142.708497 147.574924 114.32704 164 85.9455828 147.574924 85.9455828 114.724771"></polygon>
                        </g>
                        <g transform="translate(0.000000, 49.149847)">
                            <polygon id="Polygon" points="57.2886042 49.1498471 85.6700611 65.5749235 85.6700611 98.4250765 57.2886042 114.850153 28.9071472 98.4250765 28.9071472 65.5749235"></polygon>
                            <polygon id="Polygon" points="114.32704 49.1498471 142.708497 65.5749235 142.708497 98.4250765 114.32704 114.850153 85.9455828 98.4250765 85.9455828 65.5749235"></polygon>
                            <polygon id="Polygon" points="85.807822 0 114.189279 16.4250765 114.189279 49.2752294 85.807822 65.7003058 57.426365 49.2752294 57.426365 16.4250765"></polygon>
                            <polygon id="Polygon" points="28.7693864 0 57.1508433 16.4250765 57.1508433 49.2752294 28.7693864 65.7003058 0.387929434 49.2752294 0.387929434 16.4250765"></polygon>
                        </g>
                        <g transform="translate(513.345920, 0.000000)">
                            <polygon id="Polygon" points="85.807822 49.1498471 114.189279 65.5749235 114.189279 98.4250765 85.807822 114.850153 57.426365 98.4250765 57.426365 65.5749235"></polygon>
                            <polygon id="Polygon" points="142.846258 49.1498471 171.227715 65.5749235 171.227715 98.4250765 142.846258 114.850153 114.464801 98.4250765 114.464801 65.5749235"></polygon>
                            <polygon id="Polygon" points="199.884693 49.1498471 228.26615 65.5749235 228.26615 98.4250765 199.884693 114.850153 171.503236 98.4250765 171.503236 65.5749235"></polygon>
                            <polygon id="Polygon" points="28.7693864 49.1498471 57.1508433 65.5749235 57.1508433 98.4250765 28.7693864 114.850153 0.387929434 98.4250765 0.387929434 65.5749235"></polygon>
                            <polygon id="Polygon" points="57.2886042 0 85.6700611 16.4250765 85.6700611 49.2752294 57.2886042 65.7003058 28.9071472 49.2752294 28.9071472 16.4250765"></polygon>
                            <polygon id="Polygon" points="114.32704 0 142.708497 16.4250765 142.708497 49.2752294 114.32704 65.7003058 85.9455828 49.2752294 85.9455828 16.4250765"></polygon>
                            <polygon id="Polygon" points="57.2886042 98.2996942 85.6700611 114.724771 85.6700611 147.574924 57.2886042 164 28.9071472 147.574924 28.9071472 114.724771"></polygon>
                            <polygon id="Polygon" points="114.32704 98.2996942 142.708497 114.724771 142.708497 147.574924 114.32704 164 85.9455828 147.574924 85.9455828 114.724771"></polygon>
                        </g>
                    </g>
                </g>
            </g>
        </g>
    </g>
</svg>