<svg width="40px" height="40px" viewBox="0 0 40 40" version="1.1" xmlns="http://www.w3.org/2000/svg" xmlns:xlink="http://www.w3.org/1999/xlink">
    <circle fill="#E96F00" cx="20" cy="20" r="20"></circle>
    <g transform="translate(9.000000, 3.000000)" fill-rule="nonzero" fill="#FFFFFF">
        <path d="M7.33711422,23.8946032 C7.33711422,23.8946032 6.19474154,24.5770952 8.15117754,24.807381 C10.5217146,25.0853968 11.7331041,25.0455397 14.3447209,24.5387143 C14.3447209,24.5387143 15.0327326,24.9803413 15.9917792,25.3631667 C10.1351723,27.939119 2.73766838,25.2138254 7.33711422,23.8946032 L7.33711422,23.8946032 Z M6.6210644,20.5325793 C6.6210644,20.5325793 5.33945981,21.506619 7.29757328,21.7147619 C9.82986861,21.9831825 11.8292005,22.0050793 15.2905872,21.3211111 C15.2905872,21.3211111 15.7681934,21.8193254 16.5204291,22.0914365 C9.44092993,24.2171508 1.55575482,22.2587381 6.6210644,20.5325793 L6.6210644,20.5325793 Z" id="Shape"></path>
        <path d="M12.6535684,14.8285793 C14.0974105,16.5348095 12.2749343,18.0688175 12.2749343,18.0688175 C12.2749343,18.0688175 15.9388184,16.127381 14.2565327,13.6951111 C12.6847218,11.4279286 11.4798027,10.3018413 18.0033328,6.41749204 C18.0033328,6.41773809 7.76319741,9.04265078 12.6535684,14.8285793 L12.6535684,14.8285793 Z" id="Shape"></path>
        <path d="M20.3990323,26.3817381 C20.3990323,26.3817381 21.2447284,27.0976905 19.4673048,27.6510159 C16.0878756,28.7020635 5.39889101,29.0189524 2.4302079,27.6930873 C1.36356207,27.2162778 3.36457143,26.5551905 3.99411054,26.4156905 C4.65048954,26.2697937 5.02528939,26.2963651 5.02528939,26.2963651 C3.83834335,25.4384524 -2.64636484,27.9816825 1.73189157,28.7111667 C13.6710877,30.698119 23.4954445,27.8163492 20.3990323,26.3817381 L20.3990323,26.3817381 Z M7.8870922,17.0485238 C7.8870922,17.0485238 2.45057745,18.3743889 5.96204934,18.8563651 C7.44495304,19.0600793 10.3997369,19.0133333 13.1539406,18.7761587 C15.4041774,18.5820397 17.6623225,18.1674762 17.6623225,18.1674762 C17.6623225,18.1674762 16.8695873,18.5165952 16.2954055,18.9186111 C10.7735782,20.4098095 0.109037037,19.7152619 3.17956793,18.1908492 C5.77536832,16.9018889 7.8870922,17.0485238 7.8870922,17.0485238 L7.8870922,17.0485238 Z M17.6397962,22.645008 C23.2524477,19.6515397 20.6571266,16.7746905 18.8456739,17.1621905 C18.4028158,17.2569127 18.2041527,17.3393333 18.2041527,17.3393333 C18.2041527,17.3393333 18.3690263,17.0738651 18.6834364,16.9597063 C22.2668008,15.6668095 25.0222027,20.7739365 17.5276438,22.7968095 C17.5276438,22.7963175 17.6136752,22.7163571 17.6397962,22.645008 L17.6397962,22.645008 Z" id="Shape"></path>
        <path d="M14.2565327,0.144420635 C14.2565327,0.144420635 17.364208,3.33692857 11.3082191,8.24452383 C6.45163762,12.182508 10.2008342,14.4273016 11.3065416,16.9931667 C8.47133905,14.3672698 6.39172713,12.0553095 7.78668232,9.90376191 C9.83514073,6.74619048 15.5100992,5.21464287 14.2565327,0.144420635 L14.2565327,0.144420635 Z" id="Shape"></path>
        <path d="M8.43874775,30.7591349 C13.8249377,31.1126825 22.0983326,30.5623095 22.29412,27.9455159 C22.29412,27.9455159 21.9176426,28.9375159 17.8422935,29.7245714 C13.2445252,30.6132381 7.57268216,30.5096587 4.20978819,29.9396032 C4.20978819,29.9398492 4.89875849,30.5254048 8.43874775,30.7591349 L8.43874775,30.7591349 Z" id="Shape"></path>
    </g>
</svg>
