<svg width="40px" height="40px" viewBox="0 0 40 40" version="1.1" xmlns="http://www.w3.org/2000/svg" xmlns:xlink="http://www.w3.org/1999/xlink">
    <circle  fill="#F1DD3F" cx="20" cy="20" r="20"></circle>
    <path d="M8,8 L8,32 L32,32 L32,8 L8,8 Z M20.694848,28.450496 C20.340608,29.170304 19.664384,29.6432 18.880832,29.871488 C17.6768,30.147968 16.525184,29.990336 15.66848,29.47616 C15.095168,29.124416 14.647424,28.582976 14.343488,27.959168 L16.171328,26.839808 C16.187264,26.846528 16.235264,26.933312 16.299392,27.04544 C16.53248,27.435968 16.733504,27.712448 17.12864,27.90656 C17.516864,28.03904 18.369152,28.123712 18.69824,27.440576 C18.899264,27.093056 18.835328,25.976 18.835328,24.740096 C18.835136,22.798016 18.84416,20.864 18.84416,18.944 L21.092288,18.944 C21.092288,21.056 21.103808,23.056256 21.092288,25.117184 C21.097088,26.380544 21.20672,27.506816 20.694848,28.450496 Z M30.021056,27.81536 C29.239616,30.488384 24.882752,30.575168 23.141696,28.809152 C22.773824,28.393472 22.543232,28.17632 22.323776,27.696512 C23.249024,27.164288 23.249024,27.164288 24.149312,26.643392 C24.638336,27.395072 25.090496,27.808448 25.904,27.9776 C27.007616,28.112384 28.117952,27.733184 27.868928,26.561024 C27.612992,25.603712 25.609088,25.370816 24.245312,24.347072 C22.8608,23.417216 22.53632,21.15776 23.674112,19.866752 C24.053312,19.389248 24.699968,19.032896 25.378496,18.861632 L26.086592,18.770048 C27.446144,18.742592 28.295936,19.101632 28.919744,19.798208 C29.093312,19.97408 29.235008,20.163776 29.499968,20.574848 C28.775744,21.036416 28.778048,21.032 27.740672,21.703616 C27.519104,21.226304 27.151424,20.926784 26.762816,20.796608 C26.159552,20.613824 25.398848,20.812544 25.241024,21.449984 C25.186304,21.6464 25.197632,21.829184 25.284608,22.153664 C25.529024,22.71104 26.349248,22.953344 27.084992,23.291456 C29.202944,24.150464 29.918144,25.071488 30.094016,26.167808 C30.26336,27.11168 30.05312,27.723968 30.021056,27.81536 L30.021056,27.81536 Z" id="Shape" fill="#FFFFFF" fill-rule="nonzero"></path>
</svg>