<svg width="40px" height="40px" viewBox="0 0 40 40" version="1.1" xmlns="http://www.w3.org/2000/svg" xmlns:xlink="http://www.w3.org/1999/xlink">
    <circle  fill="#3874A7" cx="20" cy="20" r="20"></circle>
    <g transform="translate(7.000000, 7.000000)" fill-rule="nonzero" fill="#FFFFFF">
        <path d="M25.1453837,9.93948701 C25.7554133,12.3934123 25.7828186,14.203836 25.1453837,16.1169772 C24.527823,17.9755171 23.8661209,19.1838609 22.0912614,19.1838609 L12.9529523,19.1838609 L12.9529523,20.020664 L19.0197753,20.020664 L19.0197753,22.3482321 C19.0197753,24.1103304 17.5265,25.0061282 15.9890834,25.4515167 C13.6759502,26.1226328 11.8450249,26.0199152 9.91159115,25.4515167 C8.29718863,24.9766309 6.88612927,24.0030104 6.88612927,22.3482321 L6.88612927,16.53245 C6.88612927,14.8588437 8.21288071,13.3262386 9.88397665,13.3262386 L15.9840626,13.3262386 C18.0168667,13.3262386 19.8565785,11.6591175 19.8565785,9.55664955 L19.8565785,6.84101405 L22.0912614,6.84101405 C23.8686313,6.84101405 24.7064805,8.1721587 25.1453837,9.93948701 Z M16.3683645,21.5723063 C15.737624,21.5723063 15.2223625,22.0909151 15.2223625,22.7327431 C15.2223625,23.376454 15.737624,23.8998744 16.3683645,23.8998744 C17.0018245,23.8998744 17.5145756,23.3762448 17.5145756,22.7327431 C17.5145756,22.0909151 17.0016153,21.5723063 16.3683645,21.5723063 Z" id="Combined-Shape"></path>
        <path d="M9.88397674,12.6986363 C7.81247048,12.6986363 6.04932619,14.438141 6.04932619,16.454209 L6.04932619,19.183861 L3.9686151,19.183861 C2.19354637,19.183861 1.15695643,17.9250998 0.722864782,16.1171865 C0.137102561,13.6881561 0.161997456,12.2657999 0.722864782,9.93948708 C1.20883823,7.90961181 2.76320013,6.84101415 4.53805967,6.84101415 L12.9529524,6.84101415 L12.9529524,6.00421095 L6.88612935,6.00421095 L6.88612935,3.74128598 C6.88612935,1.97876929 7.32503263,1.02272167 9.90970844,0.566454737 C10.7868874,0.411018547 11.7538134,0.32210821 12.7977254,0.317296592 C13.8420558,0.312275773 14.925925,0.391772074 15.9748579,0.566454737 C17.6323558,0.842599785 19.0197754,2.0860893 19.0197754,3.74128598 L19.0197754,9.55664966 C19.0197754,11.2618453 17.6821455,12.6986363 15.9840627,12.6986363 L9.88397674,12.6986363 Z M9.49946568,4.51679335 C10.1299969,4.51679335 10.6454676,3.99818455 10.6456768,3.35677492 C10.6456768,2.71264568 10.1302061,2.1892253 9.49946568,2.1892253 C8.86621488,2.1892253 8.35346372,2.71264568 8.35346372,3.35677492 C8.35346372,3.99818455 8.86642409,4.51679335 9.49946568,4.51679335 Z" id="Combined-Shape"></path>
    </g>
</svg>
