<svg width="40px" height="40px" viewBox="0 0 40 40" version="1.1" xmlns="http://www.w3.org/2000/svg" xmlns:xlink="http://www.w3.org/1999/xlink">
    <circle fill="#222222" cx="20" cy="20" r="20"></circle>
    <path d="M35.7813957,19.6077351 L34.437973,18.7761215 C34.4266606,18.6452647 34.4138195,18.5147136 34.3997554,18.384774 L35.5542307,17.3079568 C35.671635,17.1985017 35.7242223,17.0364594 35.6924253,16.8796147 C35.6615455,16.7221584 35.5511733,16.5925245 35.4010548,16.5365741 L33.9252465,15.9847129 C33.888252,15.8569134 33.8494229,15.7300312 33.8096767,15.6037605 L34.7302606,14.3251547 C34.8241229,14.1952151 34.8433846,14.0261407 34.7822365,13.8778567 C34.7210884,13.7301841 34.58748,13.624398 34.4294122,13.5984101 L32.8731943,13.3452571 C32.8126577,13.2272414 32.7496752,13.1110601 32.6860812,12.995796 L33.3400597,11.5603454 C33.4070168,11.4142016 33.3932584,11.24421 33.3039823,11.1115187 C33.2150119,10.978216 33.0642819,10.9002522 32.9034626,10.906367 L31.3240083,10.9614002 C31.2423757,10.859283 31.1592143,10.7580829 31.0745243,10.6587174 L31.4374379,9.1202323 C31.4741268,8.96399905 31.42796,8.80042799 31.3142246,8.68699835 C31.2014065,8.57387445 31.0375297,8.52709619 30.8812964,8.56378502 L29.3431171,8.92639298 C29.2434458,8.84200867 29.1422457,8.75854158 29.0398228,8.67690892 L29.0951617,7.09745469 C29.1012765,6.93755252 29.0233128,6.78559961 28.89001,6.69693493 C28.7564015,6.60765877 28.5873271,6.5942062 28.4414887,6.66055184 L27.0063439,7.31483602 C26.8904683,7.25124204 26.7742871,7.18825954 26.6568828,7.12741723 L26.4031184,5.57089351 C26.3774362,5.41313153 26.2716501,5.27921729 26.1236717,5.21806924 C25.9759992,5.15661544 25.8066191,5.17648856 25.6766795,5.27004508 L24.3971564,6.19062904 C24.2711914,6.15057707 24.144615,6.11205379 24.0168155,6.07536496 L23.4649543,4.59925093 C23.4090039,4.44882672 23.27937,4.33845448 23.1219138,4.30726897 C22.9647633,4.2763892 22.8030267,4.32867079 22.6938774,4.44546357 L21.6170601,5.60085606 C21.4871206,5.58648626 21.3562637,5.57333943 21.2257126,5.56263853 L20.3940991,4.21891003 C20.3100205,4.08285561 20.161125,4 20.0009171,4 C19.8407092,4 19.6918137,4.08285561 19.6080408,4.21891003 L18.7764273,5.56263853 C18.6455705,5.57333943 18.5147136,5.58648626 18.384774,5.60085606 L17.307651,4.44546357 C17.1985017,4.32867079 17.0364594,4.2763892 16.8796147,4.30726897 C16.7221584,4.33876022 16.5925245,4.44882672 16.5365741,4.59925093 L15.9847129,6.07536496 C15.8569134,6.11205379 15.730337,6.15088281 15.6040662,6.19062904 L14.3248489,5.27004508 C14.1949093,5.17618282 14.0255292,5.1563097 13.8775509,5.21806924 C13.7298784,5.27921729 13.6237865,5.41313153 13.5981043,5.57089351 L13.3443399,7.12741723 C13.2269356,7.18825954 13.1107543,7.2509363 12.9948788,7.31483602 L11.5597339,6.66055184 C11.4138958,6.59390046 11.2439042,6.60765877 11.111213,6.69693493 C10.9779102,6.78559961 10.8999464,6.93755252 10.9060612,7.09745469 L10.9610945,8.67690892 C10.8589772,8.75854158 10.7577772,8.84200867 10.6578001,8.92639298 L9.11962084,8.56378502 C8.96338754,8.52740193 8.79951077,8.57387445 8.68638687,8.68699835 C8.57265149,8.80042799 8.52648471,8.96399905 8.56317354,9.1202323 L8.92547579,10.6587174 C8.84139719,10.7583887 8.75823584,10.859283 8.67660318,10.9614002 L7.09714895,10.906367 C6.93785826,10.9017809 6.78559961,10.978216 6.69662919,11.1115187 C6.60735303,11.24421 6.59390046,11.4142016 6.6602461,11.5603454 L7.31453028,12.995796 C7.2509363,13.1110601 7.1879538,13.2272414 7.12711149,13.3452571 L5.57089351,13.5984101 C5.41282579,13.6240922 5.27952304,13.7298784 5.21806924,13.8778567 C5.15692118,14.0261407 5.1767943,14.1952151 5.27004508,14.3251547 L6.19062904,15.6037605 C6.15057707,15.7300312 6.11174805,15.8569134 6.07505922,15.9847129 L4.59894519,16.5365741 C4.44913246,16.5925245 4.33876022,16.7221584 4.30757471,16.8796147 C4.2763892,17.0367651 4.32867079,17.1985017 4.44576931,17.3079568 L5.60055032,18.384774 C5.58618052,18.5147136 5.57333943,18.6455705 5.56233279,18.7761215 L4.21891003,19.6077351 C4.08285561,19.6918137 4,19.8404034 4,20.0009171 C4,20.1614307 4.08285561,20.3100205 4.21891003,20.3937933 L5.56233279,21.2254069 C5.57333943,21.3562637 5.58618052,21.4868148 5.60055032,21.6167544 L4.44576931,22.6938774 C4.32867079,22.8030267 4.2763892,22.965069 4.30757471,23.1219138 C4.33876022,23.27937 4.44913246,23.4086982 4.59894519,23.4649543 L6.07505922,24.0168155 C6.11174805,24.144615 6.15057707,24.2714972 6.19062904,24.3977679 L5.27004508,25.6766795 C5.17648856,25.8069248 5.15661544,25.9759992 5.21806924,26.1236717 C5.27952304,26.2719558 5.41313153,26.3777419 5.57119925,26.4031184 L7.12711149,26.6562713 C7.1879538,26.7742871 7.25032482,26.8904683 7.31453028,27.0063439 L6.6602461,28.441183 C6.59359472,28.5870214 6.60735303,28.7567073 6.69662919,28.89001 C6.78590535,29.0236185 6.93785826,29.1015823 7.09714895,29.0951617 L8.6759917,29.0398228 C8.75823584,29.1425515 8.84109145,29.24314 8.92547579,29.3431171 L8.56317354,30.8819079 C8.52648471,31.0378354 8.57265149,31.200795 8.68638687,31.3142246 C8.79920503,31.4282657 8.96338754,31.473821 9.11962084,31.4371322 L10.6578001,31.07483 C10.7577772,31.1598258 10.8589772,31.2423757 10.9610945,31.3237026 L10.9060612,32.9034626 C10.8999464,33.0633647 10.9779102,33.2150119 11.111213,33.304288 C11.2439042,33.3932584 11.4138958,33.406711 11.5597339,33.3400597 L12.9948788,32.6860812 C13.1104486,32.7502867 13.2266299,32.8126577 13.3443399,32.8735 L13.5981043,34.4291065 C13.6237865,34.58748 13.7295726,34.7213942 13.8775509,34.7822365 C14.0252235,34.8436903 14.1949093,34.8238172 14.3248489,34.7305664 L15.6034548,33.809371 C15.7297255,33.8494229 15.8566077,33.8885577 15.9844071,33.9252465 L16.5362683,35.4007491 C16.5922188,35.5505618 16.7218527,35.6615455 16.8793089,35.6921196 C17.0364594,35.7239166 17.198196,35.6713292 17.3073453,35.5539249 L18.3844683,34.399144 C18.5144079,34.4141252 18.6452647,34.4266606 18.7761215,34.4382787 L19.6077351,35.7817015 C19.6915079,35.9171444 19.8404034,36.0006115 20.0006113,36.0006115 C20.1608193,36.0006115 20.3097147,35.9174501 20.3937933,35.7817015 L21.2254069,34.4382787 C21.3562637,34.4266606 21.4868148,34.4141252 21.6167544,34.399144 L22.6935716,35.5539249 C22.8027209,35.6713292 22.9647633,35.7239166 23.121608,35.6921196 C23.2790642,35.6612398 23.4086982,35.5505618 23.4646486,35.4007491 L24.0165098,33.9252465 C24.1443092,33.8885577 24.2711914,33.8494229 24.3974622,33.809371 L25.6763737,34.7305664 C25.8063133,34.8238172 25.9756934,34.8436903 26.123366,34.7822365 C26.2713443,34.7213942 26.3771304,34.5871742 26.4028126,34.4291065 L26.656577,32.8735 C26.7739813,32.8126577 26.8901626,32.7493695 27.0060382,32.6860812 L28.441183,33.3400597 C28.5870214,33.406711 28.7567073,33.3932584 28.8897043,33.304288 C29.0230071,33.2150119 29.1006651,33.0636705 29.094856,32.9034626 L29.0398228,31.3237026 C29.14194,31.2420699 29.24314,31.1598258 29.3428114,31.07483 L30.8809907,31.4371322 C31.0372239,31.473821 31.2011007,31.4282657 31.3139189,31.3142246 C31.4276543,31.200795 31.473821,31.0378354 31.4371322,30.8819079 L31.07483,29.3431171 C31.1592143,29.24314 31.2423757,29.1425515 31.3237026,29.0398228 L32.9031568,29.0951617 C33.0624475,29.1015823 33.2147061,29.0236185 33.3036766,28.89001 C33.3929527,28.7567073 33.406711,28.5870214 33.3397539,28.441183 L32.6857755,27.0063439 C32.7496752,26.8904683 32.812352,26.7742871 32.8728885,26.6562713 L34.4291065,26.4031184 C34.58748,26.3777419 34.7207827,26.2719558 34.7819308,26.1236717 C34.8430789,25.9759992 34.8238172,25.8069248 34.7299549,25.6766795 L33.809371,24.3977679 C33.8491172,24.2714972 33.8879462,24.144615 33.9249408,24.0168155 L35.4007491,23.4649543 C35.5508675,23.4086982 35.6615455,23.27937 35.6921196,23.1219138 C35.7239166,22.9647633 35.6713292,22.8030267 35.5539249,22.6938774 L34.3994497,21.6167544 C34.4135137,21.4868148 34.4263548,21.3559579 34.4376672,21.2254069 L35.78109,20.3937933 C35.9171444,20.3100205 36,20.161125 36,20.0009171 C36,19.8407092 35.9174501,19.6918137 35.7813957,19.6077351 L35.7813957,19.6077351 Z M26.7898798,30.752274 C26.2768476,30.6415961 25.9506228,30.1359016 26.0606892,29.6213408 C26.17045,29.1073913 26.6758387,28.7802493 27.1885651,28.8909272 C27.7015973,29.000688 28.0284336,29.5072996 27.9183671,30.0209433 C27.8083006,30.5345869 27.3026062,30.8620348 26.7898798,30.752274 L26.7898798,30.752274 Z M26.3334096,27.6649085 C25.8653212,27.5646257 25.4048763,27.8624166 25.3045936,28.3314222 L24.8276387,30.5572117 C23.3558051,31.2252542 21.7213176,31.5964229 19.9999999,31.5964229 C18.2392416,31.5964229 16.5692883,31.2069098 15.0711609,30.5104334 L14.5945119,28.284644 C14.494229,27.8162499 14.0337842,27.5178474 13.5660016,27.6184359 L11.6010089,28.0403575 C11.2362607,27.6649085 10.896889,27.2650002 10.5850339,26.8427729 L20.1461437,26.8427729 C20.2543758,26.8427729 20.3265304,26.8232055 20.3265304,26.7247571 L20.3265304,23.3426582 C20.3265304,23.2442098 20.2543758,23.2246425 20.1461437,23.2246425 L17.3498432,23.2246425 L17.3498432,21.0807917 L20.374226,21.0807917 C20.6503094,21.0807917 21.85034,21.1596727 22.234044,22.6935716 C22.3541999,23.1653289 22.6180538,24.6998393 22.7984406,25.1911639 C22.9782158,25.7421079 23.710158,26.8427729 24.4901015,26.8427729 L29.2544524,26.8427729 C29.3085684,26.8427729 29.3663534,26.8366581 29.4271957,26.8256514 C29.0966904,27.2747838 28.7340825,27.6997628 28.3436518,28.0969194 L26.3334096,27.6649085 L26.3334096,27.6649085 Z M13.1095314,30.7058015 C12.5964992,30.8164794 12.0914163,30.4893374 11.981044,29.975388 C11.8712833,29.4605214 12.1975081,28.9551327 12.7105403,28.8444547 C13.2235725,28.7346939 13.7289612,29.061836 13.8390276,29.5757855 C13.9487884,30.0894291 13.6222578,30.595735 13.1095314,30.7058015 L13.1095314,30.7058015 Z M9.48253452,15.9981654 C9.69532976,16.4784834 9.47886566,17.0413512 8.99915917,17.2538408 C8.51945268,17.4669417 7.95811355,17.2501718 7.74531832,16.7695482 C7.53252309,16.2889244 7.7489872,15.7269738 8.22869368,15.5138729 C8.70870591,15.3010776 9.26973933,15.5175417 9.48253452,15.9981654 L9.48253452,15.9981654 Z M8.36780551,18.6406786 L10.4147366,17.7311013 C10.8519452,17.5369563 11.0494534,17.0245355 10.8553084,16.5864097 L10.4336925,15.6331115 L12.091722,15.6331115 L12.091722,23.1066267 L8.74661771,23.1066267 C8.45647019,22.0866772 8.30084839,21.0101657 8.30084839,19.8975769 C8.30084839,19.4729036 8.32377891,19.0531222 8.36780551,18.6406786 L8.36780551,18.6406786 Z M17.3504547,17.9148512 L17.3504547,15.7119925 L21.2987845,15.7119925 C21.5027133,15.7119925 22.7388212,15.9477183 22.7388212,16.8719711 C22.7388212,17.6393792 21.7907206,17.9145455 21.0110829,17.9145455 L17.3504547,17.9145455 L17.3504547,17.9148512 Z M31.6994574,19.8975769 C31.6994574,20.1898646 31.6887564,20.4790949 31.6673546,20.766185 L30.4670183,20.766185 C30.3468624,20.766185 30.2985554,20.845066 30.2985554,20.962776 L30.2985554,21.5140257 C30.2985554,22.8115874 29.566919,23.0937857 28.9257816,23.1656346 C28.315218,23.2344262 27.638309,22.9100358 27.5548419,22.5364212 C27.1946799,20.5105861 26.5945118,20.0779636 25.6467169,19.3304286 C26.8228998,18.5835052 28.046778,17.4816172 28.046778,16.0067262 C28.046778,14.4141251 26.9549795,13.4109913 26.2108077,12.9190552 C25.1667047,12.2308338 24.0107007,12.092945 23.6988456,12.092945 L11.2848734,12.092945 C12.9682793,10.214171 15.2497133,8.88328361 17.8301611,8.39899102 L19.2934341,9.93411292 C19.624245,10.2805166 20.1721316,10.2933577 20.5182296,9.96224101 L22.1554688,8.39623936 C25.5861803,9.03493076 28.4907129,11.1705266 30.1646412,14.1004356 L29.0437974,16.631965 C28.8502638,17.0700908 29.047772,17.5825116 29.4846749,17.7766566 L31.6425897,18.7351523 C31.67989,19.1182449 31.6994574,19.5053121 31.6994574,19.8975769 L31.6994574,19.8975769 Z M19.2940455,7.09317432 C19.6731635,6.72995488 20.2745546,6.74432467 20.6374683,7.12405409 C20.9997706,7.50470072 20.9860123,8.10670332 20.6059771,8.46961702 C20.2268591,8.83283646 19.625468,8.81877241 19.2625543,8.43843151 C18.9005578,8.05839635 18.9143161,7.45639376 19.2940455,7.09317432 L19.2940455,7.09317432 Z M30.4168769,16.0443322 C30.6293664,15.5640143 31.1907056,15.3472444 31.670412,15.5603454 C32.1501185,15.7731406 32.3665826,16.3357027 32.1537874,16.8160207 C31.9412979,17.2966444 31.3799588,17.5134142 30.8999465,17.3003133 C30.4208516,17.087518 30.2043874,16.5252617 30.4168769,16.0443322 L30.4168769,16.0443322 Z" id="Shape" fill="#FFFFFF" fill-rule="nonzero"></path>
</svg>
