<svg width="40px" height="40px" viewBox="0 0 40 40" version="1.1" xmlns="http://www.w3.org/2000/svg" xmlns:xlink="http://www.w3.org/1999/xlink">
    <circle fill="#F30000" cx="20" cy="20" r="20"></circle>
    <g transform="translate(11.000000, 5.000000)" fill-rule="nonzero" fill="#FFFFFF">
        <path d="M-1.77635684e-15,15.9531772 L-1.77635684e-15,9.1304347 C-1.77635684e-15,9.69899657 18.1898949,10.8361203 18.1898949,13.6789297 L18.1898949,13.6789297 L18.1898949,20.5016722 C18.1898949,17.6588628 -1.77635684e-15,16.521739 -1.77635684e-15,15.9531772" id="Shape" transform="translate(9.094947, 14.816053) scale(-1, 1) rotate(-180.000000) translate(-9.094947, -14.816053) "></path>
        <path d="M-1.77635684e-15,6.82274239 L-1.77635684e-15,-8.69568098e-08 C-1.77635684e-15,0.568561787 18.1898949,1.70568553 18.1898949,4.54849491 L18.1898949,4.54849491 L18.1898949,11.3712374 C18.1898949,8.528428 -1.77635684e-15,7.39130426 -1.77635684e-15,6.82274239" id="Shape" transform="translate(9.094947, 5.685619) scale(-1, 1) rotate(-180.000000) translate(-9.094947, -5.685619) "></path>
        <path d="M-1.77635684e-15,25.083612 L-1.77635684e-15,18.2608695 C-1.77635684e-15,18.8294313 18.1898949,19.9665551 18.1898949,22.8093645 L18.1898949,22.8093645 L18.1898949,29.632107 C18.1898949,26.7892976 -1.77635684e-15,25.6521738 -1.77635684e-15,25.083612" id="Shape" transform="translate(9.094947, 23.946488) scale(-1, 1) rotate(-180.000000) translate(-9.094947, -23.946488) "></path>
    </g>
</svg>
