<svg width="40px" height="40px" viewBox="0 0 40 40" version="1.1" xmlns="http://www.w3.org/2000/svg" xmlns:xlink="http://www.w3.org/1999/xlink">
    <circle fill="#FFFFFF" cx="20" cy="20" r="20"></circle>
    <g id="dotnet" transform="translate(5.000000, 14.000000)" fill-rule="nonzero" fill="#18183c">
        <path d="M1.97490566,10.9071628 C1.97490566,11.150113 1.89141509,11.3597342 1.72160377,11.537196 C1.55292453,11.7137807 1.34801887,11.8029502 1.10745283,11.8029502 C0.872264151,11.8029502 0.672169811,11.7137807 0.508584906,11.537196 C0.344433962,11.3600266 0.262924528,11.150113 0.262924528,10.9071628 C0.262924528,10.6574884 0.344716981,10.4466977 0.508584906,10.2724518 C0.67245283,10.0973289 0.87254717,10.0104983 1.10745283,10.0104983 C1.34801887,10.0104983 1.55292453,10.0984983 1.72160377,10.2756678 C1.89141509,10.4531296 1.97490566,10.6636279 1.97490566,10.9071628" id="Shape"></path>
        <path d="M12.7225472,11.6205183 L11.1568868,11.6205183 L5.47415094,2.55505648 C5.34141509,2.33695681 5.22679245,2.09985382 5.12971698,1.84111628 L5.08301887,1.84111628 C5.12377358,2.08406645 5.14415094,2.60504983 5.14415094,3.40318937 L5.14415094,11.6205183 L3.85386792,11.6205183 L3.85386792,0.246883721 L5.52877358,0.246883721 L11.0414151,9.16967442 C11.2607547,9.52372093 11.4110377,9.77748837 11.4871698,9.93009967 L11.5177358,9.93009967 C11.4667925,9.60295017 11.4401887,9.04512957 11.4401887,8.25780731 L11.4401887,0.24717608 L12.7228302,0.24717608 L12.7228302,11.6205183 L12.7225472,11.6205183 L12.7225472,11.6205183 Z" id="Shape"></path>
        <polygon points="20.9960377 11.6205183 15.1604717 11.6205183 15.1604717 0.246883721 20.7427358 0.246883721 20.7427358 1.45227907 16.4499057 1.45227907 16.4499057 5.23569435 20.4274528 5.23569435 20.4274528 6.44138206 16.4499057 6.44138206 16.4499057 10.4148306 20.9960377 10.4148306"></polygon>
        <polygon points="29.8471698 1.45227907 26.6756604 1.45227907 26.6756604 11.6208106 25.3856604 11.6208106 25.3856604 1.45227907 22.2079245 1.45227907 22.2079245 0.246299003 29.8471698 0.246299003 29.8471698 1.45227907"></polygon>
    </g>
</svg>