<svg width="40px" height="40px" viewBox="0 0 40 40" version="1.1" xmlns="http://www.w3.org/2000/svg" xmlns:xlink="http://www.w3.org/1999/xlink">
    <circle fill="#FFFFFF" cx="20" cy="20" r="20"></circle>
    <g transform="translate(3.000000, 12.000000)" fill-rule="nonzero" fill="#18183c">
        <path d="M31.4324391,1.46657364 C31.4324391,0.403104651 31.134474,0.216573643 30.1097647,0.216573643 L28.2274972,0.216573643 C27.6291445,0.216573643 26.9968771,0.347387597 26.9968771,1.11046899 C26.9968771,1.89535271 27.7042414,2.00678682 28.2274972,2.00678682 L29.6446484,2.00678682 L29.6446484,12.1666705 L28.2274972,12.1666705 C27.6291445,12.1666705 26.9968771,12.2974845 26.9968771,13.0629884 C26.9968771,13.8454496 27.7042414,13.9568837 28.2274972,13.9568837 L32.7744933,13.9568837 C33.2977491,13.9568837 34.0051135,13.8454496 34.0051135,13.0629884 C34.0051135,12.2974845 33.372846,12.1666705 32.7744933,12.1666705 L31.4324391,12.1666705 L31.4324391,1.46657364 Z" id="path4174"></path>
        <path d="M19.3895344,12.7262636 C19.3895344,13.3415736 19.5203484,13.9568837 20.2834298,13.9568837 C21.0489336,13.9568837 21.1797476,13.3415736 21.1797476,12.7262636 L21.1797476,8.19622481 L23.6773251,6.12742636 C23.9946701,5.86579845 24.2369181,5.69864729 24.5712205,5.69864729 L25.0944763,5.69864729 C25.5232553,5.69864729 25.9520344,5.69864729 26.1749026,6.01599225 C26.3614336,6.27519767 26.3614336,6.50048837 26.3614336,6.79845349 C26.3614336,7.37500388 26.6230616,7.89825969 27.2747088,7.89825969 C28.0402127,7.89825969 28.1516468,7.26356977 28.1516468,6.64825969 C28.1516468,5.82946124 27.945736,5.21415116 27.3498057,4.61579845 C26.8653096,4.13130233 26.2887592,3.90843411 25.5983522,3.90843411 L24.1618212,3.90843411 C23.6022282,3.90843411 23.0813949,4.26211628 22.5775189,4.6715155 L21.1797476,5.82946124 L21.1797476,5.10029457 C21.1797476,4.50436434 20.9932166,3.90843411 20.2834298,3.90843411 C19.4646313,3.90843411 19.3895344,4.57946124 19.3895344,5.23110853 L19.3895344,12.7262636 Z" id="path4171"></path>
        <path d="M18.4568794,5.13905426 C18.4568794,4.52374419 18.3260654,3.90843411 17.562984,3.90843411 C16.7974802,3.90843411 16.6666662,4.52374419 16.6666662,5.13905426 L16.6666662,10.3401202 L14.0382747,11.9995194 C13.8711236,12.1109535 13.6845926,12.1666705 13.4786817,12.1666705 L12.8827515,12.1666705 C12.4539724,12.1666705 11.9888561,12.0552364 11.8386623,11.7936085 C11.6884685,11.5344031 11.6715112,11.0474845 11.6521313,10.6380853 L11.4656003,5.13905426 C11.4462205,4.5600814 11.3541662,3.90843411 10.5886623,3.90843411 C9.76986388,3.90843411 9.67538713,4.59884109 9.69476698,5.25048837 L9.88129798,10.8803333 C9.91763519,11.8493256 9.90067783,12.6148295 10.7025189,13.3052364 C11.2984491,13.8066899 11.8580422,13.9568837 12.3619181,13.9568837 L13.6845926,13.9568837 C14.1690887,13.9568837 14.6535848,13.7340155 15.2325577,13.3609535 L16.686046,12.4089186 L16.686046,12.7068837 C16.686046,13.3221938 16.81686,13.9568837 17.5799414,13.9568837 C18.5319763,13.9568837 18.4568794,13.0436085 18.4568794,12.6342093 L18.4568794,5.13905426 Z" id="path4168"></path>
        <path d="M0,9.79990698 C0,10.8997132 0.205910853,11.4399264 1.06346899,12.1472907 L2.38614341,13.2495194 C3.22432171,13.9375039 3.65310078,13.9568837 4.69718992,13.9568837 L7.53149225,13.9568837 C8.12742248,13.9568837 8.7621124,13.8260698 8.7621124,13.0629884 C8.7621124,12.2781047 8.05474806,12.1666705 7.53149225,12.1666705 L4.38226744,12.1666705 C4.02616279,12.1666705 3.67248062,11.9801395 3.35513566,11.7185116 L2.2747093,10.8052364 C1.99370155,10.5823682 1.79021318,10.3958372 1.79021318,10.042155 L1.79021318,7.82316279 C1.79021318,7.46948062 1.99370155,7.28294961 2.2747093,7.05765891 L3.35513566,6.14438372 C3.67248062,5.88517829 4.02616279,5.69864729 4.38226744,5.69864729 L7.53149225,5.69864729 C8.05474806,5.69864729 8.7621124,5.5847907 8.7621124,4.80232946 C8.7621124,4.03924806 8.12742248,3.90843411 7.53149225,3.90843411 L4.69718992,3.90843411 C3.65310078,3.90843411 3.22432171,3.92781395 2.38614341,4.61579845 L1.06346899,5.71560465 C0.205910853,6.42539147 0,6.96560465 0,8.06541085 L0,9.79990698 Z" id="path4165"></path>
    </g>
</svg>