<svg width="40px" height="40px" viewBox="0 0 40 40" version="1.1" xmlns="http://www.w3.org/2000/svg" xmlns:xlink="http://www.w3.org/1999/xlink">
    <circle fill="#FFFFFF" cx="20.6" cy="20" r="20"></circle>
    <g id="gopher" transform="translate(3.000000, 10.000000)">
        <path d="M2.90803437,9.40235406 C-2.83977031,7.80574388 1.4342163,0.582768362 6.04984731,3.55367231 L2.90803437,9.40235406 Z M3.14787179,7.4074388 L4.28271457,5.28794727 C3.52430977,4.89171375 2.72653579,4.80461394 2.29709718,5.6066855 C1.83324627,6.47306968 2.38956232,7.01120527 3.14787179,7.4074388 Z" fill="#18183c" fill-rule="nonzero"></path>
        <path d="M28.4453809,3.01167609 C32.9949517,-0.144915254 37.1062187,6.97693032 31.8187379,8.76883242 L28.4453809,3.01167609 Z M30.6207901,6.65414312 C31.3790995,6.2579096 31.9354156,5.71977401 31.4715647,4.85338983 C31.0421261,4.05131827 30.2443521,4.13841808 29.4859473,4.5346516 L30.6207901,6.65414312 Z" fill="#18183c" fill-rule="nonzero"></path>
        <path d="M2.55273578,23.1753796 C6.21854021,27.3586156 11.6008059,30 17.6,30 C23.7606175,30 29.2706599,27.214557 32.9394276,22.8343706 C32.8328788,17.2228862 33.2068865,11.5752102 31.0257302,6.28559322 C28.2137413,0.824576273 22.8194967,0.0116760829 17.0652099,0.0116760829 C10.8632775,0.496327684 5.10069741,1.91704331 2.96399008,8.20357812 C1.29148905,13.1245445 2.26353539,18.1455965 2.55273578,23.1753796 Z" fill="#18183c"></path>
        <path d="M18.0810873,7.64218455 C19.1142183,13.5746705 28.9311565,12.0061205 27.5211107,6.02288136 C26.2567215,0.657532957 17.737727,2.14265537 18.0810873,7.64218455" id="Shape" stroke="#FFFFFF" stroke-width="0.6" fill="#18183c" fill-rule="nonzero"></path>
        <path d="M6.34983473,8.60169492 C7.6888634,13.7664784 16.060009,12.444162 15.7444836,7.263371 C15.3664251,1.05856873 5.0696215,2.25583804 6.34983473,8.60169492" id="Shape" stroke="#FFFFFF" stroke-width="0.6" fill="#18183c" fill-rule="nonzero"></path>
        <path d="M19.265499,14.761017 C19.2698839,15.5322976 19.4428986,16.3982109 19.2952403,17.2187382 C19.095916,17.5908663 18.7048933,17.630226 18.3678245,17.7806027 C17.9016858,17.7083804 17.5097098,17.4060263 17.3227778,16.9753295 C17.203145,16.0387948 17.3673898,15.1320151 17.3976078,14.1951036 L19.265499,14.761017 Z" id="Shape" stroke="#FFFFFF" stroke-width="0.6" fill="#18183c" fill-rule="nonzero"></path>
        <g transform="translate(7.197940, 6.214689)" fill-rule="nonzero" fill="#FFFFFF">
            <ellipse cx="1.46075856" cy="1.54463277" rx="1.41357274" ry="1.51242937"></ellipse>
        </g>
        <g id="Group" transform="translate(19.018226, 5.838041)" fill-rule="nonzero" fill="#FFFFFF">
            <ellipse cx="1.48430381" cy="1.54463277" rx="1.3900275" ry="1.51242938"></ellipse>
        </g>
        <path d="M15.2259162,14.6770245 C14.6091642,16.153484 15.5698484,19.1059322 17.2432768,16.9282486 C17.1236441,15.9917137 17.2878889,15.0849341 17.3181069,14.1480226 L15.2259162,14.6770245 Z" id="Shape" stroke="#FFFFFF" stroke-width="0.6" fill="#18183c" fill-rule="nonzero"></path>
        <g transform="translate(13.680033, 10.075330)" fill-rule="nonzero">
            <path d="M1.75693298,1.75828625 C0.607410177,1.85508474 -0.33220723,3.20517891 0.265479809,4.273258 C1.05696234,5.68794727 2.82361847,4.14811676 3.92395363,4.29237288 C5.19034475,4.31798494 6.22795614,5.61506591 7.24507268,4.52683616 C8.37629313,3.31647834 6.75805784,2.13766478 5.49328724,1.6106403 L1.75693298,1.75828625 Z" id="Shape" stroke="#FFFFFF" stroke-width="0.6" fill="#18183c"></path>
            <path d="M1.61222981,1.69915254 C1.52710469,-0.267984934 5.32399024,-0.51393597 5.77239851,1.1326742 C6.21966287,2.77542373 1.79916191,3.15696798 1.61222981,1.69915254 C1.46304636,0.535028248 1.61222981,1.69915254 1.61222981,1.69915254 Z" fill="#FFFFFF"></path>
        </g>
    </g>
</svg>