<svg width="40px" height="40px" viewBox="0 0 40 40" version="1.1" xmlns="http://www.w3.org/2000/svg" xmlns:xlink="http://www.w3.org/1999/xlink">
    <circle  fill="#FFFFFF" cx="20" cy="20" r="20"></circle>
    <path d="M31.5654212,12.3550846 L21.0248857,6.28178407 C20.3601414,5.90607198 19.4946113,5.90607198 18.8246083,6.28178407 L8.17148933,12.3550846 C7.48547129,12.7466885 7,13.4826952 7,14.2699354 L7,26.4004074 C7,27.1876475 7.49813992,27.9238914 8.18415795,28.3176301 L10.9987441,29.90397 C12.3440087,30.5614662 12.8194407,30.5614662 13.4315983,30.5614662 C15.4234409,30.5614662 16.5612269,29.3662558 16.5612269,27.2815756 L16.5612269,15.3057527 C16.5612269,15.1366349 16.4725465,14.8849742 16.305225,14.8849742 L14.9611556,14.8849742 C14.7909657,14.8849742 14.4099508,15.1366349 14.4099508,15.3055156 L14.4099508,27.2813384 C14.4099508,28.2054383 13.5676067,29.1250316 11.9933507,28.3439584 L9.08506456,26.6805311 C8.98371555,26.6259769 8.91224538,26.5161571 8.91224538,26.4004074 L8.91224538,14.2699354 C8.91224538,14.1556089 9.0449074,14.040808 9.1469735,13.9822215 L19.7656721,7.91935746 C19.8648698,7.86361735 20.0106785,7.86361735 20.1096372,7.91935746 L30.5987812,13.9807984 C30.699174,14.040808 30.6637975,14.152051 30.6637975,14.2699354 L30.6637975,26.4004074 C30.6637975,26.5161571 30.7075401,26.6288232 30.6083424,26.6845634 L20.0704362,32.7509853 C19.9800826,32.8048279 19.8679772,32.8048279 19.7690185,32.7509853 L17.0662987,31.1501766 C16.9847892,31.1032127 16.8879818,31.086372 16.8098188,31.1297781 C16.0578283,31.5526914 15.9191905,31.6089059 15.213811,31.8515533 C15.0402747,31.9115629 14.7842729,32.0156902 15.3118136,32.3090966 L18.8489895,34.3854752 C19.1876959,34.5799726 19.5725353,34.6810164 19.959765,34.6810164 C20.3522534,34.6810164 20.7366147,34.5799726 21.0753211,34.3854752 L31.5651822,28.3176301 C32.2512002,27.9210451 32.5762819,27.1876475 32.5762819,26.4004074 L32.5762819,14.2699354 C32.5762819,13.4826952 32.2512002,12.7485861 31.5654212,12.3550846 L31.5654212,12.3550846 Z M23.2325729,24.4782036 C20.4296993,24.4782036 19.8122831,23.7108876 19.6064777,22.3278212 C19.5825746,22.1788646 19.4551712,22.0007334 19.3024307,22.0007334 L17.9325458,22.0007334 C17.7630731,22.0007334 17.6268256,22.2047185 17.6268256,22.3721761 C17.6268256,24.1430513 18.5970511,26.2886899 23.232812,26.2886899 C26.5885636,26.2886899 28.5125215,24.9948077 28.5125215,22.7049564 C28.5125215,20.4345548 26.9667101,19.8387286 23.7123075,19.4113086 C20.4227674,18.9798564 20.0886025,18.761877 20.0886025,17.9971701 C20.0886025,17.3667138 20.3716148,16.5258683 22.8073374,16.5258683 C24.9837116,16.5258683 25.7858986,16.9893414 26.1159999,18.4449885 C26.1442056,18.5818483 26.2701747,18.6800458 26.412398,18.6800458 L27.7877805,18.6800458 C27.8723973,18.6800458 27.9531897,18.6461273 28.0124693,18.5861177 C28.0698367,18.5216016 28.1001936,18.4407191 28.0925446,18.3539068 C27.8795683,15.847262 26.2013339,14.6790915 22.8070984,14.6790915 C19.7879019,14.6790915 17.9868058,15.9442735 17.9868058,18.065007 C17.9868058,20.3652948 19.7788188,21.0009693 22.6770657,21.2853624 C26.1442056,21.6226494 26.4138321,22.1254964 26.4138321,22.8022051 C26.4138321,23.9774914 25.4629682,24.4782036 23.2325729,24.4782036 L23.2325729,24.4782036 Z" id="Shape" fill="#18183c" fill-rule="nonzero"></path>
</svg>
