<svg width="40px" height="40px" viewBox="0 0 40 40" version="1.1" xmlns="http://www.w3.org/2000/svg" xmlns:xlink="http://www.w3.org/1999/xlink">
    <circle  fill="#FFFFFF" cx="20" cy="20" r="20"></circle>
    <g transform="scale(.44, .44) translate(17, 17)">
        <path d="M54.6511811,29.4897638 C54.6511811,29.4897638 53.6974803,28.3549606 53.564252,26.919685 C53.4308661,25.4833071 54.0984252,25.9845669 54.0984252,25.9845669 C54.0984252,25.9845669 53.8307087,24.0806299 52.4948031,22.4444094 C51.1598425,20.8080315 49.7234646,18.8713386 49.0888189,16.2998425 C48.4541732,13.7285039 47.2864567,12.2266142 46.4847244,11.1910236 C45.6828346,10.1554331 45.3486614,8.11826772 44.8811024,7.38440945 C44.4135433,6.64897638 44.3469291,2.59212598 40.9748031,0.73023622 C37.6017323,-1.13165354 31.4571654,1.00598425 29.6538583,2.27417323 C27.8502362,3.54362205 26.2140157,7.21716535 24.043622,8.72031496 C21.8730709,10.2222047 20.1034646,10.256063 18.3667717,13.2285039 C16.6311811,16.1993701 16.2628346,17.9025197 16.3469291,19.6393701 C16.3469291,19.6393701 15.0938583,19.7900787 14.9444094,19.0888189 C14.7937008,18.3875591 15.2951181,16.0324409 15.6456693,15.3311811 C15.6456693,15.3311811 15.996378,15.6325984 15.9461417,15.9330709 C15.9461417,15.9330709 16.9981102,13.7788976 16.3469291,12.4768504 C16.3469291,12.4768504 16.6976378,12.5516535 16.8729134,12.7269291 C16.8729134,12.7269291 17.2984252,10.6981102 17.2984252,9.37149606 C17.2984252,8.04362205 16.7970079,7.01637795 15.9204724,6.41543307 C15.9204724,6.41543307 16.5727559,5.56456693 15.8456693,4.63795276 C15.8456693,4.63795276 15.5206299,3.89322835 14.6686614,3.01322835 C13.8177953,2.13307087 13.1655118,1.63165354 12.2889764,1.65748031 C12.2889764,1.65748031 12.4398425,1.33133858 12.5907087,1.13149606 C12.5907087,1.13149606 11.863622,1.21669291 11.6135433,1.54976378 C11.6135433,1.54976378 11.2127559,1.30677165 11.1377953,0.730551181 C11.1377953,0.730551181 10.4365354,0.930393701 10.3604724,1.43181102 C10.3604724,1.43181102 8.81653543,0.905826772 8.15732283,2.58409449 C8.15732283,2.58409449 8.40755906,2.68346457 8.4823622,2.85874016 C8.4823622,2.85874016 8.25669291,3.36031496 7.2807874,3.43496063 C6.30362205,3.51007874 3.4984252,3.43496063 2.64771654,3.73527559 C1.79559055,4.03590551 1.44503937,4.33716535 1.44503937,4.68787402 C1.44503937,4.68787402 1.01952756,4.8880315 0.818425197,5.81464567 C0.818425197,5.81464567 0.152283465,6.13968504 0.152283465,6.71590551 C0.152283465,7.29212598 0.518110236,7.12503937 0.518110236,7.12503937 C0.518110236,7.12503937 0.117165354,8.26929134 1.51968504,8.34393701 C1.51968504,8.34393701 1.74535433,8.92031496 2.9480315,8.92031496 C4.1496063,8.92031496 5.02629921,9.12031496 5.52755906,9.87165354 C5.52755906,9.87165354 5.12677165,11.3748031 3.5488189,12.7514961 C3.5488189,12.7514961 3.89952756,12.8018898 4.25007874,12.7773228 C4.25007874,12.7773228 2.8719685,13.9286614 2.52125984,15.6070866 C2.52125984,15.6070866 2.99826772,15.1313386 3.27291339,15.1559055 C3.27291339,15.1559055 1.54535433,19.939685 3.9496063,24.6735433 C3.9496063,24.6735433 4.17511811,24.1977953 4.27448819,24.1475591 C4.27448819,24.1475591 4.17511811,25.7511811 5.15102362,27.0031496 C5.15102362,27.0031496 5.22692913,26.3018898 5.60220472,26.0514961 C5.60220472,26.0514961 7.10314961,28.7806299 8.64472441,30.007874 C10.1851969,31.2351181 12.540315,31.8113386 13.0662992,33.0633071 C13.0662992,33.0633071 13.8927559,32.14 13.8927559,31.5379528 C13.8927559,31.5379528 14.1182677,32.1116535 14.0423622,32.7125984 C14.0423622,32.7125984 14.9692913,32.2626772 15.2696063,32.0122835 C15.5700787,31.7609449 16.8732283,30.8601575 17.0485039,32.3127559 C17.2237795,33.7645669 15.7628346,36.6700787 17.0988976,40.2768504 C17.0988976,40.2768504 16.6313386,40.9338583 16.6313386,41.8069291 C16.6313386,42.6812598 17.2985827,43.1149606 17.2985827,43.515748 C17.2985827,43.9166929 16.9982677,44.6519685 16.9982677,45.4198425 C16.9982677,46.1877165 17.6995276,47.4149606 17.0648819,50.1571654 C16.4302362,52.8988976 16.163622,53.6343307 15.7954331,54.1018898 C15.4285039,54.5694488 13.9919685,55.3710236 14.259685,56.7070866 C14.259685,56.7070866 10.8877165,57.1407874 10.9204724,58.3096063 C10.9543307,59.4784252 12.6571654,59.8428346 14.6933858,59.8428346 C16.7307087,59.8428346 17.2625197,59.4116535 17.3302362,58.6765354 C17.3992126,57.9423622 16.8614173,57.807874 17.3302362,57.3744882 C17.8001575,56.9407874 18.300315,56.4393701 18.2337008,54.6031496 C18.1670866,52.7656693 19.0683465,51.0629921 19.0683465,51.0629921 C19.0683465,51.0629921 18.9011024,49.4930709 19.4365354,48.5253543 C19.9705512,47.5565354 21.4059843,45.6537008 20.4382677,42.747874 C20.4382677,42.747874 20.7047244,42.8485039 21.0388976,42.8812598 C21.0388976,42.8812598 20.4710236,41.2787402 21.5064567,39.3418898 C22.5420472,37.4053543 23.0762205,33.4640945 23.0762205,33.4640945 C23.0762205,33.4640945 25.4466142,33.6651969 26.4820472,33.4640945 C26.4820472,33.4640945 24.2111811,38.223622 24.4448819,41.8070866 C24.4448819,41.8070866 23.8768504,42.3811024 23.8768504,43.015748 C23.8768504,43.6491339 24.2111811,44.4508661 24.7790551,45.0190551 C25.3472441,45.5859843 27.2173228,46.7218898 28.2516535,47.9573228 C29.2872441,49.1930709 29.9885039,50.5614173 30.2888189,50.9296063 C30.2888189,50.9296063 29.3211024,51.5644094 29.5875591,52.5659843 C29.5875591,52.5659843 28.6187402,52.8664567 28.7192126,53.7009449 C28.7192126,53.7009449 27.3165354,53.7348031 26.5825197,54.3696063 C25.8474016,55.0028346 25.4804724,55.8385827 26.147874,56.1051969 C26.816378,56.3727559 29.2874016,56.3727559 30.1217323,56.3727559 C30.9562205,56.3727559 31.9251969,55.7382677 31.991811,55.3045669 C32.0584252,54.8696063 31.6913386,53.8014173 31.6913386,53.8014173 C31.6913386,53.8014173 32.1929134,53.868189 32.3925984,53.2670866 C32.3925984,53.2670866 33.3277165,56.739685 34.7629921,56.6390551 C34.7629921,56.6390551 34.963937,56.6064567 34.9966929,56.3059843 C34.9966929,56.3059843 35.6651969,56.472126 35.9995276,56.1388976 C36.3325984,55.8045669 37.1344882,51.0966929 34.2966929,51.0288189 C34.2966929,51.0288189 34.4965354,50.5612598 33.9623622,50.228189 C33.428189,49.8941732 38.6376378,43.3159055 39.2382677,42.747874 C39.2382677,42.747874 38.5031496,36.8711811 39.9733858,34.0319685 C41.4425197,31.1940157 42.6440945,29.2562205 42.6440945,29.2562205 C42.6440945,29.2562205 42.9445669,35.567874 45.816378,40.4102362 C45.816378,40.4102362 46.3505512,41.1455118 46.2171654,42.0466142 C46.083937,42.947874 45.7170079,43.4152756 45.7170079,44.5513386 C45.7170079,45.6862992 46.5514961,48.6924409 45.7496063,51.9650394 C45.5894488,52.6207874 43.9801575,54.5692913 44.548189,56.1714961 C44.548189,56.1714961 43.2124409,56.9407874 43.2124409,57.9422047 C43.2124409,58.943937 43.8129134,59.143937 44.247874,59.143937 C44.6814173,59.143937 44.9152756,58.7102362 45.1489764,58.7102362 C45.3826772,58.7102362 45.7170079,59.3448819 46.7853543,59.3448819 C47.8537008,59.3448819 48.7886614,58.476378 48.7886614,57.9751181 C48.7886614,57.4746457 47.920315,56.6390551 47.920315,56.6390551 C47.920315,56.6390551 48.488189,56.1050394 48.488189,55.4376378 C48.488189,54.7689764 47.5870866,53.668189 47.5870866,52.2655118 C47.5870866,50.8628346 47.8792126,48.1395276 48.4215748,46.9554331 C49.5062992,44.583937 49.3894488,42.6974803 48.7559055,42.1973228 C48.7559055,42.1973228 49.0889764,40.6779528 49.0889764,39.0741732 C49.0889764,37.4716535 47.8535433,33.18 48.8889764,28.856378 C48.8889764,28.856378 50.1244094,27.0529134 50.392126,24.2140157 C50.392126,24.2140157 52.6292913,28.7562205 50.9590551,31.9280315 C49.2900787,35.100315 49.6233071,35.0677165 49.5903937,36.0352756 C49.5565354,37.0040945 50.0579528,38.340315 50.0579528,38.340315 L51.5785827,36.8033071 C51.5785827,36.8033071 51.5598425,35.7349606 52.2951181,34.9669291 C53.0302362,34.1990551 53.5644094,32.1140157 53.2302362,31.5379528 C53.2302362,31.5379528 53.5971654,31.7951181 53.764252,31.928189 C53.764252,31.928189 54.0319685,30.9266142 53.5305512,29.4576378 C53.5302362,29.4573228 54.067874,29.1894488 54.6511811,29.4897638 Z M34.5966929,44.5173228 C33.9620472,45.5188976 32.0253543,48.6582677 32.0253543,48.6582677 C32.0253543,48.6582677 30.0207874,47.5234646 29.3872441,46.2540157 C28.7527559,44.9847244 28.2184252,44.1840945 27.9508661,43.9829921 C27.9508661,43.9829921 28.7689764,42.8820472 28.9689764,41.7132283 C28.9689764,41.7132283 29.327874,41.7414173 29.5288189,42.4588976 C30.7422047,40.9324409 31.535748,39.2820472 31.7577953,37.5381102 C31.7577953,37.5381102 32.0582677,37.8385827 32.3258268,37.9390551 C32.3258268,37.9390551 32.3585827,36.736378 32.7933858,35.8691339 C33.2269291,35.0006299 34.1620472,33.8985827 34.296378,32.228189 L34.8971654,32.228189 C34.8971654,32.228189 34.395748,35.9685039 34.8971654,39.1743307 C35.3973228,42.3806299 35.2302362,43.5154331 34.5966929,44.5173228 Z" fill="#18183c"></path>
    </g>
</svg>