<svg width="40px" height="40px" viewBox="0 0 40 40" version="1.1" xmlns="http://www.w3.org/2000/svg" xmlns:xlink="http://www.w3.org/1999/xlink">
    <circle fill="#FFFFFF" cx="20" cy="20" r="20"></circle>
    <g transform="translate(3.000000, 12.000000)" fill-rule="nonzero" fill="#18183c">
        <path d="M2.76317708,3.61535714 L7.94171875,3.61535714 C9.46166667,3.62785714 10.5630729,4.05714286 11.2459375,4.9025 C11.9288021,5.74785714 12.1541146,6.9025 11.9222396,8.36642857 C11.8321875,9.03535714 11.6323958,9.69142857 11.3232292,10.335 C11.0268229,10.9785714 10.6148437,11.5589286 10.0865625,12.0764286 C9.44234375,12.7325 8.75328125,13.1489286 8.01901042,13.3257143 C7.28473958,13.5025 6.52458333,13.5907143 5.73890625,13.5907143 L3.42015625,13.5907143 L2.68588542,17.1871429 L0,17.1871429 L2.76317708,3.61535714 M5.02395833,5.77321429 L3.86458333,11.4517857 C3.941875,11.4642857 4.01916667,11.4707143 4.09645833,11.4707143 C4.18651042,11.4707143 4.27692708,11.4707143 4.36697917,11.4707143 C5.60364583,11.4832143 6.63432292,11.3635714 7.45864583,11.1110714 C8.28296875,10.8460714 8.83713542,9.925 9.12041667,8.3475 C9.35229167,7.0225 9.12041667,6.25892857 8.42479167,6.05714286 C7.74192708,5.85535714 6.88552083,5.76071429 5.85484375,5.77321429 C5.70026042,5.78571429 5.55223958,5.79214286 5.41041667,5.79214286 C5.28171875,5.79214286 5.14645833,5.79214286 5.00463542,5.79214286 L5.02395833,5.77321429" id="Shape"></path>
        <path d="M14.9818229,0 L17.6483854,0 L16.8947917,3.61535714 L19.2908333,3.61535714 C20.6047917,3.64071429 21.5836979,3.90571429 22.2279167,4.41035714 C22.8848958,4.915 23.078125,5.87428571 22.8076042,7.2875 L21.5129687,13.5907143 L18.8077604,13.5907143 L20.0444271,7.57142857 C20.173125,6.94035714 20.1344792,6.4925 19.9284896,6.2275 C19.7225,5.9625 19.2780729,5.83 18.5952083,5.83 L16.4503646,5.81107143 L14.8658854,13.5907143 L12.1993229,13.5907143 L14.9818229,0" id="Shape"></path>
        <path d="M25.6710417,3.61535714 L30.8495833,3.61535714 C32.3695313,3.62785714 33.4709375,4.05714286 34.1538021,4.9025 C34.8366667,5.74785714 35.0619792,6.9025 34.8301042,8.36642857 C34.7400521,9.03535714 34.5402604,9.69142857 34.2310938,10.335 C33.9346875,10.9785714 33.5227083,11.5589286 32.9944271,12.0764286 C32.3502083,12.7325 31.6611458,13.1489286 30.926875,13.3257143 C30.1926042,13.5025 29.4324479,13.5907143 28.6467708,13.5907143 L26.3280208,13.5907143 L25.59375,17.1871429 L22.9078646,17.1871429 L25.6710417,3.61535714 M27.9318229,5.77321429 L26.7724479,11.4517857 C26.8497396,11.4642857 26.9270313,11.4707143 27.0043229,11.4707143 C27.094375,11.4707143 27.1847917,11.4707143 27.2748438,11.4707143 C28.5115104,11.4832143 29.5421875,11.3635714 30.3665104,11.1110714 C31.1908333,10.8460714 31.745,9.925 32.0282813,8.3475 C32.2601563,7.0225 32.0282813,6.25892857 31.3326563,6.05714286 C30.6497917,5.85535714 29.7933854,5.76071429 28.7627083,5.77321429 C28.608125,5.78571429 28.4601042,5.79214286 28.3182813,5.79214286 C28.1895833,5.79214286 28.0543229,5.79214286 27.9125,5.79214286 L27.9318229,5.77321429" id="Shape"></path>
    </g>
</svg>
