<svg width="40px" height="40px" viewBox="0 0 40 40" version="1.1" xmlns="http://www.w3.org/2000/svg" xmlns:xlink="http://www.w3.org/1999/xlink">
    <circle fill="#FFFFFF" cx="20" cy="20" r="20"></circle>
    <g transform="translate(4.000000, 8.000000)" fill-rule="nonzero" fill="#18183c">
        <path d="M15.8793556,21.4393445 C7.13143874,21.4393445 0.0398023982,16.6399896 0.0398023982,10.7196944 C0.0398023982,4.79935499 7.13143874,0 15.8793556,0 C24.6273165,0 31.7189089,4.79935499 31.7189089,10.7196944 C31.7189089,16.6399896 24.6273165,21.4393445 15.8793556,21.4393445 L15.8793556,21.4393445 Z M18.3038752,4.19102856 C11.6546782,4.19102856 6.26444058,7.47207573 6.26444058,11.5194464 C6.26444058,15.566817 11.6546782,18.8478642 18.3038752,18.8478642 C24.9530284,18.8478642 29.8600139,16.6046966 29.8600139,11.5194464 C29.8600139,6.43579438 24.9530284,4.19102856 18.3038752,4.19102856 L18.3038752,4.19102856 Z" id="Shape"></path>
        <path d="M24.1626037,16.6032316 C24.1626037,16.6032316 25.121288,16.8955639 25.678258,17.1803493 C25.8715149,17.2791696 26.2058814,17.4763663 26.4470681,17.7352701 C26.6833344,17.9888467 26.7985242,18.2457973 26.7985242,18.2457973 L30.5766768,24.6828791 L24.4701278,24.6856315 L21.6145473,19.2668516 C21.6145473,19.2668516 21.0298124,18.2516128 20.6700092,17.9572384 C20.3698657,17.7116971 20.2418918,17.624286 19.9451311,17.624286 L18.4942326,17.624286 L18.4953749,24.6817248 L13.091738,24.6840333 L13.091738,6.6562977 L23.9429437,6.6562977 C23.9429437,6.6562977 28.8852945,6.74637246 28.8852945,11.4979599 C28.8852945,16.2495472 24.1626037,16.6032316 24.1626037,16.6032316 L24.1626037,16.6032316 Z M21.8122414,10.5667583 L18.5409324,10.5646274 L18.5393069,13.6300101 L21.8122414,13.6289447 C21.8122414,13.6289447 23.3278956,13.6241946 23.3278956,12.0696171 C23.3278956,10.4837865 21.8122414,10.5667583 21.8122414,10.5667583 L21.8122414,10.5667583 Z" id="Shape" stroke="black" stroke-width="0.5"></path>
    </g>
</svg>
