<svg width="40px" height="40px" viewBox="0 0 40 40" version="1.1" xmlns="http://www.w3.org/2000/svg" xmlns:xlink="http://www.w3.org/1999/xlink">
    <circle fill="#FFFFFF" cx="20" cy="20" r="20"></circle>
    <path d="M12.6724054,28.1008694 C18.0612635,28.8404821 23.3543754,29.5668806 28.7526512,30.3074795 C26.9134625,27.2295069 25.1215583,24.2302291 23.3153315,21.2064948 L12.6724054,28.1008694 L12.6724054,28.1008694 Z M30.2736018,11.0635435 C29.798599,11.7806721 29.3226153,12.4972089 28.8482011,13.2147319 C27.2189476,15.6787273 25.5898902,18.1427227 23.9622063,20.6079015 C23.8715614,20.7451736 23.754037,20.8540446 23.8817639,21.0656724 C25.4545115,23.676407 27.0148985,26.2948335 28.5792095,28.9108933 C28.8260304,29.3240903 29.0755981,29.7357095 29.3948173,30.1321419 C29.7110933,23.782714 30.0271732,17.4330889 30.3432531,11.083661 L30.2736018,11.0635435 L30.2736018,11.0635435 Z M8.80351684,19.2038205 C8.87709223,19.2738372 9.06073641,19.3146638 9.14628007,19.2722594 C10.65487,18.5269269 12.1730737,17.7981618 13.6487018,16.9914907 C14.129983,16.728583 14.5000182,16.2572032 14.914591,15.8749713 C16.2874098,14.6093458 17.6580703,13.3411564 19.0281423,12.0727698 C19.1119201,11.9948639 19.2111979,11.919522 19.2612291,11.8213015 C19.7533014,10.8544796 20.2369369,9.88272701 20.737642,8.88296775 C20.1406022,8.65733654 19.5745622,8.43663608 19.0014589,8.23585586 C18.9237633,8.20863811 18.8013338,8.26267915 18.7171636,8.30981714 C17.3906483,9.05475515 16.0392154,9.7600499 14.7548834,10.5724406 C14.1123249,10.9789318 13.5888605,11.5779195 13.0198774,12.0995931 C12.1028337,12.9409766 11.1869672,13.7843324 10.2832652,14.640311 C10.0435075,14.86752 9.82493951,15.1270748 9.63815611,15.4004357 C9.02012279,16.3051301 8.42053238,17.2228416 7.79347382,18.1665876 C8.1438889,18.5308715 8.4625194,18.8791798 8.80351684,19.2038205 L8.80351684,19.2038205 Z M14.3171588,17.9669907 C13.5666898,21.1540315 12.8207334,24.3231245 12.0498594,27.5963548 C15.6644714,25.2550366 19.195698,22.9677593 22.7035766,20.6958661 C19.912028,19.7876215 17.1295047,18.8821383 14.3171588,17.9669907 L14.3171588,17.9669907 Z M29.3522416,11.0943114 C26.2981761,11.6073068 23.3170973,12.1078768 20.2975631,12.6149553 C21.326049,15.129836 22.3339338,17.5942259 23.3704639,20.1286324 C25.3758349,17.0993756 27.3415732,14.1308657 29.3522416,11.0943114 L29.3522416,11.0943114 Z M14.4431199,17.3151453 C17.19327,18.2125421 19.8886801,19.0921883 22.6623744,19.9974744 C21.6323188,17.4749017 20.6375795,15.0404908 19.622239,12.5546029 C17.8927268,14.1440801 16.189113,15.7100869 14.4431199,17.3151453 L14.4431199,17.3151453 Z M8.91711724,21.0623196 C7.94180181,23.4060046 6.99964436,25.6700087 6.04041742,27.9748394 C7.8839225,27.9200094 9.67092169,27.8669545 11.5193318,27.8121246 C10.6515345,25.5613349 9.80080678,23.3547248 8.91711724,21.0623196 L8.91711724,21.0623196 Z M11.5840781,26.2092357 L11.6519637,26.1942462 C12.3098258,23.4446617 12.9771056,20.7140113 13.6487018,17.8569363 C12.1505106,18.6397425 10.7213821,19.3862583 9.25320964,20.1534834 C10.0025015,22.1111891 10.8014321,24.1763853 11.5840781,26.2092357 L11.5840781,26.2092357 Z M28.2468449,10.6483742 C27.3719844,10.4154455 26.4971239,10.1817278 25.621871,9.95037693 C24.3638299,9.61784702 23.1048077,9.28945894 21.8475514,8.95397058 C21.6903943,8.91196057 21.5767939,8.88454559 21.4843832,9.07487261 C21.0399879,9.99002018 20.5818584,10.8982647 20.1303998,11.8100593 C20.1164695,11.8382632 20.1194125,11.8747508 20.1086215,11.9455564 C22.8330693,11.5305843 25.5392704,11.1181762 28.2450791,10.7059654 L28.2468449,10.6483742 L28.2468449,10.6483742 Z M23.1713199,8.56680793 L30.3018547,10.5497591 C29.8929717,9.3784097 29.5137151,8.29226366 29.1236674,7.1751525 L23.1817185,8.49955247 L23.1713199,8.56680793 L23.1713199,8.56680793 Z M12.1885736,28.6288543 C11.3054727,28.5264919 10.3988276,28.6205706 9.50316978,28.6361518 C8.76741584,28.6485773 8.0316619,28.6767812 7.29590795,28.6998571 C7.22017434,28.7022239 7.14463694,28.7176078 7.06909953,28.7996555 C13.1519208,29.364917 19.2345458,29.9301784 25.3171708,30.4958342 L25.3295314,30.4141809 C23.3796854,30.1465397 21.4296431,29.8788985 19.4797971,29.6114545 C17.0500432,29.2779385 14.6244097,28.9110905 12.1885736,28.6288543 L12.1885736,28.6288543 Z M6.16068866,25.8650692 C6.94451187,24.0367464 7.72499965,22.2072401 8.51196207,20.3802979 C8.59063869,20.1970712 8.58455646,20.072619 8.43053863,19.9250909 C8.10131327,19.6101145 7.79543583,19.2706815 7.4356031,18.8943665 C6.94922069,21.3084627 6.47480655,23.6627982 6,26.0169364 L6.05317048,26.0419846 C6.08946768,25.9834073 6.13380912,25.9279856 6.16068866,25.8650692 L6.16068866,25.8650692 Z M21.6095595,8.08418593 C22.931366,7.74140005 24.2724002,7.47336437 25.6055863,7.17436358 C25.6919148,7.1548378 25.7762812,7.12623944 25.8612363,7.10178291 L25.8480908,7.03630252 C23.9702506,7.29013763 22.0926065,7.54416997 20.1201973,7.81102227 C20.6579844,8.04710668 21.072361,8.22343036 21.6095595,8.08418593 L21.6095595,8.08418593 Z" id="Shape" fill="#18183c" fill-rule="nonzero"></path>
</svg>
