<svg width="40px" height="40px" viewBox="0 0 40 40" version="1.1" xmlns="http://www.w3.org/2000/svg" xmlns:xlink="http://www.w3.org/1999/xlink">
    <circle fill="#FFFFFF" cx="20" cy="20" r="20"></circle>
    <path d="M26.2703399,30.41916 C22.8804191,32.3785479 18.2193689,32.5798649 13.5299906,30.5688759 C9.73309054,28.9525262 6.58265056,26.1231875 4.56308003,22.8904882 C5.5324797,23.698663 6.66342176,24.3454936 7.87513502,24.9109253 C12.7179204,27.1821 17.559689,27.02657 20.9670424,24.9167395 C20.9648633,24.9145592 20.9634106,24.9131056 20.9619579,24.9109253 C16.1149595,21.1927397 11.9950473,16.3429639 8.92545116,12.3827619 C8.27891839,11.7360767 7.79421855,10.9277565 7.30951872,10.2003265 C11.0255023,13.5950968 16.9228894,17.8787141 19.0227953,19.0917031 C14.5803794,14.4032716 10.621719,8.58397681 10.7829708,8.74532106 C17.8112274,15.858277 24.355002,19.899878 24.355002,19.899878 C24.5714571,20.0219763 24.7385199,20.123725 24.8728965,20.2145719 C25.0145366,19.8540911 25.1387441,19.4798015 25.2433399,19.0917031 C26.374282,14.9694301 25.082088,10.2809986 22.2543697,6.40146871 C28.797418,10.3620341 32.6754524,17.798042 31.0593021,24.022151 C31.0171732,24.1900362 30.9714125,24.3557411 30.9220201,24.5185389 C30.9409054,24.541069 30.9597908,24.5643258 30.9786761,24.5883095 C34.2095241,28.6299104 33.3211862,32.9135277 32.9173302,32.1053528 C31.1646242,28.6735169 27.9199754,29.7229814 26.2704125,30.4192327 L26.2703399,30.41916 Z" id="Shape" fill="#18183c" fill-rule="nonzero"></path>
</svg>